<?xml version="1.0" encoding="utf-8"?>
<!-- Generator: Adobe Illustrator 19.0.1, SVG Export Plug-In . SVG Version: 6.00 Build 0)  -->
<svg version="1.1" id="Capa_1" xmlns="http://www.w3.org/2000/svg" xmlns:xlink="http://www.w3.org/1999/xlink" x="0px" y="0px"
	 viewBox="0 0 161.2 161.2" style="enable-background:new 0 0 161.2 161.2;" xml:space="preserve">
<style type="text/css">
	.st0{fill:none;}
	.st1{fill:#232424;}
	.st2{fill:#352918;}
	.st3{fill:#DB9F75;}
	.st4{fill:#FFFFFF;}
	.st5{fill:#3E4F71;}
	.st6{fill:#D8B29A;}
</style>
<g>
	<path class="st0" d="M103.8,46.4c0.4,0.4,0.7,0.6,1.4,1.1c0.7,0.5,0.8,1.5,1.1,1.9c0.3,0.4,0.9,0.8,1,0.4c0.1-0.4-0.8-1.4-0.9-1.7
		c-0.2-0.4-1-1.6-2.2-2.8c-1.2-1.2-0.6-0.5-1.1-1.1c0,0,0.4,0.1,1,0.5c0.6,0.4,0.7,0.5,1.4,1.1c0.4,0.3,0.2,0-0.1-0.4
		c-0.3-0.4-0.7-0.9-0.7-1c-0.1-0.2-0.4-0.7-0.7-0.9c-0.3-0.2-0.6-0.5-0.6-0.5s-0.1-0.1-0.3-0.2c0.1,0.6,0,1.1-0.1,1.6
		c-0.1,0.3-0.1,0.5-0.1,0.7c0,0.1,0,0.2,0.1,0.3l0,0.2c0,0.1,0,0.1,0,0.2C103.3,45.8,103.5,46.1,103.8,46.4z"/>
	<path class="st0" d="M50.2,64.2c0,0-0.2,1.2-0.4,1.4c-0.2,0.1-0.5,0.4-0.8,0.6c0.1,0.1,0.1,0.1,0.3,0.2c0.1,0.1,0.2,0.2,0.4,0.3
		c0.5-0.1,1,0.2,1.4,0.5c0.2,0.2,0.5,0.4,0.7,0.6c0-0.2,0-0.4,0.1-0.5c-0.1-0.3-0.7-1-0.8-1.5C50.9,65.3,50.2,64.2,50.2,64.2z"/>
	<path class="st1" d="M144.2,115.3c-1.2-0.4-3.8-1.1-6.7-1.9c-4.4-1.2-9.4-2.6-11.1-3.3c-1.6-0.6-5.8-1.8-9.1-2.7
		c1.4,1.4,2.8,2.9,3.2,3.6c0.2,0.5,1,1.8,1.9,3.4c1.7,2.9,3.7,6.6,4.4,7.9c0.3,0.5,0.8,1.7,1.6,3.1c6,11.8,6,11.8,5.9,12.4
		c-0.2,0.7-3.5,3.6-4,3.9c-0.5,0.3-2.7,2.1-4.4,3.6c0.3,0.2,0.6,0.5,0.9,0.7c0.1,0.1,0.2,0.1,0.2,0.2c10.5-7.4,19.1-17.3,25.1-28.7
		c-1-0.3-2.1-0.6-3.1-0.9C147,116.1,145.3,115.6,144.2,115.3z"/>
	<path class="st1" d="M123.8,146.4l-0.3-0.2c-4.1-3.5-9.3-7.8-10.2-8.7c-0.9-0.8-4.4-4.5-6.4-6.6c-0.1,2.1-0.1,4.4-0.1,6.5
		c0,1.4-0.1,2.8-0.1,4c0,0,0,0,0,0c0,0,0,0,0,0.1c0,1,0,2.2-0.1,3.1c-0.1,2.3-0.4,7.4-0.8,12.7c7-2.3,13.6-5.5,19.5-9.6
		c-0.5-0.4-1-0.7-1.2-1C124.1,146.5,123.9,146.5,123.8,146.4z"/>
	<path class="st1" d="M107.3,122.5c-0.1,0.9-0.2,2.8-0.3,5.6c1.2,1.2,6.6,6.9,7.7,7.9c0.6,0.7,4.1,3.6,9.6,8.2
		c1.3-1.1,4.3-3.6,4.9-4.1c0.5-0.4,2.3-2.1,3.1-2.8c-0.8-1.7-4-7.9-5.6-11.1c-0.7-1.5-1.3-2.6-1.6-3.1c-0.6-1.3-2.8-5.1-4.3-7.8
		c-0.9-1.7-1.7-3-1.9-3.4c-0.4-0.8-3.4-3.8-5.3-5.6c-0.4-0.1-0.6-0.2-0.6-0.2c-0.2,0-0.3-0.1-0.5-0.3c-0.5-0.5-4.7-4.9-5.4-6.1
		c-0.3-0.5-1-1.5-1.7-2.4c0,0,0,0.1,0,0.1c0.4,1.1,1.9,5,2,7.1C107.6,106.5,107.8,119.2,107.3,122.5z"/>
	<path class="st2" d="M104.2,42.7c0,0-0.4-0.8-0.9-1.2c-0.3-0.2-0.8-0.5-1.2-0.9c0,0,0,0,0,0.1c0.1,0.2,0.2,0.3,0.3,0.6l0.1,0.3
		c0.1,0.3,0.2,0.5,0.3,0.8c0.1,0,0.1,0.1,0.2,0.1C103.9,42.7,104.2,42.7,104.2,42.7z"/>
	<path class="st2" d="M110.6,44.5c-0.2-0.1-1.1-0.6-1.4-1c-0.3-0.4-1.4-0.8-1.4-0.8s-0.1,0.5,0.1,0.6s1,0.8,1.3,0.9s0.3,0.6,0.5,0.9
		c0.2,0.4,0.8,1.1,1.1,1.4c0.2,0.3-0.3,1.1-0.5,1.1c-0.2,0-0.9-0.8-1.2-1.3c-0.3-0.5-2.3-1.5-2.6-1.7c-0.3-0.2-0.2,0.4-0.1,0.6
		c0,0,0,0.1,0.1,0.1c0.3,0.3,1.3,0.8,1.8,1.2c0.6,0.4,0.8,0.8,1.3,1.3c0.5,0.5,0.4,0.5,0.6,0.9c0.2,0.4,0.7,0.6,1.3,1.1
		c-0.2-1-0.2-2.2-0.1-2.9c0-0.3,0.2-0.6,0.3-0.9c0-0.1,0.1-0.1,0.1-0.2c-0.5-0.4-0.8-1-0.9-1.8C110.7,44.3,110.7,44.5,110.6,44.5z"
		/>
	<path class="st2" d="M107.4,60.1c-0.4-0.2,0.2,1.4,0.5,1.8c0.1,0.2,0.5,0.7,0.7,1.1c0.2-0.1,0.4-0.2,0.6-0.2
		c-0.3-0.3-0.6-1-0.7-1.4C108.3,60.8,107.8,60.2,107.4,60.1z"/>
	<path class="st2" d="M98,24.6c-0.3-0.1-1.6-1.6-2.3-1.9c-0.4-0.2-0.9-0.1-0.6,0.2s0.8,0.9,1.1,1.4c0.3,0.5,0.5,1.9,0.8,1.6
		c0.4-0.3,0.4-0.7,0.6-0.6c0.2,0.1,0.3,0.5,0.8,1.2c0.5,0.7,1.6,1.5,1.2,1.6c-0.4,0.1-0.4,0.3-1,0.3c0,0,0,0,0,0
		c0,0.1,0.1,0.1,0.1,0.2c0,0,0,0,0,0c0.5,0.6,0.5,1.4,0.5,2.3c0,0.2,0,0.6,0,0.7c0.1,0.3,0.2,0.6,0.3,1.1c0.1,0.5,0.3,1.2,0.5,1.6
		c0.2,0.4,0.3,0.5,0.5,0.8c0.2,0.3,0.4,0.6,0.8,1.3c0.4,0.8,0.4,1.4,0.4,1.9c0.1,0,0.4,0.1,0.5,0.1c0.2,0.1,0.4-0.1,0.8,0.1
		c0.4,0.1,0.6,0.3,1.2,0.6c0.6,0.4,0.5,0.5,1.2,0.7c0.7,0.2,0.2-0.5,0.4-0.7c0.2-0.2-0.4-0.8-0.7-1.2c-0.4-0.4-0.6-0.4-1.2-0.5
		c-0.5-0.2-0.6-0.2-1.1-0.5c-0.5-0.3-1.2-0.9-1.5-1.2c-0.4-0.3,0.5-0.8,0.9-0.8c0.4,0,0.7,0.4,1,0.4c0.4,0,0.6,0.2,1.1,0.2
		s0.7,0.2,1.1,0.4c0.4,0.2,0.8,0.4,1.1,0.3c0.3-0.1,0.5,0.4,0.8,0.8c0.4,0.4,0.8,1.1,1,1.5c0.2,0.5-0.4,0.4-0.6,0.3
		c-0.2-0.1-0.6-0.5-1-0.6c-0.4-0.1,0.2,0.6,0.4,0.8c0.2,0.2,0.9,0.7,1.2,0.8c0.4,0.1,0.5,0.5,1,0.8c0.5,0.3,0,0.9,0,0.9
		s0.4,0.7,0.8,1c0.4,0.3,0.3,0.4,0.5,0.8c0,0,0,0.1,0.1,0.1c0,0,0,0,0-0.1c0-0.9,0.5-1.1,0.7-1.2c0,0,0,0,0,0c0-0.2,0-0.4,0-0.9
		c0-0.9-0.1-2.7-0.4-3.4c-0.5-0.9-0.5-1.9-0.5-2.8c0-0.3,0-0.7,0-0.9c-0.1-0.1-0.2-0.2-0.3-0.3c-0.3-0.3-0.5-0.6-0.7-0.9
		c-0.7-0.7-1.6-1.6-2-1.9c0.3,0.5,0.3,1.5,0.2,1.6c-0.2,0.1-1,0.4-1,0.4s-0.5,0.2-0.5,0.4c-0.1,0.2-1.7-0.8-1.9-1.1
		c-0.2-0.2-0.2-1-0.2-1s1.5,0.8,1.3,0.4c-0.1-0.4,0.1-0.9-0.4-1.4c-0.5-0.5-0.6-0.2-1.1-0.4c-0.5-0.2-1.6-0.3-1.7-0.6
		c-0.1-0.3,1.1-0.1,1.3-0.2c0.2-0.1,0.8,0,0.3-0.5c-0.5-0.5,0.6-0.5,0.4-1c-0.2-0.5-0.6,0-1.1-0.1c-0.5-0.1-1.5-0.6-1.2-0.6
		c0.2-0.1,1.5,0.1,1.2-0.4c-0.3-0.4-0.3-0.4-0.7-0.5c-0.4-0.1-0.9,0.1-1.3-0.4c-0.3-0.3-0.3-0.6-0.2-0.8c0,0,0,0-0.1,0
		c-0.3,0.1-0.6,0-0.9-0.3c-0.2-0.2-0.3-0.5-0.3-0.8l0,0l-0.5,0.9C99.1,24.9,98.3,24.7,98,24.6z"/>
	<path class="st2" d="M110.1,49.7c0,0-0.2,0.6-0.2,0.9c0.1,0.3-0.4,0.9-0.6,1.1c-0.2,0.2,0.1,0.9,0.4,1.5c0.3,0.6,0.6,1.6,0.9,1.9
		c0.2,0.3-0.1,0.9-0.1,0.9c0,0.2-0.1,0.4,0.2,1.1c0.3,0.6,0.7,0.8,1.1,1.2c0.4,0.4,0.6,0.7,0.8,1c0,0,0,0,0,0c0.1-0.3,0.1-0.5-0.1-1
		c-0.1-0.4-0.3-0.6-0.4-0.8c-0.3-0.4-0.4-0.8-0.4-1.6c0-0.4,0-0.7,0.1-1c0-0.4,0.1-0.7,0-1.5c-0.1-0.7-0.1-1.5-0.2-2.1
		c0-0.2,0-0.4,0-0.6c0,0.1-0.1,0.1-0.1,0.1C111.4,51.2,110.1,49.7,110.1,49.7z"/>
	<path class="st2" d="M111.3,59c-0.4-0.4-0.8-1.1-1.1-1.4c-0.2-0.3-1.3-1.6-2-2.2c-0.7-0.6,0.2,0.9,0.6,1.4c0.4,0.4,0.7,1.6,1.2,2.1
		c0.5,0.5,1.3,1,1.5,1.2c0.2,0.2,0.6,0.9,0.6,1.2c0,0.2-0.7-0.1-0.9,0.2c-0.3,0.2-0.5,0.1-0.4,0.5c0,0,0,0,0,0
		c0.1,0,0.1-0.1,0.2-0.1c0,0,0.1,0,0.1-0.1c0,0,0,0,0,0c0,0,0,0,0.1,0c0,0,0.1,0,0.1,0c0,0,0.1,0,0.1,0c0,0,0,0,0.1,0h0.7
		c0.3-0.5,0.6-1,0.5-1.2c0-0.2,0-0.3,0-0.5c-0.1,0-0.3,0-0.4,0C111.6,60,111.7,59.4,111.3,59z"/>
	<path class="st2" d="M103.2,40.5c0.4,0.2,0.4,0.3,0.8,0.6c0.4,0.4,0.7,0.1,1,0.1c0.3-0.1-0.7-0.7-0.7-0.7s-0.6-0.5-0.9-0.7
		c-0.2-0.2-0.6-0.4-1.1-0.6c-0.4-0.2-0.4-0.3-0.5-0.5c0,0.3,0,0.5,0,0.8c0,0.2,0.1,0.3,0.1,0.4c0.2,0.1,0.4,0.2,0.5,0.2
		C102.7,40.1,102.8,40.3,103.2,40.5z"/>
	<path class="st3" d="M46.1,66.1c-0.1,0-0.2,0-0.3,0.1c0.1,0.4,0.2,0.9,0.3,1.5c0-0.3,0-0.8,0-1.1C46.1,66.4,46.1,66.2,46.1,66.1z"
		/>
	<path class="st3" d="M57.3,83.7c0,0.1,0.1,0.6,0.2,1l0.1,0.5c0.2,0.7-0.1,1.3-0.3,1.7c0.3,1.1,1,4.3,1,6.1c0,2,0.5,5.4,0.5,5.4
		c0,0,0,0.1,0,0.1c0.1,0.4,0.2,1.2,0.3,1.8c0,0,0,0,0,0c0,0,0,0,0,0.1l0,0.2c0,0.2,0,0.3,0,0.4c0,0.2,0.3,1.2,0.5,2
		c0.4,1.5,0.9,3.6,1.3,5.1c0.4,2,2.7,4.9,6.8,8.4c3.2,2.8,12.6,9.3,13.5,9.7c0.4,0.2,0.8,0.4,1,0.7l2.9-0.1c0.5-0.5,1.3-1.3,2-1.8
		c0.7-0.6,5.6-6.2,8.4-9.6c2.8-3.3,5.9-9.2,6.7-11.9c0.3-1.1,0.7-2.9,0.9-4.1c0.2-1.3,0.3-1.7,0.4-2c0.1-0.3,0.1-1.3,0.1-2.1
		c0,0,0,0,0,0c-0.2-0.2-0.3-0.6-0.3-0.9c0,0,0.4-2.2,0.7-3.9c0.2-1.7,0.6-6.1,0.7-6.2c0-0.3,0.2-0.5,0.4-0.7
		c0.2-0.2,0.5-0.2,0.8-0.2c0.5,0.1,1.1,0.1,1.3,0c0.2-0.5,0.3-1.6,0.5-2.5c0.1-0.8,0.3-1.6,0.4-2.3c0.1-0.4,0.3-1,0.5-1.7
		c0.6-2,1.4-5.1,1.6-7.2c0.1-1.7,0.2-3.8,0.3-5.3c-0.1,0-0.2,0-0.3,0.1c0,0.4,0,0.8-0.3,1.1c-0.1,0.1-0.5,0.6-0.9,1.1
		c-0.1,0.1-0.2,0.3-0.4,0.6c-0.6,0.8-0.9,1.3-1.2,1.5c0,0.1,0,0.2,0.1,0.4c0,0.1,0.2,0.2,0.3,0.2c0.4,0.3,1.1,0.8,0.9,1.9
		c0,0.2-0.1,0.5-0.1,0.8c-0.1,1.2-0.2,1.8-0.5,2.2c-0.1,0.1-0.2,0.5-0.2,0.7c-0.1,0.4-0.5,0.7-0.9,0.7c-0.1,0-0.1,0-0.2,0
		c-0.5-0.1-0.8-0.6-0.7-1.1c0.2-0.7,0.3-1.1,0.6-1.4c0.1-0.2,0.1-0.9,0.2-1.3c0-0.3,0.1-0.6,0.1-0.9c-0.1,0-0.1-0.1-0.2-0.1
		c-0.2-0.2-0.6-0.4-0.8-0.8c-0.3-0.5-0.4-1.1-0.3-1.5c-0.1-0.1-0.2-0.2-0.2-0.4c0-0.1-0.6-2-0.8-3.5l0,0c0,0,0-0.1,0-0.1
		c-0.1-0.3-0.1-0.7-0.3-1.1c0,0,0,0,0,0c-0.1-0.2-0.1-0.4-0.2-0.6c-0.3-0.8-0.5-1.4-0.4-1.9c0-0.2,0-0.5,0-0.7c0,0,0,0,0-0.1
		c0,0,0,0,0,0c0-0.3-0.1-0.5-0.2-0.6c-0.2-0.4-0.4-1.3-0.7-2.6c-0.1-0.5-0.3-1.1-0.3-1.3c-0.1-0.4-0.2-1-0.2-2c0-0.4,0-0.7,0-0.7
		c0-0.9,0-1.4,0-1.8c0-0.2,0-0.4,0-0.5c0-0.2,0-0.4-0.1-0.7c-0.2-1-0.4-1.9-0.5-2.7l0-0.2c-0.1-0.4-0.1-0.6-0.1-0.7
		c0-0.1,0-0.2,0-0.4l0-0.2c0-0.1,0-0.2,0-0.3c-0.1-0.5,0-1,0.1-1.4c0.1-0.5,0.2-0.9-0.2-1.5l-0.1-0.3c-0.1-0.2-0.2-0.4-0.3-0.5
		c-0.4-0.7-0.5-0.8-0.6-1.8c-0.1-0.6-0.1-1-0.1-1.4c0-0.5,0-0.7-0.2-1.2c-0.3-0.6-0.5-0.8-0.6-1.1c-0.2-0.3-0.4-0.5-0.6-1
		c-0.3-0.6-0.5-1.3-0.7-1.9c-0.1-0.3-0.2-0.7-0.2-0.8c-0.2-0.4-0.2-0.8-0.2-1.4c0-0.3,0-1-0.1-1.2c-0.1-0.1-0.2-0.3-0.2-0.4
		c0,0-0.1,0-0.1,0c-0.2-0.1-0.5-0.1-0.9-0.1c-0.4,0-0.8,0.1-0.8,0.1c-0.1,0-0.2,0-0.4,0c-0.6-0.1-1.3-0.5-2.2-1.2
		c-0.3-0.2-0.5-0.4-0.6-0.5c-0.4-0.2-0.8-0.5-1.2-0.7c-0.6-0.3-1.1-0.7-1.6-0.8c-0.1,0-0.2,0-0.3,0c-0.6,0.1-1.3,0.3-1.7,0.4v0
		c0,0,0,0,0,0c-0.1,0-0.1,0-0.2,0.1c0,0-0.1,0.1-0.1,0.2l0.7,0.6c0.2,0.2,0.4,0.5,0.3,0.9c0,0.3-0.2,0.6-0.5,0.7c0,0,0,0,0,0
		c0,0,0,0,0,0v0c0,0,0,0,0,0c0.4,0.2,0.6,0.6,0.5,1c0,0.2-0.1,0.4-0.2,0.6c0.3,0.3,0.5,0.7,0.7,0.9c1.1,1.6,0.6,2.1,0.4,2.3
		c-0.3,0.3-0.9,0.4-1.2,0.1c0,0-0.3-0.2-0.6-0.4c0,0.1-0.1,0.2-0.2,0.3c-0.2,0.2-0.5,0.4-0.7,0.4c-0.1,0-0.3,0.1-0.4,0.2
		c-0.3,0.2-0.7,0.1-1-0.1l-1.4-1.1c-0.2-0.1-0.4-0.2-0.7-0.3c0,0.1,0,0.3-0.1,0.4c-0.6,1.6-1.2,1.7-1.4,1.7
		c-0.8,0.1-1.2-0.6-1.6-1.3c-0.1-0.2-0.3-0.5-0.4-0.7c-0.1,0.3-0.1,0.9-0.2,1.1c0,0.4-0.4,0.8-0.8,0.8c-0.4,0.1-1.2,0.2-1.6,0.2
		c-0.3,0-0.6-0.1-0.9-0.2c-0.1,0-0.2-0.1-0.2-0.1c0,0,0,0,0,0c-0.2,0.2-0.5,0.6-0.9,0.7c0,0,0,0,0,0c-0.2,0.2-0.5,0.7-1.1,0.7
		c-0.3,0-0.6-0.1-1-0.5c-0.1-0.1-0.1-0.1-0.2-0.2c-0.2,0.2-0.4,0.3-0.7,0.3c-0.6,0.1-1.6,0-1.8,0L68,35.8c-2.2,0.6-2.4,0.6-2.8,0.3
		C65.1,36,65,35.9,65,35.8c0,0-0.1-0.1-0.2-0.1c-0.1,0-0.3,0.1-0.6,0.2c-0.7,0.5-4.1,2.8-4.2,2.9c0,0,0,0,0,0s0,0,0,0
		c0,0-0.1,0-0.2,0.1c-0.1,0-0.2,0-0.3,0c-0.5,0-1-0.4-1-1c0-0.2,0.1-0.4,0.2-0.6c0,0,0,0,0,0c0,0,0.1-0.1,0.1-0.1c0,0,0,0,0,0
		l3.1-2.6c-0.3-0.1-0.6-0.3-0.9-0.5c-0.1,0-0.2-0.1-0.2-0.1c-0.3,0-1,0-1.6,0c-0.5,0.1-1.3,0.3-2,0.5c-0.3,0.1-0.5,0.1-0.6,0.1
		c-0.2,0.1-0.7,0.6-0.9,1.1c-0.1,0.3-0.2,0.9-0.2,1.4c0,0.6-0.1,1.1-0.3,1.4l-0.1,0.2c-0.2,0.3-0.5,0.9-0.6,1.1
		c0,0.2-0.1,0.5-0.2,0.9c-0.1,0.3-0.2,0.8-0.3,0.9c0,0.1,0,0.2,0,0.3c0,0.4,0.1,1,0.2,1.3c0,0,0,0,0,0c0,0,0,0.1,0,0.1
		c0.5,0.7,0.1,1.6-0.5,3.3c-0.2,0.5-0.4,1-0.5,1.4l-0.1,0.4C53,49,52.9,49.6,52.8,50c0,0.1,0,0.2-0.1,0.3c0.1,0.2,0.2,0.4,0.3,0.6
		c0.2,0.4,0.3,0.9,0.3,1c0,0.1,0,0.3,0,0.4c0,0-0.1,0.5-0.1,1.1c-0.1,0.6,0,0.8,0,0.9c0.4,0.8-0.2,1.6-0.5,2.1c0,0-0.1,0.1-0.1,0.2
		c0.1,0.2,0.2,0.5,0.4,1c0.3,1,0.5,2.7,0.6,3.6l0,0.1c0.1,0.9,0.3,3.5,0.3,3.6c0,0,0,0.1,0,0.1c0,0.1-0.1,2-0.3,3.3
		c-0.1,1-0.2,1.2-0.3,1.4c-0.2,0.3-0.2,0.5-0.2,0.5c-0.1,0.3-0.3,0.5-0.5,0.6c0.4,0.3,0.6,0.8,0.3,1.3c-0.5,0.8-1.1,2.3-1.1,2.9
		c0.1,1,0.3,1.6,0.5,2c0.2,0.3,1,1.4,1.5,2c0.3,0.4,0.2,1-0.2,1.3c-0.2,0.1-0.4,0.2-0.6,0.2c-0.3,0-0.6-0.1-0.8-0.4
		c-0.2-0.3-1.4-1.8-1.6-2.3c-0.3-0.5-0.7-1.4-0.8-2.8c-0.1-1.4,1.1-3.6,1.3-4c0.1-0.2,0.3-0.3,0.5-0.4c-0.1-0.1-0.2-0.2-0.3-0.3
		c0,0-0.6-0.9-1.5-1.5c0,0-0.1-0.1-0.1-0.1c-0.4,0.1-0.8,0.1-1.3-0.4c-0.1-0.1-0.3-0.2-0.4-0.4c0,0.2,0,0.3,0,0.4c0,0.4,0,1.9,0,2.4
		c0,0.5-0.4,1-0.9,1c0,0,0,0,0,0c0,0-0.1,0-0.1,0c0.2,0.8,0.4,1.5,0.5,1.9c0.2,0.5,0.4,1,0.5,1.7c0.6,1.8,1.4,4.4,2.5,5.7
		c0.5,0.5,0.8,1,1.1,1.4c0.8,1,1.1,1.4,1.9,2c0.6,0.4,1.5,0.8,2.1,1.1l-0.1-0.3c-0.2-0.7-0.3-1.1-0.3-1.4c0-0.5,0.4-1,1-1
		S57.3,83.2,57.3,83.7z M93.6,114.7c0,0-2.3,0.6-4,1.3c-0.1,0-0.3,0.1-0.5,0.3c-0.9,0.5-2.7,1.6-6.8,2.4c-0.9,0.2-1.8,0.3-2.7,0.3
		c-4.3,0-8.4-1.6-8.6-1.7c-0.5-0.2-0.7-0.8-0.5-1.2c0.2-0.5,0.8-0.7,1.2-0.5c0.1,0,5.7,2.3,10.3,1.4c3.8-0.7,5.4-1.7,6.2-2.1
		c0.3-0.2,0.5-0.3,0.7-0.4c1.9-0.7,4.1-1.4,4.2-1.4c0.5-0.1,1,0.2,1.2,0.7C94.4,114,94.1,114.5,93.6,114.7z M88.3,59.5
		c1-0.3,1.4-0.1,2.7-0.1c2.1-0.1,2.5,0,3.5,0c1.1-0.1,2.4-0.1,3-0.1c0.6,0,1.8,1.5,1.8,1.5l-0.9-0.1c0,0-1-0.6-1.8-0.7
		c-0.8-0.1-3.4,0.1-3.5,0.2c-0.2,0.1-0.9,0.5-1.3,0.6c-0.5,0.1-1.9,0.6-2.9,0.7c-1,0.1-2.2-0.3-2.2-0.3C86.6,61,86,60.7,86,60.7
		S87.4,59.7,88.3,59.5z M92.5,65.4c0,1.1-0.9,2.1-2.1,2.1s-2.1-0.9-2.1-2.1c0-1.1,0.9-2.1,2.1-2.1S92.5,64.3,92.5,65.4z M76.1,84
		c0.6,0.4,1.2,0.9,1.2,0.9s-1.1,0.6-1.8,0.4c-0.6-0.2-1.3-1-1.6-1.4C73.9,83.9,75.5,83.6,76.1,84z M73.3,84.4c0,0,4.1,2.7,4.6,2.7
		c0.4,0,4,0.8,4.8,0c0.6-0.6,2.4-1.8,3.1-2.2c-0.5,0-0.9-0.5-1.1-0.5c0,0,0.9-1,1.5-1c0.5,0,1.1,0.2,1.3,0.3l1.9-1.3
		c0,0,1.8,2.8,2.2,3c0.3,0.2,1.1,1.6,2,1.2c0.9-0.4,1.8-1.7,2.1-0.8c0.3,1,1.6,2,1.9,2.8s0.8,2.7-0.6,3.7c-0.7,0.5-1.5,2.3-1.4,2.8
		c0.1,0.5,0.3,1.6,0.3,2.8c0,1.2,1.2,2.5,0.9,2.9c-0.3,0.4-0.6,2-1.5,2.6c-0.9,0.6-1.1,1.8-1.7,1.3c-0.6-0.5-1.4-0.5-1.4-0.5
		s-1.1,1.9-1.4,2.2c-0.3,0.3-1,1.4-0.7,1.9c0.3,0.5,1.5,0.9,1.5,1.4c0,0.4-0.9,2.4-1.4,2.8c-0.5,0.3-3.1,3-7.1,3.5
		c-4,0.5-6.6-0.4-7.3-1.1c-0.7-0.7-1.9-1.5-2.8-2.1c-0.9-0.6-2.2-3-2.9-4c-0.8-0.9-1.5-1.9-1.6-2.6c-0.1-0.7,0.6-0.7,0.4-1.8
		c-0.2-1.1-1.6-4.4-1.6-4.4c-0.3-1.1-0.2-1.7-0.3-2.2c-0.2-0.4-0.2-0.9-0.7-1.4c-0.5-0.4-0.5-2.2-0.5-2.2L65,89.7l0.2-1.3l3.5-2.8
		l1.7-0.5L73.3,84.4z M65.6,66.4c0-1.1,0.9-2.1,2.1-2.1s2.1,0.9,2.1,2.1s-0.9,2.1-2.1,2.1S65.6,67.5,65.6,66.4z M60,61.5
		c0.4-0.5,0.8-0.3,1.2-0.5c0.5-0.1,1.7,0.1,2.6,0.2c0.9,0,2.4,0.4,3.3,0.6c0.9,0.2,3.7,0,3.7,0l1,0.7c0,0-0.7,0.3-1,0.4
		c-0.3,0.1-1.5,0.3-2.8,0.5c-1.2,0.2-3.6-0.7-4.5-1c-0.9-0.3-2.9-0.2-2.9-0.2l-1.3,1.1c-0.4,0.1-0.7-0.3-0.7-0.3S59.6,62,60,61.5z"
		/>
	<path class="st4" d="M110.1,42.7c-0.4-0.3-0.8-1-0.8-1s0.5-0.6,0-0.9c-0.5-0.3-0.7-0.7-1-0.8c-0.4-0.1-1.1-0.6-1.2-0.8
		c-0.2-0.2-0.7-0.9-0.4-0.8c0.4,0.1,0.8,0.5,1,0.6c0.2,0.1,0.9,0.2,0.6-0.3c-0.2-0.5-0.6-1.1-1-1.5c-0.4-0.4-0.5-0.9-0.8-0.8
		c-0.3,0.1-0.7-0.1-1.1-0.3c-0.4-0.2-0.7-0.4-1.1-0.4s-0.7-0.2-1.1-0.2c-0.4,0-0.6-0.4-1-0.4c-0.4,0-1.2,0.5-0.9,0.8
		c0.4,0.3,1.1,0.9,1.5,1.2c0.5,0.3,0.5,0.3,1.1,0.5c0.5,0.2,0.8,0.1,1.2,0.5c0.4,0.4,0.9,0.9,0.7,1.2c-0.2,0.2,0.3,0.9-0.4,0.7
		c-0.7-0.2-0.6-0.4-1.2-0.7c-0.6-0.4-0.8-0.5-1.2-0.6c-0.4-0.1-0.6,0-0.8-0.1c-0.1,0-0.4-0.1-0.5-0.1c0,0.1,0,0.2,0,0.3
		c0,0,0,0,0,0.1c0.1,0.2,0.2,0.3,0.5,0.5c0.5,0.2,0.9,0.4,1.1,0.6c0.2,0.2,0.9,0.7,0.9,0.7s1,0.6,0.7,0.7c-0.3,0.1-0.6,0.3-1-0.1
		c-0.4-0.4-0.4-0.5-0.8-0.6c-0.4-0.2-0.5-0.4-0.8-0.4c-0.2,0-0.4-0.1-0.5-0.2c0.1,0.3,0.1,0.4,0.3,0.7c0.4,0.3,0.9,0.6,1.2,0.9
		c0.5,0.4,0.9,1.2,0.9,1.2s-0.3-0.1-1-0.4c-0.1,0-0.1-0.1-0.2-0.1c0,0.2,0.1,0.3,0.1,0.5c0.2,0.1,0.3,0.2,0.3,0.2s0.3,0.3,0.6,0.5
		c0.3,0.2,0.6,0.8,0.7,0.9c0.1,0.1,0.4,0.6,0.7,1c0.3,0.4,0.5,0.7,0.1,0.4c-0.7-0.6-0.8-0.8-1.4-1.1c-0.6-0.4-1-0.5-1-0.5
		c0.4,0.6-0.1-0.1,1.1,1.1c1.2,1.2,2,2.5,2.2,2.8c0.2,0.4,1,1.3,0.9,1.7c-0.1,0.4-0.7,0.1-1-0.4c-0.3-0.4-0.4-1.4-1.1-1.9
		c-0.7-0.5-1.1-0.8-1.4-1.1c-0.3-0.3-0.5-0.7-0.7-0.7c0,0.1,0,0.2,0,0.3c0,0.1,0,0.3,0.1,0.6l0,0.3c0.1,0.8,0.2,1.6,0.5,2.5
		c0.1,0.4,0.2,0.8,0.2,1.1c0,0.2,0,0.4,0,0.6c0,0.4,0,0.9,0,1.7c0,0,0,0.3,0,0.7c0,1,0.1,1.4,0.2,1.5c0.1,0.3,0.2,0.8,0.4,1.4
		c0.2,0.7,0.5,2,0.6,2.2c0.2,0.4,0.3,0.8,0.3,1.3c0,0.1,0,0.1,0,0.2c0,0.3,0,0.7,0,1c0,0.2,0.2,0.7,0.3,1.1c0.1,0.2,0.1,0.4,0.2,0.6
		c0,0,0,0,0,0v0c0.2,0.5,0.3,1,0.3,1.4c0,0.1,0,0.1,0,0.2c0.1,0.7,0.3,1.5,0.5,2.2c0.1-0.1,0.2-0.3,0.3-0.4c0.2-0.3,0.4-0.5,0.5-0.7
		c0.3-0.4,0.6-0.7,0.8-0.9c0,0,0-0.1,0-0.1c-0.1-0.5-0.1-1,0.3-1.4c0,0,0.1-0.1,0.2-0.1c-0.2-0.4-0.6-0.9-0.7-1.1
		c-0.2-0.4-0.8-2-0.5-1.8c0.4,0.2,0.9,0.8,1.1,1.2c0.1,0.4,0.4,1.2,0.7,1.4c0.1,0,0.2,0,0.3,0c0.2,0,0.4-0.1,0.6-0.1
		c0.1,0,0.2-0.2,0.3-0.3c0.1-0.1,0.2-0.3,0.4-0.4c0,0,0,0,0,0c-0.1-0.4,0.1-0.2,0.4-0.5c0.3-0.2,0.9,0.1,0.9-0.2
		c0-0.2-0.4-1-0.6-1.2c-0.2-0.2-1-0.6-1.5-1.2c-0.5-0.5-0.8-1.7-1.2-2.1c-0.4-0.4-1.3-1.9-0.6-1.4c0.7,0.6,1.8,1.9,2,2.2
		c0.2,0.3,0.7,1,1.1,1.4c0.4,0.4,0.3,1,0.9,1c0.2,0,0.3,0,0.4,0c0-0.2,0-0.4,0.1-0.6c-0.3-0.3-0.5-0.6-0.8-1
		c-0.4-0.5-0.8-0.6-1.1-1.2c-0.3-0.6-0.2-0.9-0.2-1.1c0,0,0.4-0.6,0.1-0.9c-0.2-0.3-0.6-1.4-0.9-1.9c-0.3-0.6-0.6-1.4-0.4-1.5
		c0.2-0.2,0.6-0.8,0.6-1.1c-0.1-0.3,0.2-0.9,0.2-0.9s1.3,1.5,1.4,1.2c0,0,0.1-0.1,0.1-0.1c0-0.4-0.1-0.7-0.1-0.9c0,0,0-0.1,0-0.1
		c-0.6-0.5-1-0.7-1.3-1.1c-0.2-0.4-0.1-0.4-0.6-0.9c-0.5-0.5-0.7-0.9-1.3-1.3c-0.6-0.4-1.5-0.9-1.8-1.2c0,0-0.1-0.1-0.1-0.1
		c-0.1-0.2-0.2-0.9,0.1-0.6c0.3,0.2,2.3,1.2,2.6,1.7c0.3,0.5,1,1.3,1.2,1.3c0.2,0,0.8-0.8,0.5-1.1c-0.2-0.3-0.9-1-1.1-1.4
		c-0.2-0.4-0.2-0.8-0.5-0.9s-1.1-0.8-1.3-0.9s-0.1-0.6-0.1-0.6s1.1,0.5,1.4,0.8c0.3,0.4,1.2,0.9,1.4,1c0.1,0,0.2-0.2,0.2-0.4
		c0-0.2,0-0.3,0-0.5c0,0,0-0.1-0.1-0.1C110.4,43.1,110.6,43,110.1,42.7z M106,52.3c-0.4-0.6-0.8-1.2-1-1.6c-0.2-0.4-0.2-1.2-0.4-1.4
		c-0.2-0.2,0.5,0,0.9,0.6c0.4,0.6,1,1.1,1,1.7C106.5,52.2,106.4,52.9,106,52.3z"/>
	<path class="st4" d="M101,25.9c0.4,0.5,0.9,0.3,1.3,0.4c0.4,0.1,0.4,0.1,0.7,0.5c0.3,0.4-0.9,0.3-1.2,0.4c-0.2,0.1,0.8,0.6,1.2,0.6
		c0.5,0.1,0.8-0.4,1.1,0.1c0.2,0.5-0.9,0.5-0.4,1c0.5,0.5-0.1,0.4-0.3,0.5c-0.2,0.1-1.4-0.1-1.3,0.2c0.1,0.3,1.2,0.4,1.7,0.6
		c0.5,0.2,0.6-0.1,1.1,0.4c0.5,0.5,0.3,1,0.4,1.4c0.1,0.4-1.3-0.4-1.3-0.4s0,0.8,0.2,1c0.2,0.2,1.9,1.2,1.9,1.1
		c0.1-0.2,0.5-0.4,0.5-0.4s0.8-0.3,1-0.4c0.2-0.1,0.1-1.2-0.2-1.6c0.3,0.4,1.2,1.3,2,1.9c-0.1-0.2-0.2-0.4-0.3-0.6
		c-0.1-0.3-0.2-0.6-0.2-1c-0.1-0.5-0.2-1.3-0.5-1.5c-0.6-0.4-1.1-1-1.5-1.6c-0.2-0.3-0.5-0.6-0.6-0.7c-0.2-0.2-0.6-0.5-1.1-1.1
		c-0.5-0.5-1.4-1.4-1.6-1.5l-0.2-0.1c-0.3-0.1-0.8-0.3-1-0.4c-0.2,0-1,0.2-1.7,0.3C100.7,25.3,100.8,25.5,101,25.9z"/>
	<path class="st4" d="M104.1,104c-0.9,3-4.1,9-7.1,12.6c-1.6,1.9-7.7,9.1-8.7,9.9c-0.4,0.3-0.8,0.7-1.2,1.1c0.3,0.2,0.6,0.4,1,0.7
		c0.1,0.1,0.2,0.2,0.4,0.2c1.7,1.2,4.9,3.7,7.3,6.7c0.5,0.6,1,1.3,1.6,2.1c2.6,3.5,5.9,8.1,5.9,8.1c0,0,0.1,0.1,0.1,0.1
		c0.3-0.7,0.8-2.2,1.5-4.3c0-1.2,0-2.5,0.1-3.9c0.1-2.8,0.1-6,0.2-8.7c0.1-3.3,0.2-5.3,0.3-6.3c0.4-2.9,0.3-14.8,0.2-17.5
		c0-0.9-0.4-2.3-0.8-3.6C104.6,102.2,104.4,103.2,104.1,104z"/>
	<path class="st2" d="M104.6,49.3c0.2,0.2,0.2,1,0.4,1.4c0.2,0.4,0.6,1,1,1.6c0.4,0.6,0.5-0.1,0.5-0.7c0-0.6-0.6-1.1-1-1.7
		C105.1,49.3,104.4,49.1,104.6,49.3z"/>
	<path class="st4" d="M104.4,147.3c-0.2,0.2-0.6,0.4-0.9,0.4c0,0-0.1,0-0.1,0c-0.6-0.1-1.2-0.5-1.7-1.2c0,0-2.5-3.4-4.8-6.6
		c-0.6,2-1.4,4.7-1.6,5.5c-0.2,1.2-0.2,2.1-0.1,3.6c0,0.2,0.1,0.5,0.3,1c0.4,1.4,1.2,3.4,1.9,5.3c0.6,1.5,1,2.6,1.2,3.2
		c0.1,0.2,0.1,0.4,0.2,0.8c1.8-0.4,3.5-0.9,5.2-1.4c0.3-3.9,0.5-7.9,0.7-10.7C104.5,147.2,104.5,147.2,104.4,147.3z"/>
	<path class="st5" d="M95.6,155.8c-0.6-1.5-1.2-3.1-1.6-4.5c-0.6,0.2-1.4,0.4-1.8,0.4c-0.2,0-0.6,0-1.1,0.1c-1,0.1-2.3,0.2-3.5,0.2
		c-1.2,0-3.1,0-4.1-0.1c-0.4,1.8-1.3,6.3-1.5,7.4c-0.1,0.3-0.1,0.9-0.2,1.8c5.2-0.1,10.3-0.6,15.2-1.6c-0.1-0.3-0.1-0.5-0.2-0.6
		C96.6,158.4,96.1,157.1,95.6,155.8z"/>
	<path class="st2" d="M49.2,64c-0.5-0.2-1.3-0.3-1.3,0c0,0.1-0.1,0.4-0.2,0.6c0,0,0,0,0,0c0,0,0.1,0.1,0.1,0.2
		c0.1,0.1,0.2,0.2,0.3,0.2c0,0,0.1-0.1,0.2-0.1C48.8,64.6,49.7,64.2,49.2,64z"/>
	<path class="st2" d="M47.5,63.2c0.2-0.1,0.5-0.5,0.9-0.4c0.4,0.1,0.9-0.2,0.8-0.5c-0.1-0.3,0.6-0.7,0.2-0.9
		C49,61.2,49,60.7,49,60.7L48.4,60c0,0-0.7,0.8-0.8,1.1c-0.1,0.2-0.5,1.2-0.7,1.2c-0.2,0-0.7,0.1-0.7-0.1c0-0.2,0.4-0.5,0.3-0.8
		c-0.1-0.2-0.5-0.7-0.6-0.6s-0.6-0.5-0.5-0.6c0.1-0.2,0.5,0.1,0.9-0.2c0.4-0.3,1.1-0.9,1.1-0.9s0.6-0.3,0.6-0.8
		c0-0.5,0.2-1.4,0.1-1.2c-0.1,0.2-0.9,0.4-1,0.4c0.1-0.1,1-1,0.9-1.3c-0.1-0.4,0-0.9,0.2-1.1c0.2-0.2,0.8-0.9,0.7-1.3
		c-0.1-0.4-0.4-0.7-0.4-0.7s-0.4,1.1-0.7,1.1c-0.2,0-0.9,0.1-0.9,0.1s-0.8,1-1,1.1c-0.2,0.1-0.9,0.5-0.9,0.5l0.3-0.8
		c0,0,1.1-1.2,1.5-1.5c0.4-0.3,1.4-1.3,1.7-1.5c0.3-0.2,0.9-1.1,0.9-1.1s-0.1-0.6-0.6-0.7c-0.5-0.1-0.3-0.4-1.1,0.5
		c-0.8,0.9-1.6,1.5-1.9,1.9c-0.2,0.4-1.2,1.1-1.2,0.9c0-0.2,0.9-1.6,1.3-2c0.4-0.4,1.4-1.6,1.6-2.1c0.2-0.5,0-1.2,0.5-1.8
		c0.5-0.6,0.6-1.2,0.9-1.5c0.4-0.3,0.4-1.1,0.9-1.4c0.5-0.4,1.2-0.9,1.3-1.2c0.1-0.2,0.2-0.8-0.1-0.9c-0.3-0.1-1.1,0.3-1.2,0.6
		c-0.1,0.4-0.4,1.1-0.9,1.4c-0.5,0.4-1.1,0.8-1.3,1c-0.2,0.2-1.1,0.4-1.3,0.5c-0.2,0.2-0.3-0.8,0.1-1.2c0.4-0.4,1.3-1.1,1.6-1.4
		s1.5-0.9,1.5-1.1c0-0.2,0.3-0.8,0.3-1.1c0-0.3,0.9-0.4,0.9-0.4l0.5-0.5c0,0,0.4-0.7,0.1-0.8c-0.3-0.1-0.9-0.4-1.5-0.4
		c-0.6,0-1.1,0-1.4,0.3c-0.2,0.3-0.8,1.1-1.1,0.8c-0.2-0.4,0.4-1.1,0.4-1.1s-0.4-1-0.2-0.9c0.2,0.1,1.4,0.1,1.6-0.1
		c0.2-0.2,1.3-0.4,0.9-0.6c-0.4-0.2-1.5-0.3-1.5-0.3l1.6-0.5l0.7-0.5c0,0-1.1,0.2-1.6,0.1c-0.5-0.2-0.1-0.7,0.2-0.9
		c0.4-0.2,1.2-0.6,1.5-0.6s1-0.5,0.9-0.1c-0.1,0.4-0.5,0.7-0.4,0.8c0.2,0.1,0.5,0.2,0.8,0.1c0.2-0.1,1.2-0.6,1.2-0.6s0.1,0,0.2,0.1
		c0-0.2,0.1-0.4,0.2-0.5c0.4-1,1.6-2,2.1-2.1c0,0,0.4-0.1,0.8-0.2c0.6-0.1,1.6-0.4,2-0.5c0.1,0,0.1,0,0.2,0c1.9-0.1,2.1,0,2.2,0
		c0.2,0,0.4,0.2,0.7,0.4c0.2,0.1,0.7,0.4,0.9,0.5c0.6-0.1,1.4-0.1,1.4-0.1c0.4,0,0.8,0.2,0.9,0.6c0.1,0.2,0.1,0.3,0.1,0.5
		c0.2,0.1,0.5,0.2,0.7,0.4c0.4-0.1,1-0.2,1.5-0.4c0.1,0,0.2,0,0.3,0l1.9,0.2c0.4,0,1,0,1.3,0c0,0,0,0,0,0c0.1-0.3,0.2-0.4,0.5-0.6
		c0.2-0.1,0.5-0.1,0.8,0c0.1,0,0.6,0.2,1.1,0.6c0.1-0.1,0.3-0.2,0.5-0.3c0,0,0.1-0.1,0.1-0.1c0.2-0.3,0.7-0.8,1.3-0.8
		c0.4,0,0.8,0.2,1.1,0.3c0.1,0,0.2,0.1,0.3,0.1c0.1,0,0.3,0,0.5-0.1c0-0.2,0.1-0.4,0.1-0.6c0.1-0.6,0.6-1.1,1.2-1.4
		c0.5-0.2,1.1-0.2,1.6,0.1c0.2,0.1,0.4,0.4,0.6,0.6c0-0.6,0.2-0.8,0.3-1c0.2-0.2,0.4-0.3,0.6-0.3c-0.3-0.1-0.6-0.2-0.8-0.3
		c-0.5-0.2-3.7-0.9-3.9-1.1c-0.2-0.2-1.1,0-1.1,0L75,30c0,0-0.6,0.3-0.8,0.2c-0.2-0.1-0.5-0.6-0.8-0.6c-0.3,0-0.7,0.4-0.9,0.6
		c-0.2,0.2-0.7,0.5-0.9,0.5c-0.3,0-0.3-0.6-0.5-0.9c-0.2-0.3-0.6,0.5-0.9,0.6c-0.2,0.1-1,0.1-1.4,0.3c-0.4,0.2-0.9,0-1.5-0.2
		c-0.6-0.2-2.1,0.7-2.3,0.7c-0.2,0-1.6,0.1-2.1,0.1c-0.5,0.1-1.1-0.5-1.1-0.8c0-0.3,0.6-0.4,1-0.4c0.4,0.1,1.7-0.1,2.4-0.2
		c0.6-0.1,1-0.5,1.3-0.6c0.3-0.2-0.9-0.3-1.3-0.3c-0.4,0-1.2,0-1.9-0.4c-0.6-0.4-0.6-0.9-0.7-1.2c-0.1-0.4,1.2-0.5,1.2-0.5
		s0.8-0.4,0.5-0.4c-0.2,0.1-1.8-0.1-1.6-0.2c0.2-0.1-0.5-0.7-0.9-1c-0.4-0.3-0.8-1-1.2-1.8c-0.4-0.8,0.2-0.2,0.6-0.3
		c0.4-0.1,0.8,0.2,1.2,0.2c0.4,0.1,1.6,0.4,1.9,0.3c0.3-0.1-1.1-0.5-1.4-0.6c-0.2-0.1-1.1-0.3-1.7-0.5c-0.6-0.2-0.6-0.9-0.6-1.3
		c0-0.4,0.9,0.4,1.4,0.4c0.5,0.1,1.2,0.2,1.8,0.2c0.6,0,1.4,0.6,1.9,0.5c0.5-0.1,0.8-0.3,0.8-0.7c0-0.4-1.4-0.4-1.4-0.4
		s0.2-0.4,0.4-0.6c0.2-0.2,1.1,0.1,1.5,0.1s1.5,0,1.8-0.1c0.3-0.1-0.2-0.4-0.7-0.5c-0.5-0.1-1,0-1.5-0.2c-0.5-0.2-2.1-0.3-2.9-0.2
		c-0.8,0.1-2.6-0.9-2.8-0.9c-0.2-0.1,0.5-0.5,0.7-0.6c0.2-0.2,2.6,0,3.5-0.1c0.8-0.1,2.2-0.1,2.5-0.2c0.3-0.1,0.9,0.5,1.5,0.2
		s1.9,0.2,3,0.2c1.1,0,1.1-0.1,1.4-0.1c0.4,0,2.1,0.1,2.6,0.2c0.5,0.1,0.5,1.1,1,1c0.5-0.1,1.9,0.2,2.6,0.1c0.7-0.2,1.2-0.3,0.8-0.5
		c-0.4-0.2-2.7-0.4-2.9-0.5c-0.2-0.1,0-0.5,0.4-0.8c0.4-0.2,1.2,0,2.3,0s0.8,0.4,1.8,0.6c1,0.2,0.9,0.1,1.9,0.8
		c0.9,0.6,1.4,0.8,1.6,0.8c0.2,0,0.8,0.5,1.5,0.7c0.7,0.2,1.9,0.8,2.5,1c0.7,0.2,2,1,2.2,0.9c0.2-0.1-1.4-0.8-1.5-0.9
		c-0.2-0.1-1.6-1.1-1.8-1.2c-0.2-0.1-0.1-0.9,0.2-0.9c0.3-0.1,1.5,0.9,2,0.9c0.5,0.1-0.4-0.8-0.4-0.8s-1.2-0.7-1.5-0.8
		C89,18.8,88.8,18,88.8,18s0.7,0.1,1.3,0.1c-0.8-0.3-1.7-0.6-2.6-0.9c-0.9-0.3-7.2-2.6-9.8-2.9c-2.8-0.3-7.3-0.6-7.9-0.6
		c-0.1,0-0.3,0-0.5,0c0,0.1,0,0.3,0,0.4c-0.1,0.3-0.4,0.6-0.7,0.7c-0.4,0.1-2.2,0.5-3.1,0.3l-0.1,0c-0.6-0.1-0.6-0.1-0.9,0.2
		c-0.5,0.5-1.3,0.9-2.2,1.2c-0.8,0.3-1.7,0.7-2.2,1.1c-0.7,0.7-1.2,1-1.8,1.4c-0.5,0.3-0.9,0.6-1.5,1.1c-0.6,0.5-1.2,1.1-1.6,1.7
		c-0.7,0.8-1.2,1.4-1.8,1.6c-0.3,0.1-1.5,1.1-2,1.9c-0.2,0.3-0.6,1-0.9,1.6c-0.3,0.6-0.6,1.1-0.9,1.5c-0.4,0.6-0.6,1.4-0.8,2.9
		c-0.1,1.3-0.6,2.1-0.9,2.8c-0.1,0.2-0.2,0.4-0.3,0.6c-0.1,0.2-0.1,0.3-0.2,0.5c-0.4,0.8-0.8,2-0.9,3.2c-0.1,1.5-0.5,3-0.8,4.3
		c-0.1,0.2-0.1,0.5-0.2,0.7c-0.1,0.4-0.2,0.8-0.3,1.1c-0.2,0.7-0.4,1.3-0.5,2.6c-0.2,1.8-0.5,4.1-0.6,6.3c-0.1,2,0.3,3.2,0.7,4.4
		c0.4,1.3,0.8,2.5,0.7,3.6c0,0.2-0.1,0.5-0.1,0.7c-0.1,0.6-0.2,1.9-0.2,2.2c0,0,0,0.1,0.1,0.2c1.1-0.3,1.5-0.3,1.7-0.3
		C47,63.8,47.3,63.3,47.5,63.2z"/>
	<path class="st2" d="M84.5,30.6c0.1,0.2,0.3,0.5,0.4,0.7c0-0.2,0.2-0.4,0.3-0.5c0.1-0.1,0.2-0.1,0.3-0.1c0,0,0-0.1,0-0.1
		c-0.2-0.1-0.3-0.1-0.5-0.1C84.3,30.1,84.2,30,84.5,30.6z"/>
	<path class="st2" d="M51.6,38.6c-0.2,0.2-1.1,0.1-0.9,0.4s0.8,0.6,1,0.5c0.2-0.1,0.8-0.8,0.9-0.4c0,0.2,0.2,0.2,0.3,0.3
		c0.1-0.5,0.4-1,0.7-1.5l0.1-0.1c0-0.1,0-0.4,0-0.7c0-0.2,0-0.4,0-0.6c-0.4,0.3-0.8,0.6-1.3,0.9C51.8,37.8,51.8,38.3,51.6,38.6z"/>
	<path class="st2" d="M97.6,22.3c0.4,0.2,0.7,0.4,1.1,0.5c0.4,0.1,0.8,0.6,1,0.8l0.1-0.8l-0.5-0.2c-0.2-0.1-0.4-0.3-0.6-0.5
		c-0.3-0.6-0.7-1.2-0.9-1.3c-0.7-0.2-1.3-0.6-1.7-0.9c-0.1-0.1-0.2-0.1-0.2-0.2c-0.1-0.1-0.3-0.2-0.4-0.4c-0.1-0.1-0.3-0.3-0.5-0.4
		c-0.2,0.1-0.8,0.4-1.3,0.8c-0.3,0.2-0.7,0.3-1,0.1c0.8,0.5,3.1,1.5,3.8,1.5C97.3,21.5,97.2,22.2,97.6,22.3z"/>
	<path class="st4" d="M89.3,18.9c0.2,0.1,1.5,0.8,1.5,0.8s0.9,0.9,0.4,0.8c-0.5-0.1-1.7-1-2-0.9c-0.3,0.1-0.4,0.8-0.2,0.9
		c0.2,0.1,1.6,1.1,1.8,1.2c0.2,0.1,1.8,0.8,1.5,0.9C92,22.8,90.7,22,90,21.8c-0.6-0.2-1.8-0.8-2.5-1c-0.7-0.2-1.3-0.7-1.5-0.7
		c-0.2,0-0.7-0.1-1.6-0.8c-0.9-0.7-0.9-0.5-1.9-0.8c-1-0.2-0.7-0.6-1.8-0.6s-1.9-0.2-2.3,0c-0.4,0.2-0.6,0.6-0.4,0.8
		c0.2,0.1,2.5,0.4,2.9,0.5c0.4,0.2-0.1,0.3-0.8,0.5c-0.7,0.2-2.1-0.1-2.6-0.1c-0.5,0.1-0.5-0.9-1-1c-0.5-0.1-2.2-0.2-2.6-0.2
		c-0.4,0-0.4,0.1-1.4,0.1c-1.1,0-2.4-0.5-3-0.2s-1.2-0.3-1.5-0.2c-0.3,0.1-1.6,0.1-2.5,0.2c-0.8,0.1-3.3-0.1-3.5,0.1
		c-0.2,0.2-0.9,0.6-0.7,0.6c0.2,0.1,1.9,1.1,2.8,0.9c0.8-0.1,2.4,0,2.9,0.2c0.5,0.2,1,0.1,1.5,0.2c0.5,0.1,0.9,0.4,0.7,0.5
		C68.7,21,67.6,21,67.1,21s-1.4-0.2-1.5-0.1c-0.2,0.2-0.4,0.6-0.4,0.6s1.4,0,1.4,0.4c0,0.4-0.4,0.6-0.8,0.7
		c-0.5,0.1-1.3-0.5-1.9-0.5c-0.6,0-1.3-0.1-1.8-0.2c-0.5-0.1-1.4-0.8-1.4-0.4c0,0.4,0,1.1,0.6,1.3c0.6,0.2,1.5,0.4,1.7,0.5
		c0.2,0.1,1.6,0.5,1.4,0.6c-0.3,0.1-1.5-0.2-1.9-0.3c-0.4-0.1-0.8-0.3-1.2-0.2c-0.4,0.1-1-0.5-0.6,0.3c0.4,0.8,0.9,1.5,1.2,1.8
		c0.4,0.3,1.1,0.9,0.9,1c-0.2,0.1,1.4,0.2,1.6,0.2c0.2-0.1-0.5,0.4-0.5,0.4s-1.4,0.2-1.2,0.5c0.1,0.4,0.1,0.8,0.7,1.2
		c0.7,0.4,1.5,0.4,1.9,0.4c0.4,0,1.6,0.1,1.3,0.3c-0.3,0.2-0.6,0.5-1.3,0.6c-0.7,0.1-2,0.2-2.4,0.2c-0.4-0.1-1,0.1-1,0.4
		c0,0.3,0.6,0.8,1.1,0.8c0.5-0.1,1.9-0.1,2.1-0.1c0.2,0,1.7-0.9,2.3-0.7c0.6,0.2,1.2,0.4,1.5,0.2c0.4-0.2,1.1-0.2,1.4-0.3
		c0.2-0.1,0.6-0.9,0.9-0.6c0.2,0.3,0.2,0.9,0.5,0.9c0.3,0,0.8-0.4,0.9-0.5c0.2-0.2,0.6-0.6,0.9-0.6c0.3,0,0.6,0.5,0.8,0.6
		C74.4,30.3,75,30,75,30l1-0.6c0,0,0.9-0.2,1.1,0c0.2,0.2,3.4,0.9,3.9,1.1c0.1,0.1,0.4,0.2,0.8,0.3c0.1,0,0.2,0,0.3,0
		c0.1,0,0.5,0.1,2.3,0.9c0.1,0,0.1,0.1,0.2,0.1l0.6,0.4c0-0.1-0.1-0.2-0.1-0.4c-0.1-0.2-0.1-0.4,0-0.5c-0.2-0.2-0.3-0.5-0.4-0.7
		c-0.2-0.5-0.2-0.4,0.5-0.2c0.2,0,0.3,0.1,0.5,0.1c0-0.1,0-0.2,0-0.3c0-0.2,0.1-0.3,0.3-0.5c-0.1-0.1-0.1-0.2-0.2-0.3c0,0,0,0,0,0
		c-0.2-0.3-0.3-0.6-0.3-0.6c-0.1-0.2-0.1-0.5,0-0.7c0-0.1,0.1-0.2,0.1-0.2l-0.3-0.2c0,0,0,0-0.1-0.1l0,0c-0.2-0.2-0.4-0.4-0.4-0.7
		c0-0.3,0.1-0.5,0.3-0.7c0.9-1.2,1.1-1.3,1.4-1.4l0,0c0.1,0,0.2-0.1,0.3-0.1v0c0,0,0,0,0,0c0.5-0.2,1.4-0.4,2.2-0.5
		c0.3,0,0.6,0,0.9,0.1c0.7,0.2,1.4,0.6,2.1,1c0.4,0.2,0.8,0.5,1.1,0.7c0.1,0,0.2,0.1,0.2,0.2l0,0c0.1,0.1,0.3,0.3,0.6,0.5
		c0.6,0.4,1,0.7,1.3,0.8c0.2,0,0.5,0,0.8,0c0.4,0,1,0,1.6,0.3c0.5,0.2,0.9,0.3,1.1,0.8c0,0,0,0,0,0c0.6,0,0.6-0.2,1-0.3
		c0.4-0.1-0.8-0.9-1.2-1.6c-0.5-0.6-0.5-1.1-0.8-1.2c-0.2-0.1-0.2,0.3-0.6,0.6c-0.4,0.3-0.5-1.1-0.8-1.6c-0.3-0.5-0.8-1.1-1.1-1.4
		s0.2-0.4,0.6-0.2c0.7,0.3,2,1.8,2.3,1.9c0.3,0.1,1.1,0.3,1.1,0.3l0.5-0.9l0.1-0.4c-0.2-0.2-0.6-0.7-1-0.8c-0.5-0.1-0.8-0.4-1.1-0.5
		c-0.4-0.2-0.2-0.8-1-0.9c-0.7-0.1-3.1-1-3.8-1.5c-0.1,0-0.2-0.1-0.3-0.2c-0.4-0.4-1.4-1.2-1.9-1.4c-0.2-0.1-0.3-0.1-0.5-0.2
		c-0.6-0.1-1.3-0.1-1.3-0.1S89,18.8,89.3,18.9z M72.5,22.6c-0.2,0-0.8,0.4-0.9,0.6c-0.2,0.2-1,0.2-1.4,0.2c-0.4,0-1-0.2-1.4-0.4
		c-0.4-0.2-0.8-0.1-1.2,0.2c-0.4,0.2-0.2,0.8-0.2,0.8s-1.6,0.1-2.1,0c-0.5-0.1,0.1-0.5,0.4-0.4c0.4,0.1,1-0.4,1-0.5s1.1-0.6,1.2-0.8
		c0.1-0.2,1.1,0,1.2,0c0.4-0.1,0.8,0,1.4-0.2c0.6-0.2,1.5-0.1,1.9-0.2C72.9,21.9,72.7,22.6,72.5,22.6z M78.4,23.8
		c-0.2,0.1-0.9,0.1-1.3,0c-0.4-0.1-0.8,0.4-1.1,0.6c-0.4,0.2-0.8-0.1-0.9-0.4c-0.2-0.2,0.7-0.5,1-0.5c0.3-0.1,0-0.4,0-0.4
		s-0.8-0.2-1.4-0.1c-0.5,0.1-0.6-0.3-0.8-0.6c-0.1-0.3,0.7-0.2,1-0.2c0.3,0,0.9,0,1.4-0.1c0.5-0.1,0.4-0.6,0.6-0.6
		c0.4-0.1,0.9,0.2,1.1,0.4c0.2,0.1-0.1,0.4,0.2,0.7c0.4,0.4,0.9,0.4,1.2,0.5C79.7,23.4,78.6,23.7,78.4,23.8z M87.7,22.6
		c-0.2,0.4-0.9,0.1-1.4-0.1c-0.5-0.2-0.4-0.4-1.2-0.5c-0.8-0.1-0.9,0.2-1.5,0.1c-0.6-0.1-1.1,0.1-1.5-0.4c-0.5-0.5-0.5-0.7-0.9-0.8
		c-0.4-0.1-1-0.3-0.8-0.4c0.2-0.1,1.1,0.1,1.4,0.1s1.2,0.2,2.5,0.4c1.2,0.2,1.8,0.3,2.3,0.8C87,22.3,87.9,22.3,87.7,22.6z"/>
	<path d="M88.9,61.5c1-0.1,2.4-0.6,2.9-0.7c0.5-0.1,1.2-0.5,1.3-0.6c0.2-0.1,2.8-0.3,3.5-0.2c0.8,0.1,1.8,0.7,1.8,0.7l0.9,0.1
		c0,0-1.2-1.5-1.8-1.5c-0.6,0-1.9,0-3,0.1c-0.9,0.1-1.4,0-3.5,0c-1.3,0-1.8-0.1-2.7,0.1c-0.9,0.3-2.3,1.2-2.3,1.2s0.6,0.3,0.8,0.5
		C86.8,61.2,87.9,61.7,88.9,61.5z"/>
	<path class="st6" d="M68.7,85.6l-3.5,2.8L65,89.7l0.4,4.6c0,0,0,1.8,0.5,2.2c0.5,0.4,0.5,0.9,0.7,1.4c0.2,0.4,0,1,0.3,2.2
		c0,0,1.5,3.3,1.6,4.4c0.2,1.1-0.5,1.1-0.4,1.8c0.1,0.7,0.9,1.6,1.6,2.6c0.8,0.9,2.1,3.4,2.9,4c0.9,0.6,2.1,1.4,2.8,2.1
		c0.7,0.7,3.3,1.6,7.3,1.1c4-0.5,6.6-3.2,7.1-3.5c0.5-0.3,1.4-2.3,1.4-2.8c0-0.4-1.1-0.9-1.5-1.4c-0.3-0.5,0.4-1.5,0.7-1.9
		c0.3-0.3,1.4-2.2,1.4-2.2s0.8,0,1.4,0.5c0.6,0.5,0.8-0.7,1.7-1.3c1-0.6,1.2-2.2,1.5-2.6c0.3-0.4-0.9-1.7-0.9-2.9
		c0-1.2-0.2-2.3-0.3-2.8c-0.1-0.5,0.7-2.3,1.4-2.8c1.4-1,0.9-2.9,0.6-3.7s-1.6-1.8-1.9-2.8c-0.3-0.9-1.2,0.3-2.1,0.8
		c-0.9,0.4-1.6-1-2-1.2c-0.3-0.2-2.2-3-2.2-3l-1.9,1.3c0.1,0,0.1,0.1,0,0.1c-0.2,0.1-1,0.9-1.5,1.1c-0.1,0-0.2,0-0.2,0
		c-0.7,0.4-2.4,1.6-3.1,2.2c-0.8,0.8-4.4,0-4.8,0c-0.4,0-4.6-2.7-4.6-2.7l-2.9,0.7L68.7,85.6z M71.4,92.3c0.5,0.3,2,1.1,2.9,1.3
		c1.2,0.3,5.7,0.7,6.3,0.6c0.5-0.1,1.1-0.2,1.6-0.2c0.4,0,0.7-0.1,1.1-0.1c0.2,0,0.4-0.1,0.7-0.1c0.9-0.1,2.2-0.3,3-0.6
		c1.1-0.4,2.3-1,2.4-1c0.5-0.2,1,0,1.3,0.4c0.2,0.5,0,1-0.4,1.3c-0.1,0-1.3,0.6-2.5,1.1c-1,0.4-2.4,0.6-3.4,0.7
		c-0.2,0-0.5,0.1-0.6,0.1c-0.4,0.1-0.8,0.1-1.2,0.1c-0.5,0-1,0.1-1.4,0.2c-0.2,0-0.5,0.1-0.8,0.1c-1.8,0-5.3-0.4-6.4-0.7
		c-1.3-0.3-3.3-1.4-3.4-1.5c-0.5-0.3-0.6-0.8-0.4-1.3C70.4,92.2,71,92,71.4,92.3z"/>
	<path class="st5" d="M87.9,130.4c-0.9,0.5-2.9,1.5-4,1.8c-0.4,0.1-0.8,0.1-1.2,0.1c-1,0-2.1-0.2-2.8-0.3c-1.1,1.4-1.8,2.4-2.4,3.1
		c1.2,1,3.3,2.8,3.6,3.7c0,0.1,0.1,0.2,0.1,0.4c0.9,2.6,1.9,5.7,2,7.1c0,0.8,0,1.6-0.1,2.3c0,0.3-0.1,0.8,0,1
		c0.1,0.2,0.2,0.4,0.3,0.5c1,0,2.9,0.1,4.2,0.1c1.1,0,2.4-0.1,3.3-0.2c0.6-0.1,1-0.1,1.3-0.1c0.2,0,0.7-0.1,1.3-0.3
		c0-0.2-0.1-0.3-0.1-0.4c-0.2-1.6-0.2-2.8,0.1-4.2c0.2-1.2,1.6-5.6,2-7c-0.4-0.6-0.9-1.1-1.3-1.6C92.2,133.8,89.6,131.7,87.9,130.4z
		"/>
	<path d="M88.3,65.4c0,1.1,0.9,2.1,2.1,2.1s2.1-0.9,2.1-2.1c0-1.1-0.9-2.1-2.1-2.1S88.3,64.3,88.3,65.4z M91.2,63.9
		c0.4,0,0.8,0.3,0.8,0.8c0,0.4-0.3,0.8-0.8,0.8c-0.4,0-0.8-0.3-0.8-0.8C90.4,64.3,90.7,63.9,91.2,63.9z"/>
	<circle class="st4" cx="91.2" cy="64.7" r="0.8"/>
	<path class="st1" d="M68.1,147.6c0-0.1-0.1-0.2-0.1-0.3c-0.8-3-1.6-6.1-2.4-8.9c-0.9-3.3-1.7-6.1-2.1-7.8c-1,1.8-2.3,4.3-2.7,5.3
		c-0.8,2.1-3.9,7.1-4.2,7.7c-0.7,1.1-2.8,3.6-5,6.2c-0.4,0.5-0.7,0.9-1,1.2c0,0.1,0,0.1-0.1,0.2c-0.1,0.3-0.9,1.9-1.8,3.5
		c7.1,3.1,14.8,5.1,22.8,6c-0.2-0.6-0.3-1.2-0.5-1.7C70.5,156.7,69.5,152.8,68.1,147.6z"/>
	<path class="st4" d="M83.4,130.4c0.7-0.2,1.8-0.7,2.8-1.2c-0.3-0.2-0.5-0.4-0.7-0.5l-3.2,0.1c-0.2,0.3-0.7,0.9-1.2,1.5
		C81.9,130.5,82.8,130.5,83.4,130.4z"/>
	<path class="st2" d="M86.5,21.9c-0.5-0.5-1.1-0.5-2.3-0.8c-1.2-0.2-2.2-0.4-2.5-0.4s-1.1-0.2-1.4-0.1c-0.2,0.1,0.4,0.3,0.8,0.4
		c0.4,0.1,0.5,0.3,0.9,0.8c0.5,0.5,0.9,0.2,1.5,0.4c0.6,0.1,0.7-0.2,1.5-0.1c0.8,0.1,0.8,0.2,1.2,0.5c0.5,0.2,1.2,0.5,1.4,0.1
		C87.9,22.3,87,22.3,86.5,21.9z"/>
	<path d="M87.5,83.7C87.6,83.7,87.5,83.7,87.5,83.7c-0.2-0.1-0.8-0.3-1.3-0.3c-0.6-0.1-1.5,1-1.5,1c0.2,0,0.7,0.5,1.1,0.5
		c0.1,0,0.2,0,0.2,0C86.6,84.6,87.4,83.8,87.5,83.7z"/>
	<path class="st4" d="M81.7,151.1c0-0.2-0.1-0.3-0.2-0.4c-0.4-0.4-0.4-1.1-0.3-2.2c0-0.6,0.1-1.4,0.1-2.1c0-0.9-0.7-3.1-1.9-6.5
		c-0.1-0.2-0.1-0.3-0.1-0.4c-0.3-0.5-1.9-1.9-2.9-2.7c-1.1,1.7-3.3,5.5-6.4,10.6c1,3.7,2.3,8.4,2.9,11.2c0.2,0.8,0.4,1.6,0.7,2.4
		c2,0.2,4.1,0.3,6.2,0.3c0.1-1,0.2-1.7,0.3-2.1C80.2,157.8,81.4,152.3,81.7,151.1z"/>
	<path class="st4" d="M78.9,130.1c0.7-0.9,1.3-1.6,1.7-2.2c-0.9-0.4-10.6-7.1-13.9-10c-4.5-3.9-6.9-7-7.4-9.5
		c-0.1-0.6-0.3-1.2-0.4-1.9c0,1.7,0,3.4,0.2,4.4c0.3,1.5,1.7,5.3,3,9c1,2.8,2.1,5.8,2.7,7.9c0.2,0.6,0.3,1.1,0.5,1.5
		c0.4,1.4,1.2,4.7,2.3,8.5c0.6,2.1,1.2,4.5,1.8,6.8c2.3-3.9,5.3-9,6.1-10c0.4-0.5,1.4-1.9,3-3.9C78.4,130.5,78.6,130.3,78.9,130.1z"
		/>
	<path class="st2" d="M78.2,22.8c-0.4-0.4-0.1-0.6-0.2-0.7c-0.2-0.1-0.7-0.4-1.1-0.4c-0.2,0-0.1,0.5-0.6,0.6
		c-0.5,0.1-1.1,0.1-1.4,0.1c-0.3,0-1.1-0.1-1,0.2c0.1,0.3,0.2,0.7,0.8,0.6c0.5-0.1,1.4,0.1,1.4,0.1s0.3,0.3,0,0.4
		c-0.3,0.1-1.2,0.3-1,0.5c0.2,0.2,0.6,0.6,0.9,0.4c0.4-0.2,0.7-0.8,1.1-0.6c0.4,0.1,1.1,0.1,1.3,0c0.2-0.1,1.3-0.4,1-0.5
		C79.1,23.2,78.6,23.1,78.2,22.8z"/>
	<path d="M75.5,85.3c0.6,0.2,1.8-0.4,1.8-0.4s-0.6-0.5-1.2-0.9c-0.6-0.4-2.2-0.1-2.2-0.1C74.3,84.3,74.9,85.2,75.5,85.3z"/>
	<path class="st1" d="M48.5,151.1c-0.3-0.3-0.7-0.6-0.9-0.9c-0.7-0.6-6.3-3.8-7.4-4.2c-1.1-0.5-1.8-1.2-1.9-2.1
		c-0.1-0.5,0.1-1.1,1.6-4.4c0.4-0.9,0.8-1.7,1-2.3c0.3-0.8,0.6-2,0.9-3.2c0.4-1.5,0.7-3,1.2-4.2c0.4-0.9,0.6-2.3,0.9-3.8
		c0.3-1.9,0.7-4,1.4-5.7c0.8-1.9,2.5-5.3,3.7-7.8c-2.9,1.4-6.6,3.2-8.5,4.4c-3.2,2.1-13.9,7.7-16.9,9.2c-0.9,0.5-2.3,1-3.8,1.7
		c-1,0.5-2.2,1-3.3,1.5c8,10.5,18.5,18.9,30.6,24.5C47.6,152.9,48.1,151.9,48.5,151.1C48.5,151.1,48.5,151.1,48.5,151.1z"/>
	<path class="st2" d="M72.5,22c-0.4,0.1-1.4,0-1.9,0.2c-0.6,0.2-1,0.1-1.4,0.2c-0.2,0-1.1-0.2-1.2,0c-0.1,0.2-1.2,0.7-1.2,0.8
		s-0.6,0.6-1,0.5c-0.4-0.1-0.9,0.3-0.4,0.4c0.5,0.1,2.1,0,2.1,0s-0.1-0.6,0.2-0.8c0.4-0.2,0.8-0.4,1.2-0.2c0.4,0.2,0.9,0.4,1.4,0.4
		c0.4,0,1.2-0.1,1.4-0.2c0.2-0.2,0.8-0.6,0.9-0.6C72.7,22.6,72.9,21.9,72.5,22z"/>
	<path d="M59.4,63.3l1.3-1.1c0,0,1.9-0.1,2.9,0.2c1,0.3,3.3,1.2,4.5,1c1.2-0.2,2.4-0.4,2.8-0.5c0.3-0.1,1-0.4,1-0.4l-1-0.7
		c0,0-2.8,0.1-3.7,0c-0.9-0.2-2.5-0.6-3.3-0.6c-0.9,0-2.1-0.3-2.6-0.2c-0.5,0.1-0.9,0-1.2,0.5c-0.4,0.5-1.3,1.4-1.3,1.4
		S58.9,63.3,59.4,63.3z"/>
	<path d="M69.7,66.4c0-1.1-0.9-2.1-2.1-2.1s-2.1,0.9-2.1,2.1s0.9,2.1,2.1,2.1S69.7,67.5,69.7,66.4z M68.6,64.8
		c0.4,0,0.8,0.3,0.8,0.8c0,0.4-0.3,0.8-0.8,0.8c-0.4,0-0.8-0.3-0.8-0.8C67.8,65.2,68.1,64.8,68.6,64.8z"/>
	<circle class="st4" cx="68.6" cy="65.6" r="0.8"/>
	<path class="st1" d="M45.7,126.4c-0.3,1.6-0.5,3.1-1,4.2c-0.4,1.1-0.8,2.6-1.2,4c-0.3,1.3-0.7,2.6-1,3.5c-0.2,0.6-0.6,1.4-1,2.3
		c-0.5,1.1-1.2,2.8-1.4,3.4c0.1,0.1,0.2,0.3,0.8,0.6c0.7,0.3,7.5,3.9,8.2,4.8c0.1,0.1,0.2,0.2,0.4,0.4c0.2-0.2,0.4-0.5,0.7-0.8
		c1.6-1.8,4.2-4.9,4.8-5.9c1.2-2,3.4-5.9,4.1-7.4c0.6-1.6,3.1-6,3.7-7.2c-0.6-2-1.6-4.7-2.6-7.3c-1.4-3.9-2.7-7.6-3.1-9.2
		c-0.6-2.7-0.2-8.1,0.1-10.3c-0.2,0.7-0.5,1.4-0.8,2.1c-0.4,1-0.7,1.9-0.8,2.3c-0.4,1.1-2.7,4.6-3.2,5.2c-0.1,0.1-0.2,0.3-0.4,0.3
		c0,0-0.1,0-0.1,0.1c-1.1,1.9-3.9,7.4-4.9,9.8C46.3,122.6,46,124.5,45.7,126.4z"/>
	<path class="st4" d="M47.7,64.6c0.1-0.2,0.2-0.4,0.2-0.6c0-0.3,0.8-0.2,1.3,0c0.5,0.2-0.4,0.6-0.9,0.9c-0.1,0-0.1,0.1-0.2,0.1
		c0.1,0.1,0.2,0.2,0.2,0.3c0.1,0.1,0.2,0.3,0.3,0.4c0.1,0.1,0.1,0.2,0.1,0.3c0,0.1,0.1,0.1,0.2,0.2c0.2-0.2,0.6-0.4,0.8-0.6
		c0.2-0.2,0.4-1.4,0.4-1.4s0.7,1.1,0.8,1.5c0.1,0.4,0.7,1.2,0.8,1.5c0.1-1,0.2-2.1,0.2-2.4c0-0.4-0.2-2.8-0.3-3.5l0,0
		c-0.1-0.8-0.2-2.4-0.5-3.2c-0.1-0.4-0.2-0.6-0.3-0.8c-0.1-0.2-0.2-0.4-0.2-0.7c0,0,0-0.1,0-0.1c0-0.5,0.2-0.8,0.5-1.2
		c0.1-0.1,0.2-0.3,0.3-0.5c-0.1-0.3-0.1-0.7-0.1-1.6c0-0.4,0.1-0.8,0.1-1c0-0.1-0.1-0.3-0.2-0.5c0-0.1-0.1-0.1-0.1-0.2
		c-0.6-0.5-0.4-1.4-0.3-1.8c0.1-0.5,0.3-1.1,0.5-1.7l0.1-0.4c0.1-0.5,0.4-1,0.6-1.6c0.2-0.5,0.5-1.3,0.6-1.7
		c-0.1-0.1-0.1-0.3-0.2-0.5c0,0,0,0,0,0c-0.1-0.5-0.2-1.2-0.2-1.6c0-0.1,0-0.2,0-0.3c0-0.4,0.1-0.9,0.3-1.7c0.1-0.2,0.2-0.5,0.2-0.6
		c0-0.1,0-0.1,0-0.2c-0.1,0-0.2-0.1-0.3-0.3c-0.1-0.4-0.7,0.2-0.9,0.4c-0.2,0.1-0.9-0.2-1-0.5s0.8-0.1,0.9-0.4
		c0.2-0.2,0.2-0.8,0.9-1.2c0.4-0.3,0.9-0.7,1.3-0.9c0-0.3,0.1-0.6,0.1-0.9c-0.1,0-0.2-0.1-0.2-0.1s-0.9,0.5-1.2,0.6
		c-0.2,0.1-0.6,0-0.8-0.1c-0.2-0.1,0.3-0.4,0.4-0.8c0.1-0.4-0.6,0.1-0.9,0.1s-1.1,0.4-1.5,0.6c-0.4,0.2-0.7,0.7-0.2,0.9
		c0.5,0.2,1.6-0.1,1.6-0.1l-0.7,0.5l-1.6,0.5c0,0,1.2,0.1,1.5,0.3c0.4,0.2-0.7,0.4-0.9,0.6c-0.2,0.2-1.5,0.2-1.6,0.1
		c-0.2-0.1,0.2,0.9,0.2,0.9s-0.6,0.7-0.4,1.1c0.2,0.4,0.8-0.5,1.1-0.8c0.2-0.3,0.7-0.3,1.4-0.3c0.6,0,1.2,0.3,1.5,0.4
		c0.3,0.1-0.1,0.8-0.1,0.8l-0.5,0.5c0,0-0.9,0.1-0.9,0.4c0,0.3-0.3,0.9-0.3,1.1c0,0.2-1.2,0.8-1.5,1.1s-1.2,1-1.6,1.4
		c-0.4,0.4-0.4,1.3-0.1,1.2c0.2-0.2,1.1-0.4,1.3-0.5c0.2-0.2,0.8-0.6,1.3-1c0.5-0.4,0.8-1.1,0.9-1.4c0.1-0.4,0.9-0.8,1.2-0.6
		c0.3,0.1,0.2,0.6,0.1,0.9c-0.1,0.2-0.8,0.8-1.3,1.2c-0.5,0.4-0.6,1.1-0.9,1.4c-0.4,0.3-0.4,0.8-0.9,1.5c-0.5,0.6-0.3,1.4-0.5,1.8
		c-0.2,0.5-1.2,1.6-1.6,2.1c-0.4,0.4-1.3,1.8-1.3,2c0,0.2,0.9-0.6,1.2-0.9c0.2-0.4,1.1-1,1.9-1.9c0.8-0.9,0.6-0.6,1.1-0.5
		c0.5,0.1,0.6,0.7,0.6,0.7s-0.6,0.9-0.9,1.1c-0.3,0.2-1.3,1.2-1.7,1.5c-0.4,0.3-1.5,1.5-1.5,1.5L45,55.8c0,0,0.7-0.4,0.9-0.5
		c0.2-0.1,1-1.1,1-1.1s0.6-0.1,0.9-0.1c0.2,0,0.7-1.1,0.7-1.1s0.3,0.3,0.4,0.7c0.1,0.4-0.5,1.1-0.7,1.3c-0.2,0.2-0.3,0.8-0.2,1.1
		c0.1,0.3-0.8,1.2-0.9,1.3c0.1,0,0.9-0.2,1-0.4c0.1-0.2-0.1,0.6-0.1,1.2c0,0.5-0.6,0.8-0.6,0.8s-0.7,0.6-1.1,0.9
		c-0.4,0.3-0.8,0.1-0.9,0.2c-0.1,0.2,0.4,0.7,0.5,0.6s0.5,0.4,0.6,0.6c0.1,0.2-0.3,0.6-0.3,0.8c0,0.2,0.5,0.1,0.7,0.1
		c0.2,0,0.6-1,0.7-1.2c0.1-0.2,0.8-1.1,0.8-1.1l0.5,0.7c0,0,0,0.5,0.4,0.7c0.4,0.2-0.2,0.6-0.2,0.9c0.1,0.3-0.4,0.5-0.8,0.5
		c-0.4-0.1-0.6,0.3-0.9,0.4c-0.2,0.1-0.5,0.6-0.7,0.9c0,0,0,0,0.1,0c0.1,0,0.3,0.1,0.5,0.2C47.5,64.4,47.6,64.5,47.7,64.6z"/>
	<path d="M16.4,129.3c1.1-0.5,2.2-1,3.3-1.5c1.5-0.7,2.9-1.3,3.8-1.7c3-1.5,13.6-7.1,16.9-9.2c1.9-1.2,5.7-3.1,8.5-4.4
		c-1.3,2.5-3,5.9-3.7,7.8c-0.7,1.7-1.1,3.9-1.4,5.7c-0.3,1.5-0.5,2.9-0.9,3.8c-0.5,1.2-0.9,2.7-1.2,4.2c-0.3,1.3-0.6,2.5-0.9,3.2
		c-0.2,0.6-0.6,1.4-1,2.3c-1.5,3.3-1.7,3.9-1.6,4.4c0.2,0.9,0.8,1.6,1.9,2.1c1,0.4,6.7,3.5,7.4,4.2c0.3,0.3,0.6,0.7,0.9,0.9
		c0,0,0,0,0,0c-0.4,0.8-0.9,1.8-1.5,2.7c0.6,0.3,1.2,0.5,1.8,0.8c1-1.5,1.7-3.2,1.8-3.5c0-0.1,0-0.1,0.1-0.2c0.3-0.3,0.6-0.7,1-1.2
		c2.2-2.6,4.3-5.1,5-6.2c0.3-0.6,3.4-5.6,4.2-7.7c0.4-1,1.7-3.5,2.7-5.3c0.4,1.6,1.2,4.5,2.1,7.8c0.7,2.8,1.6,5.9,2.4,8.9
		c0,0.1,0,0.2,0.1,0.3c1.4,5.2,2.4,9.1,3,11.3c0.1,0.6,0.3,1.1,0.5,1.7c0.7,0.1,1.4,0.1,2,0.2c-0.2-0.8-0.5-1.6-0.7-2.4
		c-0.7-2.7-2-7.5-2.9-11.2c3-5.2,5.3-9,6.4-10.6c1,0.8,2.7,2.3,2.9,2.7c0,0.1,0.1,0.2,0.1,0.4c1.2,3.5,1.8,5.7,1.9,6.5
		c0,0.7,0,1.4-0.1,2.1c-0.1,1.1-0.1,1.8,0.3,2.2c0,0.1,0.1,0.2,0.2,0.4c-0.3,1.2-1.4,6.7-1.7,8c-0.1,0.4-0.2,1.1-0.3,2.1
		c0.3,0,0.6,0,0.9,0c0.4,0,0.7,0,1.1,0c0.1-0.8,0.2-1.5,0.2-1.8c0.2-1.1,1.2-5.6,1.5-7.4c1,0,2.9,0.1,4.1,0.1c1.2,0,2.5-0.1,3.5-0.2
		c0.5-0.1,0.9-0.1,1.1-0.1c0.5,0,1.2-0.2,1.8-0.4c0.5,1.3,1.1,3,1.6,4.5c0.5,1.3,1,2.6,1.1,3.1c0,0.2,0.1,0.4,0.2,0.6
		c0.6-0.1,1.2-0.3,1.9-0.4c-0.1-0.3-0.1-0.6-0.2-0.8c-0.2-0.6-0.6-1.7-1.2-3.2c-0.7-1.8-1.5-3.9-1.9-5.3c-0.2-0.5-0.2-0.8-0.3-1
		c-0.2-1.5-0.2-2.4,0.1-3.6c0.2-0.8,1-3.5,1.6-5.5c2.3,3.2,4.8,6.6,4.8,6.6c0.5,0.8,1.1,1.2,1.7,1.2c0,0,0.1,0,0.1,0
		c0.4,0,0.7-0.1,0.9-0.4c0,0,0.1-0.1,0.2-0.2c-0.2,2.8-0.4,6.7-0.7,10.7c0.7-0.2,1.3-0.4,2-0.6c0.4-5.2,0.7-10.4,0.8-12.7
		c0-0.8,0.1-2,0.1-3.1c0,0,0,0,0-0.1c0,0,0,0,0,0c0-1.2,0.1-2.5,0.1-4c0-2.1,0.1-4.3,0.1-6.5c2.1,2.1,5.6,5.8,6.4,6.6
		c0.9,0.9,6,5.3,10.2,8.7l0.3,0.2c0.1,0.1,0.2,0.2,0.4,0.2c0.3,0.2,0.7,0.6,1.2,1c0.6-0.4,1.1-0.8,1.6-1.1c-0.1-0.1-0.2-0.1-0.2-0.2
		c-0.4-0.3-0.7-0.5-0.9-0.7c1.8-1.5,4-3.3,4.4-3.6c0.5-0.3,3.8-3.2,4-3.9c0.2-0.5,0.2-0.6-5.9-12.4c-0.7-1.5-1.3-2.6-1.6-3.1
		c-0.7-1.3-2.7-5-4.4-7.9c-0.9-1.6-1.7-2.9-1.9-3.4c-0.4-0.7-1.8-2.3-3.2-3.6c3.2,0.9,7.5,2.1,9.1,2.7c1.7,0.6,6.7,2,11.1,3.3
		c2.8,0.8,5.5,1.5,6.7,1.9c1,0.3,2.8,0.8,4.8,1.4c1,0.3,2,0.6,3.1,0.9c0.3-0.6,0.6-1.1,0.9-1.7c-1.2-0.3-2.3-0.7-3.4-1
		c-2-0.6-3.8-1.1-4.8-1.4c-1.2-0.4-3.8-1.1-6.7-1.9c-4.4-1.2-9.3-2.6-11-3.2c-2.4-0.9-10.3-3-12.7-3.7c-0.3-0.1-0.5-0.1-0.6-0.2
		c-1.8-1.9-4.5-4.9-4.9-5.6c-0.6-1-2.5-3.6-3.5-4.7c0,0,0,0,0,0c0.1-0.8,0.4-2.3,0.6-3.6c0.2-1.3,0.4-3.8,0.6-5.3
		c0.9,0,2.1-0.1,2.4-1.2c0.2-0.6,0.4-1.8,0.6-3c0.1-0.8,0.3-1.6,0.4-2.1c0.1-0.3,0.2-0.9,0.4-1.6c0.6-2.1,1.5-5.3,1.7-7.6
		c0.2-2.1,0.3-4.9,0.3-6.3h0.3c0.3,0,0.6-0.1,0.8-0.4c0.3-0.4,1.3-1.8,1.2-3c0-0.2,0-0.3,0-0.5c0.1-0.5,0.1-1.1-0.2-2
		c-0.2-0.6-0.4-0.9-0.6-1.1c-0.1-0.2-0.2-0.2-0.2-0.6c0-0.3,0-0.6,0-0.8c0.1-0.5,0.1-0.9-0.1-2c-0.1-0.6-0.1-1.3-0.1-1.9
		c0-0.7-0.1-1.4-0.2-1.9c-0.2-0.7-0.2-1.7-0.1-2.2c0-0.1,0.1-0.3,0.2-0.5c0.2-0.5,0.7-1.9-0.5-2.4c0,0,0,0,0,0
		c0.1-0.1,0.2-0.2,0.3-0.3c0.1-0.1,0.5-1,0.2-2c0-0.1,0-0.4,0-0.6c0-1.6-0.1-3.2-0.7-4.2c-0.2-0.4-0.2-1.2-0.2-1.8
		c0-0.8,0-1.5-0.4-2c-0.1-0.1-0.2-0.3-0.4-0.4c-0.3-0.3-0.6-0.7-0.7-1c0-0.1-0.1-0.3-0.1-0.5c-0.1-0.8-0.3-2-1.2-2.7
		c-0.4-0.3-0.8-0.8-1.1-1.2c-0.3-0.4-0.6-0.8-0.9-1c-0.2-0.1-0.6-0.5-0.9-0.9c-1.2-1.2-1.8-1.8-2.3-2l-0.3-0.1
		c-0.8-0.3-1.3-0.5-1.7-0.5c-0.2,0-0.5,0-0.8,0.1l0.1-0.6c0.1-0.5-0.2-0.9-0.6-1.1l-0.9-0.3c-0.4-0.7-1.1-1.7-1.9-2
		c-0.4-0.1-0.8-0.4-1-0.6c-0.1-0.1-0.2-0.2-0.3-0.2c-0.1,0-0.1-0.1-0.2-0.2c-0.4-0.4-1.1-1-2-0.9c-0.5,0.1-1.1,0.4-1.5,0.7
		c-0.5-0.5-1.3-1.1-2.1-1.3c-0.8-0.3-2-0.7-3-1.1c-0.1,0-7.2-2.6-10.2-3c-2.8-0.3-7.3-0.7-8.2-0.7c-0.8,0-2.3,0.2-2.4,0.2
		c-0.4,0.1-0.7,0.3-0.8,0.6c-0.1,0.2-0.1,0.3,0,0.5c-0.3,0-0.6,0.1-0.8,0l-0.1,0C64.8,13.1,64,13,63,14.1c-0.2,0.2-0.9,0.5-1.5,0.7
		c-1,0.4-2.1,0.8-2.8,1.5c-0.5,0.5-0.9,0.8-1.4,1.1c-0.5,0.3-1.1,0.7-1.8,1.3c-0.7,0.6-1.3,1.3-1.8,1.8c-0.4,0.4-0.9,1-1,1
		c-1,0.3-2.5,1.9-2.9,2.5c-0.3,0.4-0.7,1.1-1.1,1.8c-0.3,0.5-0.6,1-0.8,1.3c-0.6,0.9-0.9,2-1.1,3.8c-0.1,1-0.4,1.5-0.7,2.1
		c-0.1,0.3-0.3,0.5-0.4,0.9c-0.1,0.1-0.1,0.3-0.2,0.5c-0.4,0.9-1,2.3-1.1,3.9c-0.1,1.3-0.4,2.7-0.7,3.9c-0.1,0.3-0.1,0.5-0.2,0.7
		c-0.1,0.4-0.2,0.7-0.3,1c-0.2,0.7-0.4,1.4-0.6,2.9c-0.2,1.8-0.5,4.2-0.6,6.5c-0.1,2.3,0.4,3.7,0.8,5.1c0.4,1.1,0.7,2.1,0.6,2.8
		c0,0.2,0,0.4-0.1,0.7c-0.2,1.3-0.3,2.2-0.2,2.7c0.1,0.6,0.5,1.1,0.7,1.4c0.2,1.3,1.2,6.6,1.9,8.3c0.2,0.4,0.3,1,0.5,1.6
		c0.7,2.1,1.5,4.7,2.8,6.4c0.4,0.5,0.8,1,1.1,1.3c0.8,1,1.3,1.6,2.3,2.3c0.9,0.7,2.3,1.2,3,1.5c0.3,1.1,1,4,1,5.6
		c0,1.5,0.2,3.6,0.4,4.8c-0.4,0.2-0.7,0.6-0.9,1c-0.2,0.8-0.9,2.5-1.4,3.9c-0.4,1-0.7,1.9-0.8,2.3c-0.2,0.6-1.5,2.6-2.6,4.2
		c-0.2,0-0.3,0.1-0.4,0.2c0,0-0.1,0.1-0.2,0.3c-3.2,1.5-8.6,4.1-11.1,5.7c-3.1,2-13.8,7.7-16.7,9.1c-0.9,0.4-2.2,1-3.7,1.7
		c-1.2,0.5-2.4,1.1-3.7,1.6C15.7,128.3,16,128.8,16.4,129.3z M75.3,134.7c-0.7,1-3.8,6.1-6.1,10c-0.6-2.3-1.3-4.7-1.8-6.8
		c-1-3.8-1.9-7.1-2.3-8.5c-0.1-0.4-0.3-0.9-0.5-1.5c-0.7-2.1-1.7-5-2.7-7.9c-1.3-3.7-2.7-7.5-3-9c-0.2-1.1-0.3-2.7-0.2-4.4
		c0.2,0.7,0.3,1.3,0.4,1.9c0.5,2.5,3,5.6,7.4,9.5c3.3,2.9,13,9.6,13.9,10c-0.4,0.5-1,1.3-1.7,2.2c-0.3,0.1-0.5,0.4-0.5,0.7
		C76.8,132.8,75.8,134.2,75.3,134.7z M93.4,144.9c-0.3,1.4-0.3,2.5-0.1,4.2c0,0.1,0,0.3,0.1,0.4c-0.6,0.2-1.1,0.3-1.3,0.3
		c-0.3,0-0.7,0-1.3,0.1c-0.9,0.1-2.2,0.2-3.3,0.2c-1.3,0-3.2,0-4.2-0.1c-0.1-0.2-0.2-0.4-0.3-0.5c0-0.2,0-0.7,0-1
		c0-0.7,0.1-1.5,0.1-2.3c-0.1-1.4-1.1-4.5-2-7.1c-0.1-0.2-0.1-0.3-0.1-0.4c-0.3-0.9-2.4-2.7-3.6-3.7c0.5-0.7,1.3-1.7,2.4-3.1
		c0.7,0.1,1.8,0.3,2.8,0.3c0.4,0,0.8,0,1.2-0.1c1.2-0.3,3.2-1.4,4-1.8c1.7,1.3,4.4,3.4,6.3,5.9c0.4,0.5,0.8,1,1.3,1.6
		C95,139.4,93.6,143.7,93.4,144.9z M81.1,130.3c0.5-0.7,0.9-1.2,1.2-1.5l3.2-0.1c0.2,0.1,0.4,0.3,0.7,0.5c-0.9,0.5-2.1,1.1-2.8,1.2
		C82.8,130.5,81.9,130.5,81.1,130.3z M105.5,97.5c0.7,0.9,1.4,1.9,1.7,2.4c0.7,1.2,4.9,5.6,5.4,6.1c0.1,0.1,0.3,0.2,0.5,0.3
		c0,0,0.2,0.1,0.6,0.2c1.9,1.8,4.8,4.7,5.3,5.6c0.3,0.5,1,1.8,1.9,3.4c1.6,2.8,3.7,6.5,4.3,7.8c0.3,0.5,0.9,1.7,1.6,3.1
		c1.6,3.1,4.8,9.3,5.6,11.1c-0.7,0.8-2.5,2.5-3.1,2.8c-0.7,0.4-3.6,3-4.9,4.1c-5.5-4.6-9-7.6-9.6-8.2c-1.1-1.1-6.5-6.7-7.7-7.9
		c0.1-2.9,0.2-4.8,0.3-5.6c0.5-3.3,0.3-16,0.2-17.8c-0.1-2.1-1.6-6-2-7.1C105.5,97.6,105.5,97.5,105.5,97.5z M105.6,104.8
		c0.1,2.7,0.2,14.6-0.2,17.5c-0.1,1-0.2,3-0.3,6.3c-0.1,2.7-0.1,5.9-0.2,8.7c0,1.4-0.1,2.7-0.1,3.9c-0.7,2.1-1.2,3.5-1.5,4.3
		c0,0-0.1-0.1-0.1-0.1c0,0-3.3-4.6-5.9-8.1c-0.6-0.7-1.1-1.4-1.6-2.1c-2.3-3-5.6-5.4-7.3-6.7c-0.1-0.1-0.2-0.2-0.4-0.2
		c-0.4-0.3-0.7-0.5-1-0.7c0.4-0.4,0.8-0.8,1.2-1.1c1-0.8,7.1-8,8.7-9.9c3-3.6,6.2-9.6,7.1-12.6c0.2-0.8,0.5-1.8,0.6-2.8
		C105.2,102.5,105.6,103.9,105.6,104.8z M45.9,66.2c0.1,0,0.2-0.1,0.3-0.1c0,0.1,0,0.3,0,0.4c0,0.4,0,0.8,0,1.1
		C46,67.1,45.9,66.5,45.9,66.2z M46.8,64.1c-0.2,0-0.6-0.1-1.7,0.3c0-0.1-0.1-0.1-0.1-0.2c0-0.3,0.1-1.6,0.2-2.2
		c0-0.3,0.1-0.5,0.1-0.7c0.1-1.1-0.3-2.2-0.7-3.6c-0.4-1.2-0.8-2.4-0.7-4.4c0.1-2.2,0.4-4.5,0.6-6.3c0.2-1.3,0.3-1.9,0.5-2.6
		c0.1-0.3,0.2-0.6,0.3-1.1c0.1-0.2,0.1-0.5,0.2-0.7c0.3-1.3,0.7-2.8,0.8-4.3c0.1-1.2,0.6-2.4,0.9-3.2c0.1-0.2,0.2-0.4,0.2-0.5
		c0.1-0.2,0.2-0.4,0.3-0.6c0.4-0.6,0.8-1.5,0.9-2.8c0.2-1.5,0.4-2.3,0.8-2.9c0.3-0.4,0.5-0.9,0.9-1.5c0.3-0.6,0.7-1.3,0.9-1.6
		c0.5-0.7,1.7-1.7,2-1.9c0.6-0.2,1.1-0.8,1.8-1.6c0.5-0.5,1-1.2,1.6-1.7c0.6-0.5,1.1-0.8,1.5-1.1c0.6-0.3,1.1-0.7,1.8-1.4
		c0.4-0.4,1.4-0.8,2.2-1.1c0.9-0.4,1.8-0.7,2.2-1.2c0.3-0.3,0.3-0.3,0.9-0.2l0.1,0c0.9,0.1,2.7-0.3,3.1-0.3c0.3-0.1,0.6-0.3,0.7-0.7
		c0-0.1,0-0.3,0-0.4c0.2,0,0.3,0,0.5,0c0.7,0,5.2,0.3,7.9,0.6c2.6,0.3,8.9,2.6,9.8,2.9c0.9,0.3,1.8,0.7,2.6,0.9
		c0.2,0.1,0.4,0.1,0.5,0.2c0.6,0.2,1.5,1,1.9,1.4c0.1,0.1,0.2,0.2,0.3,0.2c0.3,0.1,0.7,0.1,1-0.1c0.4-0.4,1-0.7,1.3-0.8
		c0.1,0,0.3,0.3,0.5,0.4c0.1,0.1,0.3,0.3,0.4,0.4c0.1,0,0.1,0.1,0.2,0.2c0.4,0.3,0.9,0.7,1.7,0.9c0.2,0.1,0.7,0.8,0.9,1.3
		c0.1,0.2,0.3,0.4,0.6,0.5l0.5,0.2l-0.1,0.8L99.6,24l0,0c-0.1,0.3,0,0.6,0.3,0.8c0.2,0.2,0.5,0.3,0.9,0.3c0,0,0,0,0.1,0
		c0.7-0.1,1.5-0.3,1.7-0.3c0.2,0,0.7,0.3,1,0.4l0.2,0.1c0.3,0.2,1.2,1.1,1.6,1.5c0.5,0.5,0.9,0.9,1.1,1.1c0.1,0.1,0.4,0.4,0.6,0.7
		c0.4,0.5,0.9,1.1,1.5,1.6c0.3,0.2,0.4,1,0.5,1.5c0,0.4,0.1,0.7,0.2,1c0.1,0.2,0.2,0.4,0.3,0.6c0.2,0.3,0.5,0.6,0.7,0.9
		c0.1,0.1,0.2,0.2,0.3,0.3c0,0.2,0,0.6,0,0.9c0,0.8,0,1.9,0.5,2.8c0.4,0.7,0.4,2.5,0.4,3.4c0,0.5,0,0.7,0,0.9c0,0,0,0,0,0
		c-0.2,0.1-0.7,0.4-0.7,1.2c0,0,0,0,0,0.1c0,0.2,0,0.3,0,0.5c0.1,0.8,0.4,1.4,0.9,1.8c0,0.1-0.1,0.2-0.1,0.2
		c-0.1,0.3-0.2,0.6-0.3,0.9c-0.1,0.7-0.1,1.9,0.1,2.9c0,0,0,0.1,0,0.1c0.1,0.2,0.1,0.6,0.1,0.9c0,0.2,0,0.4,0,0.6
		c0,0.6,0.1,1.4,0.2,2.1c0.1,0.8,0.1,1.1,0,1.5c0,0.3-0.1,0.6-0.1,1c0,0.9,0.2,1.2,0.4,1.6c0.1,0.2,0.2,0.4,0.4,0.8
		c0.2,0.5,0.2,0.7,0.1,1c0,0,0,0,0,0c0,0.2-0.1,0.4-0.1,0.6c0,0.1,0,0.3,0,0.5c0,0.2-0.2,0.7-0.5,1.2h-0.7c0,0,0,0-0.1,0
		c0,0-0.1,0-0.1,0c0,0-0.1,0-0.1,0c0,0,0,0-0.1,0c0,0,0,0,0,0c0,0-0.1,0-0.1,0.1c-0.1,0-0.1,0.1-0.2,0.1c-0.2,0.1-0.3,0.3-0.4,0.4
		c-0.1,0.1-0.2,0.2-0.3,0.3c-0.2,0.1-0.4,0.1-0.6,0.1c-0.1,0-0.2,0-0.3,0c-0.2,0-0.4,0.1-0.6,0.2c-0.1,0-0.1,0.1-0.2,0.1
		c-0.4,0.4-0.3,0.9-0.3,1.4c0,0,0,0.1,0,0.1c-0.2,0.2-0.4,0.5-0.8,0.9c-0.1,0.2-0.3,0.4-0.5,0.7c-0.1,0.1-0.2,0.2-0.3,0.4
		c-0.2-0.6-0.4-1.5-0.5-2.2c0-0.1,0-0.1,0-0.2c-0.1-0.4-0.2-0.9-0.3-1.4v0c0,0,0,0,0,0c-0.1-0.2-0.1-0.4-0.2-0.6
		c-0.1-0.4-0.3-0.9-0.3-1.1c0-0.3,0.1-0.7,0-1c0-0.1,0-0.1,0-0.2c0-0.5-0.2-0.9-0.3-1.3c-0.1-0.3-0.4-1.5-0.6-2.2
		c-0.2-0.6-0.3-1.1-0.4-1.4c0-0.1-0.1-0.5-0.2-1.5c0-0.4,0-0.6,0-0.7c0-0.8,0-1.3,0-1.7c0-0.2,0-0.4,0-0.6c0-0.4-0.1-0.7-0.2-1.1
		c-0.2-0.9-0.3-1.7-0.5-2.5l0-0.3c-0.1-0.3-0.1-0.5-0.1-0.6c0-0.1,0-0.2,0-0.3c0-0.1,0-0.1,0-0.2l0-0.2c0-0.1,0-0.2-0.1-0.3
		c0-0.2,0-0.4,0.1-0.7c0.1-0.4,0.2-0.9,0.1-1.6c0-0.1-0.1-0.3-0.1-0.5c-0.1-0.2-0.2-0.5-0.3-0.8l-0.1-0.3c-0.1-0.2-0.2-0.4-0.3-0.6
		c0,0,0,0,0-0.1c-0.2-0.3-0.2-0.4-0.3-0.7c0-0.1,0-0.2-0.1-0.4c-0.1-0.3,0-0.5,0-0.8c0,0,0,0,0-0.1c0-0.1,0-0.2,0-0.3
		c0-0.5,0-1.1-0.4-1.9c-0.3-0.7-0.6-1-0.8-1.3c-0.2-0.2-0.3-0.4-0.5-0.8c-0.2-0.4-0.4-1.1-0.5-1.6c-0.1-0.5-0.2-0.8-0.3-1.1
		c0-0.1,0-0.5,0-0.7c0-0.8-0.1-1.7-0.5-2.3c0,0,0,0,0,0c0-0.1,0-0.1-0.1-0.2c-0.2-0.4-0.6-0.6-1.1-0.8c-0.6-0.2-1.2-0.3-1.6-0.3
		c-0.3,0-0.6,0-0.8,0c-0.3-0.1-0.7-0.4-1.3-0.8c-0.3-0.2-0.5-0.4-0.6-0.5l0,0C93.1,26,93,26,93,25.9c-0.4-0.2-0.7-0.4-1.1-0.7
		c-0.7-0.4-1.4-0.9-2.1-1c-0.3-0.1-0.6-0.1-0.9-0.1c-0.8,0.1-1.6,0.3-2.2,0.5c0,0,0,0,0,0v0c-0.1,0-0.2,0.1-0.3,0.1l0,0
		C86,24.9,85.9,25,85,26.2c-0.2,0.2-0.3,0.4-0.3,0.7c0,0.3,0.1,0.5,0.4,0.7l0,0c0,0,0,0,0.1,0.1l0.3,0.2c-0.1,0.1-0.1,0.1-0.1,0.2
		c-0.1,0.2-0.1,0.5,0,0.7c0,0,0.1,0.3,0.3,0.6c0,0,0,0,0,0c0.1,0.1,0.1,0.2,0.2,0.3c-0.1,0.1-0.2,0.3-0.3,0.5c0,0.1,0,0.2,0,0.3
		c0,0,0,0.1,0,0.1c-0.1,0-0.2,0.1-0.3,0.1c-0.2,0.1-0.3,0.3-0.3,0.5c0,0.2,0,0.4,0,0.5c0,0.1,0.1,0.2,0.1,0.4l-0.6-0.4
		c-0.1,0-0.1-0.1-0.2-0.1c-1.8-0.8-2.2-0.9-2.3-0.9c-0.1,0-0.2,0-0.3,0c-0.2,0-0.5,0.1-0.6,0.3c-0.1,0.1-0.3,0.3-0.3,1
		c-0.2-0.2-0.4-0.5-0.6-0.6c-0.5-0.3-1-0.3-1.6-0.1c-0.6,0.3-1.1,0.8-1.2,1.4c0,0.2-0.1,0.4-0.1,0.6c-0.2,0-0.4,0-0.5,0.1
		c-0.1,0-0.2-0.1-0.3-0.1c-0.3-0.1-0.7-0.3-1.1-0.3c-0.7,0-1.1,0.5-1.3,0.8c0,0-0.1,0.1-0.1,0.1c-0.2,0.1-0.4,0.2-0.5,0.3
		c-0.5-0.4-1-0.6-1.1-0.6c-0.3-0.1-0.5-0.1-0.8,0c-0.2,0.1-0.4,0.3-0.5,0.6c0,0,0,0,0,0c-0.3,0-0.8,0-1.3,0L68,33.9
		c-0.1,0-0.2,0-0.3,0c-0.5,0.1-1.1,0.3-1.5,0.4c-0.2-0.2-0.5-0.3-0.7-0.4c0-0.2,0-0.3-0.1-0.5c-0.2-0.4-0.5-0.6-0.9-0.6
		c0,0-0.9,0-1.4,0.1c-0.2-0.1-0.7-0.4-0.9-0.5c-0.3-0.2-0.5-0.3-0.7-0.4c-0.1,0-0.3-0.1-2.2,0c-0.1,0-0.1,0-0.2,0
		c-0.4,0.1-1.4,0.3-2,0.5c-0.4,0.1-0.7,0.2-0.8,0.2c-0.5,0.1-1.7,1.1-2.1,2.1c-0.1,0.2-0.1,0.4-0.2,0.5c-0.1,0.3-0.1,0.6-0.1,0.9
		c0,0.2,0,0.4,0,0.6c0,0.2,0,0.5,0,0.7l-0.1,0.1c-0.3,0.5-0.6,1.1-0.7,1.5c0,0.1,0,0.1,0,0.2c0,0.1-0.1,0.4-0.2,0.6
		c-0.2,0.7-0.4,1.2-0.3,1.7c0,0.1,0,0.2,0,0.3c0,0.4,0.1,1.1,0.2,1.6c0,0,0,0,0,0c0,0.2,0.1,0.4,0.2,0.5c-0.1,0.4-0.4,1.2-0.6,1.7
		c-0.2,0.5-0.4,1.1-0.6,1.6l-0.1,0.4c-0.2,0.6-0.4,1.2-0.5,1.7c-0.1,0.4-0.3,1.3,0.3,1.8c0,0,0,0.1,0.1,0.2c0.1,0.2,0.1,0.4,0.2,0.5
		c0,0.2-0.1,0.6-0.1,1c-0.1,0.9,0,1.3,0.1,1.6c-0.1,0.1-0.2,0.3-0.3,0.5c-0.3,0.4-0.5,0.7-0.5,1.2c0,0,0,0.1,0,0.1
		c0,0.3,0.1,0.5,0.2,0.7c0.1,0.2,0.2,0.4,0.3,0.8c0.3,0.8,0.4,2.4,0.5,3.2l0,0c0.1,0.8,0.3,3.1,0.3,3.5c0,0.3-0.1,1.4-0.2,2.4
		c0,0.2,0,0.4-0.1,0.5c-0.2-0.2-0.4-0.4-0.7-0.6c-0.4-0.3-0.9-0.6-1.4-0.5c-0.1-0.1-0.3-0.2-0.4-0.3c-0.1-0.1-0.2-0.2-0.3-0.2
		c-0.1-0.1-0.1-0.1-0.2-0.2c0-0.1-0.1-0.2-0.1-0.3c-0.1-0.1-0.2-0.3-0.3-0.4c-0.1-0.1-0.2-0.2-0.2-0.3c-0.1-0.1-0.2-0.2-0.3-0.2
		c0-0.1-0.1-0.1-0.1-0.2c0,0,0,0,0,0c-0.1-0.1-0.2-0.2-0.3-0.2C47.2,64.3,47,64.2,46.8,64.1C46.9,64.1,46.8,64.1,46.8,64.1z
		 M56.4,82.7c-0.5,0-1,0.4-1,1c0,0.3,0.1,0.7,0.3,1.4l0.1,0.3c-0.7-0.3-1.5-0.7-2.1-1.1c-0.8-0.5-1.1-1-1.9-2
		C51.4,82,51,81.5,50.6,81c-1.1-1.4-1.9-3.9-2.5-5.7c-0.2-0.6-0.4-1.2-0.5-1.7c-0.2-0.4-0.3-1.1-0.5-1.9c0,0,0.1,0,0.1,0
		c0,0,0,0,0,0c0.5,0,0.9-0.5,0.9-1c0-0.5-0.1-2,0-2.4c0-0.1,0-0.2,0-0.4c0.1,0.1,0.3,0.2,0.4,0.4c0.5,0.5,0.9,0.5,1.3,0.4
		c0,0,0.1,0,0.1,0.1c0.9,0.7,1.4,1.5,1.5,1.5c0.1,0.1,0.2,0.2,0.3,0.3c-0.2,0.1-0.4,0.2-0.5,0.4c-0.2,0.4-1.4,2.6-1.3,4
		c0.1,1.4,0.5,2.2,0.8,2.8c0.3,0.5,1.4,2,1.6,2.3c0.2,0.2,0.5,0.4,0.8,0.4c0.2,0,0.4-0.1,0.6-0.2c0.4-0.3,0.5-0.9,0.2-1.3
		c-0.5-0.7-1.3-1.7-1.5-2c-0.2-0.4-0.5-1-0.5-2c0-0.6,0.6-2.1,1.1-2.9c0.3-0.4,0.1-1-0.3-1.3c0.2-0.1,0.4-0.3,0.5-0.6
		c0,0,0.1-0.2,0.2-0.5c0.1-0.2,0.2-0.4,0.3-1.4c0.2-1.3,0.3-3.2,0.3-3.3c0,0,0-0.1,0-0.1c0-0.1-0.2-2.8-0.3-3.6l0-0.1
		c-0.1-0.9-0.3-2.7-0.6-3.6c-0.2-0.5-0.3-0.8-0.4-1c0-0.1,0.1-0.1,0.1-0.2c0.4-0.5,0.9-1.3,0.5-2.1c0-0.1,0-0.3,0-0.9
		c0-0.5,0.1-1,0.1-1.1c0-0.1,0-0.3,0-0.4c0-0.1-0.1-0.5-0.3-1c-0.1-0.2-0.2-0.4-0.3-0.6c0-0.1,0-0.2,0.1-0.3c0.1-0.4,0.3-1,0.4-1.6
		l0.1-0.4c0.1-0.4,0.3-0.9,0.5-1.4c0.7-1.7,1-2.6,0.5-3.3c0,0,0,0,0-0.1c0,0,0,0,0,0c-0.1-0.4-0.1-1-0.2-1.3c0-0.1,0-0.2,0-0.3
		c0-0.2,0.2-0.7,0.3-0.9c0.1-0.3,0.2-0.6,0.2-0.9c0-0.2,0.4-0.9,0.6-1.1l0.1-0.2c0.2-0.4,0.2-0.8,0.3-1.4c0-0.5,0.1-1.1,0.2-1.4
		c0.2-0.4,0.7-0.9,0.9-1.1c0.1,0,0.3-0.1,0.6-0.1c0.6-0.1,1.5-0.3,2-0.5c0.6,0,1.3,0,1.6,0c0.1,0,0.1,0.1,0.2,0.1
		c0.3,0.2,0.6,0.4,0.9,0.5l-3.1,2.6c0,0,0,0,0,0c0,0-0.1,0.1-0.1,0.1c0,0,0,0,0,0c-0.1,0.2-0.2,0.4-0.2,0.6c0,0.5,0.4,1,1,1
		c0.1,0,0.2,0,0.3,0c0.1,0,0.1,0,0.2-0.1c0,0,0,0,0,0s0,0,0,0c0,0,3.5-2.4,4.2-2.9c0.2-0.2,0.4-0.2,0.6-0.2c0.1,0,0.1,0.1,0.2,0.1
		c0.1,0.1,0.1,0.2,0.2,0.3c0.4,0.3,0.6,0.3,2.8-0.3l1.7,0.2c0.2,0,1.3,0.1,1.8,0c0.3-0.1,0.5-0.2,0.7-0.3c0.1,0.1,0.2,0.1,0.2,0.2
		c0.3,0.4,0.7,0.5,1,0.5c0.6,0,0.9-0.4,1.1-0.7c0,0,0,0,0,0c0.4-0.1,0.7-0.5,0.9-0.7c0,0,0,0,0,0c0.1,0,0.2,0.1,0.2,0.1
		c0.3,0.1,0.6,0.2,0.9,0.2c0.3,0,1.2-0.1,1.6-0.2c0.4-0.1,0.8-0.4,0.8-0.8c0-0.2,0.1-0.7,0.2-1.1c0.1,0.2,0.3,0.5,0.4,0.7
		c0.4,0.7,0.8,1.4,1.6,1.3c0.3,0,0.9-0.1,1.4-1.7c0-0.1,0.1-0.3,0.1-0.4c0.2,0.1,0.4,0.2,0.7,0.3l1.4,1.1c0.3,0.2,0.7,0.3,1,0.1
		c0.1-0.1,0.3-0.2,0.4-0.2c0.3,0,0.6-0.2,0.7-0.4c0.1-0.1,0.1-0.2,0.2-0.3c0.3,0.2,0.5,0.3,0.6,0.4c0.4,0.3,0.9,0.2,1.2-0.1
		c0.2-0.2,0.7-0.7-0.4-2.3c-0.2-0.2-0.4-0.6-0.7-0.9c0.1-0.2,0.2-0.4,0.2-0.6c0-0.4-0.2-0.8-0.5-1c0,0,0,0,0,0v0c0,0,0,0,0,0
		c0,0,0,0,0,0c0.3-0.1,0.4-0.4,0.5-0.7c0.1-0.3-0.1-0.7-0.3-0.9L87,26.7c0.1-0.1,0.1-0.1,0.1-0.2c0,0,0.1,0,0.2-0.1c0,0,0,0,0,0v0
		c0.4-0.2,1.1-0.4,1.7-0.4c0.1,0,0.1,0,0.3,0c0.4,0.1,1,0.5,1.6,0.8c0.4,0.2,0.8,0.5,1.2,0.7c0.1,0.1,0.3,0.3,0.6,0.5
		c0.9,0.7,1.6,1.1,2.2,1.2c0.1,0,0.2,0,0.4,0c0,0,0.4-0.1,0.8-0.1c0.3,0,0.7,0,0.9,0.1c0,0,0.1,0,0.1,0c0.1,0.1,0.1,0.2,0.2,0.4
		c0.1,0.2,0.1,0.8,0.1,1.2c0,0.6,0,1.1,0.2,1.4c0.1,0.1,0.2,0.5,0.2,0.8c0.2,0.6,0.4,1.3,0.7,1.9c0.2,0.5,0.4,0.8,0.6,1
		c0.2,0.3,0.4,0.5,0.6,1.1c0.2,0.5,0.2,0.8,0.2,1.2c0,0.4-0.1,0.8,0.1,1.4c0.2,0.9,0.3,1.1,0.6,1.8c0.1,0.1,0.2,0.3,0.3,0.5l0.1,0.3
		c0.3,0.6,0.3,1,0.2,1.5c-0.1,0.4-0.1,0.9-0.1,1.4c0,0.1,0,0.2,0,0.3l0,0.2c0,0.2,0,0.3,0,0.4c0,0.2,0,0.3,0.1,0.7l0,0.2
		c0.1,0.8,0.3,1.7,0.5,2.7c0.1,0.3,0.1,0.5,0.1,0.7c0,0.2,0,0.3,0,0.5c0,0.4,0,1,0,1.8c0,0,0,0.3,0,0.7c0,1,0.1,1.6,0.2,2
		c0.1,0.2,0.2,0.7,0.3,1.3c0.3,1.3,0.6,2.2,0.7,2.6c0.1,0.2,0.1,0.4,0.2,0.6c0,0,0,0,0,0c0,0,0,0,0,0.1c0,0.2,0,0.5,0,0.7
		c-0.1,0.6,0.1,1.2,0.4,1.9c0.1,0.2,0.1,0.4,0.2,0.6c0,0,0,0,0,0c0.1,0.4,0.2,0.8,0.3,1.1c0,0,0,0.1,0,0.1l0,0
		c0.2,1.5,0.8,3.5,0.8,3.5c0,0.1,0.1,0.3,0.2,0.4c-0.1,0.5,0,1,0.3,1.5c0.2,0.4,0.6,0.7,0.8,0.8c0.1,0,0.1,0.1,0.2,0.1
		c0,0.3-0.1,0.6-0.1,0.9c0,0.4-0.1,1-0.2,1.3c-0.2,0.3-0.4,0.8-0.6,1.4c-0.1,0.5,0.2,1,0.7,1.1c0.1,0,0.1,0,0.2,0
		c0.4,0,0.8-0.3,0.9-0.7c0.1-0.3,0.2-0.6,0.2-0.7c0.3-0.4,0.4-1,0.5-2.2c0-0.3,0.1-0.6,0.1-0.8c0.2-1.1-0.6-1.7-0.9-1.9
		c-0.1-0.1-0.2-0.2-0.3-0.2c-0.1-0.2-0.1-0.3-0.1-0.4c0.3-0.2,0.7-0.7,1.2-1.5c0.2-0.2,0.3-0.4,0.4-0.6c0.4-0.5,0.8-1,0.9-1.1
		c0.3-0.3,0.3-0.7,0.3-1.1c0.1,0,0.2,0,0.3-0.1c-0.1,1.5-0.1,3.6-0.3,5.3c-0.2,2.1-1,5.2-1.6,7.2c-0.2,0.7-0.4,1.3-0.5,1.7
		c-0.1,0.6-0.3,1.4-0.4,2.3c-0.2,1-0.3,2-0.5,2.5c-0.2,0.1-0.9,0.1-1.3,0c-0.3-0.1-0.5,0-0.8,0.2c-0.2,0.2-0.4,0.4-0.4,0.7
		c0,0-0.4,4.5-0.7,6.2c-0.2,1.7-0.7,3.9-0.7,3.9c-0.1,0.3,0,0.7,0.3,0.9c0,0,0,0,0,0c0,0.9,0,1.9-0.1,2.1c-0.1,0.2-0.2,0.7-0.4,2
		c-0.2,1.3-0.6,3-0.9,4.1c-0.8,2.8-4,8.6-6.7,11.9c-2.8,3.4-7.7,9.1-8.4,9.6c-0.6,0.5-1.5,1.3-2,1.8l-2.9,0.1
		c-0.2-0.2-0.5-0.5-1-0.7c-0.8-0.4-10.3-6.9-13.5-9.7c-4.1-3.6-6.4-6.4-6.8-8.4c-0.3-1.6-0.9-3.6-1.3-5.1c-0.2-0.9-0.5-1.8-0.5-2
		c0-0.1,0-0.2,0-0.4l0-0.2c0,0,0,0,0-0.1c0,0,0,0,0,0c-0.1-0.6-0.2-1.4-0.3-1.8c0,0,0-0.1,0-0.1c0,0-0.5-3.4-0.5-5.4
		c0-1.8-0.8-5-1-6.1c0.2-0.4,0.5-1,0.3-1.7l-0.1-0.5c-0.1-0.4-0.2-0.8-0.2-1C57.3,83.2,56.9,82.7,56.4,82.7z M51.8,111.2
		c0.1,0,0.1-0.1,0.1-0.1c0.2-0.1,0.3-0.2,0.4-0.3c0.5-0.7,2.8-4.1,3.2-5.2c0.1-0.4,0.5-1.3,0.8-2.3c0.3-0.7,0.5-1.4,0.8-2.1
		c-0.2,2.2-0.7,7.6-0.1,10.3c0.4,1.6,1.7,5.3,3.1,9.2c0.9,2.6,1.9,5.3,2.6,7.3c-0.6,1.1-3.1,5.6-3.7,7.2c-0.6,1.6-2.8,5.4-4.1,7.4
		c-0.7,1.1-3.3,4.1-4.8,5.9c-0.3,0.3-0.5,0.6-0.7,0.8c-0.2-0.1-0.3-0.3-0.4-0.4c-0.7-0.9-7.4-4.5-8.2-4.8c-0.5-0.2-0.7-0.4-0.8-0.6
		c0.2-0.6,0.9-2.2,1.4-3.4c0.4-0.9,0.8-1.7,1-2.3c0.4-0.9,0.7-2.1,1-3.5c0.4-1.4,0.7-2.8,1.2-4c0.4-1.1,0.7-2.6,1-4.2
		c0.3-1.9,0.7-3.8,1.3-5.4C47.9,118.6,50.7,113.1,51.8,111.2z"/>
	<path d="M70.2,92.7c-0.3,0.5-0.1,1,0.4,1.3c0.1,0,2.1,1.1,3.4,1.5c1,0.2,4.6,0.7,6.4,0.7c0.4,0,0.6,0,0.8-0.1
		c0.4-0.1,0.9-0.1,1.4-0.2c0.4,0,0.8-0.1,1.2-0.1c0.2,0,0.4-0.1,0.6-0.1c1-0.1,2.4-0.3,3.4-0.7c1.2-0.4,2.5-1,2.5-1.1
		c0.5-0.2,0.7-0.8,0.4-1.3c-0.2-0.5-0.8-0.7-1.3-0.4c0,0-1.2,0.6-2.4,1c-0.8,0.3-2.2,0.5-3,0.6c-0.3,0-0.5,0.1-0.7,0.1
		c-0.3,0.1-0.7,0.1-1.1,0.1c-0.5,0-1.1,0.1-1.6,0.2c-0.7,0.1-5.2-0.3-6.3-0.6c-0.9-0.2-2.4-1-2.9-1.3C71,92,70.4,92.2,70.2,92.7z"/>
	<path d="M93.1,112.9c-0.1,0-2.3,0.7-4.2,1.4c-0.2,0.1-0.5,0.2-0.7,0.4c-0.8,0.5-2.4,1.4-6.2,2.1c-4.6,0.9-10.2-1.3-10.3-1.4
		c-0.5-0.2-1,0-1.2,0.5c-0.2,0.5,0,1,0.5,1.2c0.2,0.1,4.3,1.7,8.6,1.7c0.9,0,1.8-0.1,2.7-0.3c4.1-0.8,5.9-1.8,6.8-2.4
		c0.2-0.1,0.4-0.2,0.5-0.3c1.8-0.7,4-1.3,4-1.3c0.5-0.1,0.8-0.7,0.7-1.2C94.1,113,93.6,112.7,93.1,112.9z"/>
</g>
</svg>
