<svg id="Capa_1" xmlns="http://www.w3.org/2000/svg" viewBox="0 0 161.2 161.2"><style>.st0{fill:none}.st1{fill:#232424}.st2{fill:#352918}.st3{fill:#db9f75}.st4{fill:#FFF}.st5{fill:#3e4f71}.st6{fill:#d8b29a}</style><path class="st0" d="M103.8 46.4c.4.4.7.6 1.4 1.1.7.5.8 1.5 1.1 1.9.3.4.9.8 1 .4.1-.4-.8-1.4-.9-1.7-.2-.4-1-1.6-2.2-2.8-1.2-1.2-.6-.5-1.1-1.1 0 0 .4.1 1 .5s.7.5 1.4 1.1c.4.3.2 0-.1-.4-.3-.4-.7-.9-.7-1-.1-.2-.4-.7-.7-.9-.3-.2-.6-.5-.6-.5s-.1-.1-.3-.2c.1.6 0 1.1-.1 1.6-.1.3-.1.5-.1.7 0 .1 0 .2.1.3v.4c.3 0 .5.3.8.6zM50.2 64.2s-.2 1.2-.4 1.4c-.2.1-.5.4-.8.6.1.1.1.1.3.2.1.1.2.2.4.3.5-.1 1 .2 1.4.5.2.2.5.4.7.6 0-.2 0-.4.1-.5-.1-.3-.7-1-.8-1.5-.2-.5-.9-1.6-.9-1.6z"/><path class="st1" d="M144.2 115.3c-1.2-.4-3.8-1.1-6.7-1.9-4.4-1.2-9.4-2.6-11.1-3.3-1.6-.6-5.8-1.8-9.1-2.7 1.4 1.4 2.8 2.9 3.2 3.6.2.5 1 1.8 1.9 3.4 1.7 2.9 3.7 6.6 4.4 7.9.3.5.8 1.7 1.6 3.1 6 11.8 6 11.8 5.9 12.4-.2.7-3.5 3.6-4 3.9-.5.3-2.7 2.1-4.4 3.6.3.2.6.5.9.7.1.1.2.1.2.2 10.5-7.4 19.1-17.3 25.1-28.7-1-.3-2.1-.6-3.1-.9-2-.5-3.7-1-4.8-1.3zM123.8 146.4l-.3-.2c-4.1-3.5-9.3-7.8-10.2-8.7-.9-.8-4.4-4.5-6.4-6.6-.1 2.1-.1 4.4-.1 6.5 0 1.4-.1 2.8-.1 4v.1c0 1 0 2.2-.1 3.1-.1 2.3-.4 7.4-.8 12.7 7-2.3 13.6-5.5 19.5-9.6-.5-.4-1-.7-1.2-1 0-.2-.2-.2-.3-.3z"/><path class="st1" d="M107.3 122.5c-.1.9-.2 2.8-.3 5.6 1.2 1.2 6.6 6.9 7.7 7.9.6.7 4.1 3.6 9.6 8.2 1.3-1.1 4.3-3.6 4.9-4.1.5-.4 2.3-2.1 3.1-2.8-.8-1.7-4-7.9-5.6-11.1-.7-1.5-1.3-2.6-1.6-3.1-.6-1.3-2.8-5.1-4.3-7.8-.9-1.7-1.7-3-1.9-3.4-.4-.8-3.4-3.8-5.3-5.6-.4-.1-.6-.2-.6-.2-.2 0-.3-.1-.5-.3-.5-.5-4.7-4.9-5.4-6.1-.3-.5-1-1.5-1.7-2.4v.1c.4 1.1 1.9 5 2 7.1.2 2 .4 14.7-.1 18z"/><path class="st2" d="M104.2 42.7s-.4-.8-.9-1.2c-.3-.2-.8-.5-1.2-.9v.1c.1.2.2.3.3.6l.1.3c.1.3.2.5.3.8.1 0 .1.1.2.1.9.2 1.2.2 1.2.2zM110.6 44.5c-.2-.1-1.1-.6-1.4-1-.3-.4-1.4-.8-1.4-.8s-.1.5.1.6 1 .8 1.3.9.3.6.5.9c.2.4.8 1.1 1.1 1.4.2.3-.3 1.1-.5 1.1s-.9-.8-1.2-1.3c-.3-.5-2.3-1.5-2.6-1.7-.3-.2-.2.4-.1.6 0 0 0 .1.1.1.3.3 1.3.8 1.8 1.2.6.4.8.8 1.3 1.3s.4.5.6.9c.2.4.7.6 1.3 1.1-.2-1-.2-2.2-.1-2.9 0-.3.2-.6.3-.9 0-.1.1-.1.1-.2-.5-.4-.8-1-.9-1.8-.2.3-.2.5-.3.5zM107.4 60.1c-.4-.2.2 1.4.5 1.8.1.2.5.7.7 1.1.2-.1.4-.2.6-.2-.3-.3-.6-1-.7-1.4-.2-.6-.7-1.2-1.1-1.3zM98 24.6c-.3-.1-1.6-1.6-2.3-1.9-.4-.2-.9-.1-.6.2s.8.9 1.1 1.4c.3.5.5 1.9.8 1.6.4-.3.4-.7.6-.6.2.1.3.5.8 1.2s1.6 1.5 1.2 1.6c-.4.1-.4.3-1 .3 0 .1.1.1.1.2.5.6.5 1.4.5 2.3v.7c.1.3.2.6.3 1.1.1.5.3 1.2.5 1.6.2.4.3.5.5.8.2.3.4.6.8 1.3.4.8.4 1.4.4 1.9.1 0 .4.1.5.1.2.1.4-.1.8.1.4.1.6.3 1.2.6.6.4.5.5 1.2.7.7.2.2-.5.4-.7.2-.2-.4-.8-.7-1.2-.4-.4-.6-.4-1.2-.5-.5-.2-.6-.2-1.1-.5-.5-.3-1.2-.9-1.5-1.2-.4-.3.5-.8.9-.8s.7.4 1 .4c.4 0 .6.2 1.1.2s.7.2 1.1.4c.4.2.8.4 1.1.3.3-.1.5.4.8.8.4.4.8 1.1 1 1.5.2.5-.4.4-.6.3-.2-.1-.6-.5-1-.6-.4-.1.2.6.4.8.2.2.9.7 1.2.8.4.1.5.5 1 .8.5.3 0 .9 0 .9s.4.7.8 1c.4.3.3.4.5.8 0 0 0 .1.1.1v-.1c0-.9.5-1.1.7-1.2v-.9c0-.9-.1-2.7-.4-3.4-.5-.9-.5-1.9-.5-2.8v-.9l-.3-.3c-.3-.3-.5-.6-.7-.9-.7-.7-1.6-1.6-2-1.9.3.5.3 1.5.2 1.6-.2.1-1 .4-1 .4s-.5.2-.5.4c-.1.2-1.7-.8-1.9-1.1-.2-.2-.2-1-.2-1s1.5.8 1.3.4c-.1-.4.1-.9-.4-1.4-.5-.5-.6-.2-1.1-.4-.5-.2-1.6-.3-1.7-.6-.1-.3 1.1-.1 1.3-.2.2-.1.8 0 .3-.5s.6-.5.4-1c-.2-.5-.6 0-1.1-.1-.5-.1-1.5-.6-1.2-.6.2-.1 1.5.1 1.2-.4-.3-.4-.3-.4-.7-.5-.4-.1-.9.1-1.3-.4-.3-.3-.3-.6-.2-.8h-.1c-.3.1-.6 0-.9-.3-.2-.2-.3-.5-.3-.8l-.5.9c0 .3-.8.1-1.1 0zM110.1 49.7s-.2.6-.2.9c.1.3-.4.9-.6 1.1-.2.2.1.9.4 1.5.3.6.6 1.6.9 1.9.2.3-.1.9-.1.9 0 .2-.1.4.2 1.1.3.6.7.8 1.1 1.2.4.4.6.7.8 1 .1-.3.1-.5-.1-1-.1-.4-.3-.6-.4-.8-.3-.4-.4-.8-.4-1.6 0-.4 0-.7.1-1 0-.4.1-.7 0-1.5-.1-.7-.1-1.5-.2-2.1v-.6c0 .1-.1.1-.1.1-.1.4-1.4-1.1-1.4-1.1zM111.3 59c-.4-.4-.8-1.1-1.1-1.4-.2-.3-1.3-1.6-2-2.2-.7-.6.2.9.6 1.4.4.4.7 1.6 1.2 2.1s1.3 1 1.5 1.2c.2.2.6.9.6 1.2 0 .2-.7-.1-.9.2-.3.2-.5.1-.4.5.1 0 .1-.1.2-.1 0 0 .1 0 .1-.1h1.1c.3-.5.6-1 .5-1.2v-.5h-.4c-.7-.1-.6-.7-1-1.1zM103.2 40.5c.4.2.4.3.8.6.4.4.7.1 1 .1.3-.1-.7-.7-.7-.7s-.6-.5-.9-.7c-.2-.2-.6-.4-1.1-.6-.4-.2-.4-.3-.5-.5v.8c0 .2.1.3.1.4.2.1.4.2.5.2.3 0 .4.2.8.4z"/><path class="st3" d="M46.1 66.1c-.1 0-.2 0-.3.1.1.4.2.9.3 1.5v-1.1-.5zM57.3 83.7c0 .1.1.6.2 1l.1.5c.2.7-.1 1.3-.3 1.7.3 1.1 1 4.3 1 6.1 0 2 .5 5.4.5 5.4v.1c.1.4.2 1.2.3 1.8V101c0 .2.3 1.2.5 2 .4 1.5.9 3.6 1.3 5.1.4 2 2.7 4.9 6.8 8.4 3.2 2.8 12.6 9.3 13.5 9.7.4.2.8.4 1 .7l2.9-.1c.5-.5 1.3-1.3 2-1.8.7-.6 5.6-6.2 8.4-9.6 2.8-3.3 5.9-9.2 6.7-11.9.3-1.1.7-2.9.9-4.1.2-1.3.3-1.7.4-2 .1-.3.1-1.3.1-2.1-.2-.2-.3-.6-.3-.9 0 0 .4-2.2.7-3.9.2-1.7.6-6.1.7-6.2 0-.3.2-.5.4-.7.2-.2.5-.2.8-.2.5.1 1.1.1 1.3 0 .2-.5.3-1.6.5-2.5.1-.8.3-1.6.4-2.3.1-.4.3-1 .5-1.7.6-2 1.4-5.1 1.6-7.2.1-1.7.2-3.8.3-5.3-.1 0-.2 0-.3.1 0 .4 0 .8-.3 1.1-.1.1-.5.6-.9 1.1-.1.1-.2.3-.4.6-.6.8-.9 1.3-1.2 1.5 0 .1 0 .2.1.4 0 .1.2.2.3.2.4.3 1.1.8.9 1.9 0 .2-.1.5-.1.8-.1 1.2-.2 1.8-.5 2.2-.1.1-.2.5-.2.7-.1.4-.5.7-.9.7h-.2c-.5-.1-.8-.6-.7-1.1.2-.7.3-1.1.6-1.4.1-.2.1-.9.2-1.3 0-.3.1-.6.1-.9-.1 0-.1-.1-.2-.1-.2-.2-.6-.4-.8-.8-.3-.5-.4-1.1-.3-1.5-.1-.1-.2-.2-.2-.4 0-.1-.6-2-.8-3.5v-.1c-.1-.3-.1-.7-.3-1.1-.1-.2-.1-.4-.2-.6-.3-.8-.5-1.4-.4-1.9v-.7-.1c0-.3-.1-.5-.2-.6-.2-.4-.4-1.3-.7-2.6-.1-.5-.3-1.1-.3-1.3-.1-.4-.2-1-.2-2V53v-1.8-.5c0-.2 0-.4-.1-.7-.2-1-.4-1.9-.5-2.7v-.2c-.1-.4-.1-.6-.1-.7V45.8v-.3c-.1-.5 0-1 .1-1.4.1-.5.2-.9-.2-1.5l-.1-.3c-.1-.2-.2-.4-.3-.5-.4-.7-.5-.8-.6-1.8-.1-.6-.1-1-.1-1.4 0-.5 0-.7-.2-1.2-.3-.6-.5-.8-.6-1.1-.2-.3-.4-.5-.6-1-.3-.6-.5-1.3-.7-1.9-.1-.3-.2-.7-.2-.8-.2-.4-.2-.8-.2-1.4 0-.3 0-1-.1-1.2-.1-.1-.2-.3-.2-.4h-.1c-.2-.1-.5-.1-.9-.1s-.8.1-.8.1h-.4c-.6-.1-1.3-.5-2.2-1.2-.3-.2-.5-.4-.6-.5-.4-.2-.8-.5-1.2-.7-.6-.3-1.1-.7-1.6-.8h-.3c-.6.1-1.3.3-1.7.4-.1 0-.1 0-.2.1 0 0-.1.1-.1.2l.7.6c.2.2.4.5.3.9 0 .3-.2.6-.5.7.4.2.6.6.5 1 0 .2-.1.4-.2.6.3.3.5.7.7.9 1.1 1.6.6 2.1.4 2.3-.3.3-.9.4-1.2.1l-.6-.4c0 .1-.1.2-.2.3-.2.2-.5.4-.7.4-.1 0-.3.1-.4.2-.3.2-.7.1-1-.1L84 33.5c-.2-.1-.4-.2-.7-.3 0 .1 0 .3-.1.4-.6 1.6-1.2 1.7-1.4 1.7-.8.1-1.2-.6-1.6-1.3-.1-.2-.3-.5-.4-.7-.1.3-.1.9-.2 1.1 0 .4-.4.8-.8.8-.4.1-1.2.2-1.6.2-.3 0-.6-.1-.9-.2-.1 0-.2-.1-.2-.1-.2.2-.5.6-.9.7-.2.2-.5.7-1.1.7-.3 0-.6-.1-1-.5l-.2-.2c-.2.2-.4.3-.7.3-.6.1-1.6 0-1.8 0l-2.4-.3c-2.2.6-2.4.6-2.8.3-.1-.1-.2-.2-.2-.3 0 0-.1-.1-.2-.1s-.3.1-.6.2c-.7.5-4.1 2.8-4.2 2.9 0 0-.1 0-.2.1h-.3c-.5 0-1-.4-1-1 0-.2.1-.4.2-.6l.1-.1 3.1-2.6c-.3-.1-.6-.3-.9-.5-.1 0-.2-.1-.2-.1h-1.6c-.5.1-1.3.3-2 .5-.3.1-.5.1-.6.1-.2.1-.7.6-.9 1.1-.1.3-.2.9-.2 1.4 0 .6-.1 1.1-.3 1.4l-.1.2c-.2.3-.5.9-.6 1.1 0 .2-.1.5-.2.9-.1.3-.2.8-.3.9v.3c0 .4.1 1 .2 1.3v.1c.5.7.1 1.6-.5 3.3-.2.5-.4 1-.5 1.4l-.1.4c-.1.6-.2 1.2-.3 1.6 0 .1 0 .2-.1.3l.3.6c.2.4.3.9.3 1v.4s-.1.5-.1 1.1c-.1.6 0 .8 0 .9.4.8-.2 1.6-.5 2.1 0 0-.1.1-.1.2.1.2.2.5.4 1 .3 1 .5 2.7.6 3.6v.1c.1.9.3 3.5.3 3.6v.1c0 .1-.1 2-.3 3.3-.1 1-.2 1.2-.3 1.4-.2.3-.2.5-.2.5-.1.3-.3.5-.5.6.4.3.6.8.3 1.3-.5.8-1.1 2.3-1.1 2.9.1 1 .3 1.6.5 2 .2.3 1 1.4 1.5 2 .3.4.2 1-.2 1.3-.2.1-.4.2-.6.2-.3 0-.6-.1-.8-.4-.2-.3-1.4-1.8-1.6-2.3-.3-.5-.7-1.4-.8-2.8-.1-1.4 1.1-3.6 1.3-4 .1-.2.3-.3.5-.4l-.3-.3s-.6-.9-1.5-1.5l-.1-.1c-.4.1-.8.1-1.3-.4-.1-.1-.3-.2-.4-.4v2.8c0 .5-.4 1-.9 1H47c.2.8.4 1.5.5 1.9.2.5.4 1 .5 1.7.6 1.8 1.4 4.4 2.5 5.7.5.5.8 1 1.1 1.4.8 1 1.1 1.4 1.9 2 .6.4 1.5.8 2.1 1.1l-.1-.3c-.2-.7-.3-1.1-.3-1.4 0-.5.4-1 1-1s1.1.4 1.1.9zm36.3 31s-2.3.6-4 1.3c-.1 0-.3.1-.5.3-.9.5-2.7 1.6-6.8 2.4-.9.2-1.8.3-2.7.3-4.3 0-8.4-1.6-8.6-1.7-.5-.2-.7-.8-.5-1.2.2-.5.8-.7 1.2-.5.1 0 5.7 2.3 10.3 1.4 3.8-.7 5.4-1.7 6.2-2.1.3-.2.5-.3.7-.4 1.9-.7 4.1-1.4 4.2-1.4.5-.1 1 .2 1.2.7.1.2-.2.7-.7.9zm-5.3-55.2c1-.3 1.4-.1 2.7-.1 2.1-.1 2.5 0 3.5 0 1.1-.1 2.4-.1 3-.1.6 0 1.8 1.5 1.8 1.5l-.9-.1s-1-.6-1.8-.7c-.8-.1-3.4.1-3.5.2-.2.1-.9.5-1.3.6-.5.1-1.9.6-2.9.7-1 .1-2.2-.3-2.2-.3-.1-.2-.7-.5-.7-.5s1.4-1 2.3-1.2zm4.2 5.9c0 1.1-.9 2.1-2.1 2.1s-2.1-.9-2.1-2.1c0-1.1.9-2.1 2.1-2.1s2.1 1 2.1 2.1zM76.1 84c.6.4 1.2.9 1.2.9s-1.1.6-1.8.4c-.6-.2-1.3-1-1.6-1.4 0 0 1.6-.3 2.2.1zm-2.8.4s4.1 2.7 4.6 2.7c.4 0 4 .8 4.8 0 .6-.6 2.4-1.8 3.1-2.2-.5 0-.9-.5-1.1-.5 0 0 .9-1 1.5-1 .5 0 1.1.2 1.3.3l1.9-1.3s1.8 2.8 2.2 3c.3.2 1.1 1.6 2 1.2.9-.4 1.8-1.7 2.1-.8.3 1 1.6 2 1.9 2.8s.8 2.7-.6 3.7c-.7.5-1.5 2.3-1.4 2.8.1.5.3 1.6.3 2.8 0 1.2 1.2 2.5.9 2.9-.3.4-.6 2-1.5 2.6-.9.6-1.1 1.8-1.7 1.3-.6-.5-1.4-.5-1.4-.5s-1.1 1.9-1.4 2.2c-.3.3-1 1.4-.7 1.9.3.5 1.5.9 1.5 1.4 0 .4-.9 2.4-1.4 2.8-.5.3-3.1 3-7.1 3.5-4 .5-6.6-.4-7.3-1.1-.7-.7-1.9-1.5-2.8-2.1-.9-.6-2.2-3-2.9-4-.8-.9-1.5-1.9-1.6-2.6-.1-.7.6-.7.4-1.8-.2-1.1-1.6-4.4-1.6-4.4-.3-1.1-.2-1.7-.3-2.2-.2-.4-.2-.9-.7-1.4-.5-.4-.5-2.2-.5-2.2l-.8-4.5.2-1.3 3.5-2.8 1.7-.5 2.9-.7zm-7.7-18c0-1.1.9-2.1 2.1-2.1s2.1.9 2.1 2.1-.9 2.1-2.1 2.1-2.1-1-2.1-2.1zM60 61.5c.4-.5.8-.3 1.2-.5.5-.1 1.7.1 2.6.2.9 0 2.4.4 3.3.6.9.2 3.7 0 3.7 0l1 .7s-.7.3-1 .4c-.3.1-1.5.3-2.8.5-1.2.2-3.6-.7-4.5-1-.9-.3-2.9-.2-2.9-.2l-1.3 1.1c-.4.1-.7-.3-.7-.3s1-1 1.4-1.5z"/><path class="st4" d="M110.1 42.7c-.4-.3-.8-1-.8-1s.5-.6 0-.9c-.5-.3-.7-.7-1-.8-.4-.1-1.1-.6-1.2-.8-.2-.2-.7-.9-.4-.8.4.1.8.5 1 .6.2.1.9.2.6-.3-.2-.5-.6-1.1-1-1.5-.4-.4-.5-.9-.8-.8-.3.1-.7-.1-1.1-.3-.4-.2-.7-.4-1.1-.4s-.7-.2-1.1-.2c-.4 0-.6-.4-1-.4s-1.2.5-.9.8c.4.3 1.1.9 1.5 1.2.5.3.5.3 1.1.5.5.2.8.1 1.2.5.4.4.9.9.7 1.2-.2.2.3.9-.4.7-.7-.2-.6-.4-1.2-.7-.6-.4-.8-.5-1.2-.6-.4-.1-.6 0-.8-.1-.1 0-.4-.1-.5-.1v.4c.1.2.2.3.5.5.5.2.9.4 1.1.6.2.2.9.7.9.7s1 .6.7.7c-.3.1-.6.3-1-.1s-.4-.5-.8-.6c-.4-.2-.5-.4-.8-.4-.2 0-.4-.1-.5-.2.1.3.1.4.3.7.4.3.9.6 1.2.9.5.4.9 1.2.9 1.2s-.3-.1-1-.4c-.1 0-.1-.1-.2-.1 0 .2.1.3.1.5.2.1.3.2.3.2s.3.3.6.5.6.8.7.9c.1.1.4.6.7 1 .3.4.5.7.1.4-.7-.6-.8-.8-1.4-1.1-.6-.4-1-.5-1-.5.4.6-.1-.1 1.1 1.1 1.2 1.2 2 2.5 2.2 2.8.2.4 1 1.3.9 1.7-.1.4-.7.1-1-.4-.3-.4-.4-1.4-1.1-1.9-.7-.5-1.1-.8-1.4-1.1-.3-.3-.5-.7-.7-.7v.3c0 .1 0 .3.1.6v.3c.1.8.2 1.6.5 2.5.1.4.2.8.2 1.1v3c0 1 .1 1.4.2 1.5.1.3.2.8.4 1.4.2.7.5 2 .6 2.2.2.4.3.8.3 1.3v1.2c0 .2.2.7.3 1.1.1.2.1.4.2.6.2.5.3 1 .3 1.4v.2c.1.7.3 1.5.5 2.2.1-.1.2-.3.3-.4.2-.3.4-.5.5-.7.3-.4.6-.7.8-.9v-.1c-.1-.5-.1-1 .3-1.4 0 0 .1-.1.2-.1-.2-.4-.6-.9-.7-1.1-.2-.4-.8-2-.5-1.8.4.2.9.8 1.1 1.2.1.4.4 1.2.7 1.4h.3c.2 0 .4-.1.6-.1.1 0 .2-.2.3-.3.1-.1.2-.3.4-.4-.1-.4.1-.2.4-.5.3-.2.9.1.9-.2 0-.2-.4-1-.6-1.2-.2-.2-1-.6-1.5-1.2-.5-.5-.8-1.7-1.2-2.1-.4-.4-1.3-1.9-.6-1.4.7.6 1.8 1.9 2 2.2.2.3.7 1 1.1 1.4.4.4.3 1 .9 1h.4c0-.2 0-.4.1-.6-.3-.3-.5-.6-.8-1-.4-.5-.8-.6-1.1-1.2-.3-.6-.2-.9-.2-1.1 0 0 .4-.6.1-.9-.2-.3-.6-1.4-.9-1.9-.3-.6-.6-1.4-.4-1.5.2-.2.6-.8.6-1.1-.1-.3.2-.9.2-.9s1.3 1.5 1.4 1.2l.1-.1c0-.4-.1-.7-.1-.9v-.1c-.6-.5-1-.7-1.3-1.1-.2-.4-.1-.4-.6-.9s-.7-.9-1.3-1.3c-.6-.4-1.5-.9-1.8-1.2l-.1-.1c-.1-.2-.2-.9.1-.6.3.2 2.3 1.2 2.6 1.7.3.5 1 1.3 1.2 1.3.2 0 .8-.8.5-1.1-.2-.3-.9-1-1.1-1.4-.2-.4-.2-.8-.5-.9s-1.1-.8-1.3-.9-.1-.6-.1-.6 1.1.5 1.4.8c.3.4 1.2.9 1.4 1 .1 0 .2-.2.2-.4v-.5s0-.1-.1-.1c-.6-.5-.4-.6-.9-.9zm-4.1 9.6c-.4-.6-.8-1.2-1-1.6-.2-.4-.2-1.2-.4-1.4-.2-.2.5 0 .9.6s1 1.1 1 1.7c0 .6-.1 1.3-.5.7zM101 25.9c.4.5.9.3 1.3.4.4.1.4.1.7.5.3.4-.9.3-1.2.4-.2.1.8.6 1.2.6.5.1.8-.4 1.1.1.2.5-.9.5-.4 1s-.1.4-.3.5c-.2.1-1.4-.1-1.3.2.1.3 1.2.4 1.7.6.5.2.6-.1 1.1.4.5.5.3 1 .4 1.4.1.4-1.3-.4-1.3-.4s0 .8.2 1c.2.2 1.9 1.2 1.9 1.1.1-.2.5-.4.5-.4s.8-.3 1-.4c.2-.1.1-1.2-.2-1.6.3.4 1.2 1.3 2 1.9l-.3-.6c-.1-.3-.2-.6-.2-1-.1-.5-.2-1.3-.5-1.5-.6-.4-1.1-1-1.5-1.6-.2-.3-.5-.6-.6-.7-.2-.2-.6-.5-1.1-1.1-.5-.5-1.4-1.4-1.6-1.5l-.2-.1c-.3-.1-.8-.3-1-.4-.2 0-1 .2-1.7.3 0 .3.1.5.3.9zM104.1 104c-.9 3-4.1 9-7.1 12.6-1.6 1.9-7.7 9.1-8.7 9.9-.4.3-.8.7-1.2 1.1.3.2.6.4 1 .7.1.1.2.2.4.2 1.7 1.2 4.9 3.7 7.3 6.7.5.6 1 1.3 1.6 2.1 2.6 3.5 5.9 8.1 5.9 8.1l.1.1c.3-.7.8-2.2 1.5-4.3 0-1.2 0-2.5.1-3.9.1-2.8.1-6 .2-8.7.1-3.3.2-5.3.3-6.3.4-2.9.3-14.8.2-17.5 0-.9-.4-2.3-.8-3.6-.3 1-.5 2-.8 2.8z"/><path class="st2" d="M104.6 49.3c.2.2.2 1 .4 1.4.2.4.6 1 1 1.6.4.6.5-.1.5-.7s-.6-1.1-1-1.7c-.4-.6-1.1-.8-.9-.6z"/><path class="st4" d="M104.4 147.3c-.2.2-.6.4-.9.4h-.1c-.6-.1-1.2-.5-1.7-1.2 0 0-2.5-3.4-4.8-6.6-.6 2-1.4 4.7-1.6 5.5-.2 1.2-.2 2.1-.1 3.6 0 .2.1.5.3 1 .4 1.4 1.2 3.4 1.9 5.3.6 1.5 1 2.6 1.2 3.2.1.2.1.4.2.8 1.8-.4 3.5-.9 5.2-1.4.3-3.9.5-7.9.7-10.7-.2 0-.2 0-.3.1z"/><path class="st5" d="M95.6 155.8c-.6-1.5-1.2-3.1-1.6-4.5-.6.2-1.4.4-1.8.4-.2 0-.6 0-1.1.1-1 .1-2.3.2-3.5.2-1.2 0-3.1 0-4.1-.1-.4 1.8-1.3 6.3-1.5 7.4-.1.3-.1.9-.2 1.8 5.2-.1 10.3-.6 15.2-1.6-.1-.3-.1-.5-.2-.6-.2-.5-.7-1.8-1.2-3.1z"/><path class="st2" d="M49.2 64c-.5-.2-1.3-.3-1.3 0 0 .1-.1.4-.2.6 0 0 .1.1.1.2.1.1.2.2.3.2 0 0 .1-.1.2-.1.5-.3 1.4-.7.9-.9zM47.5 63.2c.2-.1.5-.5.9-.4.4.1.9-.2.8-.5-.1-.3.6-.7.2-.9-.4-.2-.4-.7-.4-.7l-.6-.7s-.7.8-.8 1.1c-.1.2-.5 1.2-.7 1.2-.2 0-.7.1-.7-.1s.4-.5.3-.8c-.1-.2-.5-.7-.6-.6s-.6-.5-.5-.6c.1-.2.5.1.9-.2.4-.3 1.1-.9 1.1-.9s.6-.3.6-.8.2-1.4.1-1.2c-.1.2-.9.4-1 .4.1-.1 1-1 .9-1.3-.1-.4 0-.9.2-1.1.2-.2.8-.9.7-1.3-.1-.4-.4-.7-.4-.7s-.4 1.1-.7 1.1c-.2 0-.9.1-.9.1s-.8 1-1 1.1c-.2.1-.9.5-.9.5l.3-.8s1.1-1.2 1.5-1.5c.4-.3 1.4-1.3 1.7-1.5.3-.2.9-1.1.9-1.1s-.1-.6-.6-.7c-.5-.1-.3-.4-1.1.5s-1.6 1.5-1.9 1.9c-.2.4-1.2 1.1-1.2.9 0-.2.9-1.6 1.3-2 .4-.4 1.4-1.6 1.6-2.1.2-.5 0-1.2.5-1.8.5-.6.6-1.2.9-1.5.4-.3.4-1.1.9-1.4.5-.4 1.2-.9 1.3-1.2.1-.2.2-.8-.1-.9-.3-.1-1.1.3-1.2.6-.1.4-.4 1.1-.9 1.4-.5.4-1.1.8-1.3 1-.2.2-1.1.4-1.3.5-.2.2-.3-.8.1-1.2.4-.4 1.3-1.1 1.6-1.4s1.5-.9 1.5-1.1c0-.2.3-.8.3-1.1 0-.3.9-.4.9-.4l.5-.5s.4-.7.1-.8c-.3-.1-.9-.4-1.5-.4s-1.1 0-1.4.3c-.2.3-.8 1.1-1.1.8-.2-.4.4-1.1.4-1.1s-.4-1-.2-.9c.2.1 1.4.1 1.6-.1.2-.2 1.3-.4.9-.6-.4-.2-1.5-.3-1.5-.3l1.6-.5.7-.5s-1.1.2-1.6.1c-.5-.2-.1-.7.2-.9.4-.2 1.2-.6 1.5-.6s1-.5.9-.1c-.1.4-.5.7-.4.8.2.1.5.2.8.1l1.2-.6s.1 0 .2.1c0-.2.1-.4.2-.5.4-1 1.6-2 2.1-2.1l.8-.2c.6-.1 1.6-.4 2-.5h.2c1.9-.1 2.1 0 2.2 0 .2 0 .4.2.7.4.2.1.7.4.9.5.6-.1 1.4-.1 1.4-.1.4 0 .8.2.9.6.1.2.1.3.1.5.2.1.5.2.7.4.4-.1 1-.2 1.5-.4h.3l1.9.2h1.3c.1-.3.2-.4.5-.6.2-.1.5-.1.8 0 .1 0 .6.2 1.1.6.1-.1.3-.2.5-.3l.1-.1c.2-.3.7-.8 1.3-.8.4 0 .8.2 1.1.3.1 0 .2.1.3.1.1 0 .3 0 .5-.1 0-.2.1-.4.1-.6.1-.6.6-1.1 1.2-1.4.5-.2 1.1-.2 1.6.1.2.1.4.4.6.6 0-.6.2-.8.3-1 .2-.2.4-.3.6-.3-.3-.1-.6-.2-.8-.3-.5-.2-3.7-.9-3.9-1.1-.2-.2-1.1 0-1.1 0l-.6.8s-.6.3-.8.2c-.2-.1-.5-.6-.8-.6-.3 0-.7.4-.9.6-.2.2-.7.5-.9.5-.3 0-.3-.6-.5-.9-.2-.3-.6.5-.9.6-.2.1-1 .1-1.4.3-.4.2-.9 0-1.5-.2s-2.1.7-2.3.7c-.2 0-1.6.1-2.1.1-.5.1-1.1-.5-1.1-.8 0-.3.6-.4 1-.4.4.1 1.7-.1 2.4-.2.6-.1 1-.5 1.3-.6.3-.2-.9-.3-1.3-.3s-1.2 0-1.9-.4c-.6-.4-.6-.9-.7-1.2-.1-.4 1.2-.5 1.2-.5s.8-.4.5-.4c-.2.1-1.8-.1-1.6-.2.2-.1-.5-.7-.9-1-.4-.3-.8-1-1.2-1.8-.4-.8.2-.2.6-.3.4-.1.8.2 1.2.2.4.1 1.6.4 1.9.3.3-.1-1.1-.5-1.4-.6-.2-.1-1.1-.3-1.7-.5-.6-.2-.6-.9-.6-1.3s.9.4 1.4.4c.5.1 1.2.2 1.8.2.6 0 1.4.6 1.9.5.5-.1.8-.3.8-.7 0-.4-1.4-.4-1.4-.4s.2-.4.4-.6c.2-.2 1.1.1 1.5.1s1.5 0 1.8-.1c.3-.1-.2-.4-.7-.5-.5-.1-1 0-1.5-.2s-2.1-.3-2.9-.2c-.8.1-2.6-.9-2.8-.9-.2-.1.5-.5.7-.6.2-.2 2.6 0 3.5-.1.8-.1 2.2-.1 2.5-.2.3-.1.9.5 1.5.2s1.9.2 3 .2 1.1-.1 1.4-.1c.4 0 2.1.1 2.6.2s.5 1.1 1 1c.5-.1 1.9.2 2.6.1.7-.2 1.2-.3.8-.5-.4-.2-2.7-.4-2.9-.5-.2-.1 0-.5.4-.8.4-.2 1.2 0 2.3 0s.8.4 1.8.6c1 .2.9.1 1.9.8.9.6 1.4.8 1.6.8.2 0 .8.5 1.5.7.7.2 1.9.8 2.5 1 .7.2 2 1 2.2.9.2-.1-1.4-.8-1.5-.9-.2-.1-1.6-1.1-1.8-1.2-.2-.1-.1-.9.2-.9.3-.1 1.5.9 2 .9.5.1-.4-.8-.4-.8s-1.2-.7-1.5-.8c.2-.1 0-.9 0-.9s.7.1 1.3.1c-.8-.3-1.7-.6-2.6-.9-.9-.3-7.2-2.6-9.8-2.9-2.8-.3-7.3-.6-7.9-.6h-.5v.4c-.1.3-.4.6-.7.7-.4.1-2.2.5-3.1.3h-.1c-.6-.1-.6-.1-.9.2-.5.5-1.3.9-2.2 1.2-.8.3-1.7.7-2.2 1.1-.7.7-1.2 1-1.8 1.4-.5.3-.9.6-1.5 1.1-.6.5-1.2 1.1-1.6 1.7-.7.8-1.2 1.4-1.8 1.6-.3.1-1.5 1.1-2 1.9-.2.3-.6 1-.9 1.6-.3.6-.6 1.1-.9 1.5-.4.6-.6 1.4-.8 2.9-.1 1.3-.6 2.1-.9 2.8l-.3.6c-.1.2-.1.3-.2.5-.4.8-.8 2-.9 3.2-.1 1.5-.5 3-.8 4.3-.1.2-.1.5-.2.7-.1.4-.2.8-.3 1.1-.2.7-.4 1.3-.5 2.6-.2 1.8-.5 4.1-.6 6.3-.1 2 .3 3.2.7 4.4.4 1.3.8 2.5.7 3.6 0 .2-.1.5-.1.7-.1.6-.2 1.9-.2 2.2 0 0 0 .1.1.2 1.1-.3 1.5-.3 1.7-.3 0-.4.3-.9.5-1zM84.5 30.6c.1.2.3.5.4.7 0-.2.2-.4.3-.5.1-.1.2-.1.3-.1v-.1c-.2-.1-.3-.1-.5-.1-.7-.4-.8-.5-.5.1z"/><path class="st2" d="M51.6 38.6c-.2.2-1.1.1-.9.4s.8.6 1 .5c.2-.1.8-.8.9-.4 0 .2.2.2.3.3.1-.5.4-1 .7-1.5l.1-.1v-.7-.6c-.4.3-.8.6-1.3.9-.6.4-.6.9-.8 1.2zM97.6 22.3c.4.2.7.4 1.1.5.4.1.8.6 1 .8l.1-.8-.5-.2c-.2-.1-.4-.3-.6-.5-.3-.6-.7-1.2-.9-1.3-.7-.2-1.3-.6-1.7-.9-.1-.1-.2-.1-.2-.2-.1-.1-.3-.2-.4-.4-.1-.1-.3-.3-.5-.4-.2.1-.8.4-1.3.8-.3.2-.7.3-1 .1.8.5 3.1 1.5 3.8 1.5.8.2.7.9 1.1 1z"/><path class="st4" d="M89.3 18.9c.2.1 1.5.8 1.5.8s.9.9.4.8c-.5-.1-1.7-1-2-.9-.3.1-.4.8-.2.9.2.1 1.6 1.1 1.8 1.2.2.1 1.8.8 1.5.9-.3.2-1.6-.6-2.3-.8-.6-.2-1.8-.8-2.5-1-.7-.2-1.3-.7-1.5-.7-.2 0-.7-.1-1.6-.8-.9-.7-.9-.5-1.9-.8-1-.2-.7-.6-1.8-.6s-1.9-.2-2.3 0c-.4.2-.6.6-.4.8.2.1 2.5.4 2.9.5.4.2-.1.3-.8.5-.7.2-2.1-.1-2.6-.1-.5.1-.5-.9-1-1-.5-.1-2.2-.2-2.6-.2-.4 0-.4.1-1.4.1-1.1 0-2.4-.5-3-.2s-1.2-.3-1.5-.2c-.3.1-1.6.1-2.5.2-.8.1-3.3-.1-3.5.1-.2.2-.9.6-.7.6.2.1 1.9 1.1 2.8.9.8-.1 2.4 0 2.9.2s1 .1 1.5.2.9.4.7.5c-.5.2-1.6.2-2.1.2s-1.4-.2-1.5-.1c-.2.2-.4.6-.4.6s1.4 0 1.4.4-.4.6-.8.7c-.5.1-1.3-.5-1.9-.5-.6 0-1.3-.1-1.8-.2s-1.4-.8-1.4-.4 0 1.1.6 1.3c.6.2 1.5.4 1.7.5.2.1 1.6.5 1.4.6-.3.1-1.5-.2-1.9-.3-.4-.1-.8-.3-1.2-.2-.4.1-1-.5-.6.3s.9 1.5 1.2 1.8c.4.3 1.1.9.9 1-.2.1 1.4.2 1.6.2.2-.1-.5.4-.5.4s-1.4.2-1.2.5c.1.4.1.8.7 1.2.7.4 1.5.4 1.9.4.4 0 1.6.1 1.3.3-.3.2-.6.5-1.3.6-.7.1-2 .2-2.4.2-.4-.1-1 .1-1 .4 0 .3.6.8 1.1.8.5-.1 1.9-.1 2.1-.1.2 0 1.7-.9 2.3-.7.6.2 1.2.4 1.5.2.4-.2 1.1-.2 1.4-.3.2-.1.6-.9.9-.6.2.3.2.9.5.9s.8-.4.9-.5c.2-.2.6-.6.9-.6.3 0 .6.5.8.6.1-.1.7-.4.7-.4l1-.6s.9-.2 1.1 0c.2.2 3.4.9 3.9 1.1.1.1.4.2.8.3h.3c.1 0 .5.1 2.3.9.1 0 .1.1.2.1l.6.4c0-.1-.1-.2-.1-.4-.1-.2-.1-.4 0-.5-.2-.2-.3-.5-.4-.7-.2-.5-.2-.4.5-.2.2 0 .3.1.5.1v-.3c0-.2.1-.3.3-.5-.1-.1-.1-.2-.2-.3-.2-.3-.3-.6-.3-.6-.1-.2-.1-.5 0-.7 0-.1.1-.2.1-.2l-.3-.2-.1-.1c-.2-.2-.4-.4-.4-.7 0-.3.1-.5.3-.7.9-1.2 1.1-1.3 1.4-1.4.1 0 .2-.1.3-.1.5-.2 1.4-.4 2.2-.5.3 0 .6 0 .9.1.7.2 1.4.6 2.1 1 .4.2.8.5 1.1.7.1 0 .2.1.2.2.1.1.3.3.6.5.6.4 1 .7 1.3.8h.8c.4 0 1 0 1.6.3.5.2.9.3 1.1.8.6 0 .6-.2 1-.3.4-.1-.8-.9-1.2-1.6-.5-.6-.5-1.1-.8-1.2-.2-.1-.2.3-.6.6-.4.3-.5-1.1-.8-1.6-.3-.5-.8-1.1-1.1-1.4s.2-.4.6-.2c.7.3 2 1.8 2.3 1.9.3.1 1.1.3 1.1.3l.5-.9.1-.4c-.2-.2-.6-.7-1-.8-.5-.1-.8-.4-1.1-.5-.4-.2-.2-.8-1-.9-.7-.1-3.1-1-3.8-1.5-.1 0-.2-.1-.3-.2-.4-.4-1.4-1.2-1.9-1.4-.2-.1-.3-.1-.5-.2-.6-.1-1.3-.1-1.3-.1s.1.6.4.7zm-16.8 3.7c-.2 0-.8.4-.9.6-.2.2-1 .2-1.4.2-.4 0-1-.2-1.4-.4-.4-.2-.8-.1-1.2.2-.4.2-.2.8-.2.8s-1.6.1-2.1 0 .1-.5.4-.4c.4.1 1-.4 1-.5s1.1-.6 1.2-.8c.1-.2 1.1 0 1.2 0 .4-.1.8 0 1.4-.2.6-.2 1.5-.1 1.9-.2.5 0 .3.7.1.7zm5.9 1.2c-.2.1-.9.1-1.3 0s-.8.4-1.1.6c-.4.2-.8-.1-.9-.4-.2-.2.7-.5 1-.5.3-.1 0-.4 0-.4s-.8-.2-1.4-.1c-.5.1-.6-.3-.8-.6-.1-.3.7-.2 1-.2.3 0 .9 0 1.4-.1.5-.1.4-.6.6-.6.4-.1.9.2 1.1.4.2.1-.1.4.2.7.4.4.9.4 1.2.5.3.3-.8.6-1 .7zm9.3-1.2c-.2.4-.9.1-1.4-.1-.5-.2-.4-.4-1.2-.5-.8-.1-.9.2-1.5.1s-1.1.1-1.5-.4c-.5-.5-.5-.7-.9-.8-.4-.1-1-.3-.8-.4.2-.1 1.1.1 1.4.1s1.2.2 2.5.4c1.2.2 1.8.3 2.3.8.4.5 1.3.5 1.1.8z"/><path d="M88.9 61.5c1-.1 2.4-.6 2.9-.7.5-.1 1.2-.5 1.3-.6.2-.1 2.8-.3 3.5-.2.8.1 1.8.7 1.8.7l.9.1s-1.2-1.5-1.8-1.5c-.6 0-1.9 0-3 .1-.9.1-1.4 0-3.5 0-1.3 0-1.8-.1-2.7.1-.9.3-2.3 1.2-2.3 1.2s.6.3.8.5c0 0 1.1.5 2.1.3z"/><path class="st6" d="M68.7 85.6l-3.5 2.8-.2 1.3.4 4.6s0 1.8.5 2.2c.5.4.5.9.7 1.4.2.4 0 1 .3 2.2 0 0 1.5 3.3 1.6 4.4.2 1.1-.5 1.1-.4 1.8.1.7.9 1.6 1.6 2.6.8.9 2.1 3.4 2.9 4 .9.6 2.1 1.4 2.8 2.1.7.7 3.3 1.6 7.3 1.1s6.6-3.2 7.1-3.5c.5-.3 1.4-2.3 1.4-2.8 0-.4-1.1-.9-1.5-1.4-.3-.5.4-1.5.7-1.9.3-.3 1.4-2.2 1.4-2.2s.8 0 1.4.5c.6.5.8-.7 1.7-1.3 1-.6 1.2-2.2 1.5-2.6.3-.4-.9-1.7-.9-2.9s-.2-2.3-.3-2.8c-.1-.5.7-2.3 1.4-2.8 1.4-1 .9-2.9.6-3.7s-1.6-1.8-1.9-2.8c-.3-.9-1.2.3-2.1.8-.9.4-1.6-1-2-1.2-.3-.2-2.2-3-2.2-3l-1.9 1.3c.1 0 .1.1 0 .1-.2.1-1 .9-1.5 1.1h-.2c-.7.4-2.4 1.6-3.1 2.2-.8.8-4.4 0-4.8 0-.4 0-4.6-2.7-4.6-2.7l-2.9.7-1.3.4zm2.7 6.7c.5.3 2 1.1 2.9 1.3 1.2.3 5.7.7 6.3.6.5-.1 1.1-.2 1.6-.2.4 0 .7-.1 1.1-.1.2 0 .4-.1.7-.1.9-.1 2.2-.3 3-.6 1.1-.4 2.3-1 2.4-1 .5-.2 1 0 1.3.4.2.5 0 1-.4 1.3-.1 0-1.3.6-2.5 1.1-1 .4-2.4.6-3.4.7-.2 0-.5.1-.6.1-.4.1-.8.1-1.2.1-.5 0-1 .1-1.4.2-.2 0-.5.1-.8.1-1.8 0-5.3-.4-6.4-.7-1.3-.3-3.3-1.4-3.4-1.5-.5-.3-.6-.8-.4-1.3.2-.5.8-.7 1.2-.4z"/><path class="st5" d="M87.9 130.4c-.9.5-2.9 1.5-4 1.8-.4.1-.8.1-1.2.1-1 0-2.1-.2-2.8-.3-1.1 1.4-1.8 2.4-2.4 3.1 1.2 1 3.3 2.8 3.6 3.7 0 .1.1.2.1.4.9 2.6 1.9 5.7 2 7.1 0 .8 0 1.6-.1 2.3 0 .3-.1.8 0 1 .1.2.2.4.3.5 1 0 2.9.1 4.2.1 1.1 0 2.4-.1 3.3-.2.6-.1 1-.1 1.3-.1.2 0 .7-.1 1.3-.3 0-.2-.1-.3-.1-.4-.2-1.6-.2-2.8.1-4.2.2-1.2 1.6-5.6 2-7-.4-.6-.9-1.1-1.3-1.6-2-2.6-4.6-4.7-6.3-6z"/><path d="M88.3 65.4c0 1.1.9 2.1 2.1 2.1s2.1-.9 2.1-2.1c0-1.1-.9-2.1-2.1-2.1s-2.1 1-2.1 2.1zm2.9-1.5c.4 0 .8.3.8.8 0 .4-.3.8-.8.8-.4 0-.8-.3-.8-.8 0-.4.3-.8.8-.8z"/><circle class="st4" cx="91.2" cy="64.7" r=".8"/><path class="st1" d="M68.1 147.6c0-.1-.1-.2-.1-.3-.8-3-1.6-6.1-2.4-8.9-.9-3.3-1.7-6.1-2.1-7.8-1 1.8-2.3 4.3-2.7 5.3-.8 2.1-3.9 7.1-4.2 7.7-.7 1.1-2.8 3.6-5 6.2-.4.5-.7.9-1 1.2 0 .1 0 .1-.1.2-.1.3-.9 1.9-1.8 3.5 7.1 3.1 14.8 5.1 22.8 6-.2-.6-.3-1.2-.5-1.7-.5-2.3-1.5-6.2-2.9-11.4z"/><path class="st4" d="M83.4 130.4c.7-.2 1.8-.7 2.8-1.2-.3-.2-.5-.4-.7-.5l-3.2.1c-.2.3-.7.9-1.2 1.5.8.2 1.7.2 2.3.1z"/><path class="st2" d="M86.5 21.9c-.5-.5-1.1-.5-2.3-.8-1.2-.2-2.2-.4-2.5-.4s-1.1-.2-1.4-.1c-.2.1.4.3.8.4.4.1.5.3.9.8.5.5.9.2 1.5.4.6.1.7-.2 1.5-.1s.8.2 1.2.5c.5.2 1.2.5 1.4.1.3-.4-.6-.4-1.1-.8z"/><path d="M87.5 83.7c.1 0 0 0 0 0-.2-.1-.8-.3-1.3-.3-.6-.1-1.5 1-1.5 1 .2 0 .7.5 1.1.5h.2c.6-.3 1.4-1.1 1.5-1.2z"/><path class="st4" d="M81.7 151.1c0-.2-.1-.3-.2-.4-.4-.4-.4-1.1-.3-2.2 0-.6.1-1.4.1-2.1 0-.9-.7-3.1-1.9-6.5-.1-.2-.1-.3-.1-.4-.3-.5-1.9-1.9-2.9-2.7-1.1 1.7-3.3 5.5-6.4 10.6 1 3.7 2.3 8.4 2.9 11.2.2.8.4 1.6.7 2.4 2 .2 4.1.3 6.2.3.1-1 .2-1.7.3-2.1.1-1.4 1.3-6.9 1.6-8.1zM78.9 130.1c.7-.9 1.3-1.6 1.7-2.2-.9-.4-10.6-7.1-13.9-10-4.5-3.9-6.9-7-7.4-9.5-.1-.6-.3-1.2-.4-1.9 0 1.7 0 3.4.2 4.4.3 1.5 1.7 5.3 3 9 1 2.8 2.1 5.8 2.7 7.9.2.6.3 1.1.5 1.5.4 1.4 1.2 4.7 2.3 8.5.6 2.1 1.2 4.5 1.8 6.8 2.3-3.9 5.3-9 6.1-10 .4-.5 1.4-1.9 3-3.9-.1-.2.1-.4.4-.6z"/><path class="st2" d="M78.2 22.8c-.4-.4-.1-.6-.2-.7-.2-.1-.7-.4-1.1-.4-.2 0-.1.5-.6.6-.5.1-1.1.1-1.4.1-.3 0-1.1-.1-1 .2.1.3.2.7.8.6.5-.1 1.4.1 1.4.1s.3.3 0 .4c-.3.1-1.2.3-1 .5.2.2.6.6.9.4.4-.2.7-.8 1.1-.6.4.1 1.1.1 1.3 0 .2-.1 1.3-.4 1-.5-.3-.3-.8-.4-1.2-.7z"/><path d="M75.5 85.3c.6.2 1.8-.4 1.8-.4s-.6-.5-1.2-.9-2.2-.1-2.2-.1c.4.4 1 1.3 1.6 1.4z"/><path class="st1" d="M48.5 151.1c-.3-.3-.7-.6-.9-.9-.7-.6-6.3-3.8-7.4-4.2-1.1-.5-1.8-1.2-1.9-2.1-.1-.5.1-1.1 1.6-4.4.4-.9.8-1.7 1-2.3.3-.8.6-2 .9-3.2.4-1.5.7-3 1.2-4.2.4-.9.6-2.3.9-3.8.3-1.9.7-4 1.4-5.7.8-1.9 2.5-5.3 3.7-7.8-2.9 1.4-6.6 3.2-8.5 4.4-3.2 2.1-13.9 7.7-16.9 9.2-.9.5-2.3 1-3.8 1.7-1 .5-2.2 1-3.3 1.5 8 10.5 18.5 18.9 30.6 24.5.5-.9 1-1.9 1.4-2.7z"/><path class="st2" d="M72.5 22c-.4.1-1.4 0-1.9.2-.6.2-1 .1-1.4.2-.2 0-1.1-.2-1.2 0-.1.2-1.2.7-1.2.8s-.6.6-1 .5c-.4-.1-.9.3-.4.4.5.1 2.1 0 2.1 0s-.1-.6.2-.8c.4-.2.8-.4 1.2-.2.4.2.9.4 1.4.4.4 0 1.2-.1 1.4-.2.2-.2.8-.6.9-.6.1-.1.3-.8-.1-.7z"/><path d="M59.4 63.3l1.3-1.1s1.9-.1 2.9.2c1 .3 3.3 1.2 4.5 1 1.2-.2 2.4-.4 2.8-.5.3-.1 1-.4 1-.4l-1-.7s-2.8.1-3.7 0c-.9-.2-2.5-.6-3.3-.6-.9 0-2.1-.3-2.6-.2-.5.1-.9 0-1.2.5-.4.5-1.3 1.4-1.3 1.4s.1.4.6.4zM69.7 66.4c0-1.1-.9-2.1-2.1-2.1s-2.1.9-2.1 2.1.9 2.1 2.1 2.1 2.1-1 2.1-2.1zm-1.1-1.6c.4 0 .8.3.8.8 0 .4-.3.8-.8.8-.4 0-.8-.3-.8-.8 0-.4.3-.8.8-.8z"/><circle class="st4" cx="68.6" cy="65.6" r=".8"/><path class="st1" d="M45.7 126.4c-.3 1.6-.5 3.1-1 4.2-.4 1.1-.8 2.6-1.2 4-.3 1.3-.7 2.6-1 3.5-.2.6-.6 1.4-1 2.3-.5 1.1-1.2 2.8-1.4 3.4.1.1.2.3.8.6.7.3 7.5 3.9 8.2 4.8l.4.4c.2-.2.4-.5.7-.8 1.6-1.8 4.2-4.9 4.8-5.9 1.2-2 3.4-5.9 4.1-7.4.6-1.6 3.1-6 3.7-7.2-.6-2-1.6-4.7-2.6-7.3-1.4-3.9-2.7-7.6-3.1-9.2-.6-2.7-.2-8.1.1-10.3-.2.7-.5 1.4-.8 2.1-.4 1-.7 1.9-.8 2.3-.4 1.1-2.7 4.6-3.2 5.2-.1.1-.2.3-.4.3 0 0-.1 0-.1.1-1.1 1.9-3.9 7.4-4.9 9.8-.7 1.3-1 3.2-1.3 5.1z"/><path class="st4" d="M47.7 64.6c.1-.2.2-.4.2-.6 0-.3.8-.2 1.3 0s-.4.6-.9.9c-.1 0-.1.1-.2.1.1.1.2.2.2.3.1.1.2.3.3.4.1.1.1.2.1.3 0 .1.1.1.2.2.2-.2.6-.4.8-.6.2-.2.4-1.4.4-1.4s.7 1.1.8 1.5c.1.4.7 1.2.8 1.5.1-1 .2-2.1.2-2.4 0-.4-.2-2.8-.3-3.5-.1-.8-.2-2.4-.5-3.2-.1-.4-.2-.6-.3-.8-.1-.2-.2-.4-.2-.7v-.1c0-.5.2-.8.5-1.2.1-.1.2-.3.3-.5-.1-.3-.1-.7-.1-1.6 0-.4.1-.8.1-1 0-.1-.1-.3-.2-.5 0-.1-.1-.1-.1-.2-.6-.5-.4-1.4-.3-1.8.1-.5.3-1.1.5-1.7l.1-.4c.1-.5.4-1 .6-1.6.2-.5.5-1.3.6-1.7-.1-.1-.1-.3-.2-.5-.1-.5-.2-1.2-.2-1.6v-.3c0-.4.1-.9.3-1.7.1-.2.2-.5.2-.6v-.2c-.1 0-.2-.1-.3-.3-.1-.4-.7.2-.9.4-.2.1-.9-.2-1-.5s.8-.1.9-.4c.2-.2.2-.8.9-1.2.4-.3.9-.7 1.3-.9 0-.3.1-.6.1-.9-.1 0-.2-.1-.2-.1s-.9.5-1.2.6c-.2.1-.6 0-.8-.1-.2-.1.3-.4.4-.8.1-.4-.6.1-.9.1s-1.1.4-1.5.6c-.4.2-.7.7-.2.9.5.2 1.6-.1 1.6-.1l-.7.5-1.6.5s1.2.1 1.5.3c.4.2-.7.4-.9.6-.2.2-1.5.2-1.6.1-.2-.1.2.9.2.9s-.6.7-.4 1.1c.2.4.8-.5 1.1-.8.2-.3.7-.3 1.4-.3.6 0 1.2.3 1.5.4.3.1-.1.8-.1.8l-.5.5s-.9.1-.9.4c0 .3-.3.9-.3 1.1 0 .2-1.2.8-1.5 1.1s-1.2 1-1.6 1.4c-.4.4-.4 1.3-.1 1.2.2-.2 1.1-.4 1.3-.5.2-.2.8-.6 1.3-1s.8-1.1.9-1.4c.1-.4.9-.8 1.2-.6.3.1.2.6.1.9-.1.2-.8.8-1.3 1.2-.5.4-.6 1.1-.9 1.4-.4.3-.4.8-.9 1.5-.5.6-.3 1.4-.5 1.8-.2.5-1.2 1.6-1.6 2.1-.4.4-1.3 1.8-1.3 2 0 .2.9-.6 1.2-.9.2-.4 1.1-1 1.9-1.9.8-.9.6-.6 1.1-.5.5.1.6.7.6.7s-.6.9-.9 1.1c-.3.2-1.3 1.2-1.7 1.5-.4.3-1.5 1.5-1.5 1.5l-.4.4s.7-.4.9-.5c.2-.1 1-1.1 1-1.1s.6-.1.9-.1c.2 0 .7-1.1.7-1.1s.3.3.4.7c.1.4-.5 1.1-.7 1.3-.2.2-.3.8-.2 1.1.1.3-.8 1.2-.9 1.3.1 0 .9-.2 1-.4.1-.2-.1.6-.1 1.2 0 .5-.6.8-.6.8s-.7.6-1.1.9c-.4.3-.8.1-.9.2-.1.2.4.7.5.6s.5.4.6.6c.1.2-.3.6-.3.8 0 .2.5.1.7.1.2 0 .6-1 .7-1.2.1-.2.8-1.1.8-1.1l.5.7s0 .5.4.7c.4.2-.2.6-.2.9.1.3-.4.5-.8.5-.4-.1-.6.3-.9.4-.2.1-.5.6-.7.9h.1c.1 0 .3.1.5.2l.4.4z"/><path d="M16.4 129.3l3.3-1.5c1.5-.7 2.9-1.3 3.8-1.7 3-1.5 13.6-7.1 16.9-9.2 1.9-1.2 5.7-3.1 8.5-4.4-1.3 2.5-3 5.9-3.7 7.8-.7 1.7-1.1 3.9-1.4 5.7-.3 1.5-.5 2.9-.9 3.8-.5 1.2-.9 2.7-1.2 4.2-.3 1.3-.6 2.5-.9 3.2-.2.6-.6 1.4-1 2.3-1.5 3.3-1.7 3.9-1.6 4.4.2.9.8 1.6 1.9 2.1 1 .4 6.7 3.5 7.4 4.2.3.3.6.7.9.9-.4.8-.9 1.8-1.5 2.7.6.3 1.2.5 1.8.8 1-1.5 1.7-3.2 1.8-3.5 0-.1 0-.1.1-.2.3-.3.6-.7 1-1.2 2.2-2.6 4.3-5.1 5-6.2.3-.6 3.4-5.6 4.2-7.7.4-1 1.7-3.5 2.7-5.3.4 1.6 1.2 4.5 2.1 7.8.7 2.8 1.6 5.9 2.4 8.9 0 .1 0 .2.1.3 1.4 5.2 2.4 9.1 3 11.3.1.6.3 1.1.5 1.7.7.1 1.4.1 2 .2-.2-.8-.5-1.6-.7-2.4-.7-2.7-2-7.5-2.9-11.2 3-5.2 5.3-9 6.4-10.6 1 .8 2.7 2.3 2.9 2.7 0 .1.1.2.1.4 1.2 3.5 1.8 5.7 1.9 6.5 0 .7 0 1.4-.1 2.1-.1 1.1-.1 1.8.3 2.2 0 .1.1.2.2.4-.3 1.2-1.4 6.7-1.7 8-.1.4-.2 1.1-.3 2.1h2c.1-.8.2-1.5.2-1.8.2-1.1 1.2-5.6 1.5-7.4 1 0 2.9.1 4.1.1 1.2 0 2.5-.1 3.5-.2.5-.1.9-.1 1.1-.1.5 0 1.2-.2 1.8-.4.5 1.3 1.1 3 1.6 4.5.5 1.3 1 2.6 1.1 3.1 0 .2.1.4.2.6.6-.1 1.2-.3 1.9-.4-.1-.3-.1-.6-.2-.8-.2-.6-.6-1.7-1.2-3.2-.7-1.8-1.5-3.9-1.9-5.3-.2-.5-.2-.8-.3-1-.2-1.5-.2-2.4.1-3.6.2-.8 1-3.5 1.6-5.5 2.3 3.2 4.8 6.6 4.8 6.6.5.8 1.1 1.2 1.7 1.2h.1c.4 0 .7-.1.9-.4l.2-.2c-.2 2.8-.4 6.7-.7 10.7.7-.2 1.3-.4 2-.6.4-5.2.7-10.4.8-12.7 0-.8.1-2 .1-3.1v-.1c0-1.2.1-2.5.1-4 0-2.1.1-4.3.1-6.5 2.1 2.1 5.6 5.8 6.4 6.6.9.9 6 5.3 10.2 8.7l.3.2c.1.1.2.2.4.2.3.2.7.6 1.2 1 .6-.4 1.1-.8 1.6-1.1-.1-.1-.2-.1-.2-.2-.4-.3-.7-.5-.9-.7 1.8-1.5 4-3.3 4.4-3.6.5-.3 3.8-3.2 4-3.9.2-.5.2-.6-5.9-12.4-.7-1.5-1.3-2.6-1.6-3.1-.7-1.3-2.7-5-4.4-7.9-.9-1.6-1.7-2.9-1.9-3.4-.4-.7-1.8-2.3-3.2-3.6 3.2.9 7.5 2.1 9.1 2.7 1.7.6 6.7 2 11.1 3.3 2.8.8 5.5 1.5 6.7 1.9 1 .3 2.8.8 4.8 1.4 1 .3 2 .6 3.1.9.3-.6.6-1.1.9-1.7-1.2-.3-2.3-.7-3.4-1-2-.6-3.8-1.1-4.8-1.4-1.2-.4-3.8-1.1-6.7-1.9-4.4-1.2-9.3-2.6-11-3.2-2.4-.9-10.3-3-12.7-3.7-.3-.1-.5-.1-.6-.2-1.8-1.9-4.5-4.9-4.9-5.6-.6-1-2.5-3.6-3.5-4.7.1-.8.4-2.3.6-3.6.2-1.3.4-3.8.6-5.3.9 0 2.1-.1 2.4-1.2.2-.6.4-1.8.6-3 .1-.8.3-1.6.4-2.1.1-.3.2-.9.4-1.6.6-2.1 1.5-5.3 1.7-7.6.2-2.1.3-4.9.3-6.3h.3c.3 0 .6-.1.8-.4.3-.4 1.3-1.8 1.2-3v-.5c.1-.5.1-1.1-.2-2-.2-.6-.4-.9-.6-1.1-.1-.2-.2-.2-.2-.6v-.8c.1-.5.1-.9-.1-2-.1-.6-.1-1.3-.1-1.9 0-.7-.1-1.4-.2-1.9-.2-.7-.2-1.7-.1-2.2 0-.1.1-.3.2-.5.2-.5.7-1.9-.5-2.4l.3-.3c.1-.1.5-1 .2-2v-.6c0-1.6-.1-3.2-.7-4.2-.2-.4-.2-1.2-.2-1.8 0-.8 0-1.5-.4-2-.1-.1-.2-.3-.4-.4-.3-.3-.6-.7-.7-1 0-.1-.1-.3-.1-.5-.1-.8-.3-2-1.2-2.7-.4-.3-.8-.8-1.1-1.2-.3-.4-.6-.8-.9-1-.2-.1-.6-.5-.9-.9-1.2-1.2-1.8-1.8-2.3-2l-.3-.1c-.8-.3-1.3-.5-1.7-.5-.2 0-.5 0-.8.1l.1-.6c.1-.5-.2-.9-.6-1.1l-.9-.3c-.4-.7-1.1-1.7-1.9-2-.4-.1-.8-.4-1-.6-.1-.1-.2-.2-.3-.2-.1 0-.1-.1-.2-.2-.4-.4-1.1-1-2-.9-.5.1-1.1.4-1.5.7-.5-.5-1.3-1.1-2.1-1.3-.8-.3-2-.7-3-1.1-.1 0-7.2-2.6-10.2-3-2.8-.3-7.3-.7-8.2-.7-.8 0-2.3.2-2.4.2-.4.1-.7.3-.8.6-.1.2-.1.3 0 .5-.3 0-.6.1-.8 0h-.1c-1 .2-1.8.1-2.8 1.2-.2.2-.9.5-1.5.7-1 .4-2.1.8-2.8 1.5-.5.5-.9.8-1.4 1.1-.5.3-1.1.7-1.8 1.3-.7.6-1.3 1.3-1.8 1.8-.4.4-.9 1-1 1-1 .3-2.5 1.9-2.9 2.5-.3.4-.7 1.1-1.1 1.8-.3.5-.6 1-.8 1.3-.6.9-.9 2-1.1 3.8-.1 1-.4 1.5-.7 2.1-.1.3-.3.5-.4.9-.1.1-.1.3-.2.5-.4.9-1 2.3-1.1 3.9-.1 1.3-.4 2.7-.7 3.9-.1.3-.1.5-.2.7-.1.4-.2.7-.3 1-.2.7-.4 1.4-.6 2.9-.2 1.8-.5 4.2-.6 6.5-.1 2.3.4 3.7.8 5.1.4 1.1.7 2.1.6 2.8 0 .2 0 .4-.1.7-.2 1.3-.3 2.2-.2 2.7.1.6.5 1.1.7 1.4.2 1.3 1.2 6.6 1.9 8.3.2.4.3 1 .5 1.6.7 2.1 1.5 4.7 2.8 6.4.4.5.8 1 1.1 1.3.8 1 1.3 1.6 2.3 2.3.9.7 2.3 1.2 3 1.5.3 1.1 1 4 1 5.6 0 1.5.2 3.6.4 4.8-.4.2-.7.6-.9 1-.2.8-.9 2.5-1.4 3.9-.4 1-.7 1.9-.8 2.3-.2.6-1.5 2.6-2.6 4.2-.2 0-.3.1-.4.2 0 0-.1.1-.2.3-3.2 1.5-8.6 4.1-11.1 5.7-3.1 2-13.8 7.7-16.7 9.1-.9.4-2.2 1-3.7 1.7-1.2.5-2.4 1.1-3.7 1.6.4.5.7 1 1.1 1.5zm58.9 5.4c-.7 1-3.8 6.1-6.1 10-.6-2.3-1.3-4.7-1.8-6.8-1-3.8-1.9-7.1-2.3-8.5-.1-.4-.3-.9-.5-1.5-.7-2.1-1.7-5-2.7-7.9-1.3-3.7-2.7-7.5-3-9-.2-1.1-.3-2.7-.2-4.4.2.7.3 1.3.4 1.9.5 2.5 3 5.6 7.4 9.5 3.3 2.9 13 9.6 13.9 10-.4.5-1 1.3-1.7 2.2-.3.1-.5.4-.5.7-1.4 1.9-2.4 3.3-2.9 3.8zm18.1 10.2c-.3 1.4-.3 2.5-.1 4.2 0 .1 0 .3.1.4-.6.2-1.1.3-1.3.3-.3 0-.7 0-1.3.1-.9.1-2.2.2-3.3.2-1.3 0-3.2 0-4.2-.1-.1-.2-.2-.4-.3-.5v-1c0-.7.1-1.5.1-2.3-.1-1.4-1.1-4.5-2-7.1-.1-.2-.1-.3-.1-.4-.3-.9-2.4-2.7-3.6-3.7.5-.7 1.3-1.7 2.4-3.1.7.1 1.8.3 2.8.3.4 0 .8 0 1.2-.1 1.2-.3 3.2-1.4 4-1.8 1.7 1.3 4.4 3.4 6.3 5.9.4.5.8 1 1.3 1.6-.4 1.6-1.8 5.9-2 7.1zm-12.3-14.6c.5-.7.9-1.2 1.2-1.5l3.2-.1c.2.1.4.3.7.5-.9.5-2.1 1.1-2.8 1.2-.6.1-1.5.1-2.3-.1zm24.4-32.8c.7.9 1.4 1.9 1.7 2.4.7 1.2 4.9 5.6 5.4 6.1.1.1.3.2.5.3 0 0 .2.1.6.2 1.9 1.8 4.8 4.7 5.3 5.6.3.5 1 1.8 1.9 3.4 1.6 2.8 3.7 6.5 4.3 7.8.3.5.9 1.7 1.6 3.1 1.6 3.1 4.8 9.3 5.6 11.1-.7.8-2.5 2.5-3.1 2.8-.7.4-3.6 3-4.9 4.1-5.5-4.6-9-7.6-9.6-8.2-1.1-1.1-6.5-6.7-7.7-7.9.1-2.9.2-4.8.3-5.6.5-3.3.3-16 .2-17.8-.1-2.1-1.6-6-2-7.1-.1-.2-.1-.3-.1-.3zm.1 7.3c.1 2.7.2 14.6-.2 17.5-.1 1-.2 3-.3 6.3-.1 2.7-.1 5.9-.2 8.7 0 1.4-.1 2.7-.1 3.9-.7 2.1-1.2 3.5-1.5 4.3l-.1-.1s-3.3-4.6-5.9-8.1c-.6-.7-1.1-1.4-1.6-2.1-2.3-3-5.6-5.4-7.3-6.7-.1-.1-.2-.2-.4-.2-.4-.3-.7-.5-1-.7.4-.4.8-.8 1.2-1.1 1-.8 7.1-8 8.7-9.9 3-3.6 6.2-9.6 7.1-12.6.2-.8.5-1.8.6-2.8.6 1.3 1 2.7 1 3.6zM45.9 66.2c.1 0 .2-.1.3-.1v1.5c-.2-.5-.3-1.1-.3-1.4zm.9-2.1c-.2 0-.6-.1-1.7.3 0-.1-.1-.1-.1-.2 0-.3.1-1.6.2-2.2 0-.3.1-.5.1-.7.1-1.1-.3-2.2-.7-3.6-.4-1.2-.8-2.4-.7-4.4.1-2.2.4-4.5.6-6.3.2-1.3.3-1.9.5-2.6.1-.3.2-.6.3-1.1.1-.2.1-.5.2-.7.3-1.3.7-2.8.8-4.3.1-1.2.6-2.4.9-3.2.1-.2.2-.4.2-.5l.3-.6c.4-.6.8-1.5.9-2.8.2-1.5.4-2.3.8-2.9.3-.4.5-.9.9-1.5.3-.6.7-1.3.9-1.6.5-.7 1.7-1.7 2-1.9.6-.2 1.1-.8 1.8-1.6.5-.5 1-1.2 1.6-1.7.6-.5 1.1-.8 1.5-1.1.6-.3 1.1-.7 1.8-1.4.4-.4 1.4-.8 2.2-1.1.9-.4 1.8-.7 2.2-1.2.3-.3.3-.3.9-.2h.1c.9.1 2.7-.3 3.1-.3.3-.1.6-.3.7-.7v-.4h.5c.7 0 5.2.3 7.9.6 2.6.3 8.9 2.6 9.8 2.9.9.3 1.8.7 2.6.9.2.1.4.1.5.2.6.2 1.5 1 1.9 1.4.1.1.2.2.3.2.3.1.7.1 1-.1.4-.4 1-.7 1.3-.8.1 0 .3.3.5.4l.4.4c.1 0 .1.1.2.2.4.3.9.7 1.7.9.2.1.7.8.9 1.3.1.2.3.4.6.5l.5.2-.1.8v.4c-.1.3 0 .6.3.8.2.2.5.3.9.3h.1c.7-.1 1.5-.3 1.7-.3.2 0 .7.3 1 .4l.2.1c.3.2 1.2 1.1 1.6 1.5l1.1 1.1c.1.1.4.4.6.7.4.5.9 1.1 1.5 1.6.3.2.4 1 .5 1.5 0 .4.1.7.2 1l.3.6c.2.3.5.6.7.9l.3.3v.9c0 .8 0 1.9.5 2.8.4.7.4 2.5.4 3.4v.9c-.2.1-.7.4-.7 1.2v.6c.1.8.4 1.4.9 1.8 0 .1-.1.2-.1.2l-.3.9c-.1.7-.1 1.9.1 2.9v.1c.1.2.1.6.1.9v.6c0 .6.1 1.4.2 2.1.1.8.1 1.1 0 1.5 0 .3-.1.6-.1 1 0 .9.2 1.2.4 1.6l.4.8c.2.5.2.7.1 1 0 .2-.1.4-.1.6v.5c0 .2-.2.7-.5 1.2h-.7-.1-.1-.1-.1s-.1 0-.1.1c-.1 0-.1.1-.2.1-.2.1-.3.3-.4.4l-.3.3c-.2.1-.4.1-.6.1h-.3c-.2 0-.4.1-.6.2-.1 0-.1.1-.2.1-.4.4-.3.9-.3 1.4v.1c-.2.2-.4.5-.8.9-.1.2-.3.4-.5.7-.1.1-.2.2-.3.4-.2-.6-.4-1.5-.5-2.2v-.2c-.1-.4-.2-.9-.3-1.4-.1-.2-.1-.4-.2-.6-.1-.4-.3-.9-.3-1.1 0-.3.1-.7 0-1v-.2c0-.5-.2-.9-.3-1.3-.1-.3-.4-1.5-.6-2.2-.2-.6-.3-1.1-.4-1.4 0-.1-.1-.5-.2-1.5V53v-1.7-.6c0-.4-.1-.7-.2-1.1-.2-.9-.3-1.7-.5-2.5v-.3c-.1-.3-.1-.5-.1-.6v-.3-.4c0-.1 0-.2-.1-.3 0-.2 0-.4.1-.7.1-.4.2-.9.1-1.6 0-.1-.1-.3-.1-.5-.1-.2-.2-.5-.3-.8l-.1-.3-.3-.6v-.1c-.2-.3-.2-.4-.3-.7 0-.1 0-.2-.1-.4-.1-.3 0-.5 0-.8v-.1-.3c0-.5 0-1.1-.4-1.9-.3-.7-.6-1-.8-1.3-.2-.2-.3-.4-.5-.8s-.4-1.1-.5-1.6c-.1-.5-.2-.8-.3-1.1v-.7c0-.8-.1-1.7-.5-2.3 0-.1 0-.1-.1-.2-.2-.4-.6-.6-1.1-.8-.6-.2-1.2-.3-1.6-.3h-.8c-.3-.1-.7-.4-1.3-.8-.3-.2-.5-.4-.6-.5.1 0 0 0 0-.1-.4-.2-.7-.4-1.1-.7-.7-.4-1.4-.9-2.1-1-.3-.1-.6-.1-.9-.1-.8.1-1.6.3-2.2.5-.1 0-.2.1-.3.1-.4.2-.5.3-1.4 1.5-.2.2-.3.4-.3.7 0 .3.1.5.4.7l.1.1.3.2c-.1.1-.1.1-.1.2-.1.2-.1.5 0 .7 0 0 .1.3.3.6.1.1.1.2.2.3-.1.1-.2.3-.3.5v.4c-.1 0-.2.1-.3.1-.2.1-.3.3-.3.5v.5c0 .1.1.2.1.4l-.6-.4c-.1 0-.1-.1-.2-.1-1.8-.8-2.2-.9-2.3-.9h-.3c-.2 0-.5.1-.6.3-.1.1-.3.3-.3 1-.2-.2-.4-.5-.6-.6-.5-.3-1-.3-1.6-.1-.6.3-1.1.8-1.2 1.4 0 .2-.1.4-.1.6-.2 0-.4 0-.5.1-.1 0-.2-.1-.3-.1-.3-.1-.7-.3-1.1-.3-.7 0-1.1.5-1.3.8l-.1.1c-.2.1-.4.2-.5.3-.5-.4-1-.6-1.1-.6-.3-.1-.5-.1-.8 0-.2.1-.4.3-.5.6h-1.3l-1.8-.3h-.3c-.5.1-1.1.3-1.5.4-.2-.2-.5-.3-.7-.4 0-.2 0-.3-.1-.5-.2-.4-.5-.6-.9-.6 0 0-.9 0-1.4.1-.2-.1-.7-.4-.9-.5-.3-.2-.5-.3-.7-.4-.1 0-.3-.1-2.2 0h-.2c-.4.1-1.4.3-2 .5-.4.1-.7.2-.8.2-.5.1-1.7 1.1-2.1 2.1-.1.2-.1.4-.2.5-.1.3-.1.6-.1.9V37.5l-.1.1c-.3.5-.6 1.1-.7 1.5v.2c0 .1-.1.4-.2.6-.2.7-.4 1.2-.3 1.7v.3c0 .4.1 1.1.2 1.6 0 .2.1.4.2.5-.1.4-.4 1.2-.6 1.7-.2.5-.4 1.1-.6 1.6l-.1.4c-.2.6-.4 1.2-.5 1.7-.1.4-.3 1.3.3 1.8 0 0 0 .1.1.2.1.2.1.4.2.5 0 .2-.1.6-.1 1-.1.9 0 1.3.1 1.6-.1.1-.2.3-.3.5-.3.4-.5.7-.5 1.2v.1c0 .3.1.5.2.7.1.2.2.4.3.8.3.8.4 2.4.5 3.2.1.8.3 3.1.3 3.5 0 .3-.1 1.4-.2 2.4 0 .2 0 .4-.1.5-.2-.2-.4-.4-.7-.6-.4-.3-.9-.6-1.4-.5-.1-.1-.3-.2-.4-.3-.1-.1-.2-.2-.3-.2l-.2-.2c0-.1-.1-.2-.1-.3-.1-.1-.2-.3-.3-.4-.1-.1-.2-.2-.2-.3-.1-.1-.2-.2-.3-.2 0-.1-.1-.1-.1-.2-.1-.1-.2-.2-.3-.2-.5.3-.7.2-.9.1.1 0 0 0 0 0zm9.6 18.6c-.5 0-1 .4-1 1 0 .3.1.7.3 1.4l.1.3c-.7-.3-1.5-.7-2.1-1.1-.8-.5-1.1-1-1.9-2-.4-.3-.8-.8-1.2-1.3-1.1-1.4-1.9-3.9-2.5-5.7-.2-.6-.4-1.2-.5-1.7-.2-.4-.3-1.1-.5-1.9h.1c.5 0 .9-.5.9-1s-.1-2 0-2.4v-.4c.1.1.3.2.4.4.5.5.9.5 1.3.4 0 0 .1 0 .1.1.9.7 1.4 1.5 1.5 1.5l.3.3c-.2.1-.4.2-.5.4-.2.4-1.4 2.6-1.3 4 .1 1.4.5 2.2.8 2.8.3.5 1.4 2 1.6 2.3.2.2.5.4.8.4.2 0 .4-.1.6-.2.4-.3.5-.9.2-1.3-.5-.7-1.3-1.7-1.5-2-.2-.4-.5-1-.5-2 0-.6.6-2.1 1.1-2.9.3-.4.1-1-.3-1.3.2-.1.4-.3.5-.6 0 0 .1-.2.2-.5.1-.2.2-.4.3-1.4.2-1.3.3-3.2.3-3.3v-.1c0-.1-.2-2.8-.3-3.6v-.1c-.1-.9-.3-2.7-.6-3.6-.2-.5-.3-.8-.4-1 0-.1.1-.1.1-.2.4-.5.9-1.3.5-2.1v-.9c0-.5.1-1 .1-1.1v-.4c0-.1-.1-.5-.3-1l-.3-.6c0-.1 0-.2.1-.3.1-.4.3-1 .4-1.6l.1-.4c.1-.4.3-.9.5-1.4.7-1.7 1-2.6.5-3.3v-.1c-.1-.4-.1-1-.2-1.3v-.3c0-.2.2-.7.3-.9.1-.3.2-.6.2-.9 0-.2.4-.9.6-1.1l.1-.2c.2-.4.2-.8.3-1.4 0-.5.1-1.1.2-1.4.2-.4.7-.9.9-1.1.1 0 .3-.1.6-.1.6-.1 1.5-.3 2-.5H61c.1 0 .1.1.2.1.3.2.6.4.9.5L59 37.2l-.1.1c-.1.2-.2.4-.2.6 0 .5.4 1 1 1h.3c.1 0 .1 0 .2-.1 0 0 3.5-2.4 4.2-2.9.2-.2.4-.2.6-.2.1 0 .1.1.2.1.1.1.1.2.2.3.4.3.6.3 2.8-.3l1.7.2c.2 0 1.3.1 1.8 0 .3-.1.5-.2.7-.3.1.1.2.1.2.2.3.4.7.5 1 .5.6 0 .9-.4 1.1-.7.4-.1.7-.5.9-.7.1 0 .2.1.2.1.3.1.6.2.9.2.3 0 1.2-.1 1.6-.2.4-.1.8-.4.8-.8 0-.2.1-.7.2-1.1.1.2.3.5.4.7.4.7.8 1.4 1.6 1.3.3 0 .9-.1 1.4-1.7 0-.1.1-.3.1-.4.2.1.4.2.7.3l1.4 1.1c.3.2.7.3 1 .1.1-.1.3-.2.4-.2.3 0 .6-.2.7-.4.1-.1.1-.2.2-.3.3.2.5.3.6.4.4.3.9.2 1.2-.1.2-.2.7-.7-.4-2.3-.2-.2-.4-.6-.7-.9.1-.2.2-.4.2-.6 0-.4-.2-.8-.5-1 .3-.1.4-.4.5-.7.1-.3-.1-.7-.3-.9l-.8-.9c.1-.1.1-.1.1-.2 0 0 .1 0 .2-.1.4-.2 1.1-.4 1.7-.4h.3c.4.1 1 .5 1.6.8.4.2.8.5 1.2.7.1.1.3.3.6.5.9.7 1.6 1.1 2.2 1.2h.4s.4-.1.8-.1c.3 0 .7 0 .9.1h.1c.1.1.1.2.2.4s.1.8.1 1.2c0 .6 0 1.1.2 1.4.1.1.2.5.2.8.2.6.4 1.3.7 1.9.2.5.4.8.6 1 .2.3.4.5.6 1.1.2.5.2.8.2 1.2 0 .4-.1.8.1 1.4.2.9.3 1.1.6 1.8.1.1.2.3.3.5l.1.3c.3.6.3 1 .2 1.5-.1.4-.1.9-.1 1.4v.9c0 .2 0 .3.1.7v.2c.1.8.3 1.7.5 2.7.1.3.1.5.1.7v3c0 1 .1 1.6.2 2 .1.2.2.7.3 1.3.3 1.3.6 2.2.7 2.6.1.2.1.4.2.6V60.6c-.1.6.1 1.2.4 1.9.1.2.1.4.2.6.1.4.2.8.3 1.1v.1c.2 1.5.8 3.5.8 3.5 0 .1.1.3.2.4-.1.5 0 1 .3 1.5.2.4.6.7.8.8.1 0 .1.1.2.1 0 .3-.1.6-.1.9 0 .4-.1 1-.2 1.3-.2.3-.4.8-.6 1.4-.1.5.2 1 .7 1.1h.2c.4 0 .8-.3.9-.7.1-.3.2-.6.2-.7.3-.4.4-1 .5-2.2 0-.3.1-.6.1-.8.2-1.1-.6-1.7-.9-1.9-.1-.1-.2-.2-.3-.2-.1-.2-.1-.3-.1-.4.3-.2.7-.7 1.2-1.5.2-.2.3-.4.4-.6.4-.5.8-1 .9-1.1.3-.3.3-.7.3-1.1.1 0 .2 0 .3-.1-.1 1.5-.1 3.6-.3 5.3-.2 2.1-1 5.2-1.6 7.2-.2.7-.4 1.3-.5 1.7-.1.6-.3 1.4-.4 2.3-.2 1-.3 2-.5 2.5-.2.1-.9.1-1.3 0-.3-.1-.5 0-.8.2-.2.2-.4.4-.4.7 0 0-.4 4.5-.7 6.2-.2 1.7-.7 3.9-.7 3.9-.1.3 0 .7.3.9 0 .9 0 1.9-.1 2.1-.1.2-.2.7-.4 2s-.6 3-.9 4.1c-.8 2.8-4 8.6-6.7 11.9-2.8 3.4-7.7 9.1-8.4 9.6-.6.5-1.5 1.3-2 1.8l-2.9.1c-.2-.2-.5-.5-1-.7-.8-.4-10.3-6.9-13.5-9.7-4.1-3.6-6.4-6.4-6.8-8.4-.3-1.6-.9-3.6-1.3-5.1-.2-.9-.5-1.8-.5-2V100v-.1c-.1-.6-.2-1.4-.3-1.8V98s-.5-3.4-.5-5.4c0-1.8-.8-5-1-6.1.2-.4.5-1 .3-1.7l-.1-.5c-.1-.4-.2-.8-.2-1 .6-.1.2-.6-.3-.6zm-4.6 28.5c.1 0 .1-.1.1-.1.2-.1.3-.2.4-.3.5-.7 2.8-4.1 3.2-5.2.1-.4.5-1.3.8-2.3.3-.7.5-1.4.8-2.1-.2 2.2-.7 7.6-.1 10.3.4 1.6 1.7 5.3 3.1 9.2.9 2.6 1.9 5.3 2.6 7.3-.6 1.1-3.1 5.6-3.7 7.2-.6 1.6-2.8 5.4-4.1 7.4-.7 1.1-3.3 4.1-4.8 5.9-.3.3-.5.6-.7.8-.2-.1-.3-.3-.4-.4-.7-.9-7.4-4.5-8.2-4.8-.5-.2-.7-.4-.8-.6.2-.6.9-2.2 1.4-3.4.4-.9.8-1.7 1-2.3.4-.9.7-2.1 1-3.5.4-1.4.7-2.8 1.2-4 .4-1.1.7-2.6 1-4.2.3-1.9.7-3.8 1.3-5.4 1-2.1 3.8-7.6 4.9-9.5z"/><path d="M70.2 92.7c-.3.5-.1 1 .4 1.3.1 0 2.1 1.1 3.4 1.5 1 .2 4.6.7 6.4.7.4 0 .6 0 .8-.1.4-.1.9-.1 1.4-.2.4 0 .8-.1 1.2-.1.2 0 .4-.1.6-.1 1-.1 2.4-.3 3.4-.7 1.2-.4 2.5-1 2.5-1.1.5-.2.7-.8.4-1.3-.2-.5-.8-.7-1.3-.4 0 0-1.2.6-2.4 1-.8.3-2.2.5-3 .6-.3 0-.5.1-.7.1-.3.1-.7.1-1.1.1-.5 0-1.1.1-1.6.2-.7.1-5.2-.3-6.3-.6-.9-.2-2.4-1-2.9-1.3-.4-.3-1-.1-1.2.4zM93.1 112.9c-.1 0-2.3.7-4.2 1.4-.2.1-.5.2-.7.4-.8.5-2.4 1.4-6.2 2.1-4.6.9-10.2-1.3-10.3-1.4-.5-.2-1 0-1.2.5-.2.5 0 1 .5 1.2.2.1 4.3 1.7 8.6 1.7.9 0 1.8-.1 2.7-.3 4.1-.8 5.9-1.8 6.8-2.4.2-.1.4-.2.5-.3 1.8-.7 4-1.3 4-1.3.5-.1.8-.7.7-1.2-.2-.3-.7-.6-1.2-.4z"/></svg>