<svg id="Capa_1" xmlns="http://www.w3.org/2000/svg" viewBox="0 0 161.2 161.2"><style>.st0{fill:none}.st1{fill:#282929}.st2{fill:#232321}.st3{fill:#ebc4a8}.st4{fill:#e42020}.st5{fill:#FFF}.st6{fill:#bfbab6}.st7{fill:#b3b3b3}.st8{fill:none;stroke:#b3b3b3;stroke-width:0;stroke-linecap:round;stroke-linejoin:round}</style><path class="st0" d="M107.7 38z"/><path class="st1" d="M122 129.8c-.9-.5-3.6-1.7-7.9-3.7 2.6 2.6 5.5 5.5 6 6.1 1.1 1.3 3.6 5.8 3.7 6 .2.3.2.7 0 .9l-2.5 4.3c2.1 1.5 3.7 2.7 4.9 3.6 4-2.8 7.8-5.9 11.3-9.4-2.4-1.3-6.3-3.3-9.6-4.9-2.6-1.2-4.9-2.4-5.9-2.9z"/><path class="st1" d="M119.2 143.2l2.7-4.6c-.9-1.5-2.5-4.3-3.2-5.2-1-1.2-8.8-8.9-9.7-9.6l-1.6-.7c-2.8-1.2-3.7-1.6-3.9-1.7-.7-.4-.9-.9-1.1-1.4-.1-.2-.1-.3-.2-.4-.1-.2-.6-1.1-1.1-2 .1.8.2 1.7.3 2.5.1 1.1.5 2.2.8 3.4.4 1.5.8 3 .9 4.5.1 1.2.5 3.6.9 5.9.5 2.7 1 5.4 1.1 7 .1 1.2.3 4.2.5 6.9l.2 2c.2 2.4.4 4.9.6 7.1 6.5-2.2 12.6-5.1 18.2-8.8-1.6-1.2-3.3-2.5-5-3.7-.6-.2-.7-.8-.4-1.2z"/><path class="st2" d="M51.4 42.2s-.1-.3-.1-.5c0 .2-.1.5-.1.7l.2-.2zM55.4 27.5v-.3c-.2.3-.4.5-.5.8l.1-.1c.2-.1.4-.4.4-.4zM60.8 20.6c.4 0-.3-.2-.5-.2-.1.1-.2.2-.2.3.2-.1.6-.1.7-.1zM58.4 23s.5 0 .8-.2c.4-.2.5-.4.8-.6s0-.4-.3-.3c-.2 0-.4.1-.6.1-.4.5-.7 1-1.1 1.5.2-.2.4-.5.4-.5zM59.8 21c-.1.1-.2.2-.3.4.3-.2.3-.2.3-.4zM56.9 25c0 .1-.1.1-.1.2h.1V25zM58.8 23.4c-.2-.1-.7.1-.7.1s-.2.1-.3.2c-.1.2-.3.4-.4.6.3-.2.8-.4.9-.5.2 0 .7-.2.5-.4zM56.8 26.2s-.7.2-.9.2c-.1.2-.2.4-.4.5l.9-.4.4-.3z"/><path class="st2" d="M50.8 47.9c.4-.1.4-.9.1-1.6-.3-.7.6-.4.8-.8.2-.3-.8 0-.6-1s.4 0 .6-.5c.2-.5-.1-.8-.1-.8s1.9-.7 2.3-1l1.2-.6 2.1-1.4 2.1-1.2s.3.1.1.4c-.2.3-.9.4-1.3 1-.4.5 0 .3-1.4 1.7l-3.1 1.6s-.3.2.7 0-.4 1.4-.4 1.4 1-.4 1.8-.9 1-1.5 1-1.5l2.7-2.3h.6l-.7 1.5s1.2-1.2 1.4-1.5v-.1.1c-.1.3-.2 1.5-.2 1.5l.6-.1s-.5.6-1.7 1.4c-1.6 1.1 1.4-.3 1.4-.3l-1.5 1.5s-.9.8.3.1c1.2-.8 1.2-.2.3.6-.9.8-1.1 1.4-1.1 1.4l.5-.2 1-.5s.8-.2 0 1 .2-.1-2.2 1.6H60s.3-.2-.6.8c-1 1 0 0-.9.1s0 0-1.3.8-.3.2-.9.9c-.6.7-2.2 3.2-2.2 3.2l-1.9 3.3.8-2s2.4-4.4 2.1-4.4c-.2 0-.4.6-.4.6L52.4 55l.7-1.6c.7-1.6-.9-.3-1 .3 0 .6-.5 1.6-.5 1.6l-.8 1.7s.2-.6 0-1.4c-.2-.8-.1-.7-.1-.7l.1-1.1-.4-.5v1.4c0 1.1.2 2 .4 2.5.1.3.2.5.2.5l2 5.1.2.4c.4-1 .8-2.1 1-2.6.5-.9 1.3-3.4 1.6-4.6 0-.2.1-.4.1-.6.3-1.6.6-3.4 1.9-3.6.5-.1 1.3-.6 1.7-.9.6-1 1.3-2.6 1.4-3.2v-1.8c0-1-.1-2 0-2.6.1-.4.1-.8.2-1.2.1-.4.2-.9.2-1 0-.2-.4-1.1-.6-1.8-.1-.2-.1-.4 0-.6.1-.1 1.5-2.9 2-3.8.4-.8 1.3-2.4 1.3-2.4.2-.3.6-.5.9-.4.8.3 2.3.7 2.9.7.9-.1 4.4-.1 5.4.7 1.1.9 2.5 1.6 2.9 1.5.6-.1 1.4.1 2.6.4.4.1.9.2 1.1.3.2-.1.5-.2.8-.4 1.1-.5 1.6-.7 2-.6.1 0 .4.1 2.4 1.4.1.1.2.1.2.2.3.5.7 1 .9 1.1 2.3-.2 2.9-.4 3.1-.5.4-.3 1.4-.8 2.2-1.1.3-.1.6 0 .8.1.9.7 1.9 1.4 2.2 1.5.5 0 1.5-.2 2.2-.4.2 0 .3-.1.5-.1.5-.1 1.3 0 2.3.1.6.1 1.7.2 1.9.2.9-.4 2.8-.2 3.1-.1h.2l.9.3c.9.3 1.8.5 2.1.5.8-.1 1.7.5 1.9.6l.3.3c.3.6 2.5 5.7 2.3 7.5 0 .3 0 .6-.1 1-.2 2.5-.3 4.6-.6 5.5-.2.7 0 3.7.4 5.4.1.5.4 1.1.7 1.8.6 1.3 1.2 2.7 1 3.7-.3 1.5-.5 3.2-.6 4.4v2.1c.3-.7.7-1.4 1.1-2.1.6-1.1 1.1-1.9 1.4-2.4.3-.4.5-.9.8-1.5.3-.8.5-1.6.5-1.6v-.1c0-.1 1.9-6.3 1.6-9.2-.3-3.1-.8-7.6-1.1-9.6-.1-.4-.1-.9-.2-1.5-.1-.4-.1-.9-.2-1.5-.3-.2-.9-.6-1-.7-.1-.1-.7-.6-.6-.3s.6 1.6.6 1.6.9 1.1 1.1 1.6.1.7-.3.2c-.3-.5-.8-1.6-1.2-1.6-.4 0-.6-.1-.2.7s.6.9.6.9.6 1.1 1 1.5.2.5.2.5h-.8s-.8-.5-.5 0c.3.5.4 1 .6 1.2s.8 1.9.5 1.5c-.3-.3-.6 0-.6 0s.2 1 .4 1.4-.3.6-.3.6.1.7.4 1.2c.3.5.4.9.4.9l-.4.4s.7 1.2.4 1.1c-.3-.1.6.8.6.8l-1.1.3s.8 2.4.2 1.6c-.6-.8-.4-.4-.4.2 0 .6-.3.3-.3.3V58h-.6l-.2-1-.1 2.2-.8-.1-.8 1.2-.5-1.7-1-1.1-.3-.9.6.1.4-.5s-1.1-1.9-1-1.9c.1.1.4.7 1 1.1.6.4.6.4.1-.5s-1.2-2-.4-1.3c.8.7 2.1 1.7 1 .4-1.2-1.3-.4-1 .3-.6s-.3-1-.3-1l.9-.9s-1.7-1-1.9-1.6c-.1-.5 1.8.5 1.3-.3s-.3-.9-.8-1.3 1.4 1.1.3-.2c-1.1-1.3-1.2-1.9-.7-1.9.4-.1-.1-.5-.1-.9.1-.4 1.3.9.7 0l-.6-.9-.3-.5s-.8-.8-.2-.8c.6 0 1 .5 1.2.4.2-.2-.5-.8-.5-.8s1.4.6 0-.2c-1.4-.9-2-1.7-2-1.7l.2-.2-.2-.3s1.9.5.9-.3c-1.1-.9-2.3-2.2-1.1-1.5s2.9 1.1 1.5.2c-1.5-.9-1.5-1.3-1.5-1.3h.6s1.6 1 1.2.1c-.3-1-.4-2-.4-2 1.6.9.8.3.8.3l-1.2-1.3-.6-.8s1 .2.5-.5-.4-.8.3-.2c.8.5.2-.3.3-.8s.3-.8.7 0c.4.7.6.3.6.2-2-2.1-4.7-4.8-4.8-4.9-.1-.1-.2-.3-.3-.4-.4-1.4-1.7-5.2-3.8-6.1-.1 0-.1-.1-.2-.1.3.4.1.6-.2.5-.4-.1-1-1-1-.4s.9.9 1 .9c.1 0-.6.1-.3.7s.8.5 1.5.9 1.3.6 2 1.2-.5.1-1 0-.7 0-.9.4c-.1.4.2.6.7 1.3s.1.7 1.5 1.6c1.3.8.7.9.3.4-.3-.4-1.1-1-1.7-1.3-.5-.3 0 .4.1.8s.6.7.9 1.1c.2.4.5.5 1 1.5s-.8-.5-.6 0c.2.5-1-1-1.4-1s.1.7.9 1.4c0 0 .1.1.1.3.3.5.8 1.5 1.2 2.1.5.7-.8-.3-1-.9s-1.3-1.1-1.7-1.9l.8 1.4c.3.7.7 1 1.2 2.1.6 1.1-.2.4-.5.3-.2-.1-.9-1.1-1.5-2.2s-.6-.5-.8 0c-.2.5.3 1.1.9 1.9.5.8.4 1.7.4 1.7l-.5-.2s-.5-1-.6-1.1c.1.2-.4.8-.4.8s-.3-1.2-.5-.3c-.2.9-.3-1.2-.3-1.2l-.3-.1-.4 2.5-.2-1.7s.1-1.6 0-3c-.1-1.5-.1-1.5-.3-1.6s-.1 1.3-.1 1.7 0 1.5-.2 2.2c-.1.4-.1-.2-.1-.8 0-.4-.6.7-.6.7l-.2.4c-.2.4-.2 1.8-.3 1.6 0 0-.1-1.7.2-2.9s-.3.2-.6-.2-.1 1-.3 1.8-.7 1.8-.7 1.8l-.1-.8-.1-2s-.5.8-.9 1.9c-.4 1.1-.4-.4-.4-1.2 0-.8-.6-.6-.6-.6v2.1s-.6-.6-.5-1.7c0-1.1-.1.5-.3 1.3-.2.8-.4-.8-.4-2.2s-.2 2-.2 2-.7.6-.6-.4-1 1-1 1h-.3s0-.6.5-1.6-.1-1.1.4-3.2-.3 0-.4.7-.4.5-1.2 2.2c-.8 1.8-.6.7-.6.7s0-1-.1-2.2c-.1-1.2-.3-.6-.5.3-.2.9-.6.9-.7 0 0-.9-.3-.2-.3-1.1 0-.9-.5 1.7-.5 1.7l-.6-.5v-2.3l-.6 1.4c-.8 1.7-.8 1.9-.8 1.9s-.6 1.8-1 1.7c-.3-.1.8-3 .8-3s0-.8.4-2.6-.4 0-.7 1.1c-.2 1-.8 2.2-.8 2.2s-.6 2.4-.6 2.3c0-.1.5-2.6.5-2.6s0-.8-.4-.6c-.3.2-.6 2.1-.6.2 0-1.9-.5-1-.4 0 0 1-1.2 2.6-1.2 2.6s.3-1.4.7-2.2c.4-.8.6-1.8.6-1.8l.3-2v-2.6l.4-.5s0-1.9.3-1.3.1.4.8-.6c.2-.3.2-.1.2.2.1-.1.2-.2.3-.4.3-.7 0 1.1-.1 3s-.5 2.4-.3 3.6l.6-1.5.4-2.1s.2-1.2.7-.5c.4.7-.2-2.1-.2-2.1s.3 1 1.1.2c0 0-.5-.5 0-.8s.4 1.9.4 1.9.1-.1.5-.2c.4 0 0 0-.4-1.3s.7.1.7.1l-.2-2.1s.2.8.6 1.2-.1 1 .3 1.5.2.7.6 1.6c.3.9 0-.8.2-1.5s.1 1.2.9 1.8c.4.3.5-.2.5-.6-.1-.1-.1-.1-.1-.5 0-.5.1 0 .1.5.1.1.3.2.9 1.2l.3-2v-1.4l.7.1s.2-1.2.6-.5c.4.7.6 2 .6 2s.2 1.2.4 1.5c.2.2-.1-3.2-.4-4.1s.7.9.7.9.3 1.3.5 2 .1 1.1.9 3c.7 1.9 0-2.5 0-2.5h.2s0 .8.4 1c.3.2.1-.7 0-1v-.1.1c0 .1.1.4.3 1.1.3 1.2 0 1.8 0 1.8s-.1 2.1.4 3.6c.2.6.3.4.3 0 .1-.6 0-1.6 0-1.6l.2-1.6.1-2.3.5.2.8.1s-.2.5.2.2c.5-.3-.2-.2.4-1.3l-.6-1.2c-.6-1.2-.3-.5-.3-.5-.1-.2-.2-.3-.2-.3s.2.2.5.1l-.5-1.4s-.3-.5-.7-1.2-.5-.9-.1-1.1c.4-.2-.4-.5-.1-.5-.4-.2-.7-.4-1.1-.6-2.5-1.4-5.7-3.2-7.6-3.5-.7-.1-1.7-.3-2.8-.5-4.1-.8-10.2-2.1-13.9-1.5l-1.8.3c-4.3.6-9.2 1.4-11.5 3.2-.6.5-1.3 1.2-2 2.1l.4-.2s.9-.1.7 0l-.6.3c.2 0 .8-.2.6 0-.3.2-.8.3-.8.3l.3.1h.8c.3.2 1.1 1 .8 1h-1.6s1 .4.9 1-.9 1.6-.9 1.6h-1.2c.5.9 1.5 1.4 1.5 1.4s-2.4-.5-2.9-.5-.1 0 0 .5-1.4.7-1.4.7l.5 1.2s-.8.9-1.3 1-1.1.6-1.1.6 1.6-1 1.3 0 .8 1.4-.1 1.9-1.2.9-1.2.9 1.4-.6 1.4 0-1.2.9-1.4 1.1 1.3.4 1.3.4-.1 1-.5 1.4-1 1.7-1 1.7.2.4 0 .7c0 0 1.2 1 .6 1s-.5-.4-.6.4-.3.9-.7 1.2c-1.2 1.1-1.7 1.5-1.6 1.8.2.3.1.6-.5 1-1 .6-1.2 1.4-1.7 1 0 0-.1 0-.1-.1 0 .1 0 .3-.1.4-.3 1.5-.5 3.1-.7 4.3 0 .3-.1.6-.1.9v-.1c.6-.9.2-.4.6-.6zm31.5-24.8s.6 2.2.7 1.9.7-2.7.6-1.3-.3 4.5 0 2.9.6-2.1.7-1.8.3-.9.3-.9L85 22v2.1s-.5 1.7-.7 2.9-.6 3-.3 2.3c.3-.6.6-.8.6-.8s.6-2.4.8-2.4.2.9 0 1.7c-.2.8.4.1-.3 1.4-.7 1.3-1.3 2-1.4 2.4l-.6 1.2s.7-3 .3-2.1c-.4 1-.9.7-.7.2s.2-1.6.2-1.6l.1-1c-.1.6-.2 1.2-.4 1-.2-.4-.2-2-.2-2v-1.4s-.4 0-.5-.7.4-2.1.4-2.1zm-4.1 5.4l.3-3.1s.1-4.3.3-1.5c.2 2.8-.1 3 0 3.9.1.8.6.6.6-.3 0-.8.1-2.3.2-1.2.2 1.1.4-.6.4-.6v-1.2c0-.4.1-1.5.2-2.1 0-.7.5-.6.5-.6s-.3.8-.2 1.6c.1.7.1.9.3 1.8.2.9.1 2.6.2 3.6s.3 3.6 0 2.8c-.3-.8.2-2.8-.2-1.6-.4 1.2-.8.5-.8.5-.1.8-.3 2.3-.5 1.2s-.4.3-.5-.5.4-2.4 0-2.2c-.4.2-.6 1-.6 1s.3 1.4 0 1.1c-.3-.3-.2-2.6-.2-2.6zm-6.5-6.8c.6.7 3 3.8 3 3.8l-2-3.8s1.3 1.5 2 2.1c.8.6 2 6.9 2 6.9s-.9-.6-1.3-1.4.8 3.6.8 3.6l-1.8-1.5.3 2-.4-1.3-1.3-3.8 2.4 3-1-4s-1.3-3.6-1.9-4.2c-.6-.6-3.3-3.1-3.3-3.1s2 1 2.5 1.7z"/><path class="st2" d="M51.9 38.5s.9-.8 1.1-1c.2-.3.1-1-.2-.7-.2.2-.7.7-.8.6-.2.4-.2.7-.1 1.1-.1 0-.1 0-.1.1 0-.1.1-.1.1-.1zM52 40.1c-.2-.2-.3-.4-.3-.5v.1c-.1.5-.1 1-.2 1.5.1-.3.5-1.1.5-1.1zM52.7 36c.3-.3.7-1.9.2-1.5-.3.2-.6.4-.8.5-.1.6-.2 1.2-.2 1.8.3-.4.6-.6.8-.8zM53.7 31.6l-.3-.4.4-.5.5-.4.3-.6-.9.7-.2-.1c-.3.6-.6 1.4-.8 2.2.1-.2.1-.3.1-.3l.9-.6zM54.8 28.6l-.4.1c-.2.4-.5.7-.7 1.1l.5-.5.6-.7zM53.1 32.9s-.3.1-.6.1c-.1.2-.1.5-.1.7.1-.2.1-.3.3-.4l.4-.4zM52.3 34.2c0 .2-.1.4-.1.6.1-.2.3-.3.3-.4.1-.2-.1-.2-.2-.2zM56.6 25.4c-.1.2-.2.3-.4.5h.1c.3-.1.4-.3.3-.5zM114.2 33.6c-.2-.2-.3-.4-.5-.5-.2.7.3.6.5.5zM88.2 25.8c-.1.8-.2 1.5 0 1.6.2.1 0-.6 0-1.6zM114.4 33.9l-.2-.2c0 .2 0 .2.2.2zM50.4 49.9s-.1-.1-.1-.2v.4c0-.1.1-.2.1-.2zM114.5 34.8c.3.4 0 .6 0 .8 0 .1.7.4.7.4l.5.8s-.7.6-.4.7c.2 0 .7.5.7.5s.1.1.2.3c-.4-1.6-.8-3.1-1.5-3.9 0 .1-.4.1-.2.4zM60.9 20.2v-.5c-.1.2-.3.4-.4.6.1-.1.4-.1.4-.1zM116 38.8c-.4-.2-.7-.1-.7-.1s.4.6.7 1c.2.2.4.5.5.7-.1-.5-.2-.9-.3-1.4.1 0 .1-.1-.2-.2zM51 52.6c.2 0-.1-.9-.5-1.7-.1-.2-.2-.3-.2-.5 0 .7 0 1.5.1 2.2v.4c.1-.1.4-.4.6-.4z"/><path class="st3" d="M116.2 71.7c-.1.1-.3.2-.4.4-.2.3-.4.7-.7 1.5-.2.6-.1 1.9 0 2.5v.3c0 .2 0 .5-.1.8 0-.1.1-.1.1-.2.4-1 .8-1.9 1-2.7.1-.5.1-1.1.1-1.8v-.8zM113.3 82.7c-.2.3-.3.6-.5.9-.1.2-.2.5-.4.7-.3.5-.7.9-.7 1-.2.2-.4.3-.6.3-.2 0-.3-.1-.5-.2-.3 1.4-.6 2.7-.8 3.7.2.2.4.3.6.4.2 0 .8-.5 1.2-.8.2-.3.4-1.6.5-2.1 0-.3.1-.7.1-.9.1-.8.5-1.3.7-1.7.2-.2.3-.5.4-.8.1-.2.2-.7.3-1.1 0 .2-.2.5-.3.6 0-.1 0-.1 0 0zM113.5 74c0 .1-.1.2-.1.3-.2.7-.6 2.1-.9 3.6-.2.9-.6 2.5-1 4.3l-.3 1.2c.1-.2.2-.3.3-.5.2-.3.3-.7.6-1.1.3-.5.8-1.4.9-1.9.1-.4.2-.9.3-1.4.2-.6.4-1.6.4-1.9v-.2c-.2-.9-.3-1.8-.2-2.4 0-.1 0-.1 0 0zM115.8 69.3l-.6 1.2c.6-.5 1.2-.6 1.3-.6h.2c.1-.5.3-1.1.3-1.6-.3.3-.7.5-1 .8-.1.1-.2.1-.2.2zM56.7 99.2c.4.6.8 1 1.2 1.4 2.1 2.2 10.5 10.1 12.2 10.8 1.9.9 6.6 2 10.3 2.1 1.5 0 2.6.2 3.4.3 1.3.2 1.7.2 2.5-.2.6-.3 1.3-.5 2.1-.8 1.8-.6 4.1-1.4 6.3-3.1.7-.6 1.5-1.1 2.3-1.7 1.1-.8 2.3-1.7 3.4-2.6 2.2-1.8 3.4-3.2 4-4.5.6-1.2 1-2.1 1.4-2.7.6-1.1 1-1.7 1.2-3.1.1-1 .3-1.6.4-2.3.2-1 .3-1.8.5-3.6s1-4.8 1.7-7.5c.4-1.7.8-3.4 1-4.2.3-1.6.7-3.1.9-3.8 0-.2.1-.3.1-.3-.1-1.2-.2-3.9-.1-5.1.1-1.2.3-3 .6-4.6.1-.6-.4-1.8-.9-2.8-.3-.7-.6-1.4-.8-2.1-.4-1.4-.8-4.9-.4-6.2.2-.8.4-3.5.5-5.1 0-.4 0-.7.1-1 .1-1.1-1.2-4.5-2.1-6.6-.3-.2-.6-.3-.7-.3-.6.1-2.2-.4-3.6-.9-.8-.1-1.9-.1-2.3 0-.6.2-1.4.1-2.7-.1-.6-.1-1.5-.2-1.7-.2-.1 0-.3.1-.5.1-.9.2-1.9.5-2.7.4-.8-.1-2-.9-2.7-1.5-.6.3-1.2.5-1.4.6-.3.3-.7.5-4 .8h-.1c-.9.1-1.7-.9-2.2-1.7-.7-.4-1.4-.8-1.8-1-.3.1-.7.3-1 .5-.5.3-.9.4-1.1.5-.4.1-.9 0-1.9-.3-.6-.2-1.6-.4-2-.4-1.3.2-3.4-1.3-4.1-1.8-.5-.4-3.1-.6-4.4-.4-.9.1-2.2-.3-3-.5-.3.5-.7 1.3-1 1.8-.4.7-1.4 2.6-1.8 3.4.2.5.6 1.4.6 1.8.1.4 0 .9-.2 1.5-.1.4-.2.7-.2 1.1-.1.5 0 1.5 0 2.4v2c-.1 1.2-1.4 3.6-1.6 4 0 .1-.1.2-.2.2-.1.1-1.4 1.1-2.5 1.3-.3.3-.6 1.7-.7 2.4 0 .2-.1.4-.1.6-.3 1.3-1.2 4-1.7 5-.4.7-1.2 2.9-1.6 4 .1.2.1.4 0 .6l-.5 1.3-.1.4c.1 1.3.2 5 0 7.4 0 .3-.1.8-.1 1.3-.2 1.7-.4 4.4-.6 7-.4 5.8-.3 7.5-.2 8 .3 1.4 1.8 4.2 3.6 6.8.6.6.8.9 1 1.2zm25.8 2.4h-2.1c-1.5 0-2.3-.7-2.4-.7-.4-.3-.5-.9-.1-1.3.3-.4.9-.5 1.3-.1 0 0 .4.3 1.2.3h2.1c.5 0 1 .4 1 1s-.4.8-1 .8zm14.3-30.3c-1.3 0-2.3-1-2.3-2.3 0-1.3 1-2.3 2.3-2.3 1.3 0 2.3 1 2.3 2.3 0 1.3-1 2.3-2.3 2.3zm-6.5-7c.3-.3.4-.5 1.3-1 .7-.4 1.9-.7 3-.7s3.4-.4 4.5-.4c1.2 0 1.9.1 3.1.3 1.2.3 2.9.2 3.5 1.1.6.9.8 1.2 1 1.6.2.4-.5-.1-1.1-.2-.6-.1-2.8-.7-4.3-.8-1.5-.1-2 0-4 .3-2 .4-4.5.8-5.2 1-1 .3-1.5.3-1.8.2-.3.1-.9-.5 0-1.4zm-3.7 20.4c.5.2 1.8.9 1.3 1.3s-1 .6-1.8.4c-.8-.2-1.9-1-1.9-1s2-.9 2.4-.7zm-4.5 10.6c2.1.1 5.3.2 6.3 0 2.8-.6 3.2-.4 3.5-.2.5.2.7.8.4 1.3-.2.4-.7.6-1.1.5-.2 0-1.1.1-2.4.3-.5.1-1.4.1-2.6.1-1.2 0-2.6 0-4.1-.1h-1.2c-1.8-.1-5.4-1.3-8.7-2.4-.4-.1-.7-.2-.8-.3-.2-.1-.8-.1-1.7 0h-.3c-.5 0-1-.4-1-1 0-.5.4-.9.9-1h.2c.8-.1 1.8-.1 2.4.1.1 0 .4.1.9.3 1.7.6 6.4 2.3 8.1 2.3.4.1.8.1 1.2.1zm-14-29.6c0-1.3 1-2.3 2.3-2.3 1.3 0 2.3 1 2.3 2.3 0 1.3-1 2.3-2.3 2.3-1.3 0-2.3-1-2.3-2.3zm10.4 17.8c.8.1 2.1 1.6 2.1 1.6s-1.5.1-2 0-2-.8-2-.8 1.1-.9 1.9-.8zM62.4 60.7c.3-.4.5-.7 1.2-1.5s1.5-.9 2.8-1c1.2-.1 2.8.4 4 .6 1.2.2 3.7.7 4.7.9 1.1.1 2.3.5 2.8 1.2s.2.7.2 1.1c0 .4-.2.5-.3.8-.2.3.1.4-.7.4s-3.4-1.1-5.3-1.7c-1.9-.7-2.4-.8-3.9-.9-1.5-.1-3.7.2-4.3.1-.7 0-1.5.4-1.2 0z"/><path d="M90.3 65.9c.3.1.8.1 1.8-.2.7-.3 3.2-.6 5.2-1s2.5-.4 4-.3c1.5.1 3.6.7 4.3.8.6.1 1.3.6 1.1.2-.2-.4-.4-.8-1-1.6-.6-.9-2.3-.8-3.5-1.1-1.2-.3-2-.4-3.1-.3-1.2 0-3.5.5-4.5.4-1.1 0-2.2.3-3 .7-.8.5-1 .7-1.3 1-.9.7-.3 1.3 0 1.4z"/><path class="st4" d="M88.7 154.1c-3.2-3.5-7-6.6-10.2-9.4l-.7-.6c-.5-.5-1.1-.9-1.6-1.4-1.5-1.3-2.6-2.3-3.6-3.2-3.1-3-9.5-8.3-13-11.1 1.3 3.2 2.9 7.2 3.7 9.7.4 1.3.9 2.8 1.4 4.4 1.2 3.6 2.6 8 3.8 13.1.4 1.7.8 3.3 1.3 4.9 3.5.5 7.1.7 10.8.7 4.5 0 8.9-.4 13.2-1.1l-1.5-1.8c-1.2-1.6-2.5-3-3.6-4.2z"/><path class="st5" d="M103.7 148.7c-.6-.2-1.5-.5-2.2-1.2-.5-.4-1.4-1.5-2.5-2.7-.4-.4-.7-.8-1.1-1.2-.1.2-.2.5-.4.7-.4.4-1.1 1.9-1.3 3.8-.1 1.5-.1 4.5 0 6.4v1.3c0 .9.2 1.5.2 1.5.1.3 0 .6-.2.8l.2 1.5c2.8-.5 5.5-1.2 8.1-2-.2-2.3-.4-5-.6-7.5l-.2-1.4z"/><path class="st5" d="M54.5 115.1c.7 2 3.3 8.9 3.5 9.4 0 .1.1.3.3.6l.1-.2.1.1c.6.5 11.1 9 15.4 13.1.8.8 1.7 1.6 2.9 2.6.2-.2.5-.4.8-.6.9-.8 3.1-2.6 4-3.3.9-.6 2.1-2.1 2.6-2.6.1-.2.3-.3.5-.3 0 0 1-.2 1.7-.3.9-.1 1.7.1 2.6.7.7.5 6.1 4.1 7.3 4.8.3.2.8.7 1.5 1.4.8.8 1.7 1.9 2.6 2.9 1 1.1 2 2.2 2.4 2.6.3.2.5.4.8.5-.2-2.3-.4-4.6-.4-5.6-.1-1.4-.6-4.1-1.1-6.7-.5-2.5-.9-4.8-1-6.2-.1-1.3-.4-2.7-.9-4.1-.3-1.2-.7-2.5-.9-3.7-.1-1-.2-2.2-.3-3.2-.4 1.2-.7 2.2-1.1 2.9-.4.7-1 1.5-1.6 2.2-.5.6-.9 1.1-1.2 1.6l-.6.9c-.7 1-1.5 2.3-1.8 3-.1.1-.1.3-.2.5-.5 1.2-1.2 2.9-2.4 3.7-.7.5-2.2 1.1-3.3 1.1-.2 0-.4 0-.6-.1-.5-.2-5.4-3.3-6.8-4.6-1.3-1.2-4.2-3.4-5.7-4.3-1.7-1-5.1-3.5-7.8-5.6-2.9-2.2-5.8-5.3-7.5-7.8-1.8-2.7-2.9-5.8-3.1-6.8-.2-.7-.3-2.1-.4-3-.1.3-.3.6-.5.9-.4.7-.8 1.5-.9 1.8-.3.5-.9 3.3-.6 4.9.5 2.3.9 4.8 1.6 6.8z"/><path class="st3" d="M89 114.6c-.8.3-1.4.5-1.9.7-.8.4-1.4.5-2.1.5-.5 0-1-.1-1.5-.1-.8-.1-1.7-.2-3.2-.3-4-.1-8.9-1.3-11-2.3-1.9-.9-9.2-7.7-12-10.5 0 .3.1.5.1.7.2 1 1.3 3.9 2.8 6.2 1.5 2.3 4.3 5.2 7 7.3 3.1 2.4 6.2 4.6 7.6 5.4 1.6.9 4.6 3.3 6 4.5 1.2 1.1 5.3 3.7 6.2 4.2.4 0 1.3-.3 2.2-.8.7-.4 1.3-1.9 1.6-2.8.1-.2.2-.4.2-.5.4-.8 1.2-2.1 1.9-3.3l.6-.9c.4-.6.8-1.2 1.3-1.8.5-.7 1.1-1.4 1.4-2 .5-.9 1.1-3 1.6-4.8.1-.4.2-.9.3-1.3 0-.1.1-.2.1-.3.3-1.1.7-2.7 1.1-4.1l-1.2.9c-.8.6-1.6 1.2-2.3 1.7-2.4 2.3-5 3.1-6.8 3.7z"/><path d="M96.8 66.7c-1.3 0-2.3 1-2.3 2.3 0 1.3 1 2.3 2.3 2.3 1.3 0 2.3-1 2.3-2.3 0-1.2-1-2.3-2.3-2.3zm1.2 1.8c-.3 0-.5-.2-.5-.5s.2-.5.5-.5.5.2.5.5-.3.5-.5.5z"/><circle class="st5" cx="98" cy="68" r=".5"/><path class="st6" d="M95.1 140.8c-1.3-.9-6.5-4.4-7.2-4.8-.6-.4-1-.5-1.4-.4-.4 0-.9.1-1.2.2-.5.6-1.7 1.9-2.7 2.6-.5.4-1.8 1.4-3.5 2.8l.2 1.8.3.2c3.3 2.8 7.1 6 10.4 9.6 1.1 1.2 2.3 2.5 3.5 3.9.3 0 .5.1.7.1 0-.3-.1-.7-.1-1.1v-1.3c0-1.9-.1-5 0-6.6.2-2.3 1.1-4.2 1.9-5 .1-.1.1-.7.1-1.2-.5-.4-.8-.7-1-.8z"/><path d="M87.9 86.1c.5-.4-.8-1.1-1.3-1.3-.5-.2-2.4.8-2.4.8s1.1.7 1.9 1c.8.1 1.4-.1 1.8-.5z"/><path class="st1" d="M62.9 143c-.5-1.6-1-3.1-1.4-4.4-.8-2.8-2.9-7.8-4.2-10.8l-.6.7s-4 4.7-5.3 6.7c-1.4 2.1-4.3 5-6.4 6.5-1.9 1.3-2.9 2.8-2.9 2.9 0 0 0 .1-.1.1l-.1.1c-.2.1-2.9 2.1-4.9 3.5 9.2 5.9 19.6 10.1 30.8 11.9-.4-1.4-.7-2.7-1.1-4.2-1.3-5-2.7-9.4-3.8-13z"/><path d="M78.6 85.2c.5.1 2 0 2 0s-1.3-1.5-2.1-1.6c-.8-.1-1.8.8-1.8.8s1.4.7 1.9.8zM63.5 60.7c.6 0 2.9-.3 4.3-.1 1.5.1 2 .3 3.9.9 1.9.7 4.5 1.7 5.3 1.7s.5-.2.7-.4c.2-.3.3-.4.3-.8s.3-.4-.2-1.1c-.5-.7-1.7-1.1-2.8-1.2-1.1-.1-3.6-.6-4.7-.9-1.2-.2-2.8-.7-4-.6-1.2.1-2 .3-2.8 1-.7.8-1 1.1-1.2 1.5-.2.4.6 0 1.2 0zM70.4 68c1.3 0 2.3-1 2.3-2.3 0-1.3-1-2.3-2.3-2.3-1.3 0-2.3 1-2.3 2.3 0 1.3 1 2.3 2.3 2.3zm1.3-3.6c.3 0 .5.2.5.5s-.2.5-.5.5-.5-.2-.5-.5c0-.2.2-.5.5-.5z"/><circle class="st5" cx="71.7" cy="64.9" r=".5"/><path class="st1" d="M37.5 143.4c-.5-.4-7.6-5.1-8.1-5.4-.6-.3-1.1-.7 1.1-5.6.5-1 1-3.3 1.5-5.5s1-4.5 1.5-5.9c.5-1.4 1.1-2.8 1.5-3.8-.5.1-1.1.3-1.4.4-.5.3-3.7 1.6-8.8 3.7-4.3 1.8-9.1 3.8-10.9 4.6 5.7 8.4 12.9 15.6 21.3 21.3 1.1-.8 2.8-2 4.1-2.9-.7-.3-1.4-.6-1.8-.9z"/><path class="st1" d="M32.2 133.1c-.7 1.5-1.2 2.8-1.4 3.5 1.9 1.2 7.4 4.8 7.9 5.3.2.2 1.2.6 2.2.9.5-.7 1.5-1.8 3-2.8 2-1.4 4.6-4 5.9-5.9 1.3-2 5.2-6.6 5.4-6.8l1.2-1.4-.3-.6v-.1c-.1-.3-2.8-7.4-3.5-9.5-.7-2.1-1.1-4.7-1.5-6.9-.2-1.4 0-3.2.3-4.6-.2.2-.4.5-.6.7-1.3 1.6-2.8 3.5-3.9 4.3-.6.4-1.5 1.3-2.5 2.2-1.4 1.3-2.8 2.7-3.9 3.4-1.4.9-2.8 1.6-3.4 1.9-.3.8-1.1 2.8-1.9 5-.5 1.3-1 3.5-1.5 5.6-.4 2.4-.9 4.7-1.5 5.8z"/><path class="st3" d="M49.5 60.2c.2.1.3.2.5.4 0 .1.1.1.1.2l-.9-2.3s-.1-.2-.2-.5c-.2-.1-.4-.1-.7.1.3.5.7 1.1.9 1.6.1.1.2.3.3.5zM49.7 63.6c0 1.1-.1 2.2-.3 2.7-.2.8-.7 3.4-.8 4.1 0 .4-.1 1.5-.2 2.4 0 .4.1.8.1 1.1.1.5.1.9.2 1.1.2.6.7 2.8.6 4.2 0 .7.4 1.9.9 2.2.2.1.3.2.5.3.2-2.1.4-4.1.5-5.5 0-.2 0-.4.1-.6-.5-.2-1-.6-1.3-1.3-.6-1.2-.6-3.1-.4-4.3.2-1 1.2-2.1 1.7-2.6v-.1-.1l.1-.1c-.4-.7-1.2-2.2-1.5-2.8.1-.2 0-.5-.2-.7z"/><path class="st3" d="M51.2 70.3c-.2 1.1-.1 2.6.2 3.3 0 .1.1.1.1.1.1-1.4 0-2.9 0-4.1-.2.3-.3.5-.3.7zM47.8 60.3c0-.1-.1-.2-.1-.3-.1.4-.2.9-.3 1.2 0 .1-.1.3-.1.4-.3 1.1-.6 2-.4 3.1.1.5.4 1.1.6 1.8.1.1.1.3.2.5.1-.5.2-1 .3-1.3.1-.6.2-3 .3-4.5 0-.1-.1-.2 0-.3-.3-.2-.4-.4-.5-.6z"/><path d="M71.9 92.6c-.6-.2-1.6-.1-2.4-.1h-.2c-.5 0-.9.4-.9 1 0 .5.4 1 1 1h.3c.9-.1 1.5-.1 1.7 0 .1 0 .4.1.8.3 3.3 1.2 6.9 2.4 8.7 2.4h1.2c1.5.1 3 .1 4.1.1 1.1 0 2 0 2.6-.1 1.3-.3 2.1-.3 2.4-.3.4.1.9-.1 1.1-.5.2-.5.1-1-.4-1.3-.2-.1-.7-.3-3.5.2-1 .2-4.2.1-6.3 0h-1.2c-1.7 0-6.3-1.7-8.1-2.3-.4-.2-.7-.3-.9-.4zM82.5 99.6h-2.1c-.8 0-1.1-.3-1.2-.3-.4-.3-1-.3-1.3.1-.3.4-.3 1 .1 1.3.1.1.9.7 2.4.7h2.1c.5 0 1-.4 1-1s-.4-.8-1-.8z"/><path d="M13.9 125.9c1.8-.8 6.6-2.8 10.9-4.6 5.1-2.1 8.3-3.4 8.8-3.7.3-.2.8-.3 1.4-.4-.4 1-.9 2.4-1.5 3.8-.5 1.4-1 3.7-1.5 5.9s-1 4.5-1.5 5.5c-2.2 4.9-1.7 5.3-1.1 5.6.5.3 7.6 5 8.1 5.4.3.3 1 .6 1.7.9-1.3.9-2.9 2.1-4.1 2.9.6.4 1.1.8 1.7 1.1 2-1.4 4.8-3.4 4.9-3.5l.1-.1.1-.1s1-1.6 2.9-2.9c2.2-1.5 5-4.3 6.4-6.5 1.3-1.9 5.2-6.6 5.3-6.7l.6-.7c1.3 3 3.3 8 4.2 10.8.4 1.3.9 2.9 1.4 4.4 1.1 3.5 2.6 8 3.8 12.9.3 1.4.7 2.8 1.1 4.2l2.1.3c-.4-1.6-.9-3.2-1.3-4.9-1.2-5-2.7-9.5-3.8-13.1-.5-1.6-1-3.1-1.4-4.4-.7-2.5-2.3-6.5-3.7-9.7 3.5 2.8 9.8 8.1 13 11.1 1 .9 2.1 1.9 3.6 3.2.5.4 1.1.9 1.6 1.4l.7.6c3.3 2.8 7 5.9 10.2 9.4 1.1 1.2 2.4 2.6 3.6 4.1l1.5 1.8c.8-.1 1.6-.3 2.4-.4l-.2-1.5c.2-.2.3-.6.2-.8 0 0-.2-.7-.2-1.5v-1.3c0-1.8-.1-4.9 0-6.4.2-1.9.9-3.3 1.3-3.8.2-.2.3-.4.4-.7.4.4.7.8 1.1 1.2 1.1 1.2 2.1 2.3 2.5 2.7.7.7 1.6 1 2.2 1.2l.1 1.3c.2 2.5.4 5.2.6 7.5.6-.2 1.2-.4 1.9-.6-.2-2.2-.4-4.6-.6-7.1l-.2-2c-.2-2.8-.5-5.7-.5-6.9-.1-1.6-.6-4.3-1.1-7-.4-2.3-.9-4.7-.9-5.9-.1-1.5-.5-3-.9-4.5-.3-1.2-.7-2.3-.8-3.4-.1-.8-.2-1.7-.3-2.5.5.9 1 1.8 1.1 2 .1.1.1.3.2.4.2.5.4 1 1.1 1.4.2.1 1.1.5 3.9 1.7l1.6.7c.9.7 8.7 8.3 9.7 9.6.7.9 2.4 3.7 3.2 5.2l-2.7 4.6c-.2.4-.1 1 .3 1.3 1.7 1.2 3.5 2.5 5 3.7.6-.4 1.1-.7 1.7-1.1-1.3-.9-2.8-2.1-4.9-3.6l2.5-4.3c.2-.3.2-.7 0-.9-.1-.2-2.6-4.7-3.7-6-.5-.6-3.4-3.6-6-6.1 4.4 1.9 7 3.2 7.9 3.7 1 .6 3.3 1.7 5.9 3 3.3 1.6 7.1 3.6 9.6 4.9l1.4-1.4c-2.4-1.3-6.4-3.4-10.1-5.2-2.6-1.3-4.9-2.4-5.8-3-1.3-.7-5.6-2.6-13.1-5.9h-.1l-1.7-.7c-1.9-.8-3.5-1.5-3.7-1.6-.1 0-.1-.1-.2-.4l-.3-.6c-.3-.6-2.9-5-3-5.2-.1-.2-.3-.3-.5-.4l-.2-.3c.6-2 1.4-5.2 1.7-6.2 2.2-1.9 3.6-3.4 4.3-4.9.5-1.2 1-2 1.3-2.6.7-1.1 1.1-2 1.4-3.8.1-1 .3-1.6.4-2.2.1-.6.2-1.2.3-2.1.1 0 .2.1.3.1.2.1.3.1.5.1.9 0 1.7-.7 2.4-1.2.8-.7 1-2.1 1.2-3.3 0-.3.1-.6.1-.8.1-.4.2-.7.5-1.1.2-.3.4-.6.5-1 .2-.5.4-1.3.5-2.2.1-.8.3-1.6.5-2.1s.4-1 .6-1.7c.4-1 .8-2 1.1-2.9.2-.8.2-1.6.1-2.4 0-.4-.1-1 0-1.2.5-1 .7-2.7.7-3.5 0-.3.1-.6.1-.9 0-.2.1-.4.1-.7v-.2c0-.6-.4-1.1-.8-1.4.2-.6.3-1 .3-1.1.2-.6 1.9-6.7 1.7-9.8-.3-3.2-.8-7.7-1.2-9.7-.1-.4-.1-.8-.2-1.4-.6-3.8-1.3-7.6-2.8-9.4-1.6-1.9-5-5.3-5.9-6.1-.4-1.3-1.8-5.8-4.8-7.1-1-.4-2.4-1.2-3.8-2-2.8-1.6-6-3.4-8.2-3.8-.7-.1-1.6-.3-2.7-.5-4.2-.9-10.5-2.1-14.6-1.5-.6.1-1.2.2-1.7.3-4.8.7-9.8 1.4-12.4 3.6-2.9 2.4-8.2 10.4-9.9 13.1-1.5 2.4-1.9 6.8-2.2 9.3 0 .5-.1.9-.1 1.2-.1 1-.3 2.3-.6 3.8-.3 1.6-.5 3.2-.7 4.4-.2 1.6-.1 3.5-.1 5.1 0 .7.1 1.4.1 2 0 .5 0 .9.1 1.4-.5 0-1 .2-1.5.6-.3.2-.5.5-.7.9-.2.5-.4 1.2-.5 1.9-.1.5-.2 1-.3 1.3 0 .1-.1.3-.1.4-.4 1.2-.8 2.5-.4 4.1.2.6.4 1.3.7 2.1.4 1.1.9 2.4.9 3-.1 1-.1 2.5.1 3.7.1.5.2 1 .3 1.4.4 1.4.6 2.8.5 3.6-.1 1.3.6 3.2 1.8 3.9.5.3 1 .6 1.3.8-.4 6.4-.2 7.6-.1 8 .4 1.8 2 4.7 3.5 7l-.3.4s0 .1-.1.1l-.6 1.2c-.5.3-1.5.8-2.2 1.5-.3.3-.8.9-1.4 1.7-1.1 1.3-2.7 3.3-3.5 4-.7.5-1.6 1.4-2.7 2.4-1.3 1.2-2.7 2.6-3.7 3.2-1.4.9-2.9 1.6-3.3 1.8-.6.1-2.5.3-3.6.9-.4.2-4.8 2-8.6 3.6-4.7 2-9.6 4-11.3 4.7 1.1 0 1.5.5 1.8 1.1zm82.2 17c-.8.8-1.6 2.6-1.9 5-.1 1.6-.1 4.7 0 6.6v1.3c0 .4 0 .8.1 1.1-.2 0-.5-.1-.7-.1-1.2-1.4-2.4-2.8-3.5-3.9-3.3-3.6-7.1-6.7-10.4-9.6l-.3-.2-.2-1.8c1.7-1.4 2.9-2.5 3.5-2.8 1-.7 2.2-2.1 2.7-2.6.3-.1.8-.1 1.2-.2.4 0 .7 0 1.4.4s6 4 7.2 4.8c.1.1.4.3 1 .9 0 .4 0 1-.1 1.1zM113.5 83c-.1.3-.3.5-.4.8-.3.4-.6.9-.7 1.7-.1.3-.1.6-.1.9-.1.6-.2 1.9-.5 2.1-.3.3-1 .8-1.2.8-.2 0-.4-.2-.6-.4.2-1 .4-2.3.8-3.7.1.1.3.2.5.2s.4-.1.6-.3c0 0 .3-.4.7-1 .2-.2.3-.5.4-.7.2-.3.3-.6.5-.9 0-.1.2-.3.4-.7-.2.6-.3 1-.4 1.2zm.1-6.7v.2c0 .3-.2 1.3-.4 1.9-.1.5-.3 1.1-.3 1.4-.1.5-.6 1.4-.9 1.9-.3.4-.5.7-.6 1.1-.1.2-.2.4-.3.5l.3-1.2c.5-1.8.9-3.4 1-4.3.3-1.5.7-2.9.9-3.6 0-.1.1-.2.1-.3v-.1c0 .8.1 1.7.2 2.5zm2.5-2c-.2.8-.6 1.8-1 2.7 0 .1-.1.1-.1.2.1-.3.1-.6.1-.8v-.3c-.1-.6-.2-1.9 0-2.5.3-.8.5-1.2.7-1.5.1-.2.3-.3.4-.4v.9c0 .6.1 1.2-.1 1.7zm.5-4.4h-.2c-.1 0-.7.1-1.3.6l.6-1.2c0-.1.1-.1.1-.2.3-.2.7-.5 1-.8.1.5 0 1.2-.2 1.6zM50.3 48.7c0-.3 0-.6.1-.9.1-1.2.4-2.7.7-4.3 0-.1 0-.3.1-.4-.2-.2 0-.5.1-.7 0-.3.1-.5.1-.7 0-.2 0-.3.1-.5.1-.6.2-1.1.2-1.5v-.1c-.2-.5 0-.8.1-1v-.2c0-.3.1-.6.1-1-.1 0-.1-.1-.1-.2 0-.2.1-.3.1-.4.1-.6.1-1.2.2-1.8-.1.1-.2.1-.2.1 0-.1.1-.2.2-.4 0-.2.1-.4.1-.6-.1 0-.2 0-.1-.1s.1-.2.2-.4c0-.2.1-.5.1-.7-.1 0-.2 0-.1-.1s.2-.3.3-.4c.2-.8.5-1.6.8-2.2l-.1-.1.3-.4c.2-.3.4-.7.7-1.1l-.3.1s.5-.6.8-.8c.2-.3.3-.5.5-.8v-.2l.2-.1c.1-.2.2-.3.4-.5h-.1c0-.1.1-.4.5-.6.1-.2.2-.3.4-.5v-.1l.2-.1c0-.1.1-.1.1-.2s0-.3.1-.5c0 0 .2-.1.3-.2.1-.2.3-.4.4-.6-.2.1-.3.1-.1 0 .1-.1.2-.1.2-.2.4-.5.7-1 1.1-1.5-.1 0-.2 0-.1-.1.1-.2.3-.5.6-.6.1-.1.2-.2.3-.4v-.1c0-.1.1-.1.2-.2s.2-.2.2-.3h-.1c0-.1.1-.2.2-.2.2-.2.3-.4.4-.6 0-.1.1-.2.1-.2h.1c.8-.9 1.5-1.6 2-2.1 2.3-1.9 7.2-2.6 11.5-3.2l1.8-.3c3.7-.6 9.9.7 13.9 1.5 1.1.2 2.1.4 2.8.5 1.9.3 5.1 2.1 7.6 3.5.4.2.8.4 1.1.6.4 0-.3-.3-.9-.9-.5-.6.3-.1.7 0s1 .3 1.4.9c.4.5.5.5.6.6.3.2.3.4.7.8.1 0 .1.1.2.1 2 .9 3.4 4.7 3.8 6.1 0 .2.1.3.3.4 0 0 2.8 2.7 4.8 4.9l.2.2c.2.2.3.4.5.5h.1v.1l.2.2c.1 0 .3 0 .3.3v.2c.6.8 1.1 2.3 1.5 3.9.2.3.3.6.2.7h-.1c.1.5.2.9.3 1.4.1.2.2.3.2.5 0 .4.1.4.1.4l-.1-.1c.1.5.2 1.1.2 1.5.1.6.2 1.1.2 1.5.4 2 .9 6.5 1.1 9.6.2 2.8-1.6 9.1-1.6 9.2v.1s-.1.7-.5 1.6c-.2.6-.5 1.1-.8 1.5-.3.4-.8 1.2-1.4 2.4-.4.7-.7 1.4-1.1 2.1v-2.1c.1-1.2.3-2.9.6-4.4.2-1.1-.4-2.4-1-3.7-.3-.7-.6-1.3-.7-1.8-.4-1.6-.6-4.6-.4-5.4.3-.9.4-3 .6-5.5 0-.4 0-.7.1-1 .1-1.9-2.1-7-2.3-7.5-.1-.1-.1-.2-.3-.3-.2-.1-1.1-.7-1.9-.6-.2 0-1.1-.2-2.1-.5l-.9-.3h-.2c-.4 0-2.2-.3-3.1.1-.3.1-1.3-.1-1.9-.2-.9-.1-1.7-.3-2.3-.1-.2 0-.3.1-.5.1-.7.2-1.7.4-2.2.4-.3 0-1.3-.7-2.2-1.5-.2-.2-.5-.2-.8-.1-.8.3-1.8.7-2.2 1.1-.2.1-.8.2-3.1.5-.2-.1-.7-.6-.9-1.1-.1-.1-.1-.2-.2-.2-2.1-1.3-2.3-1.3-2.4-1.4-.4-.1-.8.1-2 .6-.3.1-.6.3-.8.4-.2 0-.7-.2-1.1-.3-1.1-.3-2-.5-2.6-.4-.4.1-1.8-.6-2.9-1.5-1.1-.8-4.5-.8-5.4-.7-.7.1-2.2-.4-2.9-.7-.4-.1-.8 0-.9.4 0 0-.8 1.6-1.3 2.4-.4.8-1.9 3.6-2 3.8-.1.2-.1.4 0 .6.3.7.6 1.6.6 1.8 0 .1-.1.6-.2 1s-.2.8-.2 1.2c-.1.6-.1 1.6 0 2.6v1.8c0 .6-.8 2.2-1.4 3.2-.4.3-1.2.8-1.7.9-1.3.2-1.6 2-1.9 3.6 0 .2-.1.4-.1.6-.2 1.2-1.1 3.7-1.6 4.6-.3.5-.7 1.6-1 2.6v-.5l-2-5.1s-.1-.2-.2-.5c-.1-.5-.4-1.4-.4-2.5v-1.4l-.1-.1.1-.1v-.4c0-.7-.1-1.5-.1-2.2v-.3-.4c-.1-.3-.2-.6 0-1.1zM48 65.9c-.1.3-.2.7-.3 1.3-.1-.2-.1-.3-.2-.5-.3-.7-.5-1.3-.6-1.8-.3-1.1 0-2 .4-3.1 0-.1.1-.3.1-.4l.3-1.2c0 .1.1.2.1.3.1.2.2.4.4.7v.3c.1 1.4 0 3.8-.2 4.4zm1-7.9c.1.3.2.5.2.5l.9 2.3c0-.1-.1-.1-.1-.2-.1-.2-.3-.3-.5-.4-.1-.2-.2-.4-.3-.5-.2-.5-.6-1.2-.9-1.6.3-.2.6-.2.7-.1zm2.5 15.8l-.1-.1c-.4-.7-.5-2.2-.2-3.3 0-.2.2-.4.3-.7v4.1zm0-6.6v.2c-.6.6-1.5 1.6-1.7 2.6-.3 1.3-.2 3.1.4 4.3.3.7.8 1.1 1.3 1.3 0 .2 0 .4-.1.6-.1 1.4-.3 3.4-.5 5.5-.2-.1-.3-.2-.5-.3-.5-.3-.9-1.4-.9-2.2.1-1.4-.4-3.6-.6-4.2-.1-.3-.1-.7-.2-1.1 0-.4-.1-.7-.1-1.1.1-1 .1-2.1.2-2.4.1-.7.5-3.2.8-4.1.1-.5.2-1.6.3-2.7.2.2.3.5.3.6.3.7 1.1 2.1 1.5 2.8l-.2.2zm.9 24.2c-.1-.5-.2-2.3.2-8 .2-2.7.4-5.3.6-7 0-.5.1-1 .1-1.3.2-2.4.1-6.1 0-7.4l.1-.4.6-1.3c.1-.2.1-.4 0-.6.4-1 1.2-3.2 1.6-4 .5-1 1.4-3.7 1.7-5 0-.2.1-.4.1-.6.1-.6.4-2.1.7-2.4 1.1-.2 2.3-1.2 2.5-1.3l.2-.2c.3-.5 1.5-2.8 1.6-4v-2c0-.9-.1-1.9 0-2.4 0-.4.1-.7.2-1.1.1-.6.2-1.1.2-1.5-.1-.4-.4-1.3-.6-1.8.4-.8 1.4-2.8 1.8-3.4.3-.5.7-1.3 1-1.8.8.3 2.1.6 3 .5 1.2-.1 3.9.1 4.4.4.6.5 2.8 2 4.1 1.8.3-.1 1.3.2 2 .4 1 .3 1.5.4 1.9.3.2-.1.6-.2 1.1-.5.3-.1.8-.4 1-.5.3.2 1.1.6 1.8 1 .5.7 1.3 1.8 2.2 1.7h.1c3.2-.3 3.7-.6 4-.8.1-.1.7-.4 1.4-.6.7.6 1.9 1.5 2.7 1.5.8.1 1.8-.2 2.7-.4.2 0 .3-.1.5-.1.2-.1 1.1.1 1.7.2 1.3.2 2.2.3 2.7.1.3-.1 1.4-.1 2.3 0 1.3.5 3 1 3.6.9.1 0 .4.1.7.3.9 2.1 2.2 5.5 2.1 6.6 0 .3 0 .7-.1 1-.1 1.6-.3 4.4-.5 5.1-.4 1.3 0 4.8.4 6.2.2.6.5 1.3.8 2.1.4 1 1 2.2.9 2.8-.3 1.5-.5 3.3-.6 4.6-.1 1.2.1 3.9.1 5.1 0 .1-.1.2-.1.3-.2.7-.6 2.2-.9 3.8-.1.8-.6 2.5-1 4.2-.7 2.7-1.4 5.7-1.7 7.5-.2 1.8-.4 2.6-.5 3.6-.1.6-.2 1.3-.4 2.3-.2 1.4-.5 2-1.2 3.1-.4.7-.8 1.5-1.4 2.7-.6 1.3-1.9 2.7-4 4.5-1.1.9-2.3 1.8-3.4 2.6-.8.6-1.6 1.2-2.3 1.7-2.3 1.8-4.5 2.5-6.3 3.1-.8.3-1.5.5-2.1.8-.8.4-1.3.4-2.5.2-.8-.1-1.8-.2-3.4-.3-3.7-.1-8.4-1.2-10.3-2.1-1.7-.8-10.1-8.6-12.2-10.8-.4-.4-.8-.9-1.2-1.4-.2-.3-.4-.6-.7-.9-2.2-2.8-3.7-5.7-4-7.1zm47 17.2c-.4 1.4-.8 3-1.1 4.1 0 .1-.1.2-.1.3-.1.4-.2.8-.3 1.3-.5 1.9-1.1 4-1.6 4.8-.3.6-.9 1.3-1.4 2-.5.6-1 1.2-1.3 1.8l-.6.9c-.7 1.1-1.6 2.4-1.9 3.3-.1.2-.1.3-.2.5-.4.9-.9 2.3-1.6 2.8-.8.5-1.8.8-2.2.8-.8-.5-5-3.1-6.2-4.2-1.4-1.3-4.4-3.6-6-4.5-1.4-.8-4.5-3-7.6-5.4-2.7-2.1-5.5-5-7-7.3s-2.6-5.2-2.8-6.2c0-.2-.1-.4-.1-.7 2.8 2.8 10 9.6 12 10.5 2.1 1 7 2.1 11 2.3 1.4 0 2.4.2 3.2.3.6.1 1.1.1 1.5.1.7 0 1.3-.1 2.1-.5.5-.2 1.1-.5 1.9-.7 1.8-.6 4.4-1.5 6.9-3.4.7-.5 1.5-1.1 2.3-1.7.3-.6.7-.9 1.1-1.2zm-45.7-5c.2-.3.6-1.1.9-1.8.2-.3.3-.6.5-.9.1.9.3 2.3.4 3 .2 1 1.3 4.1 3.1 6.8 1.6 2.5 4.6 5.6 7.5 7.8 2.7 2.1 6.1 4.6 7.8 5.6 1.5.9 4.4 3.1 5.7 4.3 1.4 1.3 6.3 4.4 6.8 4.6.2.1.4.1.6.1 1 0 2.5-.7 3.3-1.1 1.2-.8 1.9-2.5 2.4-3.7.1-.2.1-.4.2-.5.3-.7 1.1-2 1.8-3 .2-.3.4-.7.6-.9.3-.5.7-1 1.2-1.6.6-.7 1.2-1.5 1.6-2.2.4-.7.7-1.7 1.1-2.9.1 1.1.2 2.2.3 3.2.2 1.3.5 2.5.9 3.7.4 1.4.8 2.8.9 4.1.1 1.3.5 3.7 1 6.2.5 2.6 1 5.3 1.1 6.7 0 1 .2 3.3.4 5.6-.3-.1-.5-.3-.8-.5-.4-.4-1.4-1.5-2.4-2.6-.9-1-1.8-2-2.6-2.9-.7-.7-1.2-1.2-1.5-1.4-1.2-.8-6.5-4.4-7.3-4.8-.9-.6-1.7-.8-2.6-.7-.7.1-1.7.3-1.7.3-.2 0-.4.2-.5.3-.4.5-1.7 1.9-2.6 2.6-.8.6-3.1 2.5-4 3.3-.3.3-.6.5-.8.6-1.2-1-2.1-1.8-2.9-2.6-4.4-4.2-14.8-12.6-15.4-13.1l-.1-.1-.1.2c-.2-.3-.3-.6-.3-.6-.2-.5-2.8-7.4-3.5-9.4-.7-2-1.1-4.4-1.4-6.6-.5-1.8.2-4.6.4-5.1zm-16.4 13.1c.6-.3 2-1 3.4-1.9 1.1-.7 2.5-2.1 3.9-3.4 1-.9 1.9-1.8 2.5-2.2 1.1-.8 2.6-2.7 3.9-4.3.2-.2.4-.5.6-.7-.3 1.3-.6 3.2-.3 4.6.3 2.2.8 4.8 1.5 6.9.7 2.1 3.4 9.2 3.5 9.5v.1l.3.6-1.2 1.4c-.2.2-4 4.8-5.4 6.8-1.3 1.9-4 4.6-5.9 5.9-1.5 1-2.4 2.1-3 2.8-1-.3-1.9-.8-2.2-.9-.5-.4-6-4.1-7.9-5.3.2-.7.7-2 1.4-3.5.5-1.2 1-3.4 1.6-5.9.5-2.1 1-4.4 1.5-5.6.6-2.1 1.4-4.1 1.8-4.9z"/><path class="st7" d="M52.9 42.1c.7-.4.7-.7.5-1-.2-.3.3-.7 1.6-1.8.4-.3.6-.5.7-1.2s0-.4.6-.4-.6-1-.6-1c.2-.3 0-.7 0-.7s.5-1.2.9-1.7.5-1.4.5-1.4-1.5-.1-1.3-.4 1.4-.6 1.4-1.1-1.4 0-1.4 0 .4-.4 1.2-.9-.2-.9.1-1.9-1.3 0-1.3 0 .6-.4 1.1-.6 1.3-1 1.3-1l-.5-1.2s1.5-.2 1.4-.7-.5-.5 0-.5 2.9.5 2.9.5-1-.6-1.5-1.4h1.2s.8-1 .9-1.6-.9-1-.9-1h1.6c.4 0-.5-.8-.8-1h-.8l-.2-.1s.5-.1.7-.4c.2-.3-.4 0-.6 0l.6-.3c.2-.1-.7 0-.7 0l-.4.2H61c-.1 0-.1.1-.1.2v.5h-.4c-.1 0-.2.1-.2.2h.1c.2.1.9.3.5.2-.1 0-.5 0-.7.1-.1 0-.2.1-.2.2v.1c0 .2 0 .3-.3.4-.3.1-.5.4-.6.6 0 .1 0 .1.1.1.2 0 .4-.1.6-.1.3 0 .6.2.3.3s-.4.3-.8.6c-.4.1-.9.1-.9.1s-.2.3-.5.5l-.2.2c-.2.2-.1.1.1 0s.3-.2.3-.2.5-.3.7-.1-.3.3-.5.5c-.1.1-.6.3-.9.5-.1.1-.3.1-.3.2-.1.1-.1.3-.1.5v.1h-.1l-.2.1v.1c0 .2 0 .4-.3.5h-.1c-.4.2-.5.5-.5.6h.1c.3 0 .9-.2.9-.2l-.4.3-.8.4-.2.1v.5s-.2.3-.4.4l-.1.1c-.3.2-.8.8-.8.8l.3-.1.4-.1-.6.7-.5.5-.3.4.1.1.2.1.9-.7-.3.6-.5.4-.4.5.3.4-.9.6s0 .1-.1.3c-.1.1-.2.3-.3.4-.1.1 0 .1.1.1.2 0 .6-.1.6-.1l-.4.4c-.1.1-.2.2-.3.4-.1.1-.1.3-.2.4-.1.1 0 .1.1.1s.2 0 .2.1-.2.3-.3.4c-.1.1-.2.2-.2.3 0 0 .1 0 .2-.1.2-.1.5-.3.8-.5.4-.4 0 1.2-.2 1.5-.2.2-.6.4-.8.8-.1.1-.1.3-.1.4 0 .2 0 .2.1.2.2 0 .6-.4.8-.6.3-.3.4.4.2.7-.2.3-1.1 1-1.1 1l-.1.1c-.1.2-.3.5-.1 1 .1.2.2.3.3.5l-.5 1c-.1.1-.1.3-.1.5 0 .3.1.5.1.5l-.2.2c-.2.2-.3.5-.1.7 0 0 .1 0 .1.1.5.4.6-.4 1.6-1zM112.9 32.7c-.4-.8-.7-.5-.7 0s.5 1.3-.3.8-.8-.4-.3.2-.5.5-.5.5l.6.8 1.2 1.3s.7.5-.8-.3c0 0 .1 1 .4 2 .3 1-1.2-.1-1.2-.1h-.6s0 .4 1.5 1.3-.2.4-1.5-.2 0 .7 1.1 1.5c1.1.9-.9.3-.9.3l.2.3-.2.2s.6.8 2 1.7c1.4.9 0 .2 0 .2s.7.6.5.8c-.2.2-.6-.3-1.2-.4-.6 0 .2.8.2.8l.3.5.6.9c.6.9-.7-.5-.7 0-.1.4.5.9.1.9-.4.1-.4.6.7 1.9 1.1 1.3-.8-.2-.3.2s.3.5.8 1.3-1.4-.3-1.3.3c.1.5 1.9 1.6 1.9 1.6l-.9.9s.9 1.4.3 1-1.4-.8-.3.6c1.2 1.3-.2.3-1-.4s-.1.3.4 1.3.5 1-.1.5c-.6-.4-1-1.1-1-1.1-.1-.1 1 1.9 1 1.9l-.4.5-.6-.1.3.9 1 1.1.5 1.7.8-1.2.8.1.1-2.2.2 1h.6v-.9s.3.3.3-.3-.2-1 .4-.2c.6.8-.2-1.6-.2-1.6l1.1-.3s-.9-.9-.6-.8c.3.1-.4-1.1-.4-1.1l.4-.4s-.1-.4-.4-.9c-.3-.5-.4-1.2-.4-1.2s.4-.3.3-.6-.4-1.4-.4-1.4.3-.4.6 0c.3.3-.3-1.2-.5-1.5s-.3-.7-.6-1.2.5 0 .5 0h.8s.2-.1-.2-.5-1-1.5-1-1.5-.1-.1-.6-.9-.3-.7.2-.7c.4 0 .9 1.1 1.2 1.6.3.5.4.2.3-.2s-1.1-1.6-1.1-1.6-.5-1.3-.6-1.6.5.2.6.3c.1.1.7.5 1 .7.1 0 .1.1.1.1l-.1-.4c0-.1-.1-.3-.2-.5-.2-.3-.4-.5-.5-.7-.3-.3-.7-1-.7-1s.3 0 .7.1c.3.1.3.2.3.2h.1c.1-.1-.1-.4-.2-.7-.1-.2-.2-.3-.2-.3s-.5-.5-.7-.5c-.2 0 .4-.7.4-.7l-.5-.8s-.7-.3-.7-.4c0-.1.2-.4 0-.8-.2-.3.2-.2.2-.5v-.2c-.1-.2-.2-.3-.3-.3-.1 0-.2 0-.2-.2V34h-.1c-.2.1-.7.2-.5-.5l-.2-.2c-.1-.3-.3.1-.7-.6zM101.9 20.6c-.4.2-.2.4.1 1.1s.7 1.2.7 1.2l.5 1.4c-.3.1-.5 0-.5-.1 0 0 .1.1.2.3 0 0-.3-.7.3.5l.6 1.2c-.6 1.1.1 1-.4 1.3-.5.3-.2-.2-.2-.2l-.8-.1-.4-.2-.2 1.9-.2 1.6v1.6c0 .4-.1.6-.3 0-.5-1.5-.4-3.6-.4-3.6s.3-.6 0-1.8c-.2-.6-.3-.9-.3-1.1.1.3.3 1.2 0 1-.4-.2-.4-1-.4-1h-.2s.7 4.4 0 2.5c-.7-1.9-.7-2.3-.9-3s-.5-2-.5-2-1-1.7-.7-.9.6 4.3.4 4.1c-.3 0-.5-1.3-.5-1.3s-.1-1.2-.6-2c-.4-.7-.6.5-.6.5l-.7-.1v1.4l-.3 2c-.6-1-.8-1.1-.9-1.2 0 .5-.1.9-.5.6-.8-.6-.6-2.5-.9-1.8-.2.7.1 2.4-.2 1.5-.3-.9-.1-1.1-.6-1.6-.4-.5 0-1-.3-1.5s-.6-1.2-.6-1.2l.2 2.1s-1.1-1.4-.7-.1c.4 1.3.9 1.3.4 1.3-.4 0-.5.2-.5.2s.1-2.2-.4-1.9 0 .8 0 .8c-.8.8-1.1-.2-1.1-.2s.7 2.9.2 2.1c-.4-.7-.7.5-.7.5l-.4 2.1L88 30c-.1-1.1.2-1.7.3-3.6.1-1.9.5-3.6.1-3-.1.2-.2.3-.3.4 0-.4 0-.5-.2-.2-.7 1-.5 1.1-.8.6s-.1 1.5-.1 1.5l-.4.5v2.6l-.3 2s-.2 1.1-.6 1.8c-.4.8-.7 2.2-.7 2.2s1.2-1.6 1.2-2.6.4-1.9.4 0 .3 0 .6-.2.4.6.4.6-.5 2.5-.5 2.6c0 .1.6-2.3.6-2.3s.5-1.2.8-2.2c.2-1 1-2.9.7-1.1s-.4 2.6-.4 2.6-1.1 2.9-.8 3c.3.1 1-1.7 1-1.7s0-.2.6-1.6l.6-1.4v2.3l.6.5s.5-2.6.5-1.7c0 .9.2.2.3 1.1 0 .9.4.9.7 0 .2-.9.4-1.5.5-.3.1 1.2.1 2.2.1 2.2s-.1 1 .6-.7c.8-1.8 1-1.6 1.2-2.2s.9-2.8.4-.7.1 2.2-.4 3.2-.6 1.8-.6 1.8h.3s1.1-2 1-1 .6.4.6.4.2-3.4.2-2 .2 3 .4 2.2c.2-.8.4-2.4.3-1.3 0 1.1.5 1.7.5 1.7v-2.1s.6-.2.6.6 0 2.3.4 1.2c.4-1.1.9-1.9.9-1.9l.1 2 .1.8s.5-1 .7-1.8 0-2.2.3-1.8c.3.4.9-1 .6.2S101 36 101 36c.1.2.1-1.1.3-1.6l.2-.4s.6-1.1.6-.7c0 .1 0 .1 0 0 0 .6 0 1.2.1.8.2-.7.2-1.9.2-2.2s-.1-1.8.1-1.7.2.1.3 1.6c.1 1.5 0 3 0 3l.2 1.7.4-2.5.3.1s.1 2 .3 1.2c.2-.9.5.3.5.3s.5-.6.4-.8c.1.1.6 1.1.6 1.1l.5.2s.1-.9-.4-1.7c-.5-.8-1-1.4-.9-1.9.2-.5.2-1.1.8 0 .6 1.1 1.2 2.1 1.5 2.2.2.1 1 .8.5-.3-.6-1.1-.9-1.4-1.2-2.1-.3-.7-1.2-2.1-.8-1.4.4.7 1.4 1.3 1.7 1.9s1.5 1.6 1 .9c-.4-.5-.9-1.6-1.2-2.1-.1-.2-.1-.3-.1-.3-.8-.7-1.4-1.5-.9-1.4s1.6 1.6 1.4 1c-.2-.5 1.1 1 .6 0-.5-1-.8-1.1-1-1.5-.2-.4-.8-.6-.9-1.1s-.6-1.1-.1-.8c.5.3 1.3.8 1.7 1.3.3.4 1 .4-.3-.4s-1-.9-1.5-1.6-.9-.9-.7-1.3c.1-.4.3-.5.9-.4.5.1 1.7.5 1 0s-1.3-.8-2-1.2-1.2-.3-1.5-.9.5-.7.3-.7c-.1 0-1-.3-1-.9s.7.3 1 .4c.4.1.5-.2.2-.5-.4-.4-.5-.6-.7-.8-.1-.1-.3 0-.6-.6-.4-.5-1-.8-1.4-.9s-1.2-.6-.7 0 1.2 1 .9.9c0 .1.7.4.3.7zm-13.7 5.2c.1 1 .2 1.7 0 1.6-.2-.1-.1-.8 0-1.6z"/><path class="st7" d="M94.6 25.1c0 .4 0 .4.1.5 0-.5-.1-.9-.1-.5zM100.5 25.7v-.1.1z"/><path class="st8" d="M100.5 25.6"/><path class="st7" d="M82.3 26v1.4s0 1.6.2 2c.1.2.3-.4.4-1l-.1 1s0 1.1-.2 1.6.3.7.7-.2c.4-1-.3 2.1-.3 2.1s.5-.8.6-1.2c.2-.4.7-1.1 1.4-2.4.7-1.3.1-.7.3-1.4.2-.8.2-1.7 0-1.7s-.8 2.4-.8 2.4-.2.2-.6.8c-.3.6 0-1.1.3-2.3s.7-2.9.7-2.9V22l-.4 1.9s-.2 1.2-.3.9-.4.2-.7 1.8c-.3 1.6-.1-1.5 0-2.9s-.5 1-.6 1.3-.7-1.9-.7-1.9-.5 1.5-.4 2.1.5.8.5.8zM78.4 29.9s.2-.7.6-1c.4-.2-.1 1.3 0 2.2s.3-.7.5.4.4-.4.5-1.2c0 0 .3.7.8-.5.4-1.2-.1.8.2 1.6.3.8.1-1.8 0-2.8-.1-1 0-2.7-.2-3.6-.2-.9-.2-1.1-.3-1.8-.1-.8.2-1.6.2-1.6s-.4 0-.5.6c0 .7-.2 1.7-.2 2.1 0 .4.1 1.1.1 1.1s-.2 1.7-.4.6-.2.4-.2 1.2c0 .8-.5 1.1-.6.3-.1-.8.2-1.1 0-3.9s-.3 1.5-.3 1.5l-.3 3.1s0 2.4.2 2.6c.2.5-.1-.9-.1-.9z"/><path class="st8" d="M60.7 40.4c.1-.1.1-.1 0 0"/><path class="st7" d="M50.4 49.9s-.1 0-.1.2v.3c0 .1.1.3.2.5.4.8.8 1.8.5 1.7-.2 0-.5.3-.6.4l-.1.1.1.1.4.5-.1 1.1s-.1-.1.1.7c.2.8 0 1.4 0 1.4l.9-1.6s.5-1 .5-1.6c0-.6 1.7-1.8 1-.3l-.8 1.6 2.2-3.4s.2-.6.4-.6-2.1 4.4-2.1 4.4l-.8 2 1.9-3.3s1.6-2.5 2.2-3.2c.6-.7-.4-.1.9-.9s.5-.7 1.3-.8c.9-.1-.1.9.9-.1s.6-.8.6-.8H58.1c2.4-1.7 1.4-.4 2.2-1.6s0-1 0-1l-1 .5-.5.2s.2-.6 1.1-1.4c.9-.8.9-1.3-.3-.6-1.2.8-.3-.1-.3-.1l1.5-1.5s-3.1 1.4-1.4.3c1.1-.8 1.7-1.4 1.7-1.4l-.6.1s0-1.2.2-1.5c-.2.3-1.4 1.5-1.4 1.5l.7-1.5h-.6l-2.7 2.3s-.1 1-1 1.5c-.7.6-1.7 1-1.7 1s1.3-1.6.4-1.4c-1 .2-.7 0-.7 0l3.1-1.6c1.3-1.4 1-1.1 1.4-1.7.4-.5 1.1-.6 1.3-1 .2-.3-.1-.4-.1-.4l-2.1 1.2-2.1 1.4s-.8.3-1.2.6c-.4.2-2.3 1-2.3 1s.2.3.1.8c-.2.5-.4-.6-.6.5s.7.7.6 1c-.2.3-1.1 0-.8.8.3.7.3 1.4-.1 1.6-.4.1 0-.3-.4.6v.1c-.2.5-.1.8 0 1-.2.3-.1.3-.1.3zM72.5 23.2c.6.6 1.9 4.2 1.9 4.2l1 4-2.4-3 1.3 3.8.4 1.3-.3-2 1.8 1.5s-1.1-4.4-.8-3.6 1.3 1.4 1.3 1.4-1.3-6.2-2-6.9c-.8-.6-2-2.1-2-2.1l2 3.8s-2.4-3.1-3-3.8c-.6-.7-2.6-1.6-2.6-1.6s2.8 2.4 3.4 3z"/></svg>