<?xml version="1.0" encoding="utf-8"?>
<!-- Generator: Adobe Illustrator 19.0.1, SVG Export Plug-In . SVG Version: 6.00 Build 0)  -->
<svg version="1.1" id="Capa_1" xmlns="http://www.w3.org/2000/svg" xmlns:xlink="http://www.w3.org/1999/xlink" x="0px" y="0px"
	 viewBox="0 0 161.2 161.2" style="enable-background:new 0 0 161.2 161.2;" xml:space="preserve">
<style type="text/css">
	.st0{fill:none;}
	.st1{fill:#282929;}
	.st2{fill:#232321;}
	.st3{fill:#EBC4A8;}
	.st4{fill:#E42020;}
	.st5{fill:#FFFFFF;}
	.st6{fill:#BFBAB6;}
	.st7{fill:#B3B3B3;}
	.st8{fill:none;stroke:#B3B3B3;stroke-width:0;stroke-linecap:round;stroke-linejoin:round;}
</style>
<g>
	<polygon class="st0" points="107.7,38 107.7,38 107.7,38 	"/>
	<path class="st1" d="M122,129.8c-0.9-0.5-3.6-1.7-7.9-3.7c2.6,2.6,5.5,5.5,6,6.1c1.1,1.3,3.6,5.8,3.7,6c0.2,0.3,0.2,0.7,0,0.9
		l-2.5,4.3c2.1,1.5,3.7,2.7,4.9,3.6c4-2.8,7.8-5.9,11.3-9.4c-2.4-1.3-6.3-3.3-9.6-4.9C125.3,131.5,123,130.3,122,129.8z"/>
	<path class="st1" d="M119.2,143.2l2.7-4.6c-0.9-1.5-2.5-4.3-3.2-5.2c-1-1.2-8.8-8.9-9.7-9.6l-1.6-0.7c-2.8-1.2-3.7-1.6-3.9-1.7
		c-0.7-0.4-0.9-0.9-1.1-1.4c-0.1-0.2-0.1-0.3-0.2-0.4c-0.1-0.2-0.6-1.1-1.1-2c0.1,0.8,0.2,1.7,0.3,2.5c0.1,1.1,0.5,2.2,0.8,3.4
		c0.4,1.5,0.8,3,0.9,4.5c0.1,1.2,0.5,3.6,0.9,5.9c0.5,2.7,1,5.4,1.1,7c0.1,1.2,0.3,4.2,0.5,6.9l0.2,2c0.2,2.4,0.4,4.9,0.6,7.1
		c6.5-2.2,12.6-5.1,18.2-8.8c-1.6-1.2-3.3-2.5-5-3.7C119,144.2,118.9,143.6,119.2,143.2z"/>
	<path class="st2" d="M51.4,42.2c0,0-0.1-0.3-0.1-0.5c0,0.2-0.1,0.5-0.1,0.7C51.3,42.3,51.4,42.2,51.4,42.2z"/>
	<path class="st2" d="M55.4,27.5l0-0.3c-0.2,0.3-0.4,0.5-0.5,0.8c0,0,0,0,0.1-0.1C55.2,27.8,55.4,27.5,55.4,27.5z"/>
	<path class="st2" d="M60.8,20.6c0.4,0-0.3-0.2-0.5-0.2c-0.1,0.1-0.2,0.2-0.2,0.3C60.3,20.6,60.7,20.6,60.8,20.6z"/>
	<path class="st2" d="M58.4,23c0,0,0.5,0,0.8-0.2c0.4-0.2,0.5-0.4,0.8-0.6s0-0.4-0.3-0.3c-0.2,0-0.4,0.1-0.6,0.1
		c-0.4,0.5-0.7,1-1.1,1.5C58.2,23.3,58.4,23,58.4,23z"/>
	<path class="st2" d="M59.8,21c-0.1,0.1-0.2,0.2-0.3,0.4C59.8,21.2,59.8,21.2,59.8,21z"/>
	<path class="st2" d="M56.9,25c0,0.1-0.1,0.1-0.1,0.2l0.1,0C56.9,25.1,56.9,25.1,56.9,25z"/>
	<path class="st2" d="M58.8,23.4c-0.2-0.1-0.7,0.1-0.7,0.1s-0.2,0.1-0.3,0.2c-0.1,0.2-0.3,0.4-0.4,0.6c0.3-0.2,0.8-0.4,0.9-0.5
		C58.5,23.8,59,23.6,58.8,23.4z"/>
	<path class="st2" d="M56.8,26.2c0,0-0.7,0.2-0.9,0.2c-0.1,0.2-0.2,0.4-0.4,0.5l0.9-0.4L56.8,26.2z"/>
	<path class="st2" d="M50.8,47.9c0.4-0.1,0.4-0.9,0.1-1.6c-0.3-0.7,0.6-0.4,0.8-0.8c0.2-0.3-0.8,0-0.6-1s0.4,0,0.6-0.5
		c0.2-0.5-0.1-0.8-0.1-0.8s1.9-0.7,2.3-1c0.4-0.2,1.2-0.6,1.2-0.6l2.1-1.4l2.1-1.2c0,0,0.3,0.1,0.1,0.4c-0.2,0.3-0.9,0.4-1.3,1
		c-0.4,0.5,0,0.3-1.4,1.7l-3.1,1.6c0,0-0.3,0.2,0.7,0c1-0.2-0.4,1.4-0.4,1.4s1-0.4,1.8-0.9c0.8-0.5,1-1.5,1-1.5l2.7-2.3l0.6,0
		l-0.7,1.5c0,0,1.2-1.2,1.4-1.5c0,0,0,0,0-0.1c0,0,0,0,0,0.1c-0.1,0.3-0.2,1.5-0.2,1.5l0.6-0.1c0,0-0.5,0.6-1.7,1.4
		c-1.6,1.1,1.4-0.3,1.4-0.3l-1.5,1.5c0,0-0.9,0.8,0.3,0.1c1.2-0.8,1.2-0.2,0.3,0.6c-0.9,0.8-1.1,1.4-1.1,1.4l0.5-0.2l1-0.5
		c0,0,0.8-0.2,0,1s0.2-0.1-2.2,1.6h0.6H60c0,0,0.3-0.2-0.6,0.8c-1,1,0,0-0.9,0.1c-0.9,0.1,0,0-1.3,0.8c-1.3,0.8-0.3,0.2-0.9,0.9
		c-0.6,0.7-2.2,3.2-2.2,3.2l-1.9,3.3l0.8-2c0,0,2.4-4.4,2.1-4.4c-0.2,0-0.4,0.6-0.4,0.6L52.4,55c0,0,0,0,0.7-1.6
		c0.7-1.6-0.9-0.3-1,0.3c0,0.6-0.5,1.6-0.5,1.6L50.8,57c0,0,0.2-0.6,0-1.4c-0.2-0.8-0.1-0.7-0.1-0.7l0.1-1.1l-0.4-0.5
		c0,0.5,0,1,0,1.4c0,1.1,0.2,2,0.4,2.5c0,0,0,0,0,0c0.1,0.3,0.2,0.5,0.2,0.5l2,5.1l0.2,0.4c0.4-1,0.8-2.1,1-2.6
		c0.5-0.9,1.3-3.4,1.6-4.6c0-0.2,0.1-0.4,0.1-0.6c0.3-1.6,0.6-3.4,1.9-3.6c0.5-0.1,1.3-0.6,1.7-0.9c0.6-1,1.3-2.6,1.4-3.2
		c0-0.4,0-1.1,0-1.8c0-1-0.1-2,0-2.6c0.1-0.4,0.1-0.8,0.2-1.2c0.1-0.4,0.2-0.9,0.2-1c0-0.2-0.4-1.1-0.6-1.8c-0.1-0.2-0.1-0.4,0-0.6
		c0.1-0.1,1.5-2.9,2-3.8c0.4-0.8,1.3-2.4,1.3-2.4c0.2-0.3,0.6-0.5,0.9-0.4c0.8,0.3,2.3,0.7,2.9,0.7c0.9-0.1,4.4-0.1,5.4,0.7
		c1.1,0.9,2.5,1.6,2.9,1.5c0.6-0.1,1.4,0.1,2.6,0.4c0.4,0.1,0.9,0.2,1.1,0.3c0.2-0.1,0.5-0.2,0.8-0.4c1.1-0.5,1.6-0.7,2-0.6
		c0.1,0,0.4,0.1,2.4,1.4c0.1,0.1,0.2,0.1,0.2,0.2c0.3,0.5,0.7,1,0.9,1.1l0,0c2.3-0.2,2.9-0.4,3.1-0.5c0.4-0.3,1.4-0.8,2.2-1.1
		c0.3-0.1,0.6,0,0.8,0.1c0.9,0.7,1.9,1.4,2.2,1.5c0.5,0,1.5-0.2,2.2-0.4c0.2,0,0.3-0.1,0.5-0.1c0.5-0.1,1.3,0,2.3,0.1
		c0.6,0.1,1.7,0.2,1.9,0.2c0.9-0.4,2.8-0.2,3.1-0.1c0.1,0,0.1,0,0.2,0c0.3,0.1,0.6,0.2,0.9,0.3c0.9,0.3,1.8,0.5,2.1,0.5c0,0,0,0,0,0
		c0.8-0.1,1.7,0.5,1.9,0.6c0.1,0.1,0.2,0.2,0.3,0.3c0.3,0.6,2.5,5.7,2.3,7.5c0,0.3,0,0.6-0.1,1c-0.2,2.5-0.3,4.6-0.6,5.5
		c-0.2,0.7,0,3.7,0.4,5.4c0.1,0.5,0.4,1.1,0.7,1.8c0.6,1.3,1.2,2.7,1,3.7c-0.3,1.5-0.5,3.2-0.6,4.4c0,0.5,0,1.3,0,2.1
		c0.3-0.7,0.7-1.4,1.1-2.1c0.6-1.1,1.1-1.9,1.4-2.4c0.3-0.4,0.5-0.9,0.8-1.5c0,0,0,0,0,0c0.3-0.8,0.5-1.6,0.5-1.6c0,0,0-0.1,0-0.1
		c0-0.1,1.9-6.3,1.6-9.2c-0.3-3.1-0.8-7.6-1.1-9.6c-0.1-0.4-0.1-0.9-0.2-1.5c-0.1-0.4-0.1-0.9-0.2-1.5c-0.3-0.2-0.9-0.6-1-0.7
		c-0.1-0.1-0.7-0.6-0.6-0.3s0.6,1.6,0.6,1.6s0.9,1.1,1.1,1.6s0.1,0.7-0.3,0.2c-0.3-0.5-0.8-1.6-1.2-1.6c-0.4,0-0.6-0.1-0.2,0.7
		s0.6,0.9,0.6,0.9s0.6,1.1,1,1.5s0.2,0.5,0.2,0.5h-0.8c0,0-0.8-0.5-0.5,0c0.3,0.5,0.4,1,0.6,1.2s0.8,1.9,0.5,1.5
		c-0.3-0.3-0.6,0-0.6,0s0.2,1,0.4,1.4s-0.3,0.6-0.3,0.6s0.1,0.7,0.4,1.2c0.3,0.5,0.4,0.9,0.4,0.9l-0.4,0.4c0,0,0.7,1.2,0.4,1.1
		c-0.3-0.1,0.6,0.8,0.6,0.8l-1.1,0.3c0,0,0.8,2.4,0.2,1.6c-0.6-0.8-0.4-0.4-0.4,0.2c0,0.6-0.3,0.3-0.3,0.3V58h-0.6l-0.2-1l-0.1,2.2
		l-0.8-0.1l-0.8,1.2l-0.5-1.7l-1-1.1l-0.3-0.9l0.6,0.1l0.4-0.5c0,0-1.1-1.9-1-1.9c0.1,0.1,0.4,0.7,1,1.1c0.6,0.4,0.6,0.4,0.1-0.5
		s-1.2-2-0.4-1.3c0.8,0.7,2.1,1.7,1,0.4c-1.2-1.3-0.4-1,0.3-0.6s-0.3-1-0.3-1l0.9-0.9c0,0-1.7-1-1.9-1.6c-0.1-0.5,1.8,0.5,1.3-0.3
		c-0.5-0.8-0.3-0.9-0.8-1.3c-0.5-0.4,1.4,1.1,0.3-0.2c-1.1-1.3-1.2-1.9-0.7-1.9c0.4-0.1-0.1-0.5-0.1-0.9c0.1-0.4,1.3,0.9,0.7,0
		c-0.6-0.9-0.6-0.9-0.6-0.9l-0.3-0.5c0,0-0.8-0.8-0.2-0.8c0.6,0,1,0.5,1.2,0.4c0.2-0.2-0.5-0.8-0.5-0.8s1.4,0.6,0-0.2
		c-1.4-0.9-2-1.7-2-1.7l0.2-0.2l-0.2-0.3c0,0,1.9,0.5,0.9-0.3c-1.1-0.9-2.3-2.2-1.1-1.5s2.9,1.1,1.5,0.2c-1.5-0.9-1.5-1.3-1.5-1.3
		l0.6,0c0,0,1.6,1,1.2,0.1c-0.3-1-0.4-2-0.4-2c1.6,0.9,0.8,0.3,0.8,0.3l-1.2-1.3l-0.6-0.8c0,0,1,0.2,0.5-0.5s-0.4-0.8,0.3-0.2
		c0.8,0.5,0.2-0.3,0.3-0.8s0.3-0.8,0.7,0c0.4,0.7,0.6,0.3,0.6,0.2c-2-2.1-4.7-4.8-4.8-4.9c-0.1-0.1-0.2-0.3-0.3-0.4
		c-0.4-1.4-1.7-5.2-3.8-6.1c-0.1,0-0.1-0.1-0.2-0.1c0.3,0.4,0.1,0.6-0.2,0.5c-0.4-0.1-1-1-1-0.4s0.9,0.9,1,0.9
		c0.1,0-0.6,0.1-0.3,0.7s0.8,0.5,1.5,0.9s1.3,0.6,2,1.2s-0.5,0.1-1,0c-0.5-0.1-0.7,0-0.9,0.4c-0.1,0.4,0.2,0.6,0.7,1.3
		s0.1,0.7,1.5,1.6c1.3,0.8,0.7,0.9,0.3,0.4c-0.3-0.4-1.1-1-1.7-1.3c-0.5-0.3,0,0.4,0.1,0.8s0.6,0.7,0.9,1.1c0.2,0.4,0.5,0.5,1,1.5
		c0.5,1-0.8-0.5-0.6,0c0.2,0.5-1-1-1.4-1s0.1,0.7,0.9,1.4c0,0,0.1,0.1,0.1,0.3c0.3,0.5,0.8,1.5,1.2,2.1c0.5,0.7-0.8-0.3-1-0.9
		s-1.3-1.1-1.7-1.9c-0.4-0.7,0.4,0.7,0.8,1.4c0.3,0.7,0.7,1,1.2,2.1c0.6,1.1-0.2,0.4-0.5,0.3c-0.2-0.1-0.9-1.1-1.5-2.2
		c-0.6-1.1-0.6-0.5-0.8,0c-0.2,0.5,0.3,1.1,0.9,1.9c0.5,0.8,0.4,1.7,0.4,1.7l-0.5-0.2c0,0-0.5-1-0.6-1.1c0.1,0.2-0.4,0.8-0.4,0.8
		s-0.3-1.2-0.5-0.3c-0.2,0.9-0.3-1.2-0.3-1.2l-0.3-0.1l-0.4,2.5l-0.2-1.7c0,0,0.1-1.6,0-3c-0.1-1.5-0.1-1.5-0.3-1.6
		s-0.1,1.3-0.1,1.7s0,1.5-0.2,2.2c-0.1,0.4-0.1-0.2-0.1-0.8c0,0,0,0,0,0c0-0.4-0.6,0.7-0.6,0.7s0,0-0.2,0.4
		c-0.2,0.4-0.2,1.8-0.3,1.6c0,0-0.1-1.7,0.2-2.9s-0.3,0.2-0.6-0.2c-0.3-0.4-0.1,1-0.3,1.8s-0.7,1.8-0.7,1.8l-0.1-0.8l-0.1-2
		c0,0-0.5,0.8-0.9,1.9c-0.4,1.1-0.4-0.4-0.4-1.2c0-0.8-0.6-0.6-0.6-0.6l0,2.1c0,0-0.6-0.6-0.5-1.7c0-1.1-0.1,0.5-0.3,1.3
		c-0.2,0.8-0.4-0.8-0.4-2.2s-0.2,2-0.2,2s-0.7,0.6-0.6-0.4s-1,1-1,1h-0.3c0,0,0-0.6,0.5-1.6s-0.1-1.1,0.4-3.2s-0.3,0-0.4,0.7
		s-0.4,0.5-1.2,2.2c-0.8,1.8-0.6,0.7-0.6,0.7s0-1-0.1-2.2c-0.1-1.2-0.3-0.6-0.5,0.3c-0.2,0.9-0.6,0.9-0.7,0c0-0.9-0.3-0.2-0.3-1.1
		c0-0.9-0.5,1.7-0.5,1.7l-0.6-0.5c0,0,0-0.3,0-2.3c0,0,0,0-0.6,1.4C89,33.3,89,33.5,89,33.5s-0.6,1.8-1,1.7c-0.3-0.1,0.8-3,0.8-3
		s0-0.8,0.4-2.6s-0.4,0-0.7,1.1c-0.2,1-0.8,2.2-0.8,2.2s-0.6,2.4-0.6,2.3c0-0.1,0.5-2.6,0.5-2.6s0-0.8-0.4-0.6
		c-0.3,0.2-0.6,2.1-0.6,0.2c0-1.9-0.5-1-0.4,0c0,1-1.2,2.6-1.2,2.6s0.3-1.4,0.7-2.2c0.4-0.8,0.6-1.8,0.6-1.8l0.3-2v-2.6l0.4-0.5
		c0,0,0-1.9,0.3-1.3s0.1,0.4,0.8-0.6c0.2-0.3,0.2-0.1,0.2,0.2c0.1-0.1,0.2-0.2,0.3-0.4c0.3-0.7,0,1.1-0.1,3
		c-0.1,1.9-0.5,2.4-0.3,3.6l0.6-1.5l0.4-2.1c0,0,0.2-1.2,0.7-0.5c0.4,0.7-0.2-2.1-0.2-2.1s0.3,1,1.1,0.2c0,0-0.5-0.5,0-0.8
		s0.4,1.9,0.4,1.9s0.1-0.1,0.5-0.2c0.4,0,0,0-0.4-1.3c-0.4-1.3,0.7,0.1,0.7,0.1l-0.2-2.1c0,0,0.2,0.8,0.6,1.2s-0.1,1,0.3,1.5
		c0.4,0.5,0.2,0.7,0.6,1.6c0.3,0.9,0-0.8,0.2-1.5c0.2-0.7,0.1,1.2,0.9,1.8c0.4,0.3,0.5-0.2,0.5-0.6c-0.1-0.1-0.1-0.1-0.1-0.5
		c0-0.5,0.1,0,0.1,0.5c0.1,0.1,0.3,0.2,0.9,1.2l0.3-2v-1.4l0.7,0.1c0,0,0.2-1.2,0.6-0.5c0.4,0.7,0.6,2,0.6,2s0.2,1.2,0.4,1.5
		c0.2,0.2-0.1-3.2-0.4-4.1s0.7,0.9,0.7,0.9s0.3,1.3,0.5,2s0.1,1.1,0.9,3c0.7,1.9,0-2.5,0-2.5h0.2c0,0,0,0.8,0.4,1
		c0.3,0.2,0.1-0.7,0-1c0-0.1,0-0.1,0-0.1l0,0l0,0c0,0,0,0.1,0,0.1c0,0.1,0.1,0.4,0.3,1.1c0.3,1.2,0,1.8,0,1.8s-0.1,2.1,0.4,3.6
		c0.2,0.6,0.3,0.4,0.3,0c0.1-0.6,0-1.6,0-1.6l0.2-1.6L102,27l0.5,0.2l0.8,0.1c0,0-0.2,0.5,0.2,0.2c0.5-0.3-0.2-0.2,0.4-1.3
		c0,0,0,0-0.6-1.2c-0.6-1.2-0.3-0.5-0.3-0.5c-0.1-0.2-0.2-0.3-0.2-0.3c0,0,0.2,0.2,0.5,0.1l-0.5-1.4c0,0-0.3-0.5-0.7-1.2
		s-0.5-0.9-0.1-1.1c0.4-0.2-0.4-0.5-0.1-0.5c-0.4-0.2-0.7-0.4-1.1-0.6c-2.5-1.4-5.7-3.2-7.6-3.5c-0.7-0.1-1.7-0.3-2.8-0.5
		c-4.1-0.8-10.2-2.1-13.9-1.5c-0.6,0.1-1.2,0.2-1.8,0.3c-4.3,0.6-9.2,1.4-11.5,3.2c-0.6,0.5-1.3,1.2-2,2.1c0.2-0.1,0.4-0.2,0.4-0.2
		s0.9-0.1,0.7,0c-0.2,0.1-0.6,0.3-0.6,0.3c0.2,0,0.8-0.2,0.6,0C62,19.9,61.5,20,61.5,20l0.3,0.1l0.8,0c0.3,0.2,1.1,1,0.8,1
		s-1.6,0-1.6,0s1,0.4,0.9,1s-0.9,1.6-0.9,1.6h-1.2c0.5,0.9,1.5,1.4,1.5,1.4s-2.4-0.5-2.9-0.5s-0.1,0,0,0.5s-1.4,0.7-1.4,0.7l0.5,1.2
		c0,0-0.8,0.9-1.3,1s-1.1,0.6-1.1,0.6s1.6-1,1.3,0s0.8,1.4-0.1,1.9s-1.2,0.9-1.2,0.9s1.4-0.6,1.4,0s-1.2,0.9-1.4,1.1
		s1.3,0.4,1.3,0.4s-0.1,1-0.5,1.4S55.7,36,55.7,36s0.2,0.4,0,0.7c0,0,1.2,1,0.6,1s-0.5-0.4-0.6,0.4s-0.3,0.9-0.7,1.2
		c-1.2,1.1-1.7,1.5-1.6,1.8c0.2,0.3,0.1,0.6-0.5,1c-1,0.6-1.2,1.4-1.7,1c0,0-0.1,0-0.1-0.1c0,0.1,0,0.3-0.1,0.4
		c-0.3,1.5-0.5,3.1-0.7,4.3c0,0.3-0.1,0.6-0.1,0.9c0,0,0-0.1,0-0.1C50.8,47.6,50.4,48.1,50.8,47.9z M82.3,23.1c0,0,0.6,2.2,0.7,1.9
		s0.7-2.7,0.6-1.3s-0.3,4.5,0,2.9c0.3-1.6,0.6-2.1,0.7-1.8s0.3-0.9,0.3-0.9l0.4-1.9v2.1c0,0-0.5,1.7-0.7,2.9s-0.6,3-0.3,2.3
		c0.3-0.6,0.6-0.8,0.6-0.8s0.6-2.4,0.8-2.4s0.2,0.9,0,1.7c-0.2,0.8,0.4,0.1-0.3,1.4c-0.7,1.3-1.3,2-1.4,2.4
		c-0.2,0.4-0.6,1.2-0.6,1.2s0.7-3,0.3-2.1c-0.4,1-0.9,0.7-0.7,0.2s0.2-1.6,0.2-1.6l0.1-1c-0.1,0.6-0.2,1.2-0.4,1
		c-0.2-0.4-0.2-2-0.2-2l0-1.4c0,0-0.4,0-0.5-0.7S82.3,23.1,82.3,23.1z M78.2,28.5l0.3-3.1c0,0,0.1-4.3,0.3-1.5c0.2,2.8-0.1,3,0,3.9
		c0.1,0.8,0.6,0.6,0.6-0.3c0-0.8,0.1-2.3,0.2-1.2c0.2,1.1,0.4-0.6,0.4-0.6S80,24.9,80,24.5c0-0.4,0.1-1.5,0.2-2.1
		c0-0.7,0.5-0.6,0.5-0.6s-0.3,0.8-0.2,1.6c0.1,0.7,0.1,0.9,0.3,1.8c0.2,0.9,0.1,2.6,0.2,3.6c0.1,1,0.3,3.6,0,2.8
		c-0.3-0.8,0.2-2.8-0.2-1.6c-0.4,1.2-0.8,0.5-0.8,0.5c-0.1,0.8-0.3,2.3-0.5,1.2S79.1,32,79,31.2s0.4-2.4,0-2.2c-0.4,0.2-0.6,1-0.6,1
		s0.3,1.4,0,1.1C78.1,30.8,78.2,28.5,78.2,28.5z M71.7,21.7c0.6,0.7,3,3.8,3,3.8l-2-3.8c0,0,1.3,1.5,2,2.1c0.8,0.6,2,6.9,2,6.9
		s-0.9-0.6-1.3-1.4s0.8,3.6,0.8,3.6l-1.8-1.5l0.3,2l-0.4-1.3l-1.3-3.8l2.4,3l-1-4c0,0-1.3-3.6-1.9-4.2c-0.6-0.6-3.3-3.1-3.3-3.1
		S71.2,21,71.7,21.7z"/>
	<path class="st2" d="M51.9,38.5c0,0,0.9-0.8,1.1-1c0.2-0.3,0.1-1-0.2-0.7c-0.2,0.2-0.7,0.7-0.8,0.6C51.8,37.8,51.8,38.1,51.9,38.5
		c-0.1,0-0.1,0-0.1,0.1C51.8,38.5,51.9,38.5,51.9,38.5z"/>
	<path class="st2" d="M52,40.1c-0.2-0.2-0.3-0.4-0.3-0.5c0,0,0,0.1,0,0.1c-0.1,0.5-0.1,1-0.2,1.5c0,0,0,0,0,0
		C51.6,40.9,52,40.1,52,40.1z"/>
	<path class="st2" d="M52.7,36c0.3-0.3,0.7-1.9,0.2-1.5c-0.3,0.2-0.6,0.4-0.8,0.5c-0.1,0.6-0.2,1.2-0.2,1.8
		C52.2,36.4,52.5,36.2,52.7,36z"/>
	<path class="st2" d="M53.7,31.6l-0.3-0.4l0.4-0.5l0.5-0.4l0.3-0.6l-0.9,0.7l-0.2-0.1c-0.3,0.6-0.6,1.4-0.8,2.2
		c0.1-0.2,0.1-0.3,0.1-0.3L53.7,31.6z"/>
	<path class="st2" d="M54.8,28.6l-0.4,0.1c-0.2,0.4-0.5,0.7-0.7,1.1l0.5-0.5L54.8,28.6z"/>
	<path class="st2" d="M53.1,32.9c0,0-0.3,0.1-0.6,0.1c-0.1,0.2-0.1,0.5-0.1,0.7c0.1-0.2,0.1-0.3,0.3-0.4
		C52.9,33.1,53.1,32.9,53.1,32.9z"/>
	<path class="st2" d="M52.3,34.2c0,0.2-0.1,0.4-0.1,0.6c0.1-0.2,0.3-0.3,0.3-0.4C52.6,34.2,52.4,34.2,52.3,34.2z"/>
	<path class="st2" d="M56.6,25.4c-0.1,0.2-0.2,0.3-0.4,0.5c0,0,0,0,0.1,0C56.6,25.8,56.7,25.6,56.6,25.4z"/>
	<path class="st2" d="M114.2,33.6c-0.2-0.2-0.3-0.4-0.5-0.5C113.5,33.8,114,33.7,114.2,33.6z"/>
	<path class="st2" d="M88.2,25.8c-0.1,0.8-0.2,1.5,0,1.6C88.4,27.5,88.2,26.8,88.2,25.8z"/>
	<path class="st2" d="M114.4,33.9c-0.1-0.1-0.1-0.1-0.2-0.2C114.2,33.9,114.2,33.9,114.4,33.9z"/>
	<path class="st2" d="M50.4,49.9c0,0-0.1-0.1-0.1-0.2c0,0.1,0,0.2,0,0.4C50.3,50,50.4,49.9,50.4,49.9z"/>
	<path class="st2" d="M114.5,34.8c0.3,0.4,0,0.6,0,0.8c0,0.1,0.7,0.4,0.7,0.4l0.5,0.8c0,0-0.7,0.6-0.4,0.7c0.2,0,0.7,0.5,0.7,0.5
		s0.1,0.1,0.2,0.3c-0.4-1.6-0.8-3.1-1.5-3.9C114.7,34.5,114.3,34.5,114.5,34.8z"/>
	<path class="st2" d="M60.9,20.2c0,0,0-0.3,0-0.5c-0.1,0.2-0.3,0.4-0.4,0.6C60.6,20.2,60.9,20.2,60.9,20.2z"/>
	<path class="st2" d="M116,38.8c-0.4-0.2-0.7-0.1-0.7-0.1s0.4,0.6,0.7,1c0.2,0.2,0.4,0.5,0.5,0.7c-0.1-0.5-0.2-0.9-0.3-1.4
		C116.3,39,116.3,38.9,116,38.8z"/>
	<path class="st2" d="M51,52.6c0.2,0-0.1-0.9-0.5-1.7c-0.1-0.2-0.2-0.3-0.2-0.5c0,0.7,0,1.5,0.1,2.2c0,0.1,0,0.3,0,0.4
		C50.5,52.9,50.8,52.6,51,52.6z"/>
	<path class="st3" d="M116.2,71.7c-0.1,0.1-0.3,0.2-0.4,0.4c-0.2,0.3-0.4,0.7-0.7,1.5c-0.2,0.6-0.1,1.9,0,2.5l0,0.3
		c0,0.2,0,0.5-0.1,0.8c0-0.1,0.1-0.1,0.1-0.2c0.4-1,0.8-1.9,1-2.7c0.1-0.5,0.1-1.1,0.1-1.8C116.2,72.3,116.2,72,116.2,71.7z"/>
	<path class="st3" d="M113.3,82.7c-0.2,0.3-0.3,0.6-0.5,0.9c-0.1,0.2-0.2,0.5-0.4,0.7c-0.3,0.5-0.7,0.9-0.7,1
		c-0.2,0.2-0.4,0.3-0.6,0.3c-0.2,0-0.3-0.1-0.5-0.2c-0.3,1.4-0.6,2.7-0.8,3.7c0.2,0.2,0.4,0.3,0.6,0.4c0.2,0,0.8-0.5,1.2-0.8l0,0
		c0.2-0.3,0.4-1.6,0.5-2.1c0-0.3,0.1-0.7,0.1-0.9c0.1-0.8,0.5-1.3,0.7-1.7c0.2-0.2,0.3-0.5,0.4-0.8c0.1-0.2,0.2-0.7,0.3-1.1
		C113.6,82.3,113.4,82.6,113.3,82.7C113.3,82.6,113.3,82.6,113.3,82.7z"/>
	<path class="st3" d="M113.5,74c0,0.1-0.1,0.2-0.1,0.3c-0.2,0.7-0.6,2.1-0.9,3.6c-0.2,0.9-0.6,2.5-1,4.3c-0.1,0.4-0.2,0.8-0.3,1.2
		c0.1-0.2,0.2-0.3,0.3-0.5c0.2-0.3,0.3-0.7,0.6-1.1c0.3-0.5,0.8-1.4,0.9-1.9c0.1-0.4,0.2-0.9,0.3-1.4c0.2-0.6,0.4-1.6,0.4-1.9l0-0.2
		C113.5,75.5,113.4,74.6,113.5,74C113.5,73.9,113.5,73.9,113.5,74z"/>
	<path class="st3" d="M115.8,69.3c-0.2,0.4-0.4,0.8-0.6,1.2c0.6-0.5,1.2-0.6,1.3-0.6c0.1,0,0.1,0,0.2,0c0.1-0.5,0.3-1.1,0.3-1.6
		c-0.3,0.3-0.7,0.5-1,0.8C115.9,69.2,115.8,69.2,115.8,69.3z"/>
	<path class="st3" d="M56.7,99.2c0.4,0.6,0.8,1,1.2,1.4c2.1,2.2,10.5,10.1,12.2,10.8c1.9,0.9,6.6,2,10.3,2.1c1.5,0,2.6,0.2,3.4,0.3
		c1.3,0.2,1.7,0.2,2.5-0.2c0.6-0.3,1.3-0.5,2.1-0.8c1.8-0.6,4.1-1.4,6.3-3.1c0.7-0.6,1.5-1.1,2.3-1.7c1.1-0.8,2.3-1.7,3.4-2.6
		c2.2-1.8,3.4-3.2,4-4.5c0.6-1.2,1-2.1,1.4-2.7c0.6-1.1,1-1.7,1.2-3.1c0.1-1,0.3-1.6,0.4-2.3c0.2-1,0.3-1.8,0.5-3.6
		c0.2-1.8,1-4.8,1.7-7.5c0.4-1.7,0.8-3.4,1-4.2c0.3-1.6,0.7-3.1,0.9-3.8c0-0.2,0.1-0.3,0.1-0.3c-0.1-1.2-0.2-3.9-0.1-5.1
		c0.1-1.2,0.3-3,0.6-4.6c0.1-0.6-0.4-1.8-0.9-2.8c-0.3-0.7-0.6-1.4-0.8-2.1c-0.4-1.4-0.8-4.9-0.4-6.2c0.2-0.8,0.4-3.5,0.5-5.1
		c0-0.4,0-0.7,0.1-1c0.1-1.1-1.2-4.5-2.1-6.6c-0.3-0.2-0.6-0.3-0.7-0.3c-0.6,0.1-2.2-0.4-3.6-0.9c-0.8-0.1-1.9-0.1-2.3,0
		c-0.6,0.2-1.4,0.1-2.7-0.1c-0.6-0.1-1.5-0.2-1.7-0.2c-0.1,0-0.3,0.1-0.5,0.1c-0.9,0.2-1.9,0.5-2.7,0.4c-0.8-0.1-2-0.9-2.7-1.5
		c-0.6,0.3-1.2,0.5-1.4,0.6c-0.3,0.3-0.7,0.5-4,0.8l-0.1,0c-0.9,0.1-1.7-0.9-2.2-1.7c-0.7-0.4-1.4-0.8-1.8-1c-0.3,0.1-0.7,0.3-1,0.5
		c-0.5,0.3-0.9,0.4-1.1,0.5c-0.4,0.1-0.9,0-1.9-0.3c-0.6-0.2-1.6-0.4-2-0.4c-1.3,0.2-3.4-1.3-4.1-1.8c-0.5-0.4-3.1-0.6-4.4-0.4
		c-0.9,0.1-2.2-0.3-3-0.5c-0.3,0.5-0.7,1.3-1,1.8c-0.4,0.7-1.4,2.6-1.8,3.4c0.2,0.5,0.6,1.4,0.6,1.8c0.1,0.4,0,0.9-0.2,1.5
		c-0.1,0.4-0.2,0.7-0.2,1.1c-0.1,0.5,0,1.5,0,2.4c0,0.8,0,1.5,0,2c-0.1,1.2-1.4,3.6-1.6,4c0,0.1-0.1,0.2-0.2,0.2
		c-0.1,0.1-1.4,1.1-2.5,1.3c-0.3,0.3-0.6,1.7-0.7,2.4c0,0.2-0.1,0.4-0.1,0.6c-0.3,1.3-1.2,4-1.7,5c-0.4,0.7-1.2,2.9-1.6,4
		c0.1,0.2,0.1,0.4,0,0.6l-0.5,1.3c0,0,0,0,0,0l-0.1,0.4c0.1,1.3,0.2,5,0,7.4c0,0.3-0.1,0.8-0.1,1.3c-0.2,1.7-0.4,4.4-0.6,7
		c-0.4,5.8-0.3,7.5-0.2,8c0.3,1.4,1.8,4.2,3.6,6.8C56.3,98.6,56.5,98.9,56.7,99.2z M82.5,101.6h-2.1c-1.5,0-2.3-0.7-2.4-0.7
		c-0.4-0.3-0.5-0.9-0.1-1.3c0.3-0.4,0.9-0.5,1.3-0.1c0,0,0.4,0.3,1.2,0.3h2.1c0.5,0,1,0.4,1,1S83.1,101.6,82.5,101.6z M96.8,71.3
		c-1.3,0-2.3-1-2.3-2.3c0-1.3,1-2.3,2.3-2.3c1.3,0,2.3,1,2.3,2.3C99.1,70.3,98.1,71.3,96.8,71.3z M90.3,64.3c0.3-0.3,0.4-0.5,1.3-1
		c0.7-0.4,1.9-0.7,3-0.7c1.1,0,3.4-0.4,4.5-0.4c1.2,0,1.9,0.1,3.1,0.3c1.2,0.3,2.9,0.2,3.5,1.1c0.6,0.9,0.8,1.2,1,1.6
		c0.2,0.4-0.5-0.1-1.1-0.2c-0.6-0.1-2.8-0.7-4.3-0.8c-1.5-0.1-2,0-4,0.3c-2,0.4-4.5,0.8-5.2,1c-1,0.3-1.5,0.3-1.8,0.2
		C90,65.8,89.4,65.2,90.3,64.3z M86.6,84.7c0.5,0.2,1.8,0.9,1.3,1.3c-0.5,0.4-1,0.6-1.8,0.4c-0.8-0.2-1.9-1-1.9-1
		S86.2,84.5,86.6,84.7z M82.1,95.3c2.1,0.1,5.3,0.2,6.3,0c2.8-0.6,3.2-0.4,3.5-0.2c0.5,0.2,0.7,0.8,0.4,1.3
		c-0.2,0.4-0.7,0.6-1.1,0.5c-0.2,0-1.1,0.1-2.4,0.3c-0.5,0.1-1.4,0.1-2.6,0.1c-1.2,0-2.6,0-4.1-0.1c-0.4,0-0.8,0-1.2,0
		c-1.8-0.1-5.4-1.3-8.7-2.4c-0.4-0.1-0.7-0.2-0.8-0.3c-0.2-0.1-0.8-0.1-1.7,0c-0.2,0-0.3,0-0.3,0c-0.5,0-1-0.4-1-1
		c0-0.5,0.4-0.9,0.9-1c0,0,0.1,0,0.2,0c0.8-0.1,1.8-0.1,2.4,0.1c0.1,0,0.4,0.1,0.9,0.3c1.7,0.6,6.4,2.3,8.1,2.3
		C81.3,95.3,81.7,95.3,82.1,95.3z M68.1,65.7c0-1.3,1-2.3,2.3-2.3c1.3,0,2.3,1,2.3,2.3c0,1.3-1,2.3-2.3,2.3
		C69.1,68,68.1,67,68.1,65.7z M78.5,83.5c0.8,0.1,2.1,1.6,2.1,1.6s-1.5,0.1-2,0c-0.5-0.1-2-0.8-2-0.8S77.7,83.4,78.5,83.5z
		 M62.4,60.7c0.3-0.4,0.5-0.7,1.2-1.5c0.7-0.8,1.5-0.9,2.8-1c1.2-0.1,2.8,0.4,4,0.6c1.2,0.2,3.7,0.7,4.7,0.9
		c1.1,0.1,2.3,0.5,2.8,1.2c0.5,0.7,0.2,0.7,0.2,1.1c0,0.4-0.2,0.5-0.3,0.8c-0.2,0.3,0.1,0.4-0.7,0.4s-3.4-1.1-5.3-1.7
		c-1.9-0.7-2.4-0.8-3.9-0.9c-1.5-0.1-3.7,0.2-4.3,0.1C62.9,60.7,62.1,61.1,62.4,60.7z"/>
	<path d="M90.3,65.9c0.3,0.1,0.8,0.1,1.8-0.2c0.7-0.3,3.2-0.6,5.2-1c2-0.4,2.5-0.4,4-0.3c1.5,0.1,3.6,0.7,4.3,0.8
		c0.6,0.1,1.3,0.6,1.1,0.2c-0.2-0.4-0.4-0.8-1-1.6c-0.6-0.9-2.3-0.8-3.5-1.1c-1.2-0.3-2-0.4-3.1-0.3c-1.2,0-3.5,0.5-4.5,0.4
		c-1.1,0-2.2,0.3-3,0.7c-0.8,0.5-1,0.7-1.3,1C89.4,65.2,90,65.8,90.3,65.9z"/>
	<path class="st4" d="M88.7,154.1c-3.2-3.5-7-6.6-10.2-9.4l-0.7-0.6c-0.5-0.5-1.1-0.9-1.6-1.4c-1.5-1.3-2.6-2.3-3.6-3.2
		c-3.1-3-9.5-8.3-13-11.1c1.3,3.2,2.9,7.2,3.7,9.7c0.4,1.3,0.9,2.8,1.4,4.4c1.2,3.6,2.6,8,3.8,13.1c0.4,1.7,0.8,3.3,1.3,4.9
		c3.5,0.5,7.1,0.7,10.8,0.7c4.5,0,8.9-0.4,13.2-1.1c-0.5-0.6-1-1.2-1.5-1.8C91.1,156.7,89.8,155.3,88.7,154.1z"/>
	<path class="st5" d="M103.7,148.7c-0.6-0.2-1.5-0.5-2.2-1.2c-0.5-0.4-1.4-1.5-2.5-2.7c-0.4-0.4-0.7-0.8-1.1-1.2
		c-0.1,0.2-0.2,0.5-0.4,0.7c-0.4,0.4-1.1,1.9-1.3,3.8c-0.1,1.5-0.1,4.5,0,6.4c0,0.6,0,1.1,0,1.3c0,0.9,0.2,1.5,0.2,1.5
		c0.1,0.3,0,0.6-0.2,0.8l0,0l0.2,1.5c2.8-0.5,5.5-1.2,8.1-2c-0.2-2.3-0.4-5-0.6-7.5L103.7,148.7z"/>
	<path class="st5" d="M54.5,115.1c0.7,2,3.3,8.9,3.5,9.4c0,0.1,0.1,0.3,0.3,0.6l0.1-0.2c0,0,0,0,0.1,0.1c0.6,0.5,11.1,9,15.4,13.1
		c0.8,0.8,1.7,1.6,2.9,2.6c0.2-0.2,0.5-0.4,0.8-0.6c0.9-0.8,3.1-2.6,4-3.3c0.9-0.6,2.1-2.1,2.6-2.6c0.1-0.2,0.3-0.3,0.5-0.3
		c0,0,1-0.2,1.7-0.3c0.9-0.1,1.7,0.1,2.6,0.7c0.7,0.5,6.1,4.1,7.3,4.8c0.3,0.2,0.8,0.7,1.5,1.4c0,0,0,0,0,0c0,0,0,0,0,0c0,0,0,0,0,0
		c0.8,0.8,1.7,1.9,2.6,2.9c1,1.1,2,2.2,2.4,2.6c0.3,0.2,0.5,0.4,0.8,0.5c-0.2-2.3-0.4-4.6-0.4-5.6c-0.1-1.4-0.6-4.1-1.1-6.7
		c-0.5-2.5-0.9-4.8-1-6.2c-0.1-1.3-0.4-2.7-0.9-4.1c-0.3-1.2-0.7-2.5-0.9-3.7c-0.1-1-0.2-2.2-0.3-3.2c-0.4,1.2-0.7,2.2-1.1,2.9
		c-0.4,0.7-1,1.5-1.6,2.2c-0.5,0.6-0.9,1.1-1.2,1.6c-0.2,0.3-0.4,0.6-0.6,0.9c-0.7,1-1.5,2.3-1.8,3c-0.1,0.1-0.1,0.3-0.2,0.5
		c-0.5,1.2-1.2,2.9-2.4,3.7c-0.7,0.5-2.2,1.1-3.3,1.1c-0.2,0-0.4,0-0.6-0.1c-0.5-0.2-5.4-3.3-6.8-4.6c-1.3-1.2-4.2-3.4-5.7-4.3
		c-1.7-1-5.1-3.5-7.8-5.6c-2.9-2.2-5.8-5.3-7.5-7.8c-1.8-2.7-2.9-5.8-3.1-6.8c-0.2-0.7-0.3-2.1-0.4-3c-0.1,0.3-0.3,0.6-0.5,0.9
		c-0.4,0.7-0.8,1.5-0.9,1.8c-0.3,0.5-0.9,3.3-0.6,4.9C53.4,110.6,53.8,113.1,54.5,115.1z"/>
	<path class="st3" d="M89,114.6c-0.8,0.3-1.4,0.5-1.9,0.7c-0.8,0.4-1.4,0.5-2.1,0.5c-0.5,0-1-0.1-1.5-0.1c-0.8-0.1-1.7-0.2-3.2-0.3
		c-4-0.1-8.9-1.3-11-2.3c-1.9-0.9-9.2-7.7-12-10.5c0,0.3,0.1,0.5,0.1,0.7c0.2,1,1.3,3.9,2.8,6.2c1.5,2.3,4.3,5.2,7,7.3
		c3.1,2.4,6.2,4.6,7.6,5.4c1.6,0.9,4.6,3.3,6,4.5c1.2,1.1,5.3,3.7,6.2,4.2c0.4,0,1.3-0.3,2.2-0.8c0.7-0.4,1.3-1.9,1.6-2.8
		c0.1-0.2,0.2-0.4,0.2-0.5c0.4-0.8,1.2-2.1,1.9-3.3c0.2-0.3,0.4-0.6,0.6-0.9c0.4-0.6,0.8-1.2,1.3-1.8c0.5-0.7,1.1-1.4,1.4-2
		c0.5-0.9,1.1-3,1.6-4.8c0.1-0.4,0.2-0.9,0.3-1.3c0-0.1,0.1-0.2,0.1-0.3c0.3-1.1,0.7-2.7,1.1-4.1c-0.4,0.3-0.8,0.6-1.2,0.9
		c-0.8,0.6-1.6,1.2-2.3,1.7C93.4,113.2,90.8,114,89,114.6z"/>
	<path d="M96.8,66.7c-1.3,0-2.3,1-2.3,2.3c0,1.3,1,2.3,2.3,2.3c1.3,0,2.3-1,2.3-2.3C99.1,67.8,98.1,66.7,96.8,66.7z M98,68.5
		c-0.3,0-0.5-0.2-0.5-0.5c0-0.3,0.2-0.5,0.5-0.5c0.3,0,0.5,0.2,0.5,0.5C98.5,68.3,98.2,68.5,98,68.5z"/>
	<circle class="st5" cx="98" cy="68" r="0.5"/>
	<path class="st6" d="M95.1,140.8c-1.3-0.9-6.5-4.4-7.2-4.8c-0.6-0.4-1-0.5-1.4-0.4c-0.4,0-0.9,0.1-1.2,0.2
		c-0.5,0.6-1.7,1.9-2.7,2.6c-0.5,0.4-1.8,1.4-3.5,2.8l0.2,1.8l0.3,0.2c3.3,2.8,7.1,6,10.4,9.6c1.1,1.2,2.3,2.5,3.5,3.9
		c0.3,0,0.5,0.1,0.7,0.1c0-0.3-0.1-0.7-0.1-1.1c0-0.2,0-0.7,0-1.3c0-1.9-0.1-5,0-6.6c0.2-2.3,1.1-4.2,1.9-5c0.1-0.1,0.1-0.7,0.1-1.2
		C95.6,141.2,95.3,140.9,95.1,140.8z"/>
	<path d="M87.9,86.1c0.5-0.4-0.8-1.1-1.3-1.3c-0.5-0.2-2.4,0.8-2.4,0.8s1.1,0.7,1.9,1C86.9,86.7,87.5,86.5,87.9,86.1z"/>
	<path class="st1" d="M62.9,143c-0.5-1.6-1-3.1-1.4-4.4c-0.8-2.8-2.9-7.8-4.2-10.8l-0.6,0.7c0,0-4,4.7-5.3,6.7
		c-1.4,2.1-4.3,5-6.4,6.5c-1.9,1.3-2.9,2.8-2.9,2.9c0,0,0,0,0,0c0,0,0,0.1-0.1,0.1c0,0-0.1,0.1-0.1,0.1c0,0,0,0,0,0
		c-0.2,0.1-2.9,2.1-4.9,3.5c9.2,5.9,19.6,10.1,30.8,11.9c-0.4-1.4-0.7-2.7-1.1-4.2C65.4,151,64,146.6,62.9,143z"/>
	<path d="M78.6,85.2c0.5,0.1,2,0,2,0s-1.3-1.5-2.1-1.6c-0.8-0.1-1.8,0.8-1.8,0.8S78.1,85.1,78.6,85.2z"/>
	<path d="M63.5,60.7c0.6,0,2.9-0.3,4.3-0.1c1.5,0.1,2,0.3,3.9,0.9c1.9,0.7,4.5,1.7,5.3,1.7s0.5-0.2,0.7-0.4c0.2-0.3,0.3-0.4,0.3-0.8
		c0-0.4,0.3-0.4-0.2-1.1c-0.5-0.7-1.7-1.1-2.8-1.2c-1.1-0.1-3.6-0.6-4.7-0.9c-1.2-0.2-2.8-0.7-4-0.6c-1.2,0.1-2,0.3-2.8,1
		c-0.7,0.8-1,1.1-1.2,1.5C62.1,61.1,62.9,60.7,63.5,60.7z"/>
	<path d="M70.4,68c1.3,0,2.3-1,2.3-2.3c0-1.3-1-2.3-2.3-2.3c-1.3,0-2.3,1-2.3,2.3C68.1,67,69.1,68,70.4,68z M71.7,64.4
		c0.3,0,0.5,0.2,0.5,0.5c0,0.3-0.2,0.5-0.5,0.5c-0.3,0-0.5-0.2-0.5-0.5C71.2,64.7,71.4,64.4,71.7,64.4z"/>
	<circle class="st5" cx="71.7" cy="64.9" r="0.5"/>
	<path class="st1" d="M37.5,143.4c-0.5-0.4-7.6-5.1-8.1-5.4c-0.6-0.3-1.1-0.7,1.1-5.6c0.5-1,1-3.3,1.5-5.5c0.5-2.2,1-4.5,1.5-5.9
		c0.5-1.4,1.1-2.8,1.5-3.8c-0.5,0.1-1.1,0.3-1.4,0.4c-0.5,0.3-3.7,1.6-8.8,3.7c-4.3,1.8-9.1,3.8-10.9,4.6
		c5.7,8.4,12.9,15.6,21.3,21.3c1.1-0.8,2.8-2,4.1-2.9C38.6,144,37.9,143.7,37.5,143.4z"/>
	<path class="st1" d="M32.2,133.1c-0.7,1.5-1.2,2.8-1.4,3.5c1.9,1.2,7.4,4.8,7.9,5.3c0.2,0.2,1.2,0.6,2.2,0.9c0.5-0.7,1.5-1.8,3-2.8
		c2-1.4,4.6-4,5.9-5.9c1.3-2,5.2-6.6,5.4-6.8l1.2-1.4c-0.2-0.4-0.3-0.6-0.3-0.6c0,0,0,0,0-0.1c-0.1-0.3-2.8-7.4-3.5-9.5
		c-0.7-2.1-1.1-4.7-1.5-6.9c-0.2-1.4,0-3.2,0.3-4.6c-0.2,0.2-0.4,0.5-0.6,0.7c-1.3,1.6-2.8,3.5-3.9,4.3c-0.6,0.4-1.5,1.3-2.5,2.2
		c-1.4,1.3-2.8,2.7-3.9,3.4c-1.4,0.9-2.8,1.6-3.4,1.9c-0.3,0.8-1.1,2.8-1.9,5c-0.5,1.3-1,3.5-1.5,5.6
		C33.3,129.7,32.8,132,32.2,133.1z"/>
	<path class="st3" d="M49.5,60.2c0.2,0.1,0.3,0.2,0.5,0.4c0,0.1,0.1,0.1,0.1,0.2l-0.9-2.3c0,0-0.1-0.2-0.2-0.5
		c-0.2-0.1-0.4-0.1-0.7,0.1c0.3,0.5,0.7,1.1,0.9,1.6C49.3,59.8,49.4,60,49.5,60.2z"/>
	<path class="st3" d="M49.7,63.6c0,1.1-0.1,2.2-0.3,2.7c-0.2,0.8-0.7,3.4-0.8,4.1c0,0.4-0.1,1.5-0.2,2.4c0,0.4,0.1,0.8,0.1,1.1
		c0.1,0.5,0.1,0.9,0.2,1.1c0.2,0.6,0.7,2.8,0.6,4.2c0,0.7,0.4,1.9,0.9,2.2c0.2,0.1,0.3,0.2,0.5,0.3c0.2-2.1,0.4-4.1,0.5-5.5
		c0-0.2,0-0.4,0.1-0.6c-0.5-0.2-1-0.6-1.3-1.3c-0.6-1.2-0.6-3.1-0.4-4.3c0.2-1,1.2-2.1,1.7-2.6c0,0,0,0,0,0c0,0,0,0,0-0.1
		c0,0,0,0,0,0c0,0,0,0,0-0.1c0,0,0,0,0,0l0.1-0.1c-0.4-0.7-1.2-2.2-1.5-2.8C50,64.1,49.9,63.8,49.7,63.6z"/>
	<path class="st3" d="M51.2,70.3c-0.2,1.1-0.1,2.6,0.2,3.3c0,0.1,0.1,0.1,0.1,0.1c0.1-1.4,0-2.9,0-4.1
		C51.3,69.9,51.2,70.1,51.2,70.3z"/>
	<path class="st3" d="M47.8,60.3c0-0.1-0.1-0.2-0.1-0.3c-0.1,0.4-0.2,0.9-0.3,1.2c0,0.1-0.1,0.3-0.1,0.4c-0.3,1.1-0.6,2-0.4,3.1
		c0.1,0.5,0.4,1.1,0.6,1.8c0.1,0.1,0.1,0.3,0.2,0.5c0.1-0.5,0.2-1,0.3-1.3c0.1-0.6,0.2-3,0.3-4.5c0-0.1-0.1-0.2,0-0.3
		C48,60.7,47.9,60.5,47.8,60.3z"/>
	<path d="M71.9,92.6c-0.6-0.2-1.6-0.1-2.4-0.1c-0.1,0-0.2,0-0.2,0c-0.5,0-0.9,0.4-0.9,1c0,0.5,0.4,1,1,1c0.1,0,0.2,0,0.3,0
		c0.9-0.1,1.5-0.1,1.7,0c0.1,0,0.4,0.1,0.8,0.3c3.3,1.2,6.9,2.4,8.7,2.4c0.4,0,0.8,0,1.2,0c1.5,0.1,3,0.1,4.1,0.1c1.1,0,2,0,2.6-0.1
		c1.3-0.3,2.1-0.3,2.4-0.3c0.4,0.1,0.9-0.1,1.1-0.5c0.2-0.5,0.1-1-0.4-1.3c-0.2-0.1-0.7-0.3-3.5,0.2c-1,0.2-4.2,0.1-6.3,0
		c-0.4,0-0.8,0-1.2,0c-1.7,0-6.3-1.7-8.1-2.3C72.4,92.8,72.1,92.7,71.9,92.6z"/>
	<path d="M82.5,99.6h-2.1c-0.8,0-1.1-0.3-1.2-0.3c-0.4-0.3-1-0.3-1.3,0.1c-0.3,0.4-0.3,1,0.1,1.3c0.1,0.1,0.9,0.7,2.4,0.7h2.1
		c0.5,0,1-0.4,1-1S83.1,99.6,82.5,99.6z"/>
	<path d="M13.9,125.9c1.8-0.8,6.6-2.8,10.9-4.6c5.1-2.1,8.3-3.4,8.8-3.7c0.3-0.2,0.8-0.3,1.4-0.4c-0.4,1-0.9,2.4-1.5,3.8
		c-0.5,1.4-1,3.7-1.5,5.9c-0.5,2.2-1,4.5-1.5,5.5c-2.2,4.9-1.7,5.3-1.1,5.6c0.5,0.3,7.6,5,8.1,5.4c0.3,0.3,1,0.6,1.7,0.9
		c-1.3,0.9-2.9,2.1-4.1,2.9c0.6,0.4,1.1,0.8,1.7,1.1c2-1.4,4.8-3.4,4.9-3.5c0,0,0,0,0,0c0,0,0.1-0.1,0.1-0.1c0,0,0.1-0.1,0.1-0.1
		c0,0,0,0,0,0c0,0,1-1.6,2.9-2.9c2.2-1.5,5-4.3,6.4-6.5c1.3-1.9,5.2-6.6,5.3-6.7l0.6-0.7c1.3,3,3.3,8,4.2,10.8
		c0.4,1.3,0.9,2.9,1.4,4.4c1.1,3.5,2.6,8,3.8,12.9c0.3,1.4,0.7,2.8,1.1,4.2c0.7,0.1,1.4,0.2,2.1,0.3c-0.4-1.6-0.9-3.2-1.3-4.9
		c-1.2-5-2.7-9.5-3.8-13.1c-0.5-1.6-1-3.1-1.4-4.4c-0.7-2.5-2.3-6.5-3.7-9.7c3.5,2.8,9.8,8.1,13,11.1c1,0.9,2.1,1.9,3.6,3.2
		c0.5,0.4,1.1,0.9,1.6,1.4l0.7,0.6c3.3,2.8,7,5.9,10.2,9.4c1.1,1.2,2.4,2.6,3.6,4.1c0.5,0.6,1,1.2,1.5,1.8c0.8-0.1,1.6-0.3,2.4-0.4
		l-0.2-1.5l0,0c0.2-0.2,0.3-0.6,0.2-0.8c0,0-0.2-0.7-0.2-1.5c0-0.3,0-0.7,0-1.3c0-1.8-0.1-4.9,0-6.4c0.2-1.9,0.9-3.3,1.3-3.8
		c0.2-0.2,0.3-0.4,0.4-0.7c0.4,0.4,0.7,0.8,1.1,1.2c1.1,1.2,2.1,2.3,2.5,2.7c0.7,0.7,1.6,1,2.2,1.2l0.1,1.3c0.2,2.5,0.4,5.2,0.6,7.5
		c0.6-0.2,1.2-0.4,1.9-0.6c-0.2-2.2-0.4-4.6-0.6-7.1l-0.2-2c-0.2-2.8-0.5-5.7-0.5-6.9c-0.1-1.6-0.6-4.3-1.1-7
		c-0.4-2.3-0.9-4.7-0.9-5.9c-0.1-1.5-0.5-3-0.9-4.5c-0.3-1.2-0.7-2.3-0.8-3.4c-0.1-0.8-0.2-1.7-0.3-2.5c0.5,0.9,1,1.8,1.1,2
		c0.1,0.1,0.1,0.3,0.2,0.4c0.2,0.5,0.4,1,1.1,1.4c0.2,0.1,1.1,0.5,3.9,1.7l1.6,0.7c0.9,0.7,8.7,8.3,9.7,9.6c0.7,0.9,2.4,3.7,3.2,5.2
		l-2.7,4.6c-0.2,0.4-0.1,1,0.3,1.3c1.7,1.2,3.5,2.5,5,3.7c0.6-0.4,1.1-0.7,1.7-1.1c-1.3-0.9-2.8-2.1-4.9-3.6l2.5-4.3
		c0.2-0.3,0.2-0.7,0-0.9c-0.1-0.2-2.6-4.7-3.7-6c-0.5-0.6-3.4-3.6-6-6.1c4.4,1.9,7,3.2,7.9,3.7c1,0.6,3.3,1.7,5.9,3
		c3.3,1.6,7.1,3.6,9.6,4.9c0.5-0.5,0.9-0.9,1.4-1.4c-2.4-1.3-6.4-3.4-10.1-5.2c-2.6-1.3-4.9-2.4-5.8-3c-1.3-0.7-5.6-2.6-13.1-5.9
		c0,0,0,0-0.1,0l0,0l-1.7-0.7c-1.9-0.8-3.5-1.5-3.7-1.6c-0.1,0-0.1-0.1-0.2-0.4c-0.1-0.2-0.2-0.4-0.3-0.6c-0.3-0.6-2.9-5-3-5.2
		c-0.1-0.2-0.3-0.3-0.5-0.4l-0.2-0.3c0.6-2,1.4-5.2,1.7-6.2c2.2-1.9,3.6-3.4,4.3-4.9c0.5-1.2,1-2,1.3-2.6c0.7-1.1,1.1-2,1.4-3.8
		c0.1-1,0.3-1.6,0.4-2.2c0.1-0.6,0.2-1.2,0.3-2.1c0.1,0,0.2,0.1,0.3,0.1c0.2,0.1,0.3,0.1,0.5,0.1c0.9,0,1.7-0.7,2.4-1.2l0,0
		c0.8-0.7,1-2.1,1.2-3.3c0-0.3,0.1-0.6,0.1-0.8c0.1-0.4,0.2-0.7,0.5-1.1c0.2-0.3,0.4-0.6,0.5-1c0.2-0.5,0.4-1.3,0.5-2.2
		c0.1-0.8,0.3-1.6,0.5-2.1c0.2-0.5,0.4-1,0.6-1.7c0.4-1,0.8-2,1.1-2.9c0.2-0.8,0.2-1.6,0.1-2.4c0-0.4-0.1-1,0-1.2
		c0.5-1,0.7-2.7,0.7-3.5c0-0.3,0.1-0.6,0.1-0.9c0-0.2,0.1-0.4,0.1-0.7c0-0.1,0-0.1,0-0.2c0-0.6-0.4-1.1-0.8-1.4
		c0.2-0.6,0.3-1,0.3-1.1c0.2-0.6,1.9-6.7,1.7-9.8c-0.3-3.2-0.8-7.7-1.2-9.7c-0.1-0.4-0.1-0.8-0.2-1.4c-0.6-3.8-1.3-7.6-2.8-9.4
		c-1.6-1.9-5-5.3-5.9-6.1c-0.4-1.3-1.8-5.8-4.8-7.1c-1-0.4-2.4-1.2-3.8-2c-2.8-1.6-6-3.4-8.2-3.8c-0.7-0.1-1.6-0.3-2.7-0.5
		c-4.2-0.9-10.5-2.1-14.6-1.5c-0.6,0.1-1.2,0.2-1.7,0.3c-4.8,0.7-9.8,1.4-12.4,3.6c-2.9,2.4-8.2,10.4-9.9,13.1
		c-1.5,2.4-1.9,6.8-2.2,9.3c0,0.5-0.1,0.9-0.1,1.2c-0.1,1-0.3,2.3-0.6,3.8c-0.3,1.6-0.5,3.2-0.7,4.4c-0.2,1.6-0.1,3.5-0.1,5.1
		c0,0.7,0.1,1.4,0.1,2c0,0.5,0,0.9,0.1,1.4c-0.5,0-1,0.2-1.5,0.6c-0.3,0.2-0.5,0.5-0.7,0.9c-0.2,0.5-0.4,1.2-0.5,1.9
		c-0.1,0.5-0.2,1-0.3,1.3c0,0.1-0.1,0.3-0.1,0.4c-0.4,1.2-0.8,2.5-0.4,4.1c0.2,0.6,0.4,1.3,0.7,2.1c0.4,1.1,0.9,2.4,0.9,3
		c-0.1,1-0.1,2.5,0.1,3.7c0.1,0.5,0.2,1,0.3,1.4c0.4,1.4,0.6,2.8,0.5,3.6c-0.1,1.3,0.6,3.2,1.8,3.9c0.5,0.3,1,0.6,1.3,0.8
		c-0.4,6.4-0.2,7.6-0.1,8c0.4,1.8,2,4.7,3.5,7l-0.3,0.4c0,0,0,0.1-0.1,0.1c0,0-0.3,0.6-0.6,1.2c-0.5,0.3-1.5,0.8-2.2,1.5
		c-0.3,0.3-0.8,0.9-1.4,1.7c-1.1,1.3-2.7,3.3-3.5,4c-0.7,0.5-1.6,1.4-2.7,2.4c-1.3,1.2-2.7,2.6-3.7,3.2c-1.4,0.9-2.9,1.6-3.3,1.8
		c-0.6,0.1-2.5,0.3-3.6,0.9c-0.4,0.2-4.8,2-8.6,3.6c-4.7,2-9.6,4-11.3,4.7C13.2,124.8,13.6,125.3,13.9,125.9z M96.1,142.9
		c-0.8,0.8-1.6,2.6-1.9,5c-0.1,1.6-0.1,4.7,0,6.6c0,0.6,0,1,0,1.3c0,0.4,0,0.8,0.1,1.1c-0.2,0-0.5-0.1-0.7-0.1
		c-1.2-1.4-2.4-2.8-3.5-3.9c-3.3-3.6-7.1-6.7-10.4-9.6l-0.3-0.2l-0.2-1.8c1.7-1.4,2.9-2.5,3.5-2.8c1-0.7,2.2-2.1,2.7-2.6
		c0.3-0.1,0.8-0.1,1.2-0.2c0.4,0,0.7,0,1.4,0.4c0.7,0.4,6,4,7.2,4.8c0.1,0.1,0.4,0.3,1,0.9C96.2,142.2,96.2,142.8,96.1,142.9z
		 M113.5,83c-0.1,0.3-0.3,0.5-0.4,0.8c-0.3,0.4-0.6,0.9-0.7,1.7c-0.1,0.3-0.1,0.6-0.1,0.9c-0.1,0.6-0.2,1.9-0.5,2.1l0,0
		c-0.3,0.3-1,0.8-1.2,0.8c-0.2,0-0.4-0.2-0.6-0.4c0.2-1,0.4-2.3,0.8-3.7c0.1,0.1,0.3,0.2,0.5,0.2c0.2,0,0.4-0.1,0.6-0.3
		c0,0,0.3-0.4,0.7-1c0.2-0.2,0.3-0.5,0.4-0.7c0.2-0.3,0.3-0.6,0.5-0.9c0,0,0,0,0,0c0-0.1,0.2-0.3,0.4-0.7
		C113.7,82.4,113.6,82.8,113.5,83z M113.6,76.3l0,0.2c0,0.3-0.2,1.3-0.4,1.9c-0.1,0.5-0.3,1.1-0.3,1.4c-0.1,0.5-0.6,1.4-0.9,1.9
		c-0.3,0.4-0.5,0.7-0.6,1.1c-0.1,0.2-0.2,0.4-0.3,0.5c0.1-0.4,0.2-0.8,0.3-1.2c0.5-1.8,0.9-3.4,1-4.3c0.3-1.5,0.7-2.9,0.9-3.6
		c0-0.1,0.1-0.2,0.1-0.3c0,0,0,0,0-0.1C113.4,74.6,113.5,75.5,113.6,76.3z M116.1,74.3c-0.2,0.8-0.6,1.8-1,2.7
		c0,0.1-0.1,0.1-0.1,0.2c0.1-0.3,0.1-0.6,0.1-0.8l0-0.3c-0.1-0.6-0.2-1.9,0-2.5c0.3-0.8,0.5-1.2,0.7-1.5c0.1-0.2,0.3-0.3,0.4-0.4
		c0,0.3,0,0.6,0,0.9C116.2,73.2,116.3,73.8,116.1,74.3z M116.6,69.9c-0.1,0-0.1,0-0.2,0c-0.1,0-0.7,0.1-1.3,0.6
		c0.2-0.4,0.4-0.8,0.6-1.2c0-0.1,0.1-0.1,0.1-0.2c0.3-0.2,0.7-0.5,1-0.8C116.9,68.8,116.8,69.5,116.6,69.9z M50.3,48.7
		c0-0.3,0-0.6,0.1-0.9c0.1-1.2,0.4-2.7,0.7-4.3c0-0.1,0-0.3,0.1-0.4c-0.2-0.2,0-0.5,0.1-0.7c0-0.3,0.1-0.5,0.1-0.7
		c0-0.2,0-0.3,0.1-0.5c0.1-0.6,0.2-1.1,0.2-1.5c0,0,0-0.1,0-0.1c-0.2-0.5,0-0.8,0.1-1c0-0.1,0-0.1,0-0.2c0-0.3,0.1-0.6,0.1-1
		c-0.1,0-0.1-0.1-0.1-0.2c0-0.2,0.1-0.3,0.1-0.4c0.1-0.6,0.1-1.2,0.2-1.8c-0.1,0.1-0.2,0.1-0.2,0.1c0-0.1,0.1-0.2,0.2-0.4
		c0-0.2,0.1-0.4,0.1-0.6c-0.1,0-0.2,0-0.1-0.1c0.1-0.1,0.1-0.2,0.2-0.4c0-0.2,0.1-0.5,0.1-0.7c-0.1,0-0.2,0-0.1-0.1
		c0.1-0.1,0.2-0.3,0.3-0.4c0.2-0.8,0.5-1.6,0.8-2.2l-0.1-0.1l0.3-0.4c0.2-0.3,0.4-0.7,0.7-1.1l-0.3,0.1c0,0,0.5-0.6,0.8-0.8
		c0.2-0.3,0.3-0.5,0.5-0.8l0-0.2l0.2-0.1c0.1-0.2,0.2-0.3,0.4-0.5c-0.1,0-0.1,0-0.1,0c0-0.1,0.1-0.4,0.5-0.6
		c0.1-0.2,0.2-0.3,0.4-0.5c0-0.1,0-0.1,0-0.1l0.2-0.1c0-0.1,0.1-0.1,0.1-0.2c0-0.1,0-0.3,0.1-0.5c0,0,0.2-0.1,0.3-0.2
		c0.1-0.2,0.3-0.4,0.4-0.6c-0.2,0.1-0.3,0.1-0.1,0c0.1-0.1,0.2-0.1,0.2-0.2c0.4-0.5,0.7-1,1.1-1.5c-0.1,0-0.2,0-0.1-0.1
		c0.1-0.2,0.3-0.5,0.6-0.6c0,0,0,0,0,0c0.1-0.1,0.2-0.2,0.3-0.4c0,0,0-0.1,0-0.1c0-0.1,0.1-0.1,0.2-0.2c0.1-0.1,0.2-0.2,0.2-0.3
		c0,0-0.1,0-0.1,0c0-0.1,0.1-0.2,0.2-0.2c0.2-0.2,0.3-0.4,0.4-0.6c0-0.1,0.1-0.2,0.1-0.2c0,0,0.1,0,0.1,0c0.8-0.9,1.5-1.6,2-2.1
		c2.3-1.9,7.2-2.6,11.5-3.2c0.6-0.1,1.2-0.2,1.8-0.3c3.7-0.6,9.9,0.7,13.9,1.5c1.1,0.2,2.1,0.4,2.8,0.5c1.9,0.3,5.1,2.1,7.6,3.5
		c0.4,0.2,0.8,0.4,1.1,0.6c0,0,0,0,0,0c0.4,0-0.3-0.3-0.9-0.9c-0.5-0.6,0.3-0.1,0.7,0s1,0.3,1.4,0.9c0.4,0.5,0.5,0.5,0.6,0.6
		c0.3,0.2,0.3,0.4,0.7,0.8c0,0,0,0,0,0c0.1,0,0.1,0.1,0.2,0.1c2,0.9,3.4,4.7,3.8,6.1c0,0.2,0.1,0.3,0.3,0.4c0,0,2.8,2.7,4.8,4.9
		c0,0,0,0,0,0l0.2,0.2c0,0,0,0,0,0c0.2,0.2,0.3,0.4,0.5,0.5c0,0,0.1,0,0.1,0c0,0,0,0.1,0,0.1c0.1,0.1,0.1,0.1,0.2,0.2
		c0.1,0,0.3,0,0.3,0.3c0,0.1,0,0.1,0,0.2c0.6,0.8,1.1,2.3,1.5,3.9c0.2,0.3,0.3,0.6,0.2,0.7c0,0-0.1,0-0.1,0c0.1,0.5,0.2,0.9,0.3,1.4
		c0.1,0.2,0.2,0.3,0.2,0.5c0,0.4,0.1,0.4,0.1,0.4s0,0-0.1-0.1c0.1,0.5,0.2,1.1,0.2,1.5c0.1,0.6,0.2,1.1,0.2,1.5
		c0.4,2,0.9,6.5,1.1,9.6c0.2,2.8-1.6,9.1-1.6,9.2c0,0,0,0.1,0,0.1c0,0-0.1,0.7-0.5,1.6c0,0,0,0,0,0c-0.2,0.6-0.5,1.1-0.8,1.5
		c-0.3,0.4-0.8,1.2-1.4,2.4c-0.4,0.7-0.7,1.4-1.1,2.1c0-0.8,0-1.6,0-2.1c0.1-1.2,0.3-2.9,0.6-4.4c0.2-1.1-0.4-2.4-1-3.7
		c-0.3-0.7-0.6-1.3-0.7-1.8c-0.4-1.6-0.6-4.6-0.4-5.4c0.3-0.9,0.4-3,0.6-5.5c0-0.4,0-0.7,0.1-1c0.1-1.9-2.1-7-2.3-7.5
		c-0.1-0.1-0.1-0.2-0.3-0.3c-0.2-0.1-1.1-0.7-1.9-0.6c0,0,0,0,0,0c0,0,0,0,0,0c-0.2,0-1.1-0.2-2.1-0.5c-0.3-0.1-0.6-0.2-0.9-0.3
		c0,0-0.1,0-0.2,0c-0.4,0-2.2-0.3-3.1,0.1c-0.3,0.1-1.3-0.1-1.9-0.2c-0.9-0.1-1.7-0.3-2.3-0.1c-0.2,0-0.3,0.1-0.5,0.1
		c-0.7,0.2-1.7,0.4-2.2,0.4c-0.3,0-1.3-0.7-2.2-1.5c-0.2-0.2-0.5-0.2-0.8-0.1c-0.8,0.3-1.8,0.7-2.2,1.1c-0.2,0.1-0.8,0.2-3.1,0.5
		l0,0c-0.2-0.1-0.7-0.6-0.9-1.1c-0.1-0.1-0.1-0.2-0.2-0.2c-2.1-1.3-2.3-1.3-2.4-1.4c-0.4-0.1-0.8,0.1-2,0.6
		c-0.3,0.1-0.6,0.3-0.8,0.4c-0.2,0-0.7-0.2-1.1-0.3c-1.1-0.3-2-0.5-2.6-0.4c-0.4,0.1-1.8-0.6-2.9-1.5c-1.1-0.8-4.5-0.8-5.4-0.7
		c-0.7,0.1-2.2-0.4-2.9-0.7c-0.4-0.1-0.8,0-0.9,0.4c0,0-0.8,1.6-1.3,2.4c-0.4,0.8-1.9,3.6-2,3.8c-0.1,0.2-0.1,0.4,0,0.6
		c0.3,0.7,0.6,1.6,0.6,1.8c0,0.1-0.1,0.6-0.2,1c-0.1,0.4-0.2,0.8-0.2,1.2c-0.1,0.6-0.1,1.6,0,2.6c0,0.7,0,1.4,0,1.8
		c0,0.6-0.8,2.2-1.4,3.2c-0.4,0.3-1.2,0.8-1.7,0.9c-1.3,0.2-1.6,2-1.9,3.6c0,0.2-0.1,0.4-0.1,0.6c-0.2,1.2-1.1,3.7-1.6,4.6
		c-0.3,0.5-0.7,1.6-1,2.6L53,62.8l-2-5.1c0,0-0.1-0.2-0.2-0.5c0,0,0,0,0,0c-0.1-0.5-0.4-1.4-0.4-2.5c0-0.4,0-0.9,0-1.4l-0.1-0.1
		c0,0,0,0,0.1-0.1c0-0.1,0-0.3,0-0.4c0-0.7-0.1-1.5-0.1-2.2c0-0.2,0-0.3,0-0.3c0-0.1,0-0.2,0-0.4C50.2,49.5,50.1,49.2,50.3,48.7z
		 M48,65.9c-0.1,0.3-0.2,0.7-0.3,1.3c-0.1-0.2-0.1-0.3-0.2-0.5c-0.3-0.7-0.5-1.3-0.6-1.8c-0.3-1.1,0-2,0.4-3.1
		c0-0.1,0.1-0.3,0.1-0.4c0.1-0.4,0.2-0.8,0.3-1.2c0,0.1,0.1,0.2,0.1,0.3c0.1,0.2,0.2,0.4,0.4,0.7c0,0.1,0,0.2,0,0.3
		C48.3,62.9,48.2,65.3,48,65.9z M49,58c0.1,0.3,0.2,0.5,0.2,0.5l0.9,2.3c0-0.1-0.1-0.1-0.1-0.2c-0.1-0.2-0.3-0.3-0.5-0.4
		c-0.1-0.2-0.2-0.4-0.3-0.5c-0.2-0.5-0.6-1.2-0.9-1.6C48.6,57.9,48.9,57.9,49,58z M51.5,73.8c0,0-0.1-0.1-0.1-0.1
		c-0.4-0.7-0.5-2.2-0.2-3.3c0-0.2,0.2-0.4,0.3-0.7C51.5,70.9,51.5,72.4,51.5,73.8z M51.5,67.2C51.5,67.2,51.5,67.2,51.5,67.2
		C51.5,67.2,51.5,67.2,51.5,67.2c0,0.1,0,0.1,0,0.1c0,0,0,0,0,0.1c0,0,0,0,0,0c-0.6,0.6-1.5,1.6-1.7,2.6c-0.3,1.3-0.2,3.1,0.4,4.3
		c0.3,0.7,0.8,1.1,1.3,1.3c0,0.2,0,0.4-0.1,0.6c-0.1,1.4-0.3,3.4-0.5,5.5c-0.2-0.1-0.3-0.2-0.5-0.3c-0.5-0.3-0.9-1.4-0.9-2.2
		c0.1-1.4-0.4-3.6-0.6-4.2c-0.1-0.3-0.1-0.7-0.2-1.1c0-0.4-0.1-0.7-0.1-1.1c0.1-1,0.1-2.1,0.2-2.4c0.1-0.7,0.5-3.2,0.8-4.1
		c0.1-0.5,0.2-1.6,0.3-2.7c0.2,0.2,0.3,0.5,0.3,0.6c0.3,0.7,1.1,2.1,1.5,2.8L51.5,67.2z M52.4,91.4c-0.1-0.5-0.2-2.3,0.2-8
		c0.2-2.7,0.4-5.3,0.6-7c0-0.5,0.1-1,0.1-1.3c0.2-2.4,0.1-6.1,0-7.4l0.1-0.4c0,0,0,0,0,0L54,66c0.1-0.2,0.1-0.4,0-0.6
		c0.4-1,1.2-3.2,1.6-4c0.5-1,1.4-3.7,1.7-5c0-0.2,0.1-0.4,0.1-0.6c0.1-0.6,0.4-2.1,0.7-2.4c1.1-0.2,2.3-1.2,2.5-1.3
		c0.1-0.1,0.1-0.1,0.2-0.2c0.3-0.5,1.5-2.8,1.6-4c0-0.5,0-1.2,0-2c0-0.9-0.1-1.9,0-2.4c0-0.4,0.1-0.7,0.2-1.1
		c0.1-0.6,0.2-1.1,0.2-1.5c-0.1-0.4-0.4-1.3-0.6-1.8c0.4-0.8,1.4-2.8,1.8-3.4c0.3-0.5,0.7-1.3,1-1.8c0.8,0.3,2.1,0.6,3,0.5
		c1.2-0.1,3.9,0.1,4.4,0.4c0.6,0.5,2.8,2,4.1,1.8c0.3-0.1,1.3,0.2,2,0.4c1,0.3,1.5,0.4,1.9,0.3c0.2-0.1,0.6-0.2,1.1-0.5
		c0.3-0.1,0.8-0.4,1-0.5c0.3,0.2,1.1,0.6,1.8,1c0.5,0.7,1.3,1.8,2.2,1.7l0.1,0c3.2-0.3,3.7-0.6,4-0.8c0.1-0.1,0.7-0.4,1.4-0.6
		c0.7,0.6,1.9,1.5,2.7,1.5c0.8,0.1,1.8-0.2,2.7-0.4c0.2,0,0.3-0.1,0.5-0.1c0.2-0.1,1.1,0.1,1.7,0.2c1.3,0.2,2.2,0.3,2.7,0.1
		c0.3-0.1,1.4-0.1,2.3,0c1.3,0.5,3,1,3.6,0.9c0.1,0,0.4,0.1,0.7,0.3c0.9,2.1,2.2,5.5,2.1,6.6c0,0.3,0,0.7-0.1,1
		c-0.1,1.6-0.3,4.4-0.5,5.1c-0.4,1.3,0,4.8,0.4,6.2c0.2,0.6,0.5,1.3,0.8,2.1c0.4,1,1,2.2,0.9,2.8c-0.3,1.5-0.5,3.3-0.6,4.6
		c-0.1,1.2,0.1,3.9,0.1,5.1c0,0.1-0.1,0.2-0.1,0.3c-0.2,0.7-0.6,2.2-0.9,3.8c-0.1,0.8-0.6,2.5-1,4.2c-0.7,2.7-1.4,5.7-1.7,7.5
		c-0.2,1.8-0.4,2.6-0.5,3.6c-0.1,0.6-0.2,1.3-0.4,2.3c-0.2,1.4-0.5,2-1.2,3.1c-0.4,0.7-0.8,1.5-1.4,2.7c-0.6,1.3-1.9,2.7-4,4.5
		c-1.1,0.9-2.3,1.8-3.4,2.6c-0.8,0.6-1.6,1.2-2.3,1.7c-2.3,1.8-4.5,2.5-6.3,3.1c-0.8,0.3-1.5,0.5-2.1,0.8c-0.8,0.4-1.3,0.4-2.5,0.2
		c-0.8-0.1-1.8-0.2-3.4-0.3c-3.7-0.1-8.4-1.2-10.3-2.1c-1.7-0.8-10.1-8.6-12.2-10.8c-0.4-0.4-0.8-0.9-1.2-1.4
		c-0.2-0.3-0.4-0.6-0.7-0.9C54.2,95.7,52.7,92.8,52.4,91.4z M99.4,108.6c-0.4,1.4-0.8,3-1.1,4.1c0,0.1-0.1,0.2-0.1,0.3
		c-0.1,0.4-0.2,0.8-0.3,1.3c-0.5,1.9-1.1,4-1.6,4.8c-0.3,0.6-0.9,1.3-1.4,2c-0.5,0.6-1,1.2-1.3,1.8c-0.2,0.3-0.4,0.6-0.6,0.9
		c-0.7,1.1-1.6,2.4-1.9,3.3c-0.1,0.2-0.1,0.3-0.2,0.5c-0.4,0.9-0.9,2.3-1.6,2.8c-0.8,0.5-1.8,0.8-2.2,0.8c-0.8-0.5-5-3.1-6.2-4.2
		c-1.4-1.3-4.4-3.6-6-4.5c-1.4-0.8-4.5-3-7.6-5.4c-2.7-2.1-5.5-5-7-7.3c-1.5-2.3-2.6-5.2-2.8-6.2c0-0.2-0.1-0.4-0.1-0.7
		c2.8,2.8,10,9.6,12,10.5c2.1,1,7,2.1,11,2.3c1.4,0,2.4,0.2,3.2,0.3c0.6,0.1,1.1,0.1,1.5,0.1c0.7,0,1.3-0.1,2.1-0.5
		c0.5-0.2,1.1-0.5,1.9-0.7c1.8-0.6,4.4-1.5,6.9-3.4c0.7-0.5,1.5-1.1,2.3-1.7C98.6,109.2,99,108.9,99.4,108.6z M53.7,103.6
		c0.2-0.3,0.6-1.1,0.9-1.8c0.2-0.3,0.3-0.6,0.5-0.9c0.1,0.9,0.3,2.3,0.4,3c0.2,1,1.3,4.1,3.1,6.8c1.6,2.5,4.6,5.6,7.5,7.8
		c2.7,2.1,6.1,4.6,7.8,5.6c1.5,0.9,4.4,3.1,5.7,4.3c1.4,1.3,6.3,4.4,6.8,4.6c0.2,0.1,0.4,0.1,0.6,0.1c1,0,2.5-0.7,3.3-1.1
		c1.2-0.8,1.9-2.5,2.4-3.7c0.1-0.2,0.1-0.4,0.2-0.5c0.3-0.7,1.1-2,1.8-3c0.2-0.3,0.4-0.7,0.6-0.9c0.3-0.5,0.7-1,1.2-1.6
		c0.6-0.7,1.2-1.5,1.6-2.2c0.4-0.7,0.7-1.7,1.1-2.9c0.1,1.1,0.2,2.2,0.3,3.2c0.2,1.3,0.5,2.5,0.9,3.7c0.4,1.4,0.8,2.8,0.9,4.1
		c0.1,1.3,0.5,3.7,1,6.2c0.5,2.6,1,5.3,1.1,6.7c0,1,0.2,3.3,0.4,5.6c-0.3-0.1-0.5-0.3-0.8-0.5c-0.4-0.4-1.4-1.5-2.4-2.6
		c-0.9-1-1.8-2-2.6-2.9c0,0,0,0,0,0c0,0,0,0,0,0c0,0,0,0,0,0c-0.7-0.7-1.2-1.2-1.5-1.4c-1.2-0.8-6.5-4.4-7.3-4.8
		c-0.9-0.6-1.7-0.8-2.6-0.7c-0.7,0.1-1.7,0.3-1.7,0.3c-0.2,0-0.4,0.2-0.5,0.3c-0.4,0.5-1.7,1.9-2.6,2.6c-0.8,0.6-3.1,2.5-4,3.3
		c-0.3,0.3-0.6,0.5-0.8,0.6c-1.2-1-2.1-1.8-2.9-2.6c-4.4-4.2-14.8-12.6-15.4-13.1c-0.1-0.1-0.1-0.1-0.1-0.1l-0.1,0.2
		c-0.2-0.3-0.3-0.6-0.3-0.6c-0.2-0.5-2.8-7.4-3.5-9.4c-0.7-2-1.1-4.4-1.4-6.6C52.8,106.9,53.5,104.1,53.7,103.6z M37.3,116.7
		c0.6-0.3,2-1,3.4-1.9c1.1-0.7,2.5-2.1,3.9-3.4c1-0.9,1.9-1.8,2.5-2.2c1.1-0.8,2.6-2.7,3.9-4.3c0.2-0.2,0.4-0.5,0.6-0.7
		c-0.3,1.3-0.6,3.2-0.3,4.6c0.3,2.2,0.8,4.8,1.5,6.9c0.7,2.1,3.4,9.2,3.5,9.5c0,0,0,0,0,0.1c0,0,0.1,0.2,0.3,0.6l-1.2,1.4
		c-0.2,0.2-4,4.8-5.4,6.8c-1.3,1.9-4,4.6-5.9,5.9c-1.5,1-2.4,2.1-3,2.8c-1-0.3-1.9-0.8-2.2-0.9c-0.5-0.4-6-4.1-7.9-5.3
		c0.2-0.7,0.7-2,1.4-3.5c0.5-1.2,1-3.4,1.6-5.9c0.5-2.1,1-4.4,1.5-5.6C36.1,119.5,36.9,117.5,37.3,116.7z"/>
	<path class="st7" d="M52.9,42.1c0.7-0.4,0.7-0.7,0.5-1c-0.2-0.3,0.3-0.7,1.6-1.8c0.4-0.3,0.6-0.5,0.7-1.2s0-0.4,0.6-0.4
		s-0.6-1-0.6-1c0.2-0.3,0-0.7,0-0.7s0.5-1.2,0.9-1.7s0.5-1.4,0.5-1.4s-1.5-0.1-1.3-0.4s1.4-0.6,1.4-1.1s-1.4,0-1.4,0
		s0.4-0.4,1.2-0.9s-0.2-0.9,0.1-1.9s-1.3,0-1.3,0s0.6-0.4,1.1-0.6s1.3-1,1.3-1l-0.5-1.2c0,0,1.5-0.2,1.4-0.7s-0.5-0.5,0-0.5
		s2.9,0.5,2.9,0.5s-1-0.6-1.5-1.4h1.2c0,0,0.8-1,0.9-1.6s-0.9-1-0.9-1s1.2,0,1.6,0s-0.5-0.8-0.8-1l-0.8,0L61.5,20
		c0,0,0.5-0.1,0.7-0.4c0.2-0.3-0.4,0-0.6,0c0,0,0.4-0.2,0.6-0.3c0.2-0.1-0.7,0-0.7,0s-0.2,0.1-0.4,0.2c0,0-0.1,0-0.1,0
		c-0.1,0-0.1,0.1-0.1,0.2c0,0.2,0,0.5,0,0.5s-0.2,0-0.4,0c-0.1,0-0.2,0.1-0.2,0.2c0,0,0,0,0.1,0c0.2,0.1,0.9,0.3,0.5,0.2
		c-0.1,0-0.5,0-0.7,0.1c-0.1,0-0.2,0.1-0.2,0.2c0,0,0,0.1,0,0.1c0,0.2,0,0.3-0.3,0.4c0,0,0,0,0,0c-0.3,0.1-0.5,0.4-0.6,0.6
		c0,0.1,0,0.1,0.1,0.1c0.2,0,0.4-0.1,0.6-0.1c0.3,0,0.6,0.2,0.3,0.3s-0.4,0.3-0.8,0.6C58.9,23,58.4,23,58.4,23s-0.2,0.3-0.5,0.5
		c-0.1,0.1-0.1,0.1-0.2,0.2c-0.2,0.2-0.1,0.1,0.1,0c0.2-0.1,0.3-0.2,0.3-0.2s0.5-0.3,0.7-0.1s-0.3,0.3-0.5,0.5
		c-0.1,0.1-0.6,0.3-0.9,0.5c-0.1,0.1-0.3,0.1-0.3,0.2c-0.1,0.1-0.1,0.3-0.1,0.5c0,0.1,0,0.1,0,0.1l-0.1,0l-0.2,0.1c0,0,0,0.1,0,0.1
		c0,0.2,0,0.4-0.3,0.5c0,0,0,0-0.1,0c-0.4,0.2-0.5,0.5-0.5,0.6c0,0,0,0,0.1,0c0.3,0,0.9-0.2,0.9-0.2l-0.4,0.3L55.6,27l-0.2,0.1
		l0,0.2l0,0.3c0,0-0.2,0.3-0.4,0.4c0,0,0,0-0.1,0.1c-0.3,0.2-0.8,0.8-0.8,0.8l0.3-0.1l0.4-0.1l-0.6,0.7l-0.5,0.5l-0.3,0.4l0.1,0.1
		l0.2,0.1l0.9-0.7l-0.3,0.6l-0.5,0.4l-0.4,0.5l0.3,0.4l-0.9,0.6c0,0,0,0.1-0.1,0.3c-0.1,0.1-0.2,0.3-0.3,0.4c-0.1,0.1,0,0.1,0.1,0.1
		c0.2,0,0.6-0.1,0.6-0.1s-0.2,0.2-0.4,0.4c-0.1,0.1-0.2,0.2-0.3,0.4c-0.1,0.1-0.1,0.3-0.2,0.4c-0.1,0.1,0,0.1,0.1,0.1
		c0.1,0,0.2,0,0.2,0.1c0,0.1-0.2,0.3-0.3,0.4C52.1,34.9,52,35,52,35.1c0,0,0.1,0,0.2-0.1c0.2-0.1,0.5-0.3,0.8-0.5
		c0.4-0.4,0,1.2-0.2,1.5c-0.2,0.2-0.6,0.4-0.8,0.8c-0.1,0.1-0.1,0.3-0.1,0.4c0,0.2,0,0.2,0.1,0.2c0.2,0,0.6-0.4,0.8-0.6
		c0.3-0.3,0.4,0.4,0.2,0.7c-0.2,0.3-1.1,1-1.1,1s0,0-0.1,0.1c-0.1,0.2-0.3,0.5-0.1,1c0.1,0.2,0.2,0.3,0.3,0.5c0,0-0.4,0.8-0.5,1
		c0,0,0,0,0,0c-0.1,0.1-0.1,0.3-0.1,0.5c0,0.3,0.1,0.5,0.1,0.5s-0.1,0.1-0.2,0.2c-0.2,0.2-0.3,0.5-0.1,0.7c0,0,0.1,0,0.1,0.1
		C51.8,43.5,51.9,42.7,52.9,42.1z"/>
	<path class="st7" d="M112.9,32.7c-0.4-0.8-0.7-0.5-0.7,0s0.5,1.3-0.3,0.8c-0.8-0.5-0.8-0.4-0.3,0.2s-0.5,0.5-0.5,0.5l0.6,0.8
		l1.2,1.3c0,0,0.7,0.5-0.8-0.3c0,0,0.1,1,0.4,2c0.3,1-1.2-0.1-1.2-0.1l-0.6,0c0,0,0,0.4,1.5,1.3c1.5,0.9-0.2,0.4-1.5-0.2
		s0,0.7,1.1,1.5c1.1,0.9-0.9,0.3-0.9,0.3l0.2,0.3l-0.2,0.2c0,0,0.6,0.8,2,1.7c1.4,0.9,0,0.2,0,0.2s0.7,0.6,0.5,0.8
		c-0.2,0.2-0.6-0.3-1.2-0.4c-0.6,0,0.2,0.8,0.2,0.8l0.3,0.5c0,0,0,0,0.6,0.9c0.6,0.9-0.7-0.5-0.7,0c-0.1,0.4,0.5,0.9,0.1,0.9
		c-0.4,0.1-0.4,0.6,0.7,1.9c1.1,1.3-0.8-0.2-0.3,0.2c0.5,0.4,0.3,0.5,0.8,1.3c0.5,0.8-1.4-0.3-1.3,0.3c0.1,0.5,1.9,1.6,1.9,1.6
		l-0.9,0.9c0,0,0.9,1.4,0.3,1s-1.4-0.8-0.3,0.6c1.2,1.3-0.2,0.3-1-0.4c-0.8-0.7-0.1,0.3,0.4,1.3s0.5,1-0.1,0.5c-0.6-0.4-1-1.1-1-1.1
		c-0.1-0.1,1,1.9,1,1.9l-0.4,0.5l-0.6-0.1l0.3,0.9l1,1.1l0.5,1.7l0.8-1.2l0.8,0.1l0.1-2.2l0.2,1h0.6v-0.9c0,0,0.3,0.3,0.3-0.3
		c0-0.6-0.2-1,0.4-0.2c0.6,0.8-0.2-1.6-0.2-1.6l1.1-0.3c0,0-0.9-0.9-0.6-0.8c0.3,0.1-0.4-1.1-0.4-1.1l0.4-0.4c0,0-0.1-0.4-0.4-0.9
		c-0.3-0.5-0.4-1.2-0.4-1.2s0.4-0.3,0.3-0.6s-0.4-1.4-0.4-1.4s0.3-0.4,0.6,0c0.3,0.3-0.3-1.2-0.5-1.5s-0.3-0.7-0.6-1.2
		c-0.3-0.5,0.5,0,0.5,0h0.8c0,0,0.2-0.1-0.2-0.5s-1-1.5-1-1.5s-0.1-0.1-0.6-0.9s-0.3-0.7,0.2-0.7c0.4,0,0.9,1.1,1.2,1.6
		c0.3,0.5,0.4,0.2,0.3-0.2s-1.1-1.6-1.1-1.6s-0.5-1.3-0.6-1.6s0.5,0.2,0.6,0.3c0.1,0.1,0.7,0.5,1,0.7c0.1,0,0.1,0.1,0.1,0.1
		s0,0-0.1-0.4c0-0.1-0.1-0.3-0.2-0.5c-0.2-0.3-0.4-0.5-0.5-0.7c-0.3-0.3-0.7-1-0.7-1s0.3,0,0.7,0.1c0.3,0.1,0.3,0.2,0.3,0.2
		c0,0,0,0,0.1,0c0.1-0.1-0.1-0.4-0.2-0.7c-0.1-0.2-0.2-0.3-0.2-0.3s-0.5-0.5-0.7-0.5c-0.2,0,0.4-0.7,0.4-0.7l-0.5-0.8
		c0,0-0.7-0.3-0.7-0.4c0-0.1,0.2-0.4,0-0.8c-0.2-0.3,0.2-0.2,0.2-0.5c0,0,0-0.1,0-0.2c-0.1-0.2-0.2-0.3-0.3-0.3
		c-0.1,0-0.2,0-0.2-0.2c0,0,0,0,0-0.1c0,0,0,0-0.1,0c-0.2,0.1-0.7,0.2-0.5-0.5c0,0,0,0,0,0l-0.2-0.2c0,0,0,0,0,0
		C113.5,33,113.3,33.4,112.9,32.7z"/>
	<path class="st7" d="M101.9,20.6c-0.4,0.2-0.2,0.4,0.1,1.1s0.7,1.2,0.7,1.2l0.5,1.4c-0.3,0.1-0.5,0-0.5-0.1c0,0,0.1,0.1,0.2,0.3
		c0,0-0.3-0.7,0.3,0.5c0.6,1.2,0.6,1.2,0.6,1.2c-0.6,1.1,0.1,1-0.4,1.3c-0.5,0.3-0.2-0.2-0.2-0.2l-0.8-0.1L102,27l-0.2,1.9l-0.2,1.6
		c0,0,0,1,0,1.6c0,0.4-0.1,0.6-0.3,0c-0.5-1.5-0.4-3.6-0.4-3.6s0.3-0.6,0-1.8c-0.2-0.6-0.3-0.9-0.3-1.1c0.1,0.3,0.3,1.2,0,1
		c-0.4-0.2-0.4-1-0.4-1h-0.2c0,0,0.7,4.4,0,2.5c-0.7-1.9-0.7-2.3-0.9-3s-0.5-2-0.5-2s-1-1.7-0.7-0.9s0.6,4.3,0.4,4.1
		C98,26.3,97.8,25,97.8,25s-0.1-1.2-0.6-2c-0.4-0.7-0.6,0.5-0.6,0.5l-0.7-0.1v1.4l-0.3,2c-0.6-1-0.8-1.1-0.9-1.2
		c0,0.5-0.1,0.9-0.5,0.6c-0.8-0.6-0.6-2.5-0.9-1.8c-0.2,0.7,0.1,2.4-0.2,1.5c-0.3-0.9-0.1-1.1-0.6-1.6c-0.4-0.5,0-1-0.3-1.5
		s-0.6-1.2-0.6-1.2l0.2,2.1c0,0-1.1-1.4-0.7-0.1c0.4,1.3,0.9,1.3,0.4,1.3c-0.4,0-0.5,0.2-0.5,0.2s0.1-2.2-0.4-1.9s0,0.8,0,0.8
		c-0.8,0.8-1.1-0.2-1.1-0.2s0.7,2.9,0.2,2.1c-0.4-0.7-0.7,0.5-0.7,0.5l-0.4,2.1l-0.6,1.5c-0.1-1.1,0.2-1.7,0.3-3.6
		c0.1-1.9,0.5-3.6,0.1-3c-0.1,0.2-0.2,0.3-0.3,0.4c0-0.4,0-0.5-0.2-0.2c-0.7,1-0.5,1.1-0.8,0.6S87,25.7,87,25.7l-0.4,0.5v2.6l-0.3,2
		c0,0-0.2,1.1-0.6,1.8c-0.4,0.8-0.7,2.2-0.7,2.2s1.2-1.6,1.2-2.6c0-1,0.4-1.9,0.4,0c0,1.9,0.3,0,0.6-0.2c0.3-0.2,0.4,0.6,0.4,0.6
		s-0.5,2.5-0.5,2.6c0,0.1,0.6-2.3,0.6-2.3s0.5-1.2,0.8-2.2c0.2-1,1-2.9,0.7-1.1s-0.4,2.6-0.4,2.6s-1.1,2.9-0.8,3
		c0.3,0.1,1-1.7,1-1.7s0-0.2,0.6-1.6c0.6-1.4,0.6-1.4,0.6-1.4c0,2,0,2.3,0,2.3l0.6,0.5c0,0,0.5-2.6,0.5-1.7c0,0.9,0.2,0.2,0.3,1.1
		c0,0.9,0.4,0.9,0.7,0c0.2-0.9,0.4-1.5,0.5-0.3c0.1,1.2,0.1,2.2,0.1,2.2s-0.1,1,0.6-0.7c0.8-1.8,1-1.6,1.2-2.2s0.9-2.8,0.4-0.7
		s0.1,2.2-0.4,3.2S94.1,36,94.1,36h0.3c0,0,1.1-2,1-1s0.6,0.4,0.6,0.4s0.2-3.4,0.2-2s0.2,3,0.4,2.2c0.2-0.8,0.4-2.4,0.3-1.3
		c0,1.1,0.5,1.7,0.5,1.7l0-2.1c0,0,0.6-0.2,0.6,0.6c0,0.8,0,2.3,0.4,1.2c0.4-1.1,0.9-1.9,0.9-1.9l0.1,2l0.1,0.8c0,0,0.5-1,0.7-1.8
		s0-2.2,0.3-1.8c0.3,0.4,0.9-1,0.6,0.2S101,36,101,36c0.1,0.2,0.1-1.1,0.3-1.6c0.2-0.4,0.2-0.4,0.2-0.4s0.6-1.1,0.6-0.7
		c0,0.1,0,0.1,0,0c0,0.6,0,1.2,0.1,0.8c0.2-0.7,0.2-1.9,0.2-2.2s-0.1-1.8,0.1-1.7s0.2,0.1,0.3,1.6c0.1,1.5,0,3,0,3l0.2,1.7l0.4-2.5
		l0.3,0.1c0,0,0.1,2,0.3,1.2c0.2-0.9,0.5,0.3,0.5,0.3s0.5-0.6,0.4-0.8c0.1,0.1,0.6,1.1,0.6,1.1l0.5,0.2c0,0,0.1-0.9-0.4-1.7
		c-0.5-0.8-1-1.4-0.9-1.9c0.2-0.5,0.2-1.1,0.8,0c0.6,1.1,1.2,2.1,1.5,2.2c0.2,0.1,1,0.8,0.5-0.3c-0.6-1.1-0.9-1.4-1.2-2.1
		c-0.3-0.7-1.2-2.1-0.8-1.4c0.4,0.7,1.4,1.3,1.7,1.9s1.5,1.6,1,0.9c-0.4-0.5-0.9-1.6-1.2-2.1c-0.1-0.2-0.1-0.3-0.1-0.3
		c-0.8-0.7-1.4-1.5-0.9-1.4s1.6,1.6,1.4,1c-0.2-0.5,1.1,1,0.6,0c-0.5-1-0.8-1.1-1-1.5c-0.2-0.4-0.8-0.6-0.9-1.1s-0.6-1.1-0.1-0.8
		c0.5,0.3,1.3,0.8,1.7,1.3c0.3,0.4,1,0.4-0.3-0.4c-1.3-0.8-1-0.9-1.5-1.6s-0.9-0.9-0.7-1.3c0.1-0.4,0.3-0.5,0.9-0.4
		c0.5,0.1,1.7,0.5,1,0s-1.3-0.8-2-1.2s-1.2-0.3-1.5-0.9s0.5-0.7,0.3-0.7c-0.1,0-1-0.3-1-0.9s0.7,0.3,1,0.4c0.4,0.1,0.5-0.2,0.2-0.5
		c0,0,0,0,0,0c-0.4-0.4-0.5-0.6-0.7-0.8c-0.1-0.1-0.3,0-0.6-0.6c-0.4-0.5-1-0.8-1.4-0.9s-1.2-0.6-0.7,0c0.5,0.6,1.2,1,0.9,0.9
		c0,0,0,0,0,0C101.6,20,102.3,20.3,101.9,20.6z M88.2,25.8c0.1,1,0.2,1.7,0,1.6C88,27.3,88.1,26.6,88.2,25.8z"/>
	<path class="st7" d="M94.6,25.1c0,0.4,0,0.4,0.1,0.5C94.7,25.1,94.6,24.7,94.6,25.1z"/>
	<path class="st7" d="M100.5,25.7c0-0.1,0-0.1,0-0.1C100.5,25.6,100.5,25.6,100.5,25.7z"/>
	<line class="st8" x1="100.5" y1="25.6" x2="100.5" y2="25.6"/>
	<path class="st7" d="M82.3,26l0,1.4c0,0,0,1.6,0.2,2c0.1,0.2,0.3-0.4,0.4-1l-0.1,1c0,0,0,1.1-0.2,1.6s0.3,0.7,0.7-0.2
		c0.4-1-0.3,2.1-0.3,2.1s0.5-0.8,0.6-1.2c0.2-0.4,0.7-1.1,1.4-2.4c0.7-1.3,0.1-0.7,0.3-1.4c0.2-0.8,0.2-1.7,0-1.7s-0.8,2.4-0.8,2.4
		s-0.2,0.2-0.6,0.8c-0.3,0.6,0-1.1,0.3-2.3s0.7-2.9,0.7-2.9V22l-0.4,1.9c0,0-0.2,1.2-0.3,0.9s-0.4,0.2-0.7,1.8
		c-0.3,1.6-0.1-1.5,0-2.9s-0.5,1-0.6,1.3s-0.7-1.9-0.7-1.9s-0.5,1.5-0.4,2.1S82.3,26,82.3,26z"/>
	<path class="st7" d="M78.4,29.9c0,0,0.2-0.7,0.6-1c0.4-0.2-0.1,1.3,0,2.2s0.3-0.7,0.5,0.4s0.4-0.4,0.5-1.2c0,0,0.3,0.7,0.8-0.5
		c0.4-1.2-0.1,0.8,0.2,1.6c0.3,0.8,0.1-1.8,0-2.8c-0.1-1,0-2.7-0.2-3.6c-0.2-0.9-0.2-1.1-0.3-1.8c-0.1-0.8,0.2-1.6,0.2-1.6
		s-0.4,0-0.5,0.6c0,0.7-0.2,1.7-0.2,2.1c0,0.4,0.1,1.1,0.1,1.1s-0.2,1.7-0.4,0.6c-0.2-1.1-0.2,0.4-0.2,1.2c0,0.8-0.5,1.1-0.6,0.3
		c-0.1-0.8,0.2-1.1,0-3.9c-0.2-2.8-0.3,1.5-0.3,1.5l-0.3,3.1c0,0,0,2.4,0.2,2.6C78.7,31.3,78.4,29.9,78.4,29.9z"/>
	<path class="st8" d="M60.7,40.4C60.8,40.3,60.8,40.3,60.7,40.4"/>
	<path class="st7" d="M50.4,49.9c0,0-0.1,0-0.1,0.2c0,0.1,0,0.2,0,0.3c0,0.1,0.1,0.3,0.2,0.5c0.4,0.8,0.8,1.8,0.5,1.7
		c-0.2,0-0.5,0.3-0.6,0.4c-0.1,0.1-0.1,0.1-0.1,0.1l0.1,0.1l0.4,0.5l-0.1,1.1c0,0-0.1-0.1,0.1,0.7c0.2,0.8,0,1.4,0,1.4l0.9-1.6
		c0,0,0.5-1,0.5-1.6c0-0.6,1.7-1.8,1-0.3C52.4,55,52.4,55,52.4,55l2.2-3.4c0,0,0.2-0.6,0.4-0.6c0.2,0-2.1,4.4-2.1,4.4l-0.8,2
		l1.9-3.3c0,0,1.6-2.5,2.2-3.2c0.6-0.7-0.4-0.1,0.9-0.9c1.3-0.8,0.5-0.7,1.3-0.8c0.9-0.1-0.1,0.9,0.9-0.1c1-1,0.6-0.8,0.6-0.8h-1.2
		h-0.6c2.4-1.7,1.4-0.4,2.2-1.6s0-1,0-1l-1,0.5l-0.5,0.2c0,0,0.2-0.6,1.1-1.4c0.9-0.8,0.9-1.3-0.3-0.6c-1.2,0.8-0.3-0.1-0.3-0.1
		l1.5-1.5c0,0-3.1,1.4-1.4,0.3c1.1-0.8,1.7-1.4,1.7-1.4l-0.6,0.1c0,0,0-1.2,0.2-1.5c-0.2,0.3-1.4,1.5-1.4,1.5l0.7-1.5l-0.6,0
		l-2.7,2.3c0,0-0.1,1-1,1.5C55,44.7,54,45.1,54,45.1s1.3-1.6,0.4-1.4c-1,0.2-0.7,0-0.7,0l3.1-1.6c1.3-1.4,1-1.1,1.4-1.7
		c0.4-0.5,1.1-0.6,1.3-1c0.2-0.3-0.1-0.4-0.1-0.4l-2.1,1.2l-2.1,1.4c0,0-0.8,0.3-1.2,0.6c-0.4,0.2-2.3,1-2.3,1s0.2,0.3,0.1,0.8
		c-0.2,0.5-0.4-0.6-0.6,0.5s0.7,0.7,0.6,1c-0.2,0.3-1.1,0-0.8,0.8c0.3,0.7,0.3,1.4-0.1,1.6c-0.4,0.1,0-0.3-0.4,0.6c0,0,0,0.1,0,0.1
		c-0.2,0.5-0.1,0.8,0,1C50.3,49.9,50.4,49.9,50.4,49.9z"/>
	<path class="st7" d="M72.5,23.2c0.6,0.6,1.9,4.2,1.9,4.2l1,4l-2.4-3l1.3,3.8l0.4,1.3l-0.3-2l1.8,1.5c0,0-1.1-4.4-0.8-3.6
		s1.3,1.4,1.3,1.4s-1.3-6.2-2-6.9c-0.8-0.6-2-2.1-2-2.1l2,3.8c0,0-2.4-3.1-3-3.8c-0.6-0.7-2.6-1.6-2.6-1.6S71.9,22.6,72.5,23.2z"/>
</g>
</svg>
