<?xml version="1.0" encoding="utf-8"?>
<!-- Generator: Adobe Illustrator 19.0.1, SVG Export Plug-In . SVG Version: 6.00 Build 0)  -->
<svg version="1.1" id="Capa_1" xmlns="http://www.w3.org/2000/svg" xmlns:xlink="http://www.w3.org/1999/xlink" x="0px" y="0px"
	 viewBox="0 0 161.2 161.2" style="enable-background:new 0 0 161.2 161.2;" xml:space="preserve">
<style type="text/css">
	.st0{fill:none;}
	.st1{fill:#1A1A1A;}
	.st2{fill:#232321;}
	.st3{fill:#59261D;}
	.st4{fill:#C53967;}
	.st5{fill:#DAA281;}
	.st6{fill:#835B47;}
	.st7{fill:#FFFFFF;}
</style>
<g>
	<path class="st0" d="M45.2,87.9c-0.6,0.3-1.1,0.6-1.4,0.7c0.4-0.2,0.8-0.4,1.1-0.5C45,88.1,45.1,88,45.2,87.9z"/>
	<path class="st0" d="M108.7,98.5c0.3,0.7,0.6,1.4,1,2.2c0-0.6-0.1-1.2-0.2-1.5C109.3,99,109,98.7,108.7,98.5z"/>
	<path class="st0" d="M108.3,92.4c-0.2-0.1-0.5-0.1-0.8-0.1c-0.2,1.4-0.4,2.8-0.7,4.1l0.7,0.3c0.1,0,0.2,0.1,0.2,0.1
		c0-0.1,0.1-0.2,0.1-0.3c0.5-0.7,0.9-1.6,0.9-1.9C108.6,93.1,108.4,92.6,108.3,92.4z"/>
	<path class="st1" d="M124.7,121.2c0.1,0.1,0.2,0.2,0.3,0.4c0.5,0.6,1.1,1.2,1.6,1.7c0.6,0.7,1.2,1.2,1.5,1.7
		c0.6,0.8,1.3,1.6,1.3,1.6c0.2,0.3,0.3,0.7,0.2,1c-0.1,0.3-0.3,0.6-0.7,0.8c-2.2,0.9-4.9,2-7,2.9c2,0.4,4.6,0.9,7.1,1.4
		c0.6,0.1,1,0.7,0.9,1.3c0,0.4-0.9,7.3-1.5,11.5c7-5.2,13.1-11.4,18-18.5c-2.4-0.7-4.6-1.4-5.5-1.6
		C139.7,125,129.5,122.4,124.7,121.2z"/>
	<path class="st1" d="M117.5,132.3c-0.2-0.3-0.3-0.7-0.1-1c0.2-0.6,0.2-0.8,9.4-4.5c-0.1-0.2-0.2-0.3-0.4-0.5
		c-0.3-0.3-0.8-0.9-1.3-1.5c-0.5-0.6-1.1-1.2-1.7-1.8c-1-1.2-3-3.1-3.3-3.4c-1.3-0.5-2.9-1.2-4-1.7c-0.4,2.3-1.4,6.5-4.5,9.8
		c-4,4.4-6.9,8.4-8,9.9l-0.1,0.1c-1,1.3-1.9,2.5-2.9,3.7c-0.1,1.2-0.3,9.8-0.2,11.5c0.1,0.8,0.3,3.2,0.5,5.6
		c9.1-2.4,17.6-6.3,25.1-11.4c0.4-2.6,1.3-9.8,1.6-12.5C117.9,132.8,117.8,132.8,117.5,132.3z"/>
	<path class="st2" d="M106.3,37c0.5,0.3,0.9,0.7,1.4,1c-0.2,0.6-1,0.7-1.5,0.5c-0.6-0.3-0.9-0.8-1.3-1.2c-0.1-0.1-0.2-0.3-0.3-0.4
		c0.1,0.1,0.1,0.2,0.2,0.3c1.3,2.4,3.5,7.7,4.1,12c0.2,1.5,0.5,3.8,0.8,6c0.2,1.8,0.4,3.4,0.6,4.7c0.1,1,0.3,2.1,0.5,3.2
		c0.2,1.2,0.4,2.3,0.5,3.3c0.7-1.1,1.5-2.3,1.7-2.9c0.7-1.8,0.9-3,1-4.5c0.1-0.7,0.2-1.4,0.3-2.3c0.1-0.8,0.3-1.4,0.4-2.1
		c0.4-1.8,0.9-3.6,0.8-7.5c-0.1-3.1-1.7-6.5-3.5-9.5c-0.3-0.3-0.7-0.6-1.1-0.9C109.4,35.7,107.3,35.7,106.3,37z"/>
	<path class="st3" d="M106.1,28.7c0,0-0.1-0.1-0.1-0.1c-0.1,0-0.1,0-0.2,0C105.9,28.6,106,28.6,106.1,28.7z"/>
	<path class="st3" d="M105.5,31c-0.2,0.5-0.4,1.1-0.7,1.6c-0.6,0.9-1.8,1.2-2.8,0.9c0.8,1,1.8,2.2,2.4,3.3c0.1,0.1,0.2,0.2,0.3,0.4
		c0.4,0.5,0.8,1,1.3,1.2c0.6,0.3,1.4,0.1,1.5-0.5c-0.5-0.3-0.9-0.7-1.4-1c1-1.3,3.1-1.3,4.5-0.4c0.4,0.2,0.7,0.6,1.1,0.9
		c-0.6-1-1.2-1.9-1.7-2.8c0,0,0-0.1-0.1-0.1c0,0,0,0,0,0l-0.1-0.2c-0.2-0.3-0.3-0.5-0.5-0.8c0-0.1-0.1-0.1-0.1-0.2
		c-0.2-0.4-0.5-0.8-0.7-1.2c-0.5-0.8-1-1.6-1.6-2.3c-0.1,0-0.2,0-0.3,0C106.2,29.9,105.7,30.5,105.5,31z"/>
	<path class="st2" d="M109.2,82.6c0.1-0.1,0.2-0.2,0.4-0.3c0.2-0.1,0.4-0.2,0.6-0.2c-0.1-0.2-0.2-0.5-0.1-0.8c0-0.2,0.1-0.3,0.2-0.5
		c-0.3-0.1-0.5-0.2-0.7-0.3C109.4,81.1,109.3,81.8,109.2,82.6z"/>
	<path class="st2" d="M108.9,83.7c-0.1,0.4-0.2,0.8-0.2,1.2l0.1-0.1c0.1-0.1,0.2-0.1,0.3-0.2c0.2-0.1,0.4-0.2,0.5-0.2
		c-0.1,0-0.2-0.1-0.2-0.1C109.2,84.1,109,83.9,108.9,83.7z"/>
	<path class="st4" d="M82.3,154.6c1.8-2.2,2.1-2.4,2.5-2.5c0,0,0.1-0.1,0.2-0.1c0.4-0.2,1-0.5,1.7-0.6c0.6-0.2,2.5-1.9,3.8-3
		l0.3-0.2c1.8-1.6,4.9-4.5,6.7-6.5c0.4-0.4,0.8-0.8,1.1-1.3c1.1-1.3,2.1-2.6,3.1-4l0.1-0.1c1.1-1.5,4.1-5.6,8.2-10.1
		c3.7-4,4.1-9.6,4.1-10c0-0.3,0-0.6-0.1-0.9c-0.5-0.5-2.4-1.9-3.5-2.6c0,0,0,0.1,0,0.1c-0.9,3.1-1.9,6-2.8,7.1
		c-0.5,0.6-1.9,3.4-2.9,5.7c-1.1,2.2-2.1,4.3-2.7,5.2c-0.2,0.3-0.6,0.5-1,0.5c-0.2,0-0.4-0.1-0.6-0.2c-0.5-0.3-0.7-1.1-0.3-1.6
		c0.5-0.8,1.5-2.9,2.5-4.9c1.6-3.3,2.6-5.4,3.3-6.2c0.6-0.8,1.9-4.7,2.3-6.2c0.4-1.3,0.5-1.6,0.6-1.8c-0.1-1.8-0.3-5.9-0.4-6.8
		c-0.1-0.5-1.1-3-2.1-5.1l-0.2-0.1c-0.5,1-1.1,1.9-1.8,2.5c-1.4,1.3-2.9,2-4.4,2.7c0,0.2,0,0.3,0,0.5c-0.9,3.7-1.5,4.3-1.6,4.4
		c-0.4,0.4-4.6,5.8-6.7,8.7c-0.9,1.2-1.9,2.8-2.8,4.1c-1.2,1.9-2.2,3.4-2.9,4.1c-0.3,0.3-0.6,0.6-1,1c-1.2,1.2-3.2,3.2-3.7,3.8
		c-0.7,0.9-3.4,4.6-4.6,6.3c-0.9,1.3-3,4.9-4.1,6.8c-0.4,0.7-0.7,1.2-0.8,1.4c-0.3,0.5-1.1,2.4-1.8,4.2c0.1,1,0.2,1.9,0.4,2.5
		c0.2,0.6,0.5,1.4,0.9,2.3c0.3,0.7,0.6,1.4,0.9,2.2c1.2-2.3,2.9-5.8,3.7-8.3c0.3-0.8,0.5-1.7,0.8-2.6c1.1-3.5,2.1-6.8,3.3-8.8
		c1.5-2.5,3.8-4.4,3.9-4.4c0.5-0.4,1.2-0.3,1.6,0.2c0.4,0.5,0.3,1.2-0.2,1.6c0,0-2.1,1.7-3.4,3.9c-1.1,1.7-2.1,5-3,8.2
		c-0.3,0.9-0.5,1.7-0.8,2.6c-0.9,2.7-2.7,6.3-3.9,8.7c-0.5,1-1,2.1-1.1,2.4c0,0,0,0,0,0.1c0,0.3,0,0.7,0.1,1c2,0.2,4,0.3,6,0.3
		c0.6-1,2-3.8,3.3-6.3C82.2,154.7,82.2,154.7,82.3,154.6z"/>
	<path class="st2" d="M107.8,90c0,0,0.1,0,0.1,0C107.9,90,107.8,90,107.8,90C107.8,90,107.8,90,107.8,90z"/>
	<path class="st2" d="M111.3,97.9c0.3,0.4,0.4,1.2,0.5,2.1c0-0.1,0-0.2,0.1-0.3c0.2-1,0-3-0.6-5.2c-0.1-0.2-0.2-0.4-0.3-0.7
		c0,0.2,0,0.4,0.1,0.5c0.1,0.8-0.3,1.8-0.7,2.5C110.7,97.2,111.1,97.5,111.3,97.9z"/>
	<path class="st5" d="M107.9,77.4c0-0.2,0-0.3,0.1-0.5l0.1-0.3c0.5-2.9,0.8-5.3,0.9-7c0-0.4,0-0.8,0-1.1c0-1.2-0.4-3.1-0.7-5.1
		c-0.2-1.1-0.3-2.2-0.5-3.2c-0.2-1.3-0.4-3-0.6-4.7c-0.3-2.2-0.5-4.5-0.7-5.9c-0.5-3.8-2.6-8.9-3.9-11.2c-0.9-1.7-2.6-3.6-3.5-4.6
		c-0.2-0.2-0.4-0.4-0.4-0.5c-0.1-0.1-0.4-0.3-0.7-0.5c-1.3-0.9-2.1-1.1-2.5-1c-0.7,0.1-1.7,0.5-2.7,0.8c-1.3,0.5-2.3,0.9-3.1,0.9
		c-1.2,0.1-3.4,0.4-4.2,0.6c-0.3,0.7-1.1,1.9-2.6,4.5c-0.9,1.4-3.1,5-4.4,6.7c-0.2,0.2-2.8,3.6-5.2,6.3c0.2,0,0.4,0,0.5,0.1
		c0.9,0.2,1.3,0.3,1.9,0.5c0.5,0.2,0.7-0.1,1.5-0.2c0.9-0.1,2,0.1,2.8,0.3c0.8,0.2,1.4,0.5,1.4,0.5s0.9,0.8,0.8,1.1
		c-0.3,0.7-0.9,0.7-0.9,0.7c-0.4-0.2-0.7-0.3-0.9-0.5c-0.6-0.6-1.6-0.8-2.3-0.8c-0.7,0-1.6,0-1.9,0.1c-0.3,0.1-1.3-0.3-1.7-0.5
		c-0.4-0.2-1.1-0.2-2.1-0.2c-0.8,0.9-1.6,1.6-2.1,1.9c-1,0.7-2.1,1.8-3.1,2.9c-0.6,0.6-1.1,1.2-1.7,1.7c-1.5,1.4-3.8,2.4-4.3,2.6
		c-0.1,0.1-0.3,0.1-0.4,0.1c-0.6,0-1.1-0.5-1.1-1.1c0-0.3,0.1-0.6,0.3-0.8c1.9-2.1,3.3-4,3.5-4.7c0.4-1.5,0.6-6.9,0.4-7.8
		c-0.1-0.4-0.4-1.1-0.6-1.8c-1.8,1-4.6,2.8-5.6,4.4c-1.7,2.5-2.2,6.4-2.1,7.9c0.1,0.9,0.3,2.9,0.5,4.5c0.2,1.8,0.3,2.6,0.3,2.9
		c0,0.8-0.3,1.6-0.9,1.9c-0.5,0.3-1.1,0.4-1.7,0.2l-0.2-0.1c-0.4-0.2-0.8-0.3-1.3-0.5c1,2.2,1.2,3.1,1,3.7c-0.1,0.4-0.3,0.9-0.5,1.3
		c-0.1,0.1-0.2,0.3-0.2,0.5c0.3,0.2,0.8,0.6,1.3,0.8c0.6,0.3,0.8,1,0.5,1.5c-0.2,0.4-0.6,0.6-1,0.6c-0.2,0-0.4,0-0.5-0.1
		c-2.3-1.2-2.5-2.1-2.5-2.4c-0.1-0.7,0.2-1.4,0.5-2c0.1-0.2,0.2-0.5,0.3-0.7c-0.1-0.7-1.2-3-1.6-3.9c-0.3-0.7-0.5-1-0.5-1.2
		c-0.2-0.1-0.3-0.3-0.4-0.5c-0.2-0.3-0.6-0.7-0.8-1c-0.3,0.2-0.7,0.6-0.7,1.6c0,1.1,0.3,3.5,0.4,4.9c0.1,0.5,0.1,0.9,0.1,1.1
		c0,0.4,0.3,1,0.5,1.6c0.2,0.6,0.5,1.1,0.6,1.7c0.1,0.4,0.5,1.2,0.9,1.9c0.5,1,1.1,2.2,1.4,3.2C51.2,80.9,52,82,52,82
		c0,0.1,0.1,0.1,0.1,0.2c0.5,1,0.7,1.5,1.3,1.7c0.4,0.1,1.4-0.1,2-0.3c0.3-0.1,0.6-0.1,0.9,0c0.3,0.1,0.5,0.4,0.6,0.7
		c0.5,1.3,1,2.8,1.1,3c0.1,0.3,0.3,0.8,0.8,2.6c0.3,1.2,0.7,2.5,0.9,3.2c0.3,1,0.9,4.6,1.1,5.6c0.5,3,0.6,4.2,0.6,4.7l1,7.7
		c0.3,0.5,1.2,1.9,1.7,2.9c0.4,0.8,0.7,2,1.1,3.8c0.3,1.4,0.6,3,1.1,4.5c1.1,3.5,2,9.4,2.1,11.8c0.1,1.5,0.6,6.5,0.9,10.3
		c0.1-0.3,0.3-0.5,0.4-0.7c0.1-0.2,0.4-0.7,0.8-1.4c1.2-2.1,3.2-5.6,4.2-7c1.2-1.8,4-5.5,4.7-6.4c0.5-0.7,2.1-2.2,3.9-4
		c0.4-0.4,0.7-0.7,1-0.9c0.5-0.5,1.6-2.2,2.6-3.7c0.9-1.4,1.9-3,2.8-4.3c1.9-2.6,6.2-8.1,6.9-8.9c0.2-0.3,0.4-1.1,0.7-2.1
		c-0.1,0-0.1,0.1-0.2,0.1c-1.9,1.1-4.2,1.2-6.6,1.4c-0.8,0-1.6,0.1-2.3,0.1c-1.6,0.1-2.9,0.2-4,0.2c-1.9,0-3.2-0.2-4.3-0.3
		c-0.3,0-0.5-0.1-0.7-0.1c-1.1-0.1-2.9-0.8-4.8-1.5c-1.4-0.5-2.9-1.1-3.9-1.4c-2.2-0.6-2.9-1.2-4.8-2.8c-0.3-0.3-0.6-0.6-1-0.9
		c-2.7-2.3-3.6-3.5-3.7-3.7c-0.4-0.5-0.2-1.2,0.3-1.6s1.2-0.2,1.6,0.3c0,0,0.8,1.1,3.3,3.2c0.4,0.3,0.7,0.6,1,0.9
		c1.8,1.5,2.1,1.9,3.8,2.3c1.2,0.3,2.7,0.9,4.2,1.4c1.6,0.6,3.4,1.3,4.2,1.4c0.3,0,0.5,0.1,0.8,0.1c1.6,0.2,3.6,0.5,7.8,0.1
		c0.8-0.1,1.6-0.1,2.4-0.1c2.1-0.1,4.1-0.2,5.5-1c0.4-0.3,0.9-0.5,1.5-0.8c0.5-0.2,0.9-0.5,1.4-0.7c1.5-0.7,2.8-1.3,3.9-2.4
		c0.7-0.6,1.2-1.4,1.6-2.6c0.6-1.7,0.9-3.7,1.1-5.7c0.1-0.7,0.2-1.5,0.4-2.6c0.1-0.7,0.3-1.5,0.4-2.3c0.4-2.3,0.9-4.7,1.3-6.7
		C107.6,78.7,107.7,77.9,107.9,77.4z M75.9,62.4c-1,0-1.8-0.8-1.8-1.8s0.8-1.8,1.8-1.8s1.8,0.8,1.8,1.8S76.9,62.4,75.9,62.4z
		 M93.2,75.7c0.3-0.4,1-0.9,1.1-0.4c0.1,0.5,0.1,1.3-0.5,1.5s-1.8-0.1-1.8-0.1S92.8,76.2,93.2,75.7z M84.9,75.6
		c0.1-0.5,0.5-0.6,1.2-0.5c0.7,0.1,1.4,0,2.1,0.4c0,0-1.8,0.4-2.2,0.7C85.4,76.6,84.7,76.3,84.9,75.6z M98,89.2
		c-0.2,0.2-0.5,0.3-0.8,0.3c-0.3,0-0.6-0.1-0.8-0.3c-0.2-0.2-0.5-0.4-0.7-0.6c-0.3-0.1-1.1-0.2-3.3-0.2c-0.4,0-1.1,0-1.9,0.1
		c-1.3,0.1-3,0.1-4.1,0.1c0,0,0,0,0,0c-0.8,0-4.4,0.5-6.6,0.8c-0.6,0.1-1.2-0.3-1.3-1c-0.1-0.6,0.3-1.2,1-1.3c1-0.2,5.8-0.9,7-0.9
		c1,0,2.6,0,3.9-0.1c0.8,0,1.6-0.1,2-0.1c2.8,0,3.8,0.1,4.4,0.4c0.6,0.3,1.2,0.9,1.2,1C98.4,88,98.4,88.8,98,89.2z M98.9,62.7
		c-1,0-1.8-0.8-1.8-1.8s0.8-1.8,1.8-1.8s1.8,0.8,1.8,1.8S99.9,62.7,98.9,62.7z M105.1,54.9c-0.5-0.5-1.7-1.5-2.5-1.6
		c-1.1-0.1-2.1,0.3-2.9,0.4c-0.9,0.2-1.6,0.6-2.1,0.7c-0.5,0.1-1.4,1-1.8,1c0,0-1.9-0.3-1.9-0.7s1.2-1.2,1.8-1.5
		c0.6-0.3,1.5-0.7,2.7-0.9c1.1-0.2,1.8-0.3,3.3-0.1c1.3,0.2,2.1,0.3,3,1c0.6,0.5,1.4,2.3,1.5,2.4C106.1,55.6,105.3,55,105.1,54.9z"
		/>
	<path class="st2" d="M81,16.1c-1.8,0.7-3.5,1.6-5.1,2.6c0.7,0.3,1.5,0.3,2.3,0.1c0.4-0.1,0.7-0.2,1-0.3c1.1-0.4,2.1-1,3.2-1.1
		c0.5,0,1,0,1.3,0.4c0.2,0.2,0.3,0.4,0.4,0.5c0.5,0.5,1.3,0.5,2.1,0.5c0.3,0.7-0.4,1.4-1,1.8c-0.2,0.1-0.4,0.3-0.7,0.4
		c-0.2,0.1-0.3,0.3-0.5,0.4c-0.2,0.2-0.3,0.5-0.2,0.8c0.6,0.1,1.2,0.1,1.7,0c-0.2,0.5-0.5,1-0.7,1.5c0.4,0.1,0.7,0.3,1.1,0.4
		c-1,0.8-1.9,1.5-2.9,2.3c1,0,2-0.3,2.9-0.7c0.5-0.2,1-0.5,1.5-0.7c0.4-0.2,0.8-0.4,1.2-0.6c1.1-0.5,2.1-0.2,3.2-0.7
		c-0.3,0.2-0.7,0.5-1,0.8c0.9,0,1.9,0,2.7-0.4c0.3-0.2,0.5-0.3,0.8-0.5c-0.3,0.2-0.5,0.4-0.8,0.5c-2.5,1.5-4.9,3.4-6.9,5.5
		c0,0,0,0,0,0.1c-0.2,0.2-0.3,0.4-0.5,0.5c-0.4,0.5-0.9,1-1.2,1.5c0.4-0.1,1-0.2,1.6-0.3c1.1-0.2,2.4-0.3,3-0.4
		c0.5,0,1.6-0.4,2.5-0.8c1.1-0.4,2.2-0.8,3.1-0.9c0,0,0.1,0,0.1,0c0.1,0,0.3-0.1,0.4,0c0.5,0,1,0.1,1.3-0.1c0.4-0.3,0.4-0.7,0.4-1.2
		c0-1.2-0.6-2.4-1.5-3.2c-0.4-0.3-0.8-0.7-0.9-1.1c0,0,0-0.1,0-0.1c0-0.2,0-0.3,0-0.5c0.1-0.2,0.2-0.4,0.3-0.5c0,0-0.1-0.1-0.1-0.1
		c-0.4-0.3-0.8-0.8-1.2-1.2c-0.5-0.6-1.1-1.3-1.6-1.5c-1-0.4-3.6-0.7-4.5-0.8c-0.2,0-0.3-0.1-0.5-0.2c0,0-3.9-2.5-7.6-3.9
		c-0.8,0.4-1.6,0.7-2.4,1C78.4,16.2,79.7,16.3,81,16.1z"/>
	<path class="st6" d="M98.9,23.7c-0.5-0.3-1.1-0.5-1.7-0.6s-1.3,0-1.7,0.5c0.3,0.7,1,0.8,1.7,1.1c1.1,0.5,2.1,1.1,2.9,2
		c0.1,0.3,0.1,0.6,0,0.9c-0.1,0.3-0.1,0.7,0,0.9c0.2,0.3,0.6,0.4,0.8,0.1c0,0.4,0,0.8,0.1,1.1c0.3-0.2,0.7-0.4,1.1-0.3
		c0,0.2,0,0.4,0,0.6c-0.4,0.3-0.9,0.4-1.4,0.3c-0.2,0-0.4-0.1-0.6,0c-0.2,0-0.4,0.2-0.3,0.4c0.1,0.2,0.3,0.2,0.5,0.2
		c0.2,0,0.4-0.1,0.6-0.1c0.1,0.5,0.2,1,0.1,1.4c0,0.1,0,0.1,0,0.2c0.3,0.3,0.6,0.6,0.9,1c1,0.4,2.2,0,2.8-0.9
		c0.3-0.5,0.4-1.1,0.7-1.6c0.2-0.5,0.7-1.1,1.3-1.1c0.1,0,0.2,0,0.3,0c-0.3-0.4-0.6-0.8-1-1.2c-0.1,0-0.2-0.1-0.3-0.1
		c0.1,0,0.1,0,0.2,0c-0.9-1-1.7-1.8-2.5-2.6c-0.4-0.2-0.7-0.4-1.1-0.5C101.2,24.9,100,24.3,98.9,23.7z"/>
	<path d="M101.8,52.4c-1.5-0.2-2.2-0.1-3.3,0.1c-1.2,0.2-2.1,0.7-2.7,0.9c-0.6,0.3-1.8,1.1-1.8,1.5s1.9,0.7,1.9,0.7
		c0.3-0.1,1.3-0.9,1.8-1c0.5-0.1,1.2-0.6,2.1-0.7c0.8-0.1,1.8-0.5,2.9-0.4c0.8,0.1,2,1,2.5,1.6c0.1,0.1,1,0.7,1.1,0.9
		c-0.1-0.1-0.9-1.9-1.5-2.4C103.9,52.7,103.1,52.5,101.8,52.4z"/>
	<path class="st3" d="M94.9,23.6C94.9,23.6,94.9,23.6,94.9,23.6c0.2,0.5,0.6,0.9,1,1.2c0.9,0.8,1.5,2,1.5,3.2c0,0.4-0.1,0.9-0.4,1.2
		c-0.4,0.3-0.9,0.1-1.3,0.1c-0.1,0-0.3,0-0.4,0c1.1-0.1,2.4,0.3,4.1,1.4c0.6,0.4,0.9,0.7,1,0.7c0,0,0.1,0,0.1,0.1
		c0,0,0.2,0.2,0.5,0.6c0.1,0.1,0.3,0.3,0.4,0.4c0-0.1,0-0.1,0-0.2c0-0.5,0-1-0.1-1.4c-0.2,0-0.4,0-0.6,0.1c-0.2,0-0.5,0-0.5-0.2
		c-0.1-0.2,0.1-0.4,0.3-0.4c0.2,0,0.4,0,0.6,0c0.5,0.1,1,0,1.4-0.3c0-0.2,0-0.4,0-0.6c-0.4,0-0.8,0.1-1.1,0.3
		c-0.1-0.4-0.2-0.8-0.1-1.1c-0.2,0.3-0.6,0.2-0.8-0.1c-0.2-0.3-0.1-0.6,0-0.9c0.1-0.3,0.1-0.6,0-0.9c-0.8-0.8-1.8-1.5-2.9-2
		c-0.7-0.3-1.4-0.5-1.7-1.1c0.4-0.5,1.1-0.5,1.7-0.5s1.1,0.3,1.7,0.6c1.2,0.6,2.3,1.1,3.5,1.7c0.4,0.2,0.7,0.4,1.1,0.5
		c-1-0.9-1.9-1.6-2.5-2c-1.3-0.9-4.2-1.2-5.2-1.2c-0.2,0-0.4-0.1-0.5-0.2c-0.1,0.2-0.2,0.4-0.3,0.5C94.8,23.3,94.8,23.4,94.9,23.6z"
		/>
	<path d="M98.9,59.1c-1,0-1.8,0.8-1.8,1.8s0.8,1.8,1.8,1.8s1.8-0.8,1.8-1.8S99.9,59.1,98.9,59.1z M97.8,61.5c-0.4,0-0.6-0.3-0.6-0.6
		c0-0.4,0.3-0.6,0.6-0.6c0.4,0,0.6,0.3,0.6,0.6C98.4,61.2,98.2,61.5,97.8,61.5z"/>
	<path class="st1" d="M98.1,144.2c-1.9,2-4.4,4.3-6,5.7l-0.3,0.2c-2.8,2.5-4,3.4-4.8,3.5c-0.5,0.1-0.9,0.3-1.2,0.4
		c-0.1,0.1-0.2,0.1-0.3,0.2c-0.3,0.3-0.9,1-1.5,1.7c-0.8,1.5-1.9,3.7-2.7,5.2c5.9-0.1,11.6-0.8,17.2-2c-0.2-2.6-0.4-5.1-0.5-5.9
		C98,152.4,98,147.6,98.1,144.2z"/>
	<path class="st2" d="M69.6,44.1c-0.5-0.3-1.1,0.2-1.4,0.7c-1,1.7-0.7,3.8-1,5.8c-0.2,1.3-0.7,2.5-1.5,3.5c-0.1,0.6-0.1,1.1-0.2,1.4
		c0,0,0,0,0,0c1.1-1.1,2.2-2.3,3.4-3.1c0.8-2.3,1.2-4.8,1.2-7.2C70.1,44.8,70,44.3,69.6,44.1z"/>
	<path class="st7" d="M97.8,60.2c-0.4,0-0.6,0.3-0.6,0.6c0,0.4,0.3,0.6,0.6,0.6c0.4,0,0.6-0.3,0.6-0.6
		C98.4,60.5,98.2,60.2,97.8,60.2z"/>
	<path d="M93.7,76.8c0.6-0.2,0.7-1,0.5-1.5c-0.1-0.5-0.7,0-1.1,0.4c-0.3,0.4-1.2,1-1.2,1S93.1,77,93.7,76.8z"/>
	<path class="st3" d="M93.6,24.2c0.3-0.1,0.6-0.3,0.8-0.5C94.1,23.9,93.8,24.1,93.6,24.2z"/>
	<path class="st3" d="M86.6,29.7c2-2.1,4.4-4,6.9-5.5c-0.8,0.3-1.7,0.4-2.7,0.4C89.4,26,88.1,28,86.6,29.7z"/>
	<path class="st6" d="M84.6,31.5c0.3,0.1,1.1-0.8,1.3-1c0.1-0.1,0.1-0.1,0.2-0.2c0.2-0.2,0.3-0.4,0.5-0.5c0,0,0,0,0-0.1
		c1.5-1.7,2.8-3.7,4.3-5.1c0.3-0.3,0.6-0.5,1-0.8c-1.1,0.5-2.1,0.2-3.2,0.7c-0.4,0.2-0.8,0.4-1.2,0.6c-1.2,0.6-2.5,1.5-3.4,2.2
		c-1.7,1.3-2.9,3.1-3.5,5.2c-0.2,0.6-0.6,1.8-0.9,2.3c0.5,0.1,1,1.7,1.2,2.4c0.1-0.2,0.3-0.5,0.4-0.7c1.2-2.9,2.3-5.8,4-8.4
		C84.8,29.1,84.9,30.4,84.6,31.5z"/>
	<path d="M85.9,76.3c0.5-0.4,2.2-0.7,2.2-0.7c-0.7-0.4-1.4-0.3-2.1-0.4c-0.7-0.1-1,0-1.2,0.5C84.7,76.3,85.4,76.6,85.9,76.3z"/>
	<path class="st3" d="M85.9,30.5c-0.2,0.2-1,1.1-1.3,1c0.4-1.1,0.2-2.4,0.7-3.4c-1.7,2.6-2.8,5.5-4,8.4c1.1-1.7,1.9-3.2,2.1-3.7
		c0.1-0.6,0.6-0.9,1.4-1.1c0.4-0.5,0.8-1,1.2-1.5C86,30.4,86,30.4,85.9,30.5z"/>
	<path class="st6" d="M57.1,19.7c-1,0.7-1.9,1.5-2.9,2.4c-1.7,1.5-3.4,3-4.2,5.1c1.2-1.3,2.6-2.3,4.2-3c-1.9,1.8-2.4,3.3-2.4,5.9
		c2.5-1.2,5.8-4.1,8-5.2c-2.4,2.5-4.6,6.7-5.9,9.3c0.3-0.1,1.4-0.7,1.6-1c0.5,2.1,0.1,4.6,0.5,6.7c0.8-6,5.1-11,9.9-14.8
		c-1.9,2.5-3.4,5.2-4.5,8.1c1.1-1.8,2.2-3.7,3.3-5.5c0.6-1,1.5-2.1,2.6-1.8c-1.5,2.4-2,5.3-3,8c-1.1,2.8-2.8,5.4-4.5,7.9
		c0.7-0.1,1.6-0.1,1.9,0.6c0.4-0.5,0.7-1.1,1-1.6c1.8-3.3,3-6.9,6-9.2c0,0.8-0.5,1.5-0.9,2.2c-1.6,2.4-3.2,4.8-4.7,7.2
		c0.5,0.1,1.2-0.1,1.4-0.6c-0.1,0.4,0.4,0.8,0.7,0.6c-0.4,0.8-0.2,1-0.2,1.4c0.6-2,1.4-3.9,2.4-5.7c0.7-1.2,1.5-2.3,2.2-3.4
		c0.7-1.1,1.4-2.3,2.2-3.4c1.7-2.2,4-3.8,6.3-5.5c-0.7,0.8-1.4,1.5-2.1,2.3c-1.1,1.2-2.3,2.4-3.2,3.8c-1.2,1.6-2.1,3.4-2.7,5.3
		c-0.7,2.1-1,4.3-2.2,6.1c-0.3-0.3-0.4-0.8-0.3-1.2c-0.6,0.7-1.1,1.5-1.6,2.3c-0.2,0.4-0.4,0.8-0.4,1.3c0,0.2,0,0.3,0.1,0.5
		c0.1,0.3,0.3,0.5,0.5,0.6c2.8-2.1,4.1-5.6,5.6-8.7c1.6-3.3,3.6-6.4,5.9-9.2c-0.2,0.8-0.5,1.5-0.8,2.3c-1.9,4.1-3.7,8.1-5.6,12.2
		c3.4-5,6.4-10.2,9-15.6c0,0.6-0.2,1.2-0.5,1.8c-1.1,2.3-2.2,4.7-3.3,7c2.2-4.3,4.9-8.4,8-12.2c-1.6,0-2.7,1.4-3.6,2.7
		c0.9-1.5,2-2.9,3.3-4.1c0.1-0.2,0.3-0.3,0.5-0.4c0.2-0.2,0.5-0.4,0.7-0.7c-1.7,0.9-3.4,1.9-5.1,2.8c1.4-1.3,2.9-2.4,4.6-3.2
		c-0.6,0-1.2,0.1-1.8,0.3c-1.5,0.4-3.1,0.8-4.5,1.5c-1.8,0.9-3.4,2.3-4.8,3.8c0-0.5,0.4-1.6,0.7-1.9c-0.2-0.4-1,0.1-1.4,0.2
		c-0.4,0.2-0.7,0.5-1,0.9c-0.8,1-1.6,2-2.4,2.9c0.5-0.4,1-0.6,1.6-0.8c0.7,1.2-0.2,2.7-1.3,3.5c-0.7,0.5-1.5,0.8-2.3,1.2
		c-0.4,0.3-0.9,0.5-1.2,0.9c0.3-2,1.8-3.4,2.9-5.1c0.5-0.8,0.9-1.5,1.1-2.4c-0.4,0-0.8,0-1.1,0c3.3-2.1,7-3.8,10.8-4.9
		c0.4-0.1,0.9-0.4,0.7-0.8c-0.8,0.1-1.6,0.2-2.4,0.4c-3.8,0.8-6.7,2.4-9.7,4.4c-0.1-0.7,0.6-1.2,1.2-1.6c1.5-1,3-2,4.5-3
		c0-0.3-0.4-0.5-0.7-0.5c-0.3,0-0.6,0.2-0.9,0.3c-2.3,1.2-4.7,2.4-7,3.6c3-2.1,6.4-3.7,9.7-5.3c0.1-0.2-0.1-0.5-0.3-0.6
		c-0.2-0.1-0.5,0-0.7,0.1c-1.2,0.5-2.4,0.9-3.6,1.4c0.6-0.6,1.1-1.1,1.7-1.7c-0.9,0.3-1.9,0.5-2.8,0.8c-0.2-0.3,0-0.7,0.3-0.9
		c0.3-0.2,0.6-0.3,1-0.4c2.1-0.5,4.2-1,6.3-1.5c-0.7-0.1-1.3-0.3-1.8-0.6c-1.3-0.1-2.7-0.2-3.9-0.2c0,0-0.1,0-0.1,0l0,0
		c0,0,0,0-0.1,0c-1.3,0-2.5,0.1-3.8,0.3c-0.7,0.3-1.4,0.6-2,0.9C62.5,16.4,59.6,17.8,57.1,19.7z"/>
	<path class="st3" d="M70.8,16c-0.3,0.1-0.7,0.2-1,0.4c-0.3,0.2-0.4,0.6-0.3,0.9c0.9-0.3,1.9-0.5,2.8-0.8c-0.6,0.6-1.1,1.1-1.7,1.7
		c1.2-0.5,2.4-0.9,3.6-1.4c0.2-0.1,0.5-0.2,0.7-0.1c0.2,0.1,0.5,0.3,0.3,0.6c-3.3,1.6-6.6,3.2-9.7,5.3c2.3-1.2,4.7-2.4,7-3.6
		c0.3-0.1,0.6-0.3,0.9-0.3c0.3,0,0.7,0.2,0.7,0.5c-1.5,1-3,2-4.5,3c-0.6,0.4-1.2,0.9-1.2,1.6c3-2,5.9-3.5,9.7-4.4
		c0.7-0.2,1.5-0.3,2.4-0.4c0.2,0.4-0.4,0.7-0.7,0.8c-3.8,1.1-7.4,2.8-10.8,4.9c0.4,0,0.8,0,1.1,0c-0.2,0.9-0.6,1.7-1.1,2.4
		c-1.1,1.7-2.6,3.1-2.9,5.1c0.4-0.4,0.8-0.6,1.2-0.9c0.7-0.4,1.6-0.8,2.3-1.2c1.1-0.8,2-2.3,1.3-3.5c-0.6,0.2-1.1,0.5-1.6,0.8
		c0.8-1,1.6-2,2.4-2.9c0.3-0.3,0.6-0.7,1-0.9c0.4-0.2,1.3-0.7,1.4-0.2c-0.3,0.4-0.8,1.5-0.7,1.9c1.4-1.5,3-2.9,4.8-3.8
		c1.4-0.7,3-1.1,4.5-1.5c0.6-0.1,1.2-0.3,1.8-0.3c-1.7,0.8-3.3,1.9-4.6,3.2c1.7-0.9,3.4-1.9,5.1-2.8c-0.2,0.2-0.5,0.4-0.7,0.7
		c0.2-0.2,0.4-0.3,0.7-0.4c0.6-0.4,1.3-1.1,1-1.8c-0.7,0-1.6,0-2.1-0.5c-0.2-0.2-0.3-0.4-0.4-0.5c-0.3-0.3-0.9-0.4-1.3-0.4
		c-1.1,0.1-2.2,0.7-3.2,1.1c-0.3,0.1-0.7,0.2-1,0.3c-0.8,0.2-1.6,0.2-2.3-0.1c1.6-1,3.3-1.9,5.1-2.6c-1.2,0.2-2.5,0.1-3.7-0.3
		c0.8-0.3,1.6-0.6,2.4-1c-1-0.3-1.9-0.6-2.8-0.7c-0.5-0.1-1-0.1-1.6-0.2c0.5,0.3,1,0.5,1.8,0.6C75,15,72.9,15.5,70.8,16z"/>
	<path d="M75.9,58.7c-1,0-1.8,0.8-1.8,1.8s0.8,1.8,1.8,1.8s1.8-0.8,1.8-1.8S76.9,58.7,75.9,58.7z M74.9,61.1c-0.4,0-0.6-0.3-0.6-0.6
		c0-0.4,0.3-0.6,0.6-0.6c0.4,0,0.6,0.3,0.6,0.6C75.5,60.9,75.2,61.1,74.9,61.1z"/>
	<path class="st6" d="M76.7,42.1c-0.1-0.2-0.4,0-0.5,0.2c-0.8,1.2-2.4,1.8-3.4,2.9c-0.5,0.5-0.8,1.2-1.1,1.8
		c-0.8,1.5-1.6,3.1-2.2,4.7c0.7-0.9,1.6-1.6,2.5-2.2c0.8-0.9,1.6-1.9,2.5-2.9c0.7-1.4,1.6-2.7,2.3-4.2
		C76.7,42.3,76.7,42.2,76.7,42.1z"/>
	<path class="st7" d="M74.9,59.9c-0.4,0-0.6,0.3-0.6,0.6c0,0.4,0.3,0.6,0.6,0.6c0.4,0,0.6-0.3,0.6-0.6
		C75.5,60.1,75.2,59.9,74.9,59.9z"/>
	<path class="st4" d="M69,154.9c-0.4-1-0.8-1.9-1-2.6c-0.2-0.8-0.3-1.8-0.4-2.7c0-0.1-0.1-0.2-0.1-0.3c-0.1-0.5-1.3-12.5-1.4-15
		c-0.1-2.3-0.9-7.9-1.9-11.2c-0.5-1.6-0.9-3.3-1.2-4.7c-0.3-1.3-0.6-2.7-0.8-3.1c-0.7-1.1-1.8-3-1.8-3c-0.1-0.1-0.1-0.3-0.2-0.4
		l-0.8-6.4c-0.2,0.1-0.4,0.2-0.6,0.3c-1.1,0.7-1.8,1.1-2.3,1.3c0,0.2,0,0.3,0,0.5c-0.1,0.5-0.6,3.3,0.1,4.7c0.4,0.9,1.1,2.7,1.8,4.6
		c0.8,2.2,1.8,4.7,2.3,5.9c1,2.2,4.7,11.2,4.9,11.6c0.2,0.6,0,1.3-0.6,1.5c-0.1,0.1-0.3,0.1-0.4,0.1c-0.4,0-0.9-0.3-1.1-0.7
		c0-0.1-3.9-9.3-4.9-11.5c-0.6-1.2-1.5-3.7-2.4-6c-0.7-1.9-1.4-3.7-1.8-4.5c-0.9-2-0.4-5.2-0.2-6.1c-0.1-0.1-0.2-0.1-0.3-0.2
		l-1.7,0.8l0,0.1c0,0.1,0,0.2-0.1,0.3l0,0.1c-1.1,3.1-1.5,4.3-1.7,4.8c-0.4,1.1-1.7,4.2-2.1,5c0,0.2-0.1,0.7-0.2,1.6
		c-0.2,1.7-0.6,4.6-0.6,6.1c0,1.3,0.4,3.6,0.7,5.7c0.2,1.6,0.4,3,0.5,3.7c0.1,2.4,0.5,6.6,0.9,7.5c0.3,0.3,0.9,1,1.9,2.1
		c1.2,1.4,3.2,3.7,3.9,4.2c1.1,0.7,2.5,1.8,3.2,3.6l0.1,0.3c0.4,1,1.2,3.2,1.9,5.7c3.3,0.9,6.7,1.5,10.2,1.9c0-0.9-0.1-1.7-0.3-2.3
		C70,157.1,69.4,156,69,154.9z"/>
	<path class="st2" d="M53.7,87.8c0.1-0.1,0.2-0.2,0.3-0.3c0.3-0.3,0.6-1,0.7-1.3c0-0.1,0.1-0.1,0.1-0.2c-0.7,0.1-1.5,0.2-2.2-0.1
		c-0.2-0.1-0.5-0.2-0.6-0.3c0,0.1,0.1,0.2,0.2,0.4C52.5,86.6,53.2,87.3,53.7,87.8z"/>
	<path class="st2" d="M53.5,96.8c-2.4,0-4.3-1.9-4.3-4.3c0-1.6,0.9-3,2.2-3.8c-0.4-0.4-0.8-0.9-1.1-1.2c-0.9-1.2-0.7-2.6-0.5-3.3
		c0.1-0.2,0.2-0.4,0.4-0.5c-0.1-0.1-0.1-0.3-0.2-0.4c-0.2-0.3-1-1.6-1.4-3.2c-0.2-0.8-0.8-1.9-1.2-2.8c-0.5-0.9-0.9-1.7-1.1-2.4
		c-0.1-0.4-0.3-0.9-0.5-1.4c-0.3-0.7-0.6-1.5-0.7-2.2c0-0.2-0.1-0.6-0.1-1.1c-0.2-1.6-0.5-3.9-0.5-5.2c0.1-2,1.1-3,1.9-3.5
		c1.7-1,2.8,0.4,3.7,1.6c0.3,0.4,1.2,1,3.7,2c0-0.5-0.2-1.5-0.3-2.4c-0.2-1.7-0.4-3.7-0.5-4.7c-0.1-1.7,0.4-6.1,2.5-9.3
		c0.6-0.9,1.4-1.7,2.4-2.5c-0.5,0-1.1-0.1-1.6,0c-1.6,0.3-2.5,2.6-4.1,2.4c0-2.3,3.9-2.7,4.4-4.9c-0.9,0.5-2.1,0.2-2.6-0.6
		c-0.8-0.1-1.4,0.5-1.9,1.1c-2.3,3.2-3.1,7.7-6.5,9.6c1.4-3.8,3.2-7.5,5.2-11.1c0.5-0.8,0.8-2,0-2.4c0.5-0.8,0.8-1.7,1-2.6
		c-1.3,0.8-2.6,1.5-3.8,2.3c-0.4,0.2-0.8,0.5-1,0.9c-0.5,0.8-0.6,2.2-1.6,2c-0.3-0.9-0.5-1.8-0.6-2.8c-1.2,0.3-1.7,1.8-1.7,3.1
		c0,1.3,0.1,2.7-0.6,3.7c-0.4-0.8-0.7-1.7-0.8-2.6c-0.6,1.5-0.9,3-1.1,4.6c-0.5,3.9,0.3,8.1,1.6,12.2c0.3,0.9,1,1.8,0.7,2.7
		c-0.4,0-0.9,0.1-1.2,0.4c0.3,1.3,0.8,2.6,1.4,3.8c0.3-0.4,0.6-0.7,0.9-1c0.3,2.7-0.6,5.6-2.5,7.7c-0.7,0.8-1.6,1.7-1.4,2.7
		c0.2,0.8,0.9,1.2,1.5,1.7c0.6,0.5,1.2,1.3,0.8,2c-0.8,0-1.3,1-1,1.7c0.7-0.8,1.3-1.7,1.7-2.7c0.6,0.3,0.8,1.1,0.9,1.7
		c0.1,0.8,0.2,1.7,0.3,2.5c0,0,0.1,0.1,0.1,0.1c0.3,0.3,0.7,0.6,0.9,1c1-0.5,1.9-0.9,1.9-0.9c0.4-0.2,0.9-0.1,1.3,0.2
		c0.4,0.3,0.5,0.8,0.3,1.2c-0.3,0.9-1.6,4.1-3.3,4.7c-0.3,0.1-0.8,0.3-1.3,0.5c0.1,0.3,0.2,0.6,0.1,0.9c-0.1,0.2-0.2,0.4-0.4,0.6
		c-0.1,0.1-0.2,0.2-0.3,0.4c0,0,0,0,0,0c0.3,0.3,0.5,0.7,0.4,1.1c-0.1,0.4-0.2,0.9-0.5,1.4l0.6-0.1c0.4-0.1,0.8,0.1,1,0.4l0.8,0.9
		c0.3,0.3,0.4,0.7,0.2,1.1c-0.3,0.9-1,3.3-1.2,4.1c-0.1,0.8-0.1,1.8,0,2.8c0.4-1.7,1-3.1,1-3.1c0.2-0.5,0.8-0.8,1.4-0.6
		c0.5,0.2,0.9,0.7,0.8,1.3L48,104c0,0.4,0,1.3,0,2c0.2-0.8,0.5-1.7,0.6-1.8c0.1-0.4,0.5-0.6,0.9-0.7c0.4-0.1,0.8,0.1,1.1,0.4
		l0.7,0.8c0.2,0.2,0.3,0.4,0.3,0.6l2.1-1c0.4-0.2,0.9-0.1,1.3,0.2c0.2,0.1,0.4,0.3,0.5,0.4c0.6-0.3,1.5-0.9,2.2-1.3
		c0.7-0.4,1.1-0.7,1.5-0.9c-0.2-1.9-1.1-7.2-1.5-8.7C56.9,95.6,55.3,96.8,53.5,96.8z"/>
	<path class="st2" d="M55.9,88.9c0.1,0.1,0.2,0.1,0.3,0.2c0-0.2-0.1-0.3-0.1-0.5C56,88.7,55.9,88.8,55.9,88.9z"/>
	<path class="st1" d="M56.2,153.4c-0.4-1-1-1.7-2.3-2.5c-0.9-0.6-2.4-2.2-4.4-4.6c-0.7-0.8-1.6-1.8-1.8-2c-0.4-0.4-0.8-1-1.3-4.5
		c-0.2-1.9-0.3-3.8-0.4-4.6c0-0.7-0.2-2-0.5-3.5c-0.3-2.1-0.7-4.5-0.7-6c0-1.7,0.4-4.6,0.6-6.4c0-0.2,0.1-0.4,0.1-0.6
		c-0.1,0-0.2,0.1-0.3,0.1c-0.1,0.1-0.3,0.2-0.5,0.3c-0.6,0.8-1.9,2.2-5,5.3c-0.9,0.9-1.7,1.7-1.8,1.9c-0.4,0.5-2.3,3.1-2.9,4
		c0.1,0.2,0.3,0.4,0.4,0.6c0.3,0.4,0.3,1,0,1.4c-1.1,1.5-2.8,3.9-3.1,4.5c-0.4,0.8,0,3.7,0.7,5.6c0.2,0.7,0.7,2.3,1.2,4.2
		c7.1,5,14.9,8.8,23.4,11.3c-0.6-1.8-1.2-3.4-1.5-4.2L56.2,153.4z"/>
	<path class="st7" d="M53.5,94.5c1.1,0,2-0.9,2-2s-0.9-2-2-2c-1.1,0-2,0.9-2,2S52.3,94.5,53.5,94.5z"/>
	<polygon class="st3" points="40.7,82.1 40.7,82.1 40.7,82.1 	"/>
	<path class="st3" d="M43.3,79.8c-0.4,1-1,1.9-1.7,2.7c-0.3-0.7,0.3-1.6,1-1.7c0.3-0.7-0.2-1.5-0.8-2c-0.6-0.5-1.3-1-1.5-1.7
		c-0.2-1,0.7-1.9,1.4-2.7c1.8-2.1,2.7-4.9,2.5-7.7c-0.3,0.3-0.6,0.7-0.9,1c-0.6-1.2-1-2.5-1.4-3.8c0.3-0.3,0.8-0.4,1.2-0.4
		c0.3-0.9-0.4-1.8-0.7-2.7c-1.4-4.1-2.1-8.2-1.6-12.2c0.2-1.6,0.5-3.1,1.1-4.6c0.1,0.9,0.3,1.8,0.8,2.6c0.8-1,0.6-2.4,0.6-3.7
		c0-1.3,0.5-2.8,1.7-3.1c0.1,0.9,0.3,1.9,0.6,2.8c0.9,0.2,1-1.3,1.6-2c0.3-0.4,0.7-0.6,1-0.9c1.3-0.8,2.6-1.5,3.8-2.3
		c-0.1,0.9-0.5,1.8-1,2.6c0.8,0.4,0.4,1.6,0,2.4c-2,3.5-3.8,7.3-5.2,11.1c3.5-1.8,4.2-6.4,6.5-9.6c0.4-0.6,1.1-1.2,1.9-1.1
		c0.6,0.8,1.8,1.1,2.6,0.6c-0.5,2.2-4.5,2.6-4.4,4.9c1.6,0.2,2.5-2.1,4.1-2.4c0.5-0.1,1.1,0,1.6,0c2.3-1.9,5.1-3.3,5.3-3.4
		c0.3-0.1,0.6-0.2,0.9,0c0.3,0.1,0.5,0.4,0.6,0.7c0,0,0.7,2.2,1,3c0,0.1,0.1,0.2,0.1,0.3c0.2,1.1,0.1,5-0.2,7.3
		c0.7-1,1.3-2.2,1.5-3.5c0.3-1.9,0-4,1-5.8c0.3-0.5,0.9-1,1.4-0.7c0.4,0.2,0.4,0.7,0.5,1.1c0.1,2.4-0.3,4.9-1.2,7.2c0,0,0,0,0,0
		c0.6-0.4,1.7-1.5,3-2.9c-0.9,0.6-1.8,1.4-2.5,2.2c0.7-1.6,1.4-3.2,2.2-4.7c0.3-0.6,0.7-1.3,1.1-1.8c1-1.1,2.6-1.6,3.4-2.9
		c0.1-0.2,0.4-0.4,0.5-0.2c0.1,0.1,0,0.2,0,0.3c-0.7,1.5-1.6,2.8-2.3,4.2c0.8-0.9,1.5-1.9,2.2-2.8c1-1.4,2.8-4.2,4.3-6.6
		c-0.2-0.7-0.7-2.3-1.2-2.4c0.3-0.5,0.7-1.7,0.9-2.3c0.6-2.1,1.8-3.9,3.5-5.2c0.9-0.7,2.2-1.5,3.4-2.2c-0.5,0.2-1,0.5-1.5,0.7
		c-0.9,0.4-1.9,0.6-2.9,0.7c1-0.8,1.9-1.5,2.9-2.3c-0.4-0.1-0.7-0.3-1.1-0.4c0.2-0.5,0.5-1,0.7-1.5c-0.6,0.1-1.2,0.1-1.7,0
		c0-0.3,0.1-0.5,0.2-0.8c-1.2,1.2-2.3,2.6-3.3,4.1c0.9-1.3,2-2.7,3.6-2.7c-3.1,3.8-5.7,7.9-8,12.2c1.1-2.3,2.2-4.7,3.3-7
		c0.3-0.6,0.5-1.2,0.5-1.8c-2.6,5.4-5.6,10.7-9,15.6c1.9-4.1,3.7-8.1,5.6-12.2c0.3-0.7,0.7-1.5,0.8-2.3c-2.4,2.8-4.4,5.9-5.9,9.2
		c-1.5,3.1-2.8,6.6-5.6,8.7c-0.3-0.1-0.4-0.3-0.5-0.6c-0.1-0.2-0.1-0.3-0.1-0.5c0-0.4,0.2-0.9,0.4-1.3c0.4-0.8,1-1.6,1.6-2.3
		c0,0.4,0.1,0.8,0.3,1.2c1.2-1.8,1.6-4,2.2-6.1c0.6-1.9,1.5-3.7,2.7-5.3c1-1.3,2.1-2.6,3.2-3.8c0.7-0.8,1.4-1.5,2.1-2.3
		c-2.3,1.6-4.6,3.3-6.3,5.5c-0.8,1.1-1.5,2.2-2.2,3.4c-0.7,1.1-1.5,2.3-2.2,3.4c-1,1.8-1.9,3.7-2.4,5.7c0.1-0.4-0.2-0.7,0.2-1.4
		c-0.3,0.2-0.8-0.2-0.7-0.6c-0.3,0.5-0.9,0.7-1.4,0.6c1.6-2.4,3.2-4.8,4.7-7.2c0.4-0.7,0.9-1.4,0.9-2.2c-2.9,2.2-4.2,5.9-6,9.2
		c-0.3,0.6-0.6,1.1-1,1.6c-0.3-0.6-1.2-0.7-1.9-0.6c1.7-2.5,3.4-5.1,4.5-7.9c1-2.7,1.5-5.6,3-8c-1.1-0.3-2,0.8-2.6,1.8
		c-1.1,1.8-2.2,3.7-3.3,5.5c1.1-2.9,2.6-5.7,4.5-8.1c-4.8,3.7-9,8.8-9.9,14.8c-0.4-2.1,0-4.6-0.5-6.7c-0.2,0.3-1.3,0.9-1.6,1
		c1.3-2.6,3.5-6.8,5.9-9.3c-2.2,1.1-5.5,4.1-8,5.2c0-2.6,0.5-4.1,2.4-5.9c-1.6,0.7-3.1,1.7-4.2,3c0.8-2.1,2.5-3.7,4.2-5.1
		c0.9-0.8,1.9-1.6,2.9-2.4c2.6-1.9,5.4-3.3,8.3-4.8c0.7-0.3,1.3-0.7,2-0.9c-2.2,0.3-4.3,0.9-6.4,1.6c-6.5,2.4-9.7,4.1-12.8,8.5
		c-2.2,3-3.4,5.6-4.4,7.7c-0.5,1.1-1,2-1.4,2.7c-1.3,2.1-3.1,7.5-3.3,9.7c-0.1,1.7,0.8,4.1,1.2,4.8c0.1,0.2,0.1,0.4,0.1,0.6
		c-0.1,1.4-0.5,5.2-0.5,6.3c0,0.3,0,0.6,0,1.1c0.1,1.9,0.3,4.4,0.4,5.2c0.1,0.9,0.9,3.7,1.2,4.8l0.4,1.1c0.1,0.3,0.1,0.6-0.1,0.9
		c0,0,0.1,0,0.1,0c0.4,0.2,0.7,0.6,0.7,1c0,2.1-0.3,2.6-0.6,2.8c-0.1,0.1-0.2,0.3-0.3,0.5c-0.6,1.2-1.3,2.3-2.1,2.8
		c-0.1,0.1-0.2,0.1-0.3,0.1c0.1,0.2,0.2,0.4,0.2,0.6c0,0,0,0.2,0,0.5c0,0.9-0.1,1.5-0.4,1.9c0.4,0.2,0.7,0.4,0.9,0.6
		c0.1,0,0.2,0,0.2,0.1c0.4,0.2,0.7,0.6,0.7,1.1c0,0.4-0.2,0.8-0.6,1c0,0-0.1,0-0.1,0.1c-0.3,0.3-0.7,0.8-1.2,1.1
		c0.4-0.1,0.9-0.1,1.5-0.2l0.3,0c0.4-0.1,0.9,0.1,1.1,0.5c0.1,0.1,0.2,0.3,0.2,0.4l1.4-0.2c0.3,0,0.5,0,0.7,0.2
		c-0.1-0.8-0.2-1.7-0.3-2.5C44,80.9,43.9,80.1,43.3,79.8z"/>
	<path class="st1" d="M30.4,135.9c0.4-0.9,2-3.1,2.9-4.3c-0.6-0.9-0.5-1.4-0.5-1.6c0.1-0.9,3.4-5.1,3.5-5.3c0.2-0.2,0.8-0.8,1.9-2
		c0.4-0.4,0.8-0.8,1.3-1.3c-0.9,0.5-2.4,0.8-4.4,1.3c-1.8,0.4-3.8,0.9-5.5,1.5c-2.7,1-10,2.7-14.1,3.7c4.5,6.2,9.9,11.8,16,16.4
		c-0.2-0.6-0.3-1-0.4-1.3C30.5,141.6,29.6,137.8,30.4,135.9z"/>
	<path d="M96.8,86.6c-0.6-0.3-1.6-0.4-4.4-0.4c-0.4,0-1.2,0-2,0.1c-1.3,0.1-2.9,0.1-3.9,0.1c-1.2,0-6.1,0.7-7,0.9
		c-0.6,0.1-1.1,0.7-1,1.3c0.1,0.6,0.7,1.1,1.3,1c2.1-0.3,5.7-0.8,6.6-0.8c0,0,0,0,0,0c1.1,0,2.7,0,4.1-0.1c0.8,0,1.5-0.1,1.9-0.1
		c2.2,0,3,0.1,3.3,0.2c0.3,0.2,0.6,0.4,0.7,0.6c0.2,0.2,0.5,0.3,0.8,0.3c0.3,0,0.6-0.1,0.8-0.3c0.4-0.4,0.4-1.2,0-1.6
		C97.9,87.5,97.4,87,96.8,86.6z"/>
	<path d="M123.1,118.4c-0.2-0.1-0.7-0.2-1.9-0.7c-1.7-0.7-3.9-1.6-5-2.1c0-0.3-0.1-0.6-0.1-0.9c-0.3-1-3.5-3.2-5-4
		c-0.1-0.9-0.2-2.6-0.2-4.2c0.2,0.1,0.4,0.2,0.7,0.2c0,0,0.1,0,0.1,0c0.5,0,0.8-0.4,1-0.8c0-0.1,1.2-3.6,1.6-5.6
		c0.5-2-0.2-4.8-0.7-6.4c-0.1-0.4-0.3-0.8-0.5-1.2c0.2,0,0.3,0,0.5-0.1c0.5,0,0.9-0.4,1-0.9c0.1-0.5-0.2-1-0.6-1.2
		c-0.4-0.2-1.3-0.6-1.8-0.8c0,0-0.1,0-0.1,0c0.2-0.3,0.3-0.6,0.2-0.9c-0.1-0.5-0.6-0.9-1.1-0.9h-1.8c-0.2,0-0.6-0.1-1.1-0.1
		c0,0,0-0.1,0-0.1l0.1,0c0.1,0,0.1,0,0.2,0c0.3,0,0.5-0.1,0.7-0.3l0.9-0.8c0.4-0.2,1.2-0.5,1.6-0.8c0.4-0.3,1.8-1.5,1.9-1.6l0,0
		c0.3-0.2,0.4-0.5,0.4-0.9c0-0.3-0.1-0.6-0.3-0.8c0,0,0-0.1,0-0.1c0.4,0,0.7-0.1,0.9-0.2c0.9-0.2,1.5-1.3,1.9-3.1
		c0.1-0.4,0-0.8-0.4-1.1c-0.3-0.3-0.8-0.4-1.2-0.2c-1.2,0.4-3.2,1-4,0.8c-0.6-0.1-0.8-0.8-0.9-1.2l0.1-0.5c0.5-2.9,0.8-5.2,0.9-6.9
		c0.7-1,3.1-4.3,3.7-5.8c0.9-2.1,1-3.5,1.2-5.1c0.1-0.7,0.2-1.4,0.3-2.2c0.1-0.7,0.3-1.3,0.4-1.9c0.4-1.9,0.9-3.9,0.8-8.1
		c-0.1-4.8-3.2-9.8-5.6-13.5c0,0,0-0.1-0.1-0.1l-0.2-0.3c-0.2-0.3-0.3-0.5-0.5-0.8c0,0,0-0.1-0.1-0.1c0,0,0,0,0,0
		c-0.2-0.4-0.5-0.8-0.7-1.1c-2.4-4.1-6.4-7.6-8.3-8.9c-1.8-1.3-4.9-1.6-6-1.6c-0.2-0.2-0.4-0.4-0.6-0.7C95,19,94.2,18,93,17.5
		c-1.2-0.4-3.9-0.8-4.8-0.9c-1.2-0.8-6.9-4.2-11.1-4.8c-2-0.3-3.9-0.4-5.8-0.4c-0.1,0-0.2,0-0.3,0c-3.7,0.1-7.4,0.8-11,2.1
		c-6.8,2.6-10.5,4.5-13.9,9.3c-2.3,3.2-3.6,5.9-4.6,8c-0.5,1-0.9,1.9-1.3,2.6c-1.4,2.4-3.4,8.2-3.6,10.7c-0.2,2.2,0.9,4.8,1.3,5.7
		c-0.1,1.1-0.5,5-0.5,6.2c0,0.3,0,0.7,0,1.2c0.1,1.8,0.3,4.5,0.5,5.5c0.2,1.2,1.2,4.9,1.3,5.1c0,0,0,0,0,0.1l0.2,0.5
		c-0.3,0.2-0.7,0.5-1.2,0.8c-1.7,1.1-2.8,1.5-2.8,1.5c-0.4,0.1-0.8,0.5-0.8,1c0,0.5,0.2,0.9,0.6,1.1c0.1,0,0.9,0.5,1.6,0.6
		c0.6,0.1,1.7,0,2.5-0.2c-0.3,0.5-0.6,1.1-0.9,1.3c-0.3,0-0.6,0.1-0.9,0.2c-0.6,0.2-0.7,0.2-0.8,0.1c-0.9-0.8-3.1-2.5-3.2-2.5
		c-0.4-0.3-0.9-0.3-1.3,0c-0.4,0.3-0.6,0.8-0.5,1.2c0.2,0.8,1,3.5,2.6,4.3c0,0-0.1,0.1-0.1,0.2c-0.2,0.4-0.2,1,0.2,1.4
		c0.6,0.6,2.2,2.1,3.3,2.3c0,0,0.1,0,0.1,0c-0.1,0.1-0.2,0.2-0.3,0.2c-0.1,0-0.1,0-0.2,0c-0.9,0-2.8-0.5-3.4-0.7
		c-0.5-0.1-1,0-1.2,0.4c-0.3,0.4-0.3,0.9,0,1.3c0.8,1.2,2.3,3.1,3.7,3.3c0.3,0,0.6,0,1.1,0c0.1,0.3,0.3,0.5,0.6,0.7
		c0.3,0.1,1,0.5,1.7,0.7c-0.6,0.2-1.3,0.4-1.3,0.4c-0.6,0.2-0.9,0.7-0.8,1.3c0.1,0.6,0.6,1,1.2,0.9c0.3,0,1.8-0.2,3-0.5
		c-1.1,0.5-2.1,1-2.1,1.1c-0.4,0.2-0.7,0.7-0.6,1.2c0.1,0.5,0.5,0.9,1,0.9c0.2,0,0.4,0,0.6,0.1c0,0.3,0.1,0.7,0.7,1.4
		c-0.1,0.1-0.1,0.2-0.2,0.2c-1.1,0-2.2-0.3-2.3-0.3c-0.5-0.1-1,0.1-1.3,0.5c-0.3,0.4-0.2,1,0.2,1.4c-0.3,0-0.6-0.1-0.8-0.1
		c-0.5-0.1-0.9,0.1-1.2,0.5c-0.2,0.4-0.2,0.9,0.1,1.3c0.4,0.5,1.6,1.4,3.1,1.2c1.2-0.2,2.7-0.8,3.2-1l1.3-0.2
		c-0.3,1.1-0.9,2.9-1,3.7c-0.3,1.8,0,4.3,0.4,5.8c0.6,2.7,3.4,6.2,4,6.9c-0.3,0.8-0.7,1.7-1,2.4c-0.6-0.1-1.3,0-2.1,0.5
		c-0.1,0.1-0.3,0.2-0.6,0.3c-0.5,0.2-1,0.5-1.7,0.7c-1.2,0.5-2.5,1-3.5,1.6c-0.6,0.3-2.2,0.7-3.8,1c-1.9,0.4-4,0.9-5.8,1.5
		c-2.8,1-10.9,2.9-14.8,3.8c0.5,0.7,0.9,1.3,1.4,2c4.2-1,11.4-2.7,14.1-3.7c1.7-0.6,3.7-1.1,5.5-1.5c2-0.4,3.6-0.8,4.4-1.3
		c-0.5,0.5-0.9,0.9-1.3,1.3c-1.1,1.2-1.8,1.8-1.9,2c-0.1,0.2-3.4,4.4-3.5,5.3c0,0.2-0.1,0.7,0.5,1.6c-0.9,1.2-2.5,3.4-2.9,4.3
		c-0.8,1.9,0.1,5.8,0.6,7.3c0.1,0.3,0.2,0.7,0.4,1.3c1,0.7,2,1.5,3,2.2c-0.5-1.9-1-3.6-1.2-4.2c-0.7-1.9-1-4.7-0.7-5.6
		c0.3-0.6,2-3,3.1-4.5c0.3-0.4,0.3-1,0-1.4c-0.1-0.2-0.3-0.4-0.4-0.6c0.6-1,2.4-3.6,2.9-4c0.1-0.2,1-1,1.8-1.9
		c3.1-3.1,4.5-4.5,5-5.3c0.2-0.1,0.4-0.2,0.5-0.3c0.1-0.1,0.2-0.1,0.3-0.1c0,0.2-0.1,0.4-0.1,0.6c-0.3,1.9-0.6,4.7-0.6,6.4
		c0,1.5,0.4,3.9,0.7,6c0.2,1.5,0.4,2.8,0.5,3.5c0,0.8,0.2,2.8,0.4,4.6c0.4,3.5,0.8,4.1,1.3,4.5c0.2,0.2,1.1,1.2,1.8,2
		c2,2.3,3.5,4,4.4,4.6c1.3,0.8,1.9,1.5,2.3,2.5l0.1,0.3c0.3,0.8,0.9,2.3,1.5,4.2c0.9,0.3,1.7,0.5,2.6,0.7c-0.7-2.6-1.5-4.7-1.9-5.7
		l-0.1-0.3c-0.7-1.8-2.1-2.9-3.2-3.6c-0.7-0.4-2.7-2.8-3.9-4.2c-1-1.1-1.6-1.8-1.9-2.1c-0.4-0.9-0.8-5.1-0.9-7.5
		c0-0.8-0.2-2.2-0.5-3.7c-0.3-2-0.7-4.4-0.7-5.7c0-1.6,0.4-4.4,0.6-6.1c0.1-1,0.2-1.4,0.2-1.6c0.3-0.8,1.6-3.9,2.1-5
		c0.2-0.5,0.7-1.8,1.7-4.8l0-0.1c0-0.1,0.1-0.2,0.1-0.3l0-0.1l1.7-0.8c0.1,0.1,0.2,0.2,0.3,0.2c-0.2,0.9-0.7,4.1,0.2,6.1
		c0.4,0.8,1,2.6,1.8,4.5c0.9,2.4,1.8,4.8,2.4,6c1,2.2,4.8,11.4,4.9,11.5c0.2,0.4,0.6,0.7,1.1,0.7c0.1,0,0.3,0,0.4-0.1
		c0.6-0.2,0.9-0.9,0.6-1.5c-0.2-0.4-3.9-9.4-4.9-11.6c-0.5-1.2-1.5-3.7-2.3-5.9c-0.7-1.9-1.4-3.8-1.8-4.6c-0.6-1.4-0.2-4.2-0.1-4.7
		c0.1-0.2,0.1-0.3,0-0.5c0.5-0.3,1.2-0.7,2.3-1.3c0.2-0.1,0.4-0.2,0.6-0.3l0.8,6.4c0,0.2,0.1,0.3,0.2,0.4c0,0,1.1,1.9,1.8,3
		c0.3,0.4,0.5,1.8,0.8,3.1c0.3,1.5,0.7,3.1,1.2,4.7c1,3.3,1.9,8.9,1.9,11.2c0.1,2.5,1.4,14.5,1.4,15c0,0.1,0,0.2,0.1,0.3
		c0.1,0.8,0.2,1.8,0.4,2.7c0.2,0.8,0.6,1.7,1,2.6c0.5,1,1,2.2,1.3,3.4c0.1,0.5,0.2,1.4,0.3,2.3c0.8,0.1,1.5,0.2,2.3,0.3
		c0-0.4,0-0.7-0.1-1c0,0,0,0,0-0.1c0.1-0.3,0.6-1.4,1.1-2.4c1.2-2.4,3-6,3.9-8.7c0.3-0.8,0.5-1.7,0.8-2.6c1-3.2,2-6.5,3-8.2
		c1.3-2.1,3.4-3.9,3.4-3.9c0.5-0.4,0.6-1.1,0.2-1.6c-0.4-0.5-1.1-0.6-1.6-0.2c-0.1,0.1-2.4,2-3.9,4.4c-1.2,2-2.2,5.3-3.3,8.8
		c-0.3,0.9-0.5,1.7-0.8,2.6c-0.8,2.5-2.5,6-3.7,8.3c-0.3-0.8-0.6-1.5-0.9-2.2c-0.4-0.9-0.8-1.7-0.9-2.3c-0.2-0.6-0.3-1.5-0.4-2.5
		c0.7-1.7,1.5-3.7,1.8-4.2c0.1-0.2,0.4-0.7,0.8-1.4c1.1-1.9,3.2-5.5,4.1-6.8c1.2-1.7,3.9-5.4,4.6-6.3c0.5-0.6,2.5-2.6,3.7-3.8
		c0.4-0.4,0.7-0.7,1-1c0.7-0.7,1.7-2.2,2.9-4.1c0.9-1.4,1.8-2.9,2.8-4.1c2.2-3,6.3-8.3,6.7-8.7c0.2-0.2,0.7-0.7,1.6-4.4
		c0-0.2,0-0.4,0-0.5c1.5-0.7,3-1.4,4.4-2.7c0.7-0.7,1.3-1.5,1.8-2.5l0.2,0.1c1,2.1,2,4.6,2.1,5.1c0.1,0.9,0.3,4.9,0.4,6.8
		c-0.1,0.2-0.2,0.5-0.6,1.8c-0.5,1.5-1.7,5.5-2.3,6.2c-0.7,0.8-1.7,2.8-3.3,6.2c-1,2-2,4.1-2.5,4.9c-0.3,0.5-0.2,1.2,0.3,1.6
		c0.2,0.1,0.4,0.2,0.6,0.2c0.4,0,0.7-0.2,1-0.5c0.6-0.9,1.6-3,2.7-5.2c1.1-2.3,2.4-5.1,2.9-5.7c0.9-1,1.8-3.9,2.8-7.1
		c0,0,0-0.1,0-0.1c1.1,0.7,3,2,3.5,2.6c0,0.3,0.1,0.7,0.1,0.9c0,0.4-0.4,6-4.1,10c-4.1,4.5-7.1,8.5-8.2,10.1l-0.1,0.1
		c-1,1.4-2.1,2.7-3.1,4c-0.3,0.4-0.7,0.8-1.1,1.3c-1.8,2-4.9,4.9-6.7,6.5l-0.3,0.2c-1.3,1.1-3.2,2.8-3.8,3c-0.8,0.1-1.4,0.5-1.7,0.6
		c-0.1,0-0.1,0.1-0.2,0.1c-0.3,0.1-0.7,0.3-2.5,2.5c-0.1,0.1-0.1,0.1-0.1,0.2c-1.3,2.5-2.7,5.3-3.3,6.3c0.6,0,1.2,0,1.7,0
		c0.3,0,0.6,0,0.9,0c0.8-1.5,1.9-3.7,2.7-5.2c0.5-0.7,1.2-1.4,1.5-1.7c0.1,0,0.2-0.1,0.3-0.2c0.3-0.1,0.7-0.4,1.2-0.4
		c0.8-0.1,2-1.1,4.8-3.5l0.3-0.2c1.6-1.4,4.1-3.8,6-5.7c-0.1,3.4-0.1,8.2,0,9c0.1,0.8,0.3,3.3,0.5,5.9c0.8-0.2,1.5-0.3,2.3-0.5
		c-0.2-2.5-0.4-4.8-0.5-5.6c-0.2-1.6,0.1-10.3,0.2-11.5c1-1.2,2-2.4,2.9-3.7l0.1-0.1c1.1-1.5,4-5.5,8-9.9c3.1-3.4,4.1-7.6,4.5-9.8
		c1.1,0.5,2.7,1.1,4,1.7c0.3,0.3,2.3,2.2,3.3,3.4c0.5,0.6,1.1,1.3,1.7,1.8c0.6,0.6,1.1,1.1,1.3,1.5c0.1,0.2,0.2,0.3,0.4,0.5
		c-9.1,3.7-9.2,3.8-9.4,4.5c-0.1,0.3,0,0.7,0.1,1c0.3,0.5,0.4,0.6,10.1,2.4c-0.3,2.7-1.3,10-1.6,12.5c0.9-0.6,1.7-1.2,2.6-1.8
		c0.5-4.2,1.4-11.1,1.5-11.5c0.1-0.6-0.3-1.2-0.9-1.3c-2.5-0.5-5.1-1-7.1-1.4c2.1-0.9,4.8-2,7-2.9c0.3-0.1,0.6-0.4,0.7-0.8
		c0.1-0.3,0-0.7-0.2-1c0,0-0.7-0.9-1.3-1.6c-0.3-0.5-0.9-1-1.5-1.7c-0.5-0.5-1.1-1.2-1.6-1.7c-0.1-0.1-0.2-0.2-0.3-0.4
		c4.7,1.2,15,3.8,16.3,4.1c0.9,0.2,3.1,0.8,5.5,1.6c0.5-0.7,0.9-1.3,1.4-2c-3.2-1-6.2-1.8-6.3-1.8
		C139.9,122.7,124.5,118.8,123.1,118.4z M109.1,84.6c-0.1,0-0.2,0.1-0.3,0.2l-0.1,0.1c0.1-0.4,0.2-0.8,0.2-1.2
		c0.1,0.2,0.2,0.4,0.5,0.6c0.1,0,0.1,0.1,0.2,0.1C109.4,84.5,109.3,84.6,109.1,84.6z M110.3,80.8c-0.1,0.1-0.2,0.3-0.2,0.5
		c-0.1,0.3,0,0.5,0.1,0.8c-0.2,0.1-0.4,0.2-0.6,0.2c-0.2,0.1-0.3,0.2-0.4,0.3c0.1-0.7,0.3-1.4,0.4-2.1
		C109.8,80.6,110,80.7,110.3,80.8z M57.5,103.6c-0.7,0.4-1.7,1-2.2,1.3c-0.2-0.1-0.4-0.3-0.5-0.4c-0.3-0.3-0.8-0.4-1.3-0.2l-2.1,1
		c0-0.2-0.1-0.5-0.3-0.6l-0.7-0.8c-0.3-0.3-0.7-0.4-1.1-0.4c-0.4,0.1-0.7,0.3-0.9,0.7c0,0.1-0.4,1-0.6,1.8c0-0.7,0-1.6,0-2l0.4-2.1
		c0.1-0.6-0.2-1.1-0.8-1.3c-0.5-0.2-1.1,0.1-1.4,0.6c0,0.1-0.7,1.4-1,3.1c-0.1-1-0.1-2,0-2.8c0.1-0.8,0.9-3.2,1.2-4.1
		c0.1-0.4,0-0.8-0.2-1.1l-0.8-0.9c-0.3-0.3-0.6-0.4-1-0.4l-0.6,0.1c0.3-0.5,0.5-1,0.5-1.4c0.1-0.4-0.1-0.8-0.4-1.1c0,0,0,0,0,0
		c0.1-0.1,0.2-0.2,0.3-0.4c0.2-0.2,0.3-0.4,0.4-0.6c0.1-0.4,0.1-0.7-0.1-0.9c0.5-0.2,1-0.4,1.3-0.5c1.7-0.6,2.9-3.8,3.3-4.7
		c0.2-0.4,0-0.9-0.3-1.2c-0.4-0.3-0.9-0.4-1.3-0.2c0,0-0.8,0.4-1.9,0.9c-0.2-0.4-0.6-0.7-0.9-1c0,0-0.1-0.1-0.1-0.1
		c-0.2-0.1-0.5-0.2-0.7-0.2l-1.4,0.2c0-0.2-0.1-0.3-0.2-0.4c-0.3-0.4-0.7-0.5-1.1-0.5l-0.3,0c-0.6,0.1-1.1,0.2-1.5,0.2
		c0.5-0.3,0.9-0.8,1.2-1.1c0,0,0.1,0,0.1-0.1c0.3-0.2,0.6-0.6,0.6-1c0-0.5-0.3-0.9-0.7-1.1c0,0-0.1,0-0.2-0.1
		c-0.2-0.2-0.5-0.4-0.9-0.6c0.3-0.4,0.4-1.1,0.4-1.9c0-0.3,0-0.5,0-0.5c0-0.2-0.1-0.4-0.2-0.6c0.1,0,0.2-0.1,0.3-0.1
		c0.8-0.5,1.5-1.6,2.1-2.8c0.1-0.2,0.2-0.4,0.3-0.5c0.2-0.2,0.6-0.8,0.6-2.8c0-0.5-0.3-0.9-0.7-1c0,0-0.1,0-0.1,0
		c0.1-0.3,0.2-0.6,0.1-0.9l-0.4-1.1c-0.3-1.1-1.1-3.9-1.2-4.8c-0.1-0.8-0.3-3.4-0.4-5.2c0-0.4,0-0.8,0-1.1c0-1,0.3-4.9,0.5-6.3
		c0-0.2,0-0.4-0.1-0.6c-0.4-0.8-1.4-3.1-1.2-4.8c0.2-2.2,2-7.6,3.3-9.7c0.5-0.8,0.9-1.7,1.4-2.7c1-2.1,2.3-4.6,4.4-7.7
		c3.1-4.3,6.3-6,12.8-8.5c2.1-0.8,4.3-1.3,6.4-1.6c1.2-0.2,2.5-0.3,3.8-0.3c0,0,0,0,0.1,0l0,0c0,0,0.1,0,0.1,0c1.3,0,2.6,0,3.9,0.2
		c0.5,0.1,1,0.1,1.6,0.2c0.9,0.1,1.8,0.4,2.8,0.7c3.7,1.3,7.6,3.8,7.6,3.9c0.1,0.1,0.3,0.2,0.5,0.2c0.9,0.1,3.5,0.4,4.5,0.8
		c0.6,0.2,1.1,0.9,1.6,1.5c0.4,0.5,0.8,0.9,1.2,1.2c0,0,0.1,0.1,0.1,0.1c0.2,0.1,0.3,0.1,0.5,0.2c1,0,3.9,0.3,5.2,1.2
		c0.6,0.4,1.5,1.1,2.5,2c0.8,0.7,1.7,1.6,2.5,2.6c0,0,0.1,0.1,0.1,0.1c0.3,0.4,0.6,0.8,1,1.2c0.6,0.7,1.1,1.5,1.6,2.3
		c0.2,0.4,0.5,0.8,0.7,1.2c0,0.1,0.1,0.1,0.1,0.2c0.2,0.3,0.3,0.5,0.5,0.8l0.1,0.2c0,0,0,0,0,0c0,0,0,0.1,0.1,0.1
		c0.5,0.9,1.1,1.8,1.7,2.8c1.7,3,3.4,6.4,3.5,9.5c0.1,3.9-0.4,5.7-0.8,7.5c-0.2,0.7-0.3,1.3-0.4,2.1c-0.2,0.9-0.2,1.6-0.3,2.3
		c-0.2,1.5-0.3,2.7-1,4.5c-0.3,0.6-1,1.8-1.7,2.9c-0.1-1-0.3-2.1-0.5-3.3c-0.2-1.1-0.3-2.2-0.5-3.2c-0.2-1.3-0.4-2.9-0.6-4.7
		c-0.3-2.2-0.5-4.5-0.8-6c-0.6-4.3-2.9-9.6-4.1-12c-0.1-0.1-0.1-0.2-0.2-0.3c-0.7-1.2-1.6-2.4-2.4-3.3c-0.3-0.4-0.6-0.7-0.9-1
		c-0.1-0.2-0.3-0.3-0.4-0.4c-0.3-0.4-0.5-0.6-0.5-0.6c0,0,0,0-0.1-0.1c0,0-0.4-0.3-1-0.7c-1.6-1.1-3-1.5-4.1-1.4c0,0-0.1,0-0.1,0
		c-0.9,0.2-2,0.6-3.1,0.9c-1,0.3-2.1,0.7-2.5,0.8c-0.6,0-1.9,0.2-3,0.4c-0.6,0.1-1.1,0.2-1.6,0.3c-0.8,0.2-1.3,0.5-1.4,1.1
		c-0.2,0.5-1.1,1.9-2.1,3.7c-0.1,0.2-0.3,0.5-0.4,0.7c-1.5,2.4-3.3,5.2-4.3,6.6c-0.7,0.9-1.5,1.9-2.2,2.8c-0.8,1-1.7,2-2.5,2.9
		c-1.2,1.4-2.3,2.5-3,2.9c0,0,0,0,0,0c-1.2,0.8-2.3,2-3.4,3.1c0,0,0,0,0,0c0.1-0.3,0.2-0.8,0.2-1.4c0.3-2.4,0.4-6.3,0.2-7.3
		c0-0.1,0-0.2-0.1-0.3c-0.3-0.7-1-3-1-3c-0.1-0.3-0.3-0.6-0.6-0.7c-0.3-0.1-0.6-0.1-0.9,0c-0.2,0.1-3,1.5-5.3,3.4
		c-1,0.8-1.8,1.6-2.4,2.5c-2.1,3.2-2.6,7.6-2.5,9.3c0.1,1,0.3,2.9,0.5,4.7c0.1,0.9,0.2,1.9,0.3,2.4c-2.6-1-3.4-1.6-3.7-2
		c-0.9-1.2-2-2.6-3.7-1.6c-0.8,0.5-1.8,1.5-1.9,3.5c0,1.3,0.3,3.7,0.5,5.2c0.1,0.5,0.1,0.8,0.1,1.1c0.1,0.7,0.4,1.5,0.7,2.2
		c0.2,0.5,0.4,1,0.5,1.4c0.2,0.7,0.6,1.5,1.1,2.4c0.5,0.9,1,2,1.2,2.8c0.5,1.6,1.2,2.9,1.4,3.2c0.1,0.1,0.1,0.3,0.2,0.4
		c-0.2,0.1-0.3,0.3-0.4,0.5c-0.3,0.7-0.5,2.2,0.5,3.3c0.3,0.4,0.7,0.8,1.1,1.2c-1.3,0.7-2.2,2.2-2.2,3.8c0,2.4,1.9,4.3,4.3,4.3
		c1.9,0,3.4-1.2,4.1-2.8c0.4,1.5,1.3,6.9,1.5,8.7C58.6,102.9,58.2,103.2,57.5,103.6z M43.8,88.6c0.4-0.2,0.9-0.4,1.4-0.7
		c-0.1,0.1-0.2,0.3-0.3,0.3C44.6,88.3,44.2,88.4,43.8,88.6z M40.7,82.1C40.7,82.1,40.7,82.1,40.7,82.1L40.7,82.1
		C40.7,82.1,40.7,82.1,40.7,82.1z M53.5,90.4c1.1,0,2,0.9,2,2s-0.9,2-2,2c-1.1,0-2-0.9-2-2S52.3,90.4,53.5,90.4z M51.9,85.7
		c0.2,0.1,0.4,0.2,0.6,0.3c0.7,0.3,1.5,0.2,2.2,0.1c0,0.1-0.1,0.1-0.1,0.2c-0.1,0.3-0.4,1-0.7,1.3c-0.1,0.1-0.2,0.2-0.3,0.3
		c-0.5-0.5-1.2-1.3-1.6-1.8C52,85.9,51.9,85.8,51.9,85.7z M55.9,88.9c0.1-0.1,0.1-0.2,0.2-0.2c0,0.1,0.1,0.3,0.1,0.5
		C56.1,89,56,88.9,55.9,88.9z M106.1,86.1c-0.1,0.8-0.3,1.6-0.4,2.3c-0.2,1.1-0.3,2-0.4,2.6c-0.2,2-0.5,4-1.1,5.7
		c-0.4,1.1-0.9,2-1.6,2.6c-1.2,1.1-2.5,1.7-3.9,2.4c-0.5,0.2-0.9,0.4-1.4,0.7c-0.6,0.3-1,0.5-1.5,0.8c-1.4,0.8-3.4,0.9-5.5,1
		c-0.8,0-1.6,0.1-2.4,0.1c-4.1,0.4-6.1,0.1-7.8-0.1c-0.3,0-0.5-0.1-0.8-0.1c-0.8-0.1-2.6-0.8-4.2-1.4c-1.5-0.6-3-1.1-4.2-1.4
		c-1.7-0.4-2.1-0.8-3.8-2.3c-0.3-0.3-0.6-0.6-1-0.9c-2.5-2.1-3.3-3.2-3.3-3.2c-0.4-0.5-1.1-0.6-1.6-0.3s-0.6,1.1-0.3,1.6
		c0.1,0.1,1,1.3,3.7,3.7c0.4,0.3,0.7,0.6,1,0.9c1.8,1.6,2.5,2.2,4.8,2.8c1,0.3,2.5,0.8,3.9,1.4c1.9,0.7,3.7,1.4,4.8,1.5
		c0.2,0,0.5,0.1,0.7,0.1c1,0.1,2.3,0.3,4.3,0.3c1.1,0,2.4-0.1,4-0.2c0.8-0.1,1.6-0.1,2.3-0.1c2.4-0.1,4.7-0.2,6.6-1.4
		c0.1,0,0.1-0.1,0.2-0.1c-0.3,0.9-0.6,1.8-0.7,2.1c-0.8,0.8-5,6.3-6.9,8.9c-1,1.3-2,2.9-2.8,4.3c-1,1.6-2,3.2-2.6,3.7
		c-0.2,0.2-0.6,0.6-1,0.9c-1.8,1.8-3.4,3.3-3.9,4c-0.7,0.9-3.5,4.7-4.7,6.4c-1,1.4-3,4.9-4.2,7c-0.4,0.6-0.7,1.1-0.8,1.4
		c-0.1,0.2-0.2,0.4-0.4,0.7c-0.4-3.8-0.9-8.9-0.9-10.3c-0.1-2.5-0.9-8.3-2.1-11.8c-0.5-1.5-0.8-3.1-1.1-4.5c-0.4-1.8-0.6-3-1.1-3.8
		c-0.5-0.9-1.4-2.3-1.7-2.9l-1-7.7c0-0.6-0.1-1.8-0.6-4.7c-0.2-1.1-0.7-4.6-1.1-5.6c-0.2-0.7-0.6-2-0.9-3.2
		c-0.5-1.9-0.6-2.4-0.8-2.6c-0.1-0.2-0.7-1.7-1.1-3c-0.1-0.3-0.3-0.5-0.6-0.7c-0.3-0.1-0.6-0.1-0.9,0c-0.6,0.2-1.6,0.5-2,0.3
		c-0.6-0.2-0.8-0.7-1.3-1.7c0-0.1-0.1-0.1-0.1-0.2c0,0-0.8-1.1-1.2-2.6c-0.3-1-0.9-2.2-1.4-3.2c-0.4-0.7-0.8-1.5-0.9-1.9
		c-0.1-0.6-0.4-1.2-0.6-1.7c-0.2-0.6-0.5-1.2-0.5-1.6c0-0.2-0.1-0.6-0.1-1.1c-0.2-1.4-0.5-3.7-0.4-4.9c0-0.9,0.4-1.3,0.7-1.6
		c0.2,0.2,0.6,0.7,0.8,1c0.1,0.2,0.3,0.3,0.4,0.5c0.1,0.2,0.2,0.5,0.5,1.2c0.4,0.9,1.5,3.2,1.6,3.9c-0.1,0.2-0.2,0.4-0.3,0.7
		c-0.3,0.6-0.7,1.3-0.5,2c0,0.3,0.2,1.1,2.5,2.4c0.2,0.1,0.4,0.1,0.5,0.1c0.4,0,0.8-0.2,1-0.6c0.3-0.6,0.1-1.2-0.5-1.5
		c-0.5-0.2-1-0.6-1.3-0.8c0.1-0.2,0.2-0.4,0.2-0.5c0.2-0.4,0.4-0.8,0.5-1.3c0.2-0.6-0.1-1.5-1-3.7c0.4,0.2,0.9,0.3,1.3,0.5l0.2,0.1
		c0.6,0.2,1.2,0.2,1.7-0.2c0.6-0.4,0.9-1.1,0.9-1.9c0-0.3-0.1-1-0.3-2.9c-0.2-1.6-0.4-3.6-0.5-4.5c-0.1-1.5,0.4-5.4,2.1-7.9
		c1.1-1.6,3.8-3.4,5.6-4.4c0.2,0.6,0.5,1.4,0.6,1.8c0.2,0.9-0.1,6.3-0.4,7.8c-0.2,0.7-1.6,2.6-3.5,4.7c-0.2,0.2-0.3,0.5-0.3,0.8
		c0,0.6,0.5,1.1,1.1,1.1c0.2,0,0.3,0,0.4-0.1c0.5-0.2,2.8-1.2,4.3-2.6c0.6-0.5,1.1-1.1,1.7-1.7c1-1.1,2.1-2.2,3.1-2.9
		c0.6-0.4,1.3-1.1,2.1-1.9c1,0,1.8,0,2.1,0.2c0.4,0.2,1.4,0.6,1.7,0.5c0.3-0.1,1.2,0,1.9-0.1c0.7,0,1.7,0.2,2.3,0.8
		c0.2,0.2,0.5,0.3,0.9,0.5c0,0,0.6,0,0.9-0.7c0.1-0.3-0.8-1.1-0.8-1.1s-0.7-0.3-1.4-0.5c-0.8-0.2-1.9-0.3-2.8-0.3
		c-0.9,0.1-1,0.4-1.5,0.2c-0.5-0.2-1-0.4-1.9-0.5c-0.2,0-0.4-0.1-0.5-0.1c2.4-2.7,5-6.1,5.2-6.3c1.3-1.7,3.5-5.3,4.4-6.7
		c1.6-2.5,2.3-3.8,2.6-4.5c0.8-0.2,3-0.5,4.2-0.6c0.8-0.1,1.9-0.5,3.1-0.9c1-0.4,2-0.7,2.7-0.8c0.3-0.1,1.2,0.2,2.5,1
		c0.4,0.2,0.6,0.5,0.7,0.5c0.1,0.1,0.2,0.2,0.4,0.5c0.9,1,2.6,2.9,3.5,4.6c1.3,2.4,3.3,7.4,3.9,11.2c0.2,1.5,0.5,3.7,0.7,5.9
		c0.2,1.8,0.4,3.5,0.6,4.7c0.1,1,0.3,2.1,0.5,3.2c0.3,1.9,0.6,3.9,0.7,5.1c0,0.3,0,0.7,0,1.1c-0.1,1.6-0.4,4.1-0.9,7l-0.1,0.3
		c-0.1,0.2-0.1,0.3-0.1,0.5c-0.1,0.6-0.3,1.3-0.4,2.1C107,81.4,106.6,83.9,106.1,86.1z M107.9,90c0,0-0.1,0-0.1,0
		C107.8,90,107.8,90,107.9,90C107.8,90,107.9,90,107.9,90z M107.8,96.5c-0.1,0.1-0.1,0.2-0.1,0.3c-0.1,0-0.1-0.1-0.2-0.1l-0.7-0.3
		c0.4-1.3,0.6-2.7,0.7-4.1c0.3,0,0.6,0,0.8,0.1c0.1,0.2,0.3,0.7,0.5,2.2C108.8,94.9,108.3,95.8,107.8,96.5z M108.7,98.5
		c0.3,0.2,0.6,0.5,0.8,0.7c0.1,0.3,0.2,0.8,0.2,1.5C109.3,99.9,109,99.1,108.7,98.5z M110.3,96.9c0.4-0.7,0.8-1.7,0.7-2.5
		c0-0.2,0-0.3-0.1-0.5c0.1,0.3,0.3,0.5,0.3,0.7c0.7,2.2,0.9,4.2,0.6,5.2c0,0.1,0,0.2-0.1,0.3c-0.1-0.9-0.2-1.7-0.5-2.1
		C111.1,97.5,110.7,97.2,110.3,96.9z"/>
</g>
</svg>
