<svg id="Capa_1" xmlns="http://www.w3.org/2000/svg" viewBox="0 0 161.2 161.2"><style>.st0{fill:none}.st1{fill:#1a1a1a}.st2{fill:#232321}.st3{fill:#59261d}.st4{fill:#c53967}.st5{fill:#daa281}.st6{fill:#835b47}.st7{fill:#FFF}</style><path class="st0" d="M45.2 87.9c-.6.3-1.1.6-1.4.7.4-.2.8-.4 1.1-.5.1 0 .2-.1.3-.2zM108.7 98.5c.3.7.6 1.4 1 2.2 0-.6-.1-1.2-.2-1.5-.2-.2-.5-.5-.8-.7zM108.3 92.4c-.2-.1-.5-.1-.8-.1-.2 1.4-.4 2.8-.7 4.1l.7.3c.1 0 .2.1.2.1 0-.1.1-.2.1-.3.5-.7.9-1.6.9-1.9-.1-1.5-.3-2-.4-2.2z"/><path class="st1" d="M124.7 121.2c.1.1.2.2.3.4.5.6 1.1 1.2 1.6 1.7.6.7 1.2 1.2 1.5 1.7.6.8 1.3 1.6 1.3 1.6.2.3.3.7.2 1-.1.3-.3.6-.7.8-2.2.9-4.9 2-7 2.9 2 .4 4.6.9 7.1 1.4.6.1 1 .7.9 1.3 0 .4-.9 7.3-1.5 11.5 7-5.2 13.1-11.4 18-18.5-2.4-.7-4.6-1.4-5.5-1.6-1.2-.4-11.4-3-16.2-4.2z"/><path class="st1" d="M117.5 132.3c-.2-.3-.3-.7-.1-1 .2-.6.2-.8 9.4-4.5-.1-.2-.2-.3-.4-.5-.3-.3-.8-.9-1.3-1.5s-1.1-1.2-1.7-1.8c-1-1.2-3-3.1-3.3-3.4-1.3-.5-2.9-1.2-4-1.7-.4 2.3-1.4 6.5-4.5 9.8-4 4.4-6.9 8.4-8 9.9l-.1.1c-1 1.3-1.9 2.5-2.9 3.7-.1 1.2-.3 9.8-.2 11.5.1.8.3 3.2.5 5.6 9.1-2.4 17.6-6.3 25.1-11.4.4-2.6 1.3-9.8 1.6-12.5-9.7-1.8-9.8-1.8-10.1-2.3z"/><path class="st2" d="M106.3 37c.5.3.9.7 1.4 1-.2.6-1 .7-1.5.5-.6-.3-.9-.8-1.3-1.2-.1-.1-.2-.3-.3-.4.1.1.1.2.2.3 1.3 2.4 3.5 7.7 4.1 12 .2 1.5.5 3.8.8 6 .2 1.8.4 3.4.6 4.7.1 1 .3 2.1.5 3.2.2 1.2.4 2.3.5 3.3.7-1.1 1.5-2.3 1.7-2.9.7-1.8.9-3 1-4.5.1-.7.2-1.4.3-2.3.1-.8.3-1.4.4-2.1.4-1.8.9-3.6.8-7.5-.1-3.1-1.7-6.5-3.5-9.5-.3-.3-.7-.6-1.1-.9-1.5-1-3.6-1-4.6.3z"/><path class="st3" d="M106.1 28.7l-.1-.1h-.2c.1 0 .2 0 .3.1zM105.5 31c-.2.5-.4 1.1-.7 1.6-.6.9-1.8 1.2-2.8.9.8 1 1.8 2.2 2.4 3.3.1.1.2.2.3.4.4.5.8 1 1.3 1.2.6.3 1.4.1 1.5-.5-.5-.3-.9-.7-1.4-1 1-1.3 3.1-1.3 4.5-.4.4.2.7.6 1.1.9-.6-1-1.2-1.9-1.7-2.8 0 0 0-.1-.1-.1l-.1-.2c-.2-.3-.3-.5-.5-.8 0-.1-.1-.1-.1-.2-.2-.4-.5-.8-.7-1.2-.5-.8-1-1.6-1.6-2.3h-.3c-.4.1-.9.7-1.1 1.2z"/><path class="st2" d="M109.2 82.6c.1-.1.2-.2.4-.3.2-.1.4-.2.6-.2-.1-.2-.2-.5-.1-.8 0-.2.1-.3.2-.5-.3-.1-.5-.2-.7-.3-.2.6-.3 1.3-.4 2.1zM108.9 83.7c-.1.4-.2.8-.2 1.2l.1-.1c.1-.1.2-.1.3-.2.2-.1.4-.2.5-.2-.1 0-.2-.1-.2-.1-.2-.2-.4-.4-.5-.6z"/><path class="st4" d="M82.3 154.6c1.8-2.2 2.1-2.4 2.5-2.5 0 0 .1-.1.2-.1.4-.2 1-.5 1.7-.6.6-.2 2.5-1.9 3.8-3l.3-.2c1.8-1.6 4.9-4.5 6.7-6.5.4-.4.8-.8 1.1-1.3 1.1-1.3 2.1-2.6 3.1-4l.1-.1c1.1-1.5 4.1-5.6 8.2-10.1 3.7-4 4.1-9.6 4.1-10 0-.3 0-.6-.1-.9-.5-.5-2.4-1.9-3.5-2.6v.1c-.9 3.1-1.9 6-2.8 7.1-.5.6-1.9 3.4-2.9 5.7-1.1 2.2-2.1 4.3-2.7 5.2-.2.3-.6.5-1 .5-.2 0-.4-.1-.6-.2-.5-.3-.7-1.1-.3-1.6.5-.8 1.5-2.9 2.5-4.9 1.6-3.3 2.6-5.4 3.3-6.2.6-.8 1.9-4.7 2.3-6.2.4-1.3.5-1.6.6-1.8-.1-1.8-.3-5.9-.4-6.8-.1-.5-1.1-3-2.1-5.1l-.2-.1c-.5 1-1.1 1.9-1.8 2.5-1.4 1.3-2.9 2-4.4 2.7v.5c-.9 3.7-1.5 4.3-1.6 4.4-.4.4-4.6 5.8-6.7 8.7-.9 1.2-1.9 2.8-2.8 4.1-1.2 1.9-2.2 3.4-2.9 4.1l-1 1c-1.2 1.2-3.2 3.2-3.7 3.8-.7.9-3.4 4.6-4.6 6.3-.9 1.3-3 4.9-4.1 6.8-.4.7-.7 1.2-.8 1.4-.3.5-1.1 2.4-1.8 4.2.1 1 .2 1.9.4 2.5.2.6.5 1.4.9 2.3.3.7.6 1.4.9 2.2 1.2-2.3 2.9-5.8 3.7-8.3.3-.8.5-1.7.8-2.6 1.1-3.5 2.1-6.8 3.3-8.8 1.5-2.5 3.8-4.4 3.9-4.4.5-.4 1.2-.3 1.6.2.4.5.3 1.2-.2 1.6 0 0-2.1 1.7-3.4 3.9-1.1 1.7-2.1 5-3 8.2-.3.9-.5 1.7-.8 2.6-.9 2.7-2.7 6.3-3.9 8.7-.5 1-1 2.1-1.1 2.4v.1c0 .3 0 .7.1 1 2 .2 4 .3 6 .3.6-1 2-3.8 3.3-6.3-.3.2-.3.2-.2.1z"/><path class="st2" d="M107.8 90h0zM111.3 97.9c.3.4.4 1.2.5 2.1 0-.1 0-.2.1-.3.2-1 0-3-.6-5.2-.1-.2-.2-.4-.3-.7 0 .2 0 .4.1.5.1.8-.3 1.8-.7 2.5.3.4.7.7.9 1.1z"/><path class="st5" d="M107.9 77.4c0-.2 0-.3.1-.5l.1-.3c.5-2.9.8-5.3.9-7v-1.1c0-1.2-.4-3.1-.7-5.1-.2-1.1-.3-2.2-.5-3.2-.2-1.3-.4-3-.6-4.7-.3-2.2-.5-4.5-.7-5.9-.5-3.8-2.6-8.9-3.9-11.2-.9-1.7-2.6-3.6-3.5-4.6-.2-.2-.4-.4-.4-.5-.1-.1-.4-.3-.7-.5-1.3-.9-2.1-1.1-2.5-1-.7.1-1.7.5-2.7.8-1.3.5-2.3.9-3.1.9-1.2.1-3.4.4-4.2.6-.3.7-1.1 1.9-2.6 4.5-.9 1.4-3.1 5-4.4 6.7-.2.2-2.8 3.6-5.2 6.3.2 0 .4 0 .5.1.9.2 1.3.3 1.9.5.5.2.7-.1 1.5-.2.9-.1 2 .1 2.8.3.8.2 1.4.5 1.4.5s.9.8.8 1.1c-.3.7-.9.7-.9.7-.4-.2-.7-.3-.9-.5-.6-.6-1.6-.8-2.3-.8-.7 0-1.6 0-1.9.1-.3.1-1.3-.3-1.7-.5-.4-.2-1.1-.2-2.1-.2-.8.9-1.6 1.6-2.1 1.9-1 .7-2.1 1.8-3.1 2.9-.6.6-1.1 1.2-1.7 1.7-1.5 1.4-3.8 2.4-4.3 2.6-.1.1-.3.1-.4.1-.6 0-1.1-.5-1.1-1.1 0-.3.1-.6.3-.8 1.9-2.1 3.3-4 3.5-4.7.4-1.5.6-6.9.4-7.8-.1-.4-.4-1.1-.6-1.8-1.8 1-4.6 2.8-5.6 4.4-1.7 2.5-2.2 6.4-2.1 7.9.1.9.3 2.9.5 4.5.2 1.8.3 2.6.3 2.9 0 .8-.3 1.6-.9 1.9-.5.3-1.1.4-1.7.2l-.2-.1c-.4-.2-.8-.3-1.3-.5 1 2.2 1.2 3.1 1 3.7-.1.4-.3.9-.5 1.3-.1.1-.2.3-.2.5.3.2.8.6 1.3.8.6.3.8 1 .5 1.5-.2.4-.6.6-1 .6-.2 0-.4 0-.5-.1-2.3-1.2-2.5-2.1-2.5-2.4-.1-.7.2-1.4.5-2 .1-.2.2-.5.3-.7-.1-.7-1.2-3-1.6-3.9-.3-.7-.5-1-.5-1.2-.2-.1-.3-.3-.4-.5-.2-.3-.6-.7-.8-1-.3.2-.7.6-.7 1.6 0 1.1.3 3.5.4 4.9.1.5.1.9.1 1.1 0 .4.3 1 .5 1.6.2.6.5 1.1.6 1.7.1.4.5 1.2.9 1.9.5 1 1.1 2.2 1.4 3.2.1 1.4.9 2.5.9 2.5 0 .1.1.1.1.2.5 1 .7 1.5 1.3 1.7.4.1 1.4-.1 2-.3.3-.1.6-.1.9 0 .3.1.5.4.6.7.5 1.3 1 2.8 1.1 3 .1.3.3.8.8 2.6.3 1.2.7 2.5.9 3.2.3 1 .9 4.6 1.1 5.6.5 3 .6 4.2.6 4.7l1 7.7c.3.5 1.2 1.9 1.7 2.9.4.8.7 2 1.1 3.8.3 1.4.6 3 1.1 4.5 1.1 3.5 2 9.4 2.1 11.8.1 1.5.6 6.5.9 10.3.1-.3.3-.5.4-.7.1-.2.4-.7.8-1.4 1.2-2.1 3.2-5.6 4.2-7 1.2-1.8 4-5.5 4.7-6.4.5-.7 2.1-2.2 3.9-4 .4-.4.7-.7 1-.9.5-.5 1.6-2.2 2.6-3.7.9-1.4 1.9-3 2.8-4.3 1.9-2.6 6.2-8.1 6.9-8.9.2-.3.4-1.1.7-2.1-.1 0-.1.1-.2.1-1.9 1.1-4.2 1.2-6.6 1.4-.8 0-1.6.1-2.3.1-1.6.1-2.9.2-4 .2-1.9 0-3.2-.2-4.3-.3-.3 0-.5-.1-.7-.1-1.1-.1-2.9-.8-4.8-1.5-1.4-.5-2.9-1.1-3.9-1.4-2.2-.6-2.9-1.2-4.8-2.8-.3-.3-.6-.6-1-.9-2.7-2.3-3.6-3.5-3.7-3.7-.4-.5-.2-1.2.3-1.6s1.2-.2 1.6.3c0 0 .8 1.1 3.3 3.2.4.3.7.6 1 .9 1.8 1.5 2.1 1.9 3.8 2.3 1.2.3 2.7.9 4.2 1.4 1.6.6 3.4 1.3 4.2 1.4.3 0 .5.1.8.1 1.6.2 3.6.5 7.8.1.8-.1 1.6-.1 2.4-.1 2.1-.1 4.1-.2 5.5-1 .4-.3.9-.5 1.5-.8.5-.2.9-.5 1.4-.7 1.5-.7 2.8-1.3 3.9-2.4.7-.6 1.2-1.4 1.6-2.6.6-1.7.9-3.7 1.1-5.7.1-.7.2-1.5.4-2.6.1-.7.3-1.5.4-2.3.4-2.3.9-4.7 1.3-6.7.1-.6.2-1.4.4-1.9zm-32-15c-1 0-1.8-.8-1.8-1.8s.8-1.8 1.8-1.8 1.8.8 1.8 1.8-.8 1.8-1.8 1.8zm17.3 13.3c.3-.4 1-.9 1.1-.4.1.5.1 1.3-.5 1.5s-1.8-.1-1.8-.1.8-.5 1.2-1zm-8.3-.1c.1-.5.5-.6 1.2-.5.7.1 1.4 0 2.1.4 0 0-1.8.4-2.2.7-.6.4-1.3.1-1.1-.6zM98 89.2c-.2.2-.5.3-.8.3-.3 0-.6-.1-.8-.3-.2-.2-.5-.4-.7-.6-.3-.1-1.1-.2-3.3-.2-.4 0-1.1 0-1.9.1-1.3.1-3 .1-4.1.1-.8 0-4.4.5-6.6.8-.6.1-1.2-.3-1.3-1-.1-.6.3-1.2 1-1.3 1-.2 5.8-.9 7-.9 1 0 2.6 0 3.9-.1.8 0 1.6-.1 2-.1 2.8 0 3.8.1 4.4.4.6.3 1.2.9 1.2 1 .4.6.4 1.4 0 1.8zm.9-26.5c-1 0-1.8-.8-1.8-1.8s.8-1.8 1.8-1.8 1.8.8 1.8 1.8-.8 1.8-1.8 1.8zm6.2-7.8c-.5-.5-1.7-1.5-2.5-1.6-1.1-.1-2.1.3-2.9.4-.9.2-1.6.6-2.1.7-.5.1-1.4 1-1.8 1 0 0-1.9-.3-1.9-.7s1.2-1.2 1.8-1.5c.6-.3 1.5-.7 2.7-.9 1.1-.2 1.8-.3 3.3-.1 1.3.2 2.1.3 3 1 .6.5 1.4 2.3 1.5 2.4-.1 0-.9-.6-1.1-.7z"/><path class="st2" d="M81 16.1c-1.8.7-3.5 1.6-5.1 2.6.7.3 1.5.3 2.3.1.4-.1.7-.2 1-.3 1.1-.4 2.1-1 3.2-1.1.5 0 1 0 1.3.4.2.2.3.4.4.5.5.5 1.3.5 2.1.5.3.7-.4 1.4-1 1.8-.2.1-.4.3-.7.4-.2.1-.3.3-.5.4-.2.2-.3.5-.2.8.6.1 1.2.1 1.7 0-.2.5-.5 1-.7 1.5.4.1.7.3 1.1.4-1 .8-1.9 1.5-2.9 2.3 1 0 2-.3 2.9-.7.5-.2 1-.5 1.5-.7l1.2-.6c1.1-.5 2.1-.2 3.2-.7-.3.2-.7.5-1 .8.9 0 1.9 0 2.7-.4.3-.2.5-.3.8-.5-.3.2-.5.4-.8.5-2.5 1.5-4.9 3.4-6.9 5.5v.1c-.2.2-.3.4-.5.5-.4.5-.9 1-1.2 1.5.4-.1 1-.2 1.6-.3 1.1-.2 2.4-.3 3-.4.5 0 1.6-.4 2.5-.8 1.1-.4 2.2-.8 3.1-.9h.1c.1 0 .3-.1.4 0 .5 0 1 .1 1.3-.1.4-.3.4-.7.4-1.2 0-1.2-.6-2.4-1.5-3.2-.4-.3-.8-.7-.9-1.1v-.1-.5c.1-.2.2-.4.3-.5l-.1-.1c-.4-.3-.8-.8-1.2-1.2-.5-.6-1.1-1.3-1.6-1.5-1-.4-3.6-.7-4.5-.8-.2 0-.3-.1-.5-.2 0 0-3.9-2.5-7.6-3.9-.8.4-1.6.7-2.4 1 1.1.3 2.4.4 3.7.2z"/><path class="st6" d="M98.9 23.7c-.5-.3-1.1-.5-1.7-.6s-1.3 0-1.7.5c.3.7 1 .8 1.7 1.1 1.1.5 2.1 1.1 2.9 2 .1.3.1.6 0 .9-.1.3-.1.7 0 .9.2.3.6.4.8.1 0 .4 0 .8.1 1.1.3-.2.7-.4 1.1-.3v.6c-.4.3-.9.4-1.4.3-.2 0-.4-.1-.6 0-.2 0-.4.2-.3.4.1.2.3.2.5.2s.4-.1.6-.1c.1.5.2 1 .1 1.4v.2c.3.3.6.6.9 1 1 .4 2.2 0 2.8-.9.3-.5.4-1.1.7-1.6.2-.5.7-1.1 1.3-1.1h.3c-.3-.4-.6-.8-1-1.2-.1 0-.2-.1-.3-.1h.2c-.9-1-1.7-1.8-2.5-2.6-.4-.2-.7-.4-1.1-.5-1.1-.5-2.3-1.1-3.4-1.7z"/><path d="M101.8 52.4c-1.5-.2-2.2-.1-3.3.1-1.2.2-2.1.7-2.7.9-.6.3-1.8 1.1-1.8 1.5s1.9.7 1.9.7c.3-.1 1.3-.9 1.8-1 .5-.1 1.2-.6 2.1-.7.8-.1 1.8-.5 2.9-.4.8.1 2 1 2.5 1.6.1.1 1 .7 1.1.9-.1-.1-.9-1.9-1.5-2.4-.9-.9-1.7-1.1-3-1.2z"/><path class="st3" d="M94.9 23.6c.2.5.6.9 1 1.2.9.8 1.5 2 1.5 3.2 0 .4-.1.9-.4 1.2-.4.3-.9.1-1.3.1h-.4c1.1-.1 2.4.3 4.1 1.4.6.4.9.7 1 .7 0 0 .1 0 .1.1 0 0 .2.2.5.6l.4.4v-.2c0-.5 0-1-.1-1.4-.2 0-.4 0-.6.1-.2 0-.5 0-.5-.2-.1-.2.1-.4.3-.4h.6c.5.1 1 0 1.4-.3v-.6c-.4 0-.8.1-1.1.3-.1-.4-.2-.8-.1-1.1-.2.3-.6.2-.8-.1-.2-.3-.1-.6 0-.9.1-.3.1-.6 0-.9-.8-.8-1.8-1.5-2.9-2-.7-.3-1.4-.5-1.7-1.1.4-.5 1.1-.5 1.7-.5s1.1.3 1.7.6c1.2.6 2.3 1.1 3.5 1.7.4.2.7.4 1.1.5-1-.9-1.9-1.6-2.5-2-1.3-.9-4.2-1.2-5.2-1.2-.2 0-.4-.1-.5-.2-.1.2-.2.4-.3.5-.6.2-.6.3-.5.5z"/><path d="M98.9 59.1c-1 0-1.8.8-1.8 1.8s.8 1.8 1.8 1.8 1.8-.8 1.8-1.8-.8-1.8-1.8-1.8zm-1.1 2.4c-.4 0-.6-.3-.6-.6 0-.4.3-.6.6-.6.4 0 .6.3.6.6s-.2.6-.6.6z"/><path class="st1" d="M98.1 144.2c-1.9 2-4.4 4.3-6 5.7l-.3.2c-2.8 2.5-4 3.4-4.8 3.5-.5.1-.9.3-1.2.4-.1.1-.2.1-.3.2-.3.3-.9 1-1.5 1.7-.8 1.5-1.9 3.7-2.7 5.2 5.9-.1 11.6-.8 17.2-2-.2-2.6-.4-5.1-.5-5.9 0-.8 0-5.6.1-9z"/><path class="st2" d="M69.6 44.1c-.5-.3-1.1.2-1.4.7-1 1.7-.7 3.8-1 5.8-.2 1.3-.7 2.5-1.5 3.5-.1.6-.1 1.1-.2 1.4 1.1-1.1 2.2-2.3 3.4-3.1.8-2.3 1.2-4.8 1.2-7.2 0-.4-.1-.9-.5-1.1z"/><path class="st7" d="M97.8 60.2c-.4 0-.6.3-.6.6 0 .4.3.6.6.6.4 0 .6-.3.6-.6s-.2-.6-.6-.6z"/><path d="M93.7 76.8c.6-.2.7-1 .5-1.5-.1-.5-.7 0-1.1.4-.3.4-1.2 1-1.2 1s1.2.3 1.8.1z"/><path class="st3" d="M93.6 24.2c.3-.1.6-.3.8-.5-.3.2-.6.4-.8.5zM86.6 29.7c2-2.1 4.4-4 6.9-5.5-.8.3-1.7.4-2.7.4-1.4 1.4-2.7 3.4-4.2 5.1z"/><path class="st6" d="M84.6 31.5c.3.1 1.1-.8 1.3-1l.2-.2c.2-.2.3-.4.5-.5v-.1c1.5-1.7 2.8-3.7 4.3-5.1.3-.3.6-.5 1-.8-1.1.5-2.1.2-3.2.7l-1.2.6c-1.2.6-2.5 1.5-3.4 2.2-1.7 1.3-2.9 3.1-3.5 5.2-.2.6-.6 1.8-.9 2.3.5.1 1 1.7 1.2 2.4.1-.2.3-.5.4-.7 1.2-2.9 2.3-5.8 4-8.4-.5 1-.4 2.3-.7 3.4z"/><path d="M85.9 76.3c.5-.4 2.2-.7 2.2-.7-.7-.4-1.4-.3-2.1-.4-.7-.1-1 0-1.2.5-.1.6.6.9 1.1.6z"/><path class="st3" d="M85.9 30.5c-.2.2-1 1.1-1.3 1 .4-1.1.2-2.4.7-3.4-1.7 2.6-2.8 5.5-4 8.4 1.1-1.7 1.9-3.2 2.1-3.7.1-.6.6-.9 1.4-1.1l1.2-1.5c0 .2 0 .2-.1.3z"/><path class="st6" d="M57.1 19.7c-1 .7-1.9 1.5-2.9 2.4-1.7 1.5-3.4 3-4.2 5.1 1.2-1.3 2.6-2.3 4.2-3-1.9 1.8-2.4 3.3-2.4 5.9 2.5-1.2 5.8-4.1 8-5.2-2.4 2.5-4.6 6.7-5.9 9.3.3-.1 1.4-.7 1.6-1 .5 2.1.1 4.6.5 6.7.8-6 5.1-11 9.9-14.8-1.9 2.5-3.4 5.2-4.5 8.1 1.1-1.8 2.2-3.7 3.3-5.5.6-1 1.5-2.1 2.6-1.8-1.5 2.4-2 5.3-3 8-1.1 2.8-2.8 5.4-4.5 7.9.7-.1 1.6-.1 1.9.6.4-.5.7-1.1 1-1.6 1.8-3.3 3-6.9 6-9.2 0 .8-.5 1.5-.9 2.2-1.6 2.4-3.2 4.8-4.7 7.2.5.1 1.2-.1 1.4-.6-.1.4.4.8.7.6-.4.8-.2 1-.2 1.4.6-2 1.4-3.9 2.4-5.7.7-1.2 1.5-2.3 2.2-3.4.7-1.1 1.4-2.3 2.2-3.4 1.7-2.2 4-3.8 6.3-5.5-.7.8-1.4 1.5-2.1 2.3-1.1 1.2-2.3 2.4-3.2 3.8-1.2 1.6-2.1 3.4-2.7 5.3-.7 2.1-1 4.3-2.2 6.1-.3-.3-.4-.8-.3-1.2-.6.7-1.1 1.5-1.6 2.3-.2.4-.4.8-.4 1.3 0 .2 0 .3.1.5.1.3.3.5.5.6 2.8-2.1 4.1-5.6 5.6-8.7 1.6-3.3 3.6-6.4 5.9-9.2-.2.8-.5 1.5-.8 2.3-1.9 4.1-3.7 8.1-5.6 12.2 3.4-5 6.4-10.2 9-15.6 0 .6-.2 1.2-.5 1.8-1.1 2.3-2.2 4.7-3.3 7 2.2-4.3 4.9-8.4 8-12.2-1.6 0-2.7 1.4-3.6 2.7.9-1.5 2-2.9 3.3-4.1.1-.2.3-.3.5-.4.2-.2.5-.4.7-.7-1.7.9-3.4 1.9-5.1 2.8 1.4-1.3 2.9-2.4 4.6-3.2-.6 0-1.2.1-1.8.3-1.5.4-3.1.8-4.5 1.5-1.8.9-3.4 2.3-4.8 3.8 0-.5.4-1.6.7-1.9-.2-.4-1 .1-1.4.2-.4.2-.7.5-1 .9-.8 1-1.6 2-2.4 2.9.5-.4 1-.6 1.6-.8.7 1.2-.2 2.7-1.3 3.5-.7.5-1.5.8-2.3 1.2-.4.3-.9.5-1.2.9.3-2 1.8-3.4 2.9-5.1.5-.8.9-1.5 1.1-2.4h-1.1c3.3-2.1 7-3.8 10.8-4.9.4-.1.9-.4.7-.8-.8.1-1.6.2-2.4.4-3.8.8-6.7 2.4-9.7 4.4-.1-.7.6-1.2 1.2-1.6l4.5-3c0-.3-.4-.5-.7-.5-.3 0-.6.2-.9.3-2.3 1.2-4.7 2.4-7 3.6 3-2.1 6.4-3.7 9.7-5.3.1-.2-.1-.5-.3-.6-.2-.1-.5 0-.7.1-1.2.5-2.4.9-3.6 1.4l1.7-1.7c-.9.3-1.9.5-2.8.8-.2-.3 0-.7.3-.9.3-.2.6-.3 1-.4l6.3-1.5c-.7-.1-1.3-.3-1.8-.6-1.3-.1-2.7-.2-3.9-.2h-.1-.1c-1.3 0-2.5.1-3.8.3-.7.3-1.4.6-2 .9-3.3 1.1-6.2 2.5-8.7 4.4z"/><path class="st3" d="M70.8 16c-.3.1-.7.2-1 .4-.3.2-.4.6-.3.9.9-.3 1.9-.5 2.8-.8l-1.7 1.7c1.2-.5 2.4-.9 3.6-1.4.2-.1.5-.2.7-.1.2.1.5.3.3.6-3.3 1.6-6.6 3.2-9.7 5.3 2.3-1.2 4.7-2.4 7-3.6.3-.1.6-.3.9-.3.3 0 .7.2.7.5l-4.5 3c-.6.4-1.2.9-1.2 1.6 3-2 5.9-3.5 9.7-4.4.7-.2 1.5-.3 2.4-.4.2.4-.4.7-.7.8-3.8 1.1-7.4 2.8-10.8 4.9h1.1c-.2.9-.6 1.7-1.1 2.4-1.1 1.7-2.6 3.1-2.9 5.1.4-.4.8-.6 1.2-.9.7-.4 1.6-.8 2.3-1.2 1.1-.8 2-2.3 1.3-3.5-.6.2-1.1.5-1.6.8.8-1 1.6-2 2.4-2.9.3-.3.6-.7 1-.9.4-.2 1.3-.7 1.4-.2-.3.4-.8 1.5-.7 1.9 1.4-1.5 3-2.9 4.8-3.8 1.4-.7 3-1.1 4.5-1.5.6-.1 1.2-.3 1.8-.3-1.7.8-3.3 1.9-4.6 3.2 1.7-.9 3.4-1.9 5.1-2.8-.2.2-.5.4-.7.7.2-.2.4-.3.7-.4.6-.4 1.3-1.1 1-1.8-.7 0-1.6 0-2.1-.5-.2-.2-.3-.4-.4-.5-.3-.3-.9-.4-1.3-.4-1.1.1-2.2.7-3.2 1.1-.3.1-.7.2-1 .3-.8.2-1.6.2-2.3-.1 1.6-1 3.3-1.9 5.1-2.6-1.2.2-2.5.1-3.7-.3.8-.3 1.6-.6 2.4-1-1-.3-1.9-.6-2.8-.7-.5-.1-1-.1-1.6-.2.5.3 1 .5 1.8.6-1.9.7-4 1.2-6.1 1.7z"/><path d="M75.9 58.7c-1 0-1.8.8-1.8 1.8s.8 1.8 1.8 1.8 1.8-.8 1.8-1.8-.8-1.8-1.8-1.8zm-1 2.4c-.4 0-.6-.3-.6-.6 0-.4.3-.6.6-.6.4 0 .6.3.6.6 0 .4-.3.6-.6.6z"/><path class="st6" d="M76.7 42.1c-.1-.2-.4 0-.5.2-.8 1.2-2.4 1.8-3.4 2.9-.5.5-.8 1.2-1.1 1.8-.8 1.5-1.6 3.1-2.2 4.7.7-.9 1.6-1.6 2.5-2.2.8-.9 1.6-1.9 2.5-2.9.7-1.4 1.6-2.7 2.3-4.2-.1-.1-.1-.2-.1-.3z"/><path class="st7" d="M74.9 59.9c-.4 0-.6.3-.6.6 0 .4.3.6.6.6.4 0 .6-.3.6-.6 0-.4-.3-.6-.6-.6z"/><path class="st4" d="M69 154.9c-.4-1-.8-1.9-1-2.6-.2-.8-.3-1.8-.4-2.7 0-.1-.1-.2-.1-.3-.1-.5-1.3-12.5-1.4-15-.1-2.3-.9-7.9-1.9-11.2-.5-1.6-.9-3.3-1.2-4.7-.3-1.3-.6-2.7-.8-3.1-.7-1.1-1.8-3-1.8-3-.1-.1-.1-.3-.2-.4l-.8-6.4-.6.3c-1.1.7-1.8 1.1-2.3 1.3v.5c-.1.5-.6 3.3.1 4.7.4.9 1.1 2.7 1.8 4.6.8 2.2 1.8 4.7 2.3 5.9 1 2.2 4.7 11.2 4.9 11.6.2.6 0 1.3-.6 1.5-.1.1-.3.1-.4.1-.4 0-.9-.3-1.1-.7 0-.1-3.9-9.3-4.9-11.5-.6-1.2-1.5-3.7-2.4-6-.7-1.9-1.4-3.7-1.8-4.5-.9-2-.4-5.2-.2-6.1-.1-.1-.2-.1-.3-.2l-1.7.8v.1c0 .1 0 .2-.1.3v.1c-1.1 3.1-1.5 4.3-1.7 4.8-.4 1.1-1.7 4.2-2.1 5 0 .2-.1.7-.2 1.6-.2 1.7-.6 4.6-.6 6.1 0 1.3.4 3.6.7 5.7.2 1.6.4 3 .5 3.7.1 2.4.5 6.6.9 7.5.3.3.9 1 1.9 2.1 1.2 1.4 3.2 3.7 3.9 4.2 1.1.7 2.5 1.8 3.2 3.6l.1.3c.4 1 1.2 3.2 1.9 5.7 3.3.9 6.7 1.5 10.2 1.9 0-.9-.1-1.7-.3-2.3-.5-1.1-1.1-2.2-1.5-3.3z"/><path class="st2" d="M53.7 87.8l.3-.3c.3-.3.6-1 .7-1.3 0-.1.1-.1.1-.2-.7.1-1.5.2-2.2-.1-.2-.1-.5-.2-.6-.3 0 .1.1.2.2.4.3.6 1 1.3 1.5 1.8z"/><path class="st2" d="M53.5 96.8c-2.4 0-4.3-1.9-4.3-4.3 0-1.6.9-3 2.2-3.8-.4-.4-.8-.9-1.1-1.2-.9-1.2-.7-2.6-.5-3.3.1-.2.2-.4.4-.5-.1-.1-.1-.3-.2-.4-.2-.3-1-1.6-1.4-3.2-.2-.8-.8-1.9-1.2-2.8-.5-.9-.9-1.7-1.1-2.4-.1-.4-.3-.9-.5-1.4-.3-.7-.6-1.5-.7-2.2 0-.2-.1-.6-.1-1.1-.2-1.6-.5-3.9-.5-5.2.1-2 1.1-3 1.9-3.5 1.7-1 2.8.4 3.7 1.6.3.4 1.2 1 3.7 2 0-.5-.2-1.5-.3-2.4-.2-1.7-.4-3.7-.5-4.7-.1-1.7.4-6.1 2.5-9.3.6-.9 1.4-1.7 2.4-2.5-.5 0-1.1-.1-1.6 0-1.6.3-2.5 2.6-4.1 2.4 0-2.3 3.9-2.7 4.4-4.9-.9.5-2.1.2-2.6-.6-.8-.1-1.4.5-1.9 1.1-2.3 3.2-3.1 7.7-6.5 9.6 1.4-3.8 3.2-7.5 5.2-11.1.5-.8.8-2 0-2.4.5-.8.8-1.7 1-2.6-1.3.8-2.6 1.5-3.8 2.3-.4.2-.8.5-1 .9-.5.8-.6 2.2-1.6 2-.3-.9-.5-1.8-.6-2.8-1.2.3-1.7 1.8-1.7 3.1s.1 2.7-.6 3.7c-.4-.8-.7-1.7-.8-2.6-.6 1.5-.9 3-1.1 4.6-.5 3.9.3 8.1 1.6 12.2.3.9 1 1.8.7 2.7-.4 0-.9.1-1.2.4.3 1.3.8 2.6 1.4 3.8.3-.4.6-.7.9-1 .3 2.7-.6 5.6-2.5 7.7-.7.8-1.6 1.7-1.4 2.7.2.8.9 1.2 1.5 1.7s1.2 1.3.8 2c-.8 0-1.3 1-1 1.7.7-.8 1.3-1.7 1.7-2.7.6.3.8 1.1.9 1.7.1.8.2 1.7.3 2.5l.1.1c.3.3.7.6.9 1 1-.5 1.9-.9 1.9-.9.4-.2.9-.1 1.3.2.4.3.5.8.3 1.2-.3.9-1.6 4.1-3.3 4.7-.3.1-.8.3-1.3.5.1.3.2.6.1.9-.1.2-.2.4-.4.6-.1.1-.2.2-.3.4.3.3.5.7.4 1.1-.1.4-.2.9-.5 1.4l.6-.1c.4-.1.8.1 1 .4l.8.9c.3.3.4.7.2 1.1-.3.9-1 3.3-1.2 4.1-.1.8-.1 1.8 0 2.8.4-1.7 1-3.1 1-3.1.2-.5.8-.8 1.4-.6.5.2.9.7.8 1.3L48 104v2c.2-.8.5-1.7.6-1.8.1-.4.5-.6.9-.7.4-.1.8.1 1.1.4l.7.8c.2.2.3.4.3.6l2.1-1c.4-.2.9-.1 1.3.2.2.1.4.3.5.4.6-.3 1.5-.9 2.2-1.3.7-.4 1.1-.7 1.5-.9-.2-1.9-1.1-7.2-1.5-8.7-.8 1.6-2.4 2.8-4.2 2.8z"/><path class="st2" d="M55.9 88.9c.1.1.2.1.3.2 0-.2-.1-.3-.1-.5-.1.1-.2.2-.2.3z"/><path class="st1" d="M56.2 153.4c-.4-1-1-1.7-2.3-2.5-.9-.6-2.4-2.2-4.4-4.6-.7-.8-1.6-1.8-1.8-2-.4-.4-.8-1-1.3-4.5-.2-1.9-.3-3.8-.4-4.6 0-.7-.2-2-.5-3.5-.3-2.1-.7-4.5-.7-6 0-1.7.4-4.6.6-6.4 0-.2.1-.4.1-.6-.1 0-.2.1-.3.1-.1.1-.3.2-.5.3-.6.8-1.9 2.2-5 5.3-.9.9-1.7 1.7-1.8 1.9-.4.5-2.3 3.1-2.9 4 .1.2.3.4.4.6.3.4.3 1 0 1.4-1.1 1.5-2.8 3.9-3.1 4.5-.4.8 0 3.7.7 5.6.2.7.7 2.3 1.2 4.2 7.1 5 14.9 8.8 23.4 11.3-.6-1.8-1.2-3.4-1.5-4.2l.1-.3z"/><path class="st7" d="M53.5 94.5c1.1 0 2-.9 2-2s-.9-2-2-2-2 .9-2 2 .8 2 2 2z"/><path class="st3" d="M40.7 82.1zM43.3 79.8c-.4 1-1 1.9-1.7 2.7-.3-.7.3-1.6 1-1.7.3-.7-.2-1.5-.8-2-.6-.5-1.3-1-1.5-1.7-.2-1 .7-1.9 1.4-2.7 1.8-2.1 2.7-4.9 2.5-7.7-.3.3-.6.7-.9 1-.6-1.2-1-2.5-1.4-3.8.3-.3.8-.4 1.2-.4.3-.9-.4-1.8-.7-2.7-1.4-4.1-2.1-8.2-1.6-12.2.2-1.6.5-3.1 1.1-4.6.1.9.3 1.8.8 2.6.8-1 .6-2.4.6-3.7 0-1.3.5-2.8 1.7-3.1.1.9.3 1.9.6 2.8.9.2 1-1.3 1.6-2 .3-.4.7-.6 1-.9 1.3-.8 2.6-1.5 3.8-2.3-.1.9-.5 1.8-1 2.6.8.4.4 1.6 0 2.4-2 3.5-3.8 7.3-5.2 11.1 3.5-1.8 4.2-6.4 6.5-9.6.4-.6 1.1-1.2 1.9-1.1.6.8 1.8 1.1 2.6.6-.5 2.2-4.5 2.6-4.4 4.9 1.6.2 2.5-2.1 4.1-2.4.5-.1 1.1 0 1.6 0 2.3-1.9 5.1-3.3 5.3-3.4.3-.1.6-.2.9 0 .3.1.5.4.6.7 0 0 .7 2.2 1 3 0 .1.1.2.1.3.2 1.1.1 5-.2 7.3.7-1 1.3-2.2 1.5-3.5.3-1.9 0-4 1-5.8.3-.5.9-1 1.4-.7.4.2.4.7.5 1.1.1 2.4-.3 4.9-1.2 7.2.6-.4 1.7-1.5 3-2.9-.9.6-1.8 1.4-2.5 2.2.7-1.6 1.4-3.2 2.2-4.7.3-.6.7-1.3 1.1-1.8 1-1.1 2.6-1.6 3.4-2.9.1-.2.4-.4.5-.2.1.1 0 .2 0 .3-.7 1.5-1.6 2.8-2.3 4.2.8-.9 1.5-1.9 2.2-2.8 1-1.4 2.8-4.2 4.3-6.6-.2-.7-.7-2.3-1.2-2.4.3-.5.7-1.7.9-2.3.6-2.1 1.8-3.9 3.5-5.2.9-.7 2.2-1.5 3.4-2.2-.5.2-1 .5-1.5.7-.9.4-1.9.6-2.9.7 1-.8 1.9-1.5 2.9-2.3-.4-.1-.7-.3-1.1-.4.2-.5.5-1 .7-1.5-.6.1-1.2.1-1.7 0 0-.3.1-.5.2-.8-1.2 1.2-2.3 2.6-3.3 4.1.9-1.3 2-2.7 3.6-2.7-3.1 3.8-5.7 7.9-8 12.2 1.1-2.3 2.2-4.7 3.3-7 .3-.6.5-1.2.5-1.8-2.6 5.4-5.6 10.7-9 15.6 1.9-4.1 3.7-8.1 5.6-12.2.3-.7.7-1.5.8-2.3-2.4 2.8-4.4 5.9-5.9 9.2-1.5 3.1-2.8 6.6-5.6 8.7-.3-.1-.4-.3-.5-.6-.1-.2-.1-.3-.1-.5 0-.4.2-.9.4-1.3.4-.8 1-1.6 1.6-2.3 0 .4.1.8.3 1.2 1.2-1.8 1.6-4 2.2-6.1.6-1.9 1.5-3.7 2.7-5.3 1-1.3 2.1-2.6 3.2-3.8.7-.8 1.4-1.5 2.1-2.3-2.3 1.6-4.6 3.3-6.3 5.5-.8 1.1-1.5 2.2-2.2 3.4-.7 1.1-1.5 2.3-2.2 3.4-1 1.8-1.9 3.7-2.4 5.7.1-.4-.2-.7.2-1.4-.3.2-.8-.2-.7-.6-.3.5-.9.7-1.4.6 1.6-2.4 3.2-4.8 4.7-7.2.4-.7.9-1.4.9-2.2-2.9 2.2-4.2 5.9-6 9.2-.3.6-.6 1.1-1 1.6-.3-.6-1.2-.7-1.9-.6 1.7-2.5 3.4-5.1 4.5-7.9 1-2.7 1.5-5.6 3-8-1.1-.3-2 .8-2.6 1.8-1.1 1.8-2.2 3.7-3.3 5.5 1.1-2.9 2.6-5.7 4.5-8.1-4.8 3.7-9 8.8-9.9 14.8-.4-2.1 0-4.6-.5-6.7-.2.3-1.3.9-1.6 1 1.3-2.6 3.5-6.8 5.9-9.3-2.2 1.1-5.5 4.1-8 5.2 0-2.6.5-4.1 2.4-5.9-1.6.7-3.1 1.7-4.2 3 .8-2.1 2.5-3.7 4.2-5.1.9-.8 1.9-1.6 2.9-2.4 2.6-1.9 5.4-3.3 8.3-4.8.7-.3 1.3-.7 2-.9-2.2.3-4.3.9-6.4 1.6-6.5 2.4-9.7 4.1-12.8 8.5-2.2 3-3.4 5.6-4.4 7.7-.5 1.1-1 2-1.4 2.7-1.3 2.1-3.1 7.5-3.3 9.7-.1 1.7.8 4.1 1.2 4.8.1.2.1.4.1.6-.1 1.4-.5 5.2-.5 6.3v1.1c.1 1.9.3 4.4.4 5.2.1.9.9 3.7 1.2 4.8l.4 1.1c.1.3.1.6-.1.9h.1c.4.2.7.6.7 1 0 2.1-.3 2.6-.6 2.8-.1.1-.2.3-.3.5-.6 1.2-1.3 2.3-2.1 2.8-.1.1-.2.1-.3.1.1.2.2.4.2.6v.5c0 .9-.1 1.5-.4 1.9.4.2.7.4.9.6.1 0 .2 0 .2.1.4.2.7.6.7 1.1 0 .4-.2.8-.6 1 0 0-.1 0-.1.1-.3.3-.7.8-1.2 1.1.4-.1.9-.1 1.5-.2h.3c.4-.1.9.1 1.1.5.1.1.2.3.2.4l1.4-.2c.3 0 .5 0 .7.2-.1-.8-.2-1.7-.3-2.5.2-.1.1-.9-.5-1.2z"/><path class="st1" d="M30.4 135.9c.4-.9 2-3.1 2.9-4.3-.6-.9-.5-1.4-.5-1.6.1-.9 3.4-5.1 3.5-5.3.2-.2.8-.8 1.9-2l1.3-1.3c-.9.5-2.4.8-4.4 1.3-1.8.4-3.8.9-5.5 1.5-2.7 1-10 2.7-14.1 3.7 4.5 6.2 9.9 11.8 16 16.4-.2-.6-.3-1-.4-1.3-.6-1.4-1.5-5.2-.7-7.1z"/><path d="M96.8 86.6c-.6-.3-1.6-.4-4.4-.4-.4 0-1.2 0-2 .1-1.3.1-2.9.1-3.9.1-1.2 0-6.1.7-7 .9-.6.1-1.1.7-1 1.3.1.6.7 1.1 1.3 1 2.1-.3 5.7-.8 6.6-.8 1.1 0 2.7 0 4.1-.1.8 0 1.5-.1 1.9-.1 2.2 0 3 .1 3.3.2.3.2.6.4.7.6.2.2.5.3.8.3.3 0 .6-.1.8-.3.4-.4.4-1.2 0-1.6-.1-.3-.6-.8-1.2-1.2z"/><path d="M123.1 118.4c-.2-.1-.7-.2-1.9-.7-1.7-.7-3.9-1.6-5-2.1 0-.3-.1-.6-.1-.9-.3-1-3.5-3.2-5-4-.1-.9-.2-2.6-.2-4.2.2.1.4.2.7.2h.1c.5 0 .8-.4 1-.8 0-.1 1.2-3.6 1.6-5.6.5-2-.2-4.8-.7-6.4-.1-.4-.3-.8-.5-1.2.2 0 .3 0 .5-.1.5 0 .9-.4 1-.9.1-.5-.2-1-.6-1.2-.4-.2-1.3-.6-1.8-.8h-.1c.2-.3.3-.6.2-.9-.1-.5-.6-.9-1.1-.9h-1.8c-.2 0-.6-.1-1.1-.1v-.1H108.6c.3 0 .5-.1.7-.3l.9-.8c.4-.2 1.2-.5 1.6-.8.4-.3 1.8-1.5 1.9-1.6.3-.2.4-.5.4-.9 0-.3-.1-.6-.3-.8v-.1c.4 0 .7-.1.9-.2.9-.2 1.5-1.3 1.9-3.1.1-.4 0-.8-.4-1.1-.3-.3-.8-.4-1.2-.2-1.2.4-3.2 1-4 .8-.6-.1-.8-.8-.9-1.2l.1-.5c.5-2.9.8-5.2.9-6.9.7-1 3.1-4.3 3.7-5.8.9-2.1 1-3.5 1.2-5.1.1-.7.2-1.4.3-2.2.1-.7.3-1.3.4-1.9.4-1.9.9-3.9.8-8.1-.1-4.8-3.2-9.8-5.6-13.5 0 0 0-.1-.1-.1l-.2-.3c-.2-.3-.3-.5-.5-.8 0 0 0-.1-.1-.1-.2-.4-.5-.8-.7-1.1-2.4-4.1-6.4-7.6-8.3-8.9-1.8-1.3-4.9-1.6-6-1.6-.2-.2-.4-.4-.6-.7-.4-.8-1.2-1.8-2.4-2.3-1.2-.4-3.9-.8-4.8-.9-1.2-.8-6.9-4.2-11.1-4.8-2-.3-3.9-.4-5.8-.4H71c-3.7.1-7.4.8-11 2.1-6.8 2.6-10.5 4.5-13.9 9.3-2.3 3.2-3.6 5.9-4.6 8-.5 1-.9 1.9-1.3 2.6-1.4 2.4-3.4 8.2-3.6 10.7-.2 2.2.9 4.8 1.3 5.7-.1 1.1-.5 5-.5 6.2v1.2c.1 1.8.3 4.5.5 5.5.2 1.2 1.2 4.9 1.3 5.1v.1l.2.5c-.3.2-.7.5-1.2.8-1.7 1.1-2.8 1.5-2.8 1.5-.4.1-.8.5-.8 1s.2.9.6 1.1c.1 0 .9.5 1.6.6.6.1 1.7 0 2.5-.2-.3.5-.6 1.1-.9 1.3-.3 0-.6.1-.9.2-.6.2-.7.2-.8.1-.9-.8-3.1-2.5-3.2-2.5-.4-.3-.9-.3-1.3 0s-.6.8-.5 1.2c.2.8 1 3.5 2.6 4.3 0 0-.1.1-.1.2-.2.4-.2 1 .2 1.4.6.6 2.2 2.1 3.3 2.3h.1c-.1.1-.2.2-.3.2h-.2c-.9 0-2.8-.5-3.4-.7-.5-.1-1 0-1.2.4-.3.4-.3.9 0 1.3.8 1.2 2.3 3.1 3.7 3.3h1.1c.1.3.3.5.6.7.3.1 1 .5 1.7.7-.6.2-1.3.4-1.3.4-.6.2-.9.7-.8 1.3.1.6.6 1 1.2.9.3 0 1.8-.2 3-.5-1.1.5-2.1 1-2.1 1.1-.4.2-.7.7-.6 1.2.1.5.5.9 1 .9.2 0 .4 0 .6.1 0 .3.1.7.7 1.4-.1.1-.1.2-.2.2-1.1 0-2.2-.3-2.3-.3-.5-.1-1 .1-1.3.5-.3.4-.2 1 .2 1.4-.3 0-.6-.1-.8-.1-.5-.1-.9.1-1.2.5-.2.4-.2.9.1 1.3.4.5 1.6 1.4 3.1 1.2 1.2-.2 2.7-.8 3.2-1l1.3-.2c-.3 1.1-.9 2.9-1 3.7-.3 1.8 0 4.3.4 5.8.6 2.7 3.4 6.2 4 6.9-.3.8-.7 1.7-1 2.4-.6-.1-1.3 0-2.1.5-.1.1-.3.2-.6.3-.5.2-1 .5-1.7.7-1.2.5-2.5 1-3.5 1.6-.6.3-2.2.7-3.8 1-1.9.4-4 .9-5.8 1.5-2.8 1-10.9 2.9-14.8 3.8.5.7.9 1.3 1.4 2 4.2-1 11.4-2.7 14.1-3.7 1.7-.6 3.7-1.1 5.5-1.5 2-.4 3.6-.8 4.4-1.3l-1.3 1.3c-1.1 1.2-1.8 1.8-1.9 2-.1.2-3.4 4.4-3.5 5.3 0 .2-.1.7.5 1.6-.9 1.2-2.5 3.4-2.9 4.3-.8 1.9.1 5.8.6 7.3.1.3.2.7.4 1.3 1 .7 2 1.5 3 2.2-.5-1.9-1-3.6-1.2-4.2-.7-1.9-1-4.7-.7-5.6.3-.6 2-3 3.1-4.5.3-.4.3-1 0-1.4-.1-.2-.3-.4-.4-.6.6-1 2.4-3.6 2.9-4 .1-.2 1-1 1.8-1.9 3.1-3.1 4.5-4.5 5-5.3.2-.1.4-.2.5-.3.1-.1.2-.1.3-.1 0 .2-.1.4-.1.6-.3 1.9-.6 4.7-.6 6.4 0 1.5.4 3.9.7 6 .2 1.5.4 2.8.5 3.5 0 .8.2 2.8.4 4.6.4 3.5.8 4.1 1.3 4.5.2.2 1.1 1.2 1.8 2 2 2.3 3.5 4 4.4 4.6 1.3.8 1.9 1.5 2.3 2.5l.1.3c.3.8.9 2.3 1.5 4.2.9.3 1.7.5 2.6.7-.7-2.6-1.5-4.7-1.9-5.7l-.1-.3c-.7-1.8-2.1-2.9-3.2-3.6-.7-.4-2.7-2.8-3.9-4.2-1-1.1-1.6-1.8-1.9-2.1-.4-.9-.8-5.1-.9-7.5 0-.8-.2-2.2-.5-3.7-.3-2-.7-4.4-.7-5.7 0-1.6.4-4.4.6-6.1.1-1 .2-1.4.2-1.6.3-.8 1.6-3.9 2.1-5 .2-.5.7-1.8 1.7-4.8v-.1c0-.1.1-.2.1-.3v-.1l1.7-.8c.1.1.2.2.3.2-.2.9-.7 4.1.2 6.1.4.8 1 2.6 1.8 4.5.9 2.4 1.8 4.8 2.4 6 1 2.2 4.8 11.4 4.9 11.5.2.4.6.7 1.1.7.1 0 .3 0 .4-.1.6-.2.9-.9.6-1.5-.2-.4-3.9-9.4-4.9-11.6-.5-1.2-1.5-3.7-2.3-5.9-.7-1.9-1.4-3.8-1.8-4.6-.6-1.4-.2-4.2-.1-4.7.1-.2.1-.3 0-.5.5-.3 1.2-.7 2.3-1.3l.6-.3.8 6.4c0 .2.1.3.2.4 0 0 1.1 1.9 1.8 3 .3.4.5 1.8.8 3.1.3 1.5.7 3.1 1.2 4.7 1 3.3 1.9 8.9 1.9 11.2.1 2.5 1.4 14.5 1.4 15 0 .1 0 .2.1.3.1.8.2 1.8.4 2.7.2.8.6 1.7 1 2.6.5 1 1 2.2 1.3 3.4.1.5.2 1.4.3 2.3.8.1 1.5.2 2.3.3 0-.4 0-.7-.1-1v-.1c.1-.3.6-1.4 1.1-2.4 1.2-2.4 3-6 3.9-8.7.3-.8.5-1.7.8-2.6 1-3.2 2-6.5 3-8.2 1.3-2.1 3.4-3.9 3.4-3.9.5-.4.6-1.1.2-1.6-.4-.5-1.1-.6-1.6-.2-.1.1-2.4 2-3.9 4.4-1.2 2-2.2 5.3-3.3 8.8-.3.9-.5 1.7-.8 2.6-.8 2.5-2.5 6-3.7 8.3-.3-.8-.6-1.5-.9-2.2-.4-.9-.8-1.7-.9-2.3-.2-.6-.3-1.5-.4-2.5.7-1.7 1.5-3.7 1.8-4.2.1-.2.4-.7.8-1.4 1.1-1.9 3.2-5.5 4.1-6.8 1.2-1.7 3.9-5.4 4.6-6.3.5-.6 2.5-2.6 3.7-3.8l1-1c.7-.7 1.7-2.2 2.9-4.1.9-1.4 1.8-2.9 2.8-4.1 2.2-3 6.3-8.3 6.7-8.7.2-.2.7-.7 1.6-4.4v-.5c1.5-.7 3-1.4 4.4-2.7.7-.7 1.3-1.5 1.8-2.5l.2.1c1 2.1 2 4.6 2.1 5.1.1.9.3 4.9.4 6.8-.1.2-.2.5-.6 1.8-.5 1.5-1.7 5.5-2.3 6.2-.7.8-1.7 2.8-3.3 6.2-1 2-2 4.1-2.5 4.9-.3.5-.2 1.2.3 1.6.2.1.4.2.6.2.4 0 .7-.2 1-.5.6-.9 1.6-3 2.7-5.2 1.1-2.3 2.4-5.1 2.9-5.7.9-1 1.8-3.9 2.8-7.1v-.1c1.1.7 3 2 3.5 2.6 0 .3.1.7.1.9 0 .4-.4 6-4.1 10-4.1 4.5-7.1 8.5-8.2 10.1l-.1.1c-1 1.4-2.1 2.7-3.1 4-.3.4-.7.8-1.1 1.3-1.8 2-4.9 4.9-6.7 6.5l-.3.2c-1.3 1.1-3.2 2.8-3.8 3-.8.1-1.4.5-1.7.6-.1 0-.1.1-.2.1-.3.1-.7.3-2.5 2.5-.1.1-.1.1-.1.2-1.3 2.5-2.7 5.3-3.3 6.3h2.6c.8-1.5 1.9-3.7 2.7-5.2.5-.7 1.2-1.4 1.5-1.7.1 0 .2-.1.3-.2.3-.1.7-.4 1.2-.4.8-.1 2-1.1 4.8-3.5l.3-.2c1.6-1.4 4.1-3.8 6-5.7-.1 3.4-.1 8.2 0 9 .1.8.3 3.3.5 5.9.8-.2 1.5-.3 2.3-.5-.2-2.5-.4-4.8-.5-5.6-.2-1.6.1-10.3.2-11.5 1-1.2 2-2.4 2.9-3.7l.1-.1c1.1-1.5 4-5.5 8-9.9 3.1-3.4 4.1-7.6 4.5-9.8 1.1.5 2.7 1.1 4 1.7.3.3 2.3 2.2 3.3 3.4.5.6 1.1 1.3 1.7 1.8.6.6 1.1 1.1 1.3 1.5.1.2.2.3.4.5-9.1 3.7-9.2 3.8-9.4 4.5-.1.3 0 .7.1 1 .3.5.4.6 10.1 2.4-.3 2.7-1.3 10-1.6 12.5.9-.6 1.7-1.2 2.6-1.8.5-4.2 1.4-11.1 1.5-11.5.1-.6-.3-1.2-.9-1.3-2.5-.5-5.1-1-7.1-1.4 2.1-.9 4.8-2 7-2.9.3-.1.6-.4.7-.8.1-.3 0-.7-.2-1 0 0-.7-.9-1.3-1.6-.3-.5-.9-1-1.5-1.7-.5-.5-1.1-1.2-1.6-1.7-.1-.1-.2-.2-.3-.4 4.7 1.2 15 3.8 16.3 4.1.9.2 3.1.8 5.5 1.6.5-.7.9-1.3 1.4-2-3.2-1-6.2-1.8-6.3-1.8-1.4-1.1-16.8-5-18.2-5.4zm-14-33.8c-.1 0-.2.1-.3.2l-.1.1c.1-.4.2-.8.2-1.2.1.2.2.4.5.6.1 0 .1.1.2.1-.2.1-.3.2-.5.2zm1.2-3.8c-.1.1-.2.3-.2.5-.1.3 0 .5.1.8-.2.1-.4.2-.6.2-.2.1-.3.2-.4.3.1-.7.3-1.4.4-2.1.2.1.4.2.7.3zm-52.8 22.8c-.7.4-1.7 1-2.2 1.3-.2-.1-.4-.3-.5-.4-.3-.3-.8-.4-1.3-.2l-2.1 1c0-.2-.1-.5-.3-.6l-.7-.8c-.3-.3-.7-.4-1.1-.4-.4.1-.7.3-.9.7 0 .1-.4 1-.6 1.8v-2l.4-2.1c.1-.6-.2-1.1-.8-1.3-.5-.2-1.1.1-1.4.6 0 .1-.7 1.4-1 3.1-.1-1-.1-2 0-2.8.1-.8.9-3.2 1.2-4.1.1-.4 0-.8-.2-1.1l-.8-.9c-.3-.3-.6-.4-1-.4l-.6.1c.3-.5.5-1 .5-1.4.1-.4-.1-.8-.4-1.1.1-.1.2-.2.3-.4.2-.2.3-.4.4-.6.1-.4.1-.7-.1-.9.5-.2 1-.4 1.3-.5 1.7-.6 2.9-3.8 3.3-4.7.2-.4 0-.9-.3-1.2-.4-.3-.9-.4-1.3-.2 0 0-.8.4-1.9.9-.2-.4-.6-.7-.9-1l-.1-.1c-.2-.1-.5-.2-.7-.2l-1.4.2c0-.2-.1-.3-.2-.4-.3-.4-.7-.5-1.1-.5h-.3c-.6.1-1.1.2-1.5.2.5-.3.9-.8 1.2-1.1 0 0 .1 0 .1-.1.3-.2.6-.6.6-1 0-.5-.3-.9-.7-1.1 0 0-.1 0-.2-.1-.2-.2-.5-.4-.9-.6.3-.4.4-1.1.4-1.9v-.5c0-.2-.1-.4-.2-.6.1 0 .2-.1.3-.1.8-.5 1.5-1.6 2.1-2.8.1-.2.2-.4.3-.5.2-.2.6-.8.6-2.8 0-.5-.3-.9-.7-1H42c.1-.3.2-.6.1-.9l-.4-1.1c-.3-1.1-1.1-3.9-1.2-4.8-.1-.8-.3-3.4-.4-5.2v-1.1c0-1 .3-4.9.5-6.3 0-.2 0-.4-.1-.6-.4-.8-1.4-3.1-1.2-4.8.2-2.2 2-7.6 3.3-9.7.5-.8.9-1.7 1.4-2.7 1-2.1 2.3-4.6 4.4-7.7 3.1-4.3 6.3-6 12.8-8.5 2.1-.8 4.3-1.3 6.4-1.6 1.2-.2 2.5-.3 3.8-.3h.2c1.3 0 2.6 0 3.9.2.5.1 1 .1 1.6.2.9.1 1.8.4 2.8.7 3.7 1.3 7.6 3.8 7.6 3.9.1.1.3.2.5.2.9.1 3.5.4 4.5.8.6.2 1.1.9 1.6 1.5.4.5.8.9 1.2 1.2l.1.1c.2.1.3.1.5.2 1 0 3.9.3 5.2 1.2.6.4 1.5 1.1 2.5 2 .8.7 1.7 1.6 2.5 2.6l.1.1c.3.4.6.8 1 1.2.6.7 1.1 1.5 1.6 2.3.2.4.5.8.7 1.2 0 .1.1.1.1.2.2.3.3.5.5.8l.1.2s0 .1.1.1c.5.9 1.1 1.8 1.7 2.8 1.7 3 3.4 6.4 3.5 9.5.1 3.9-.4 5.7-.8 7.5-.2.7-.3 1.3-.4 2.1-.2.9-.2 1.6-.3 2.3-.2 1.5-.3 2.7-1 4.5-.3.6-1 1.8-1.7 2.9-.1-1-.3-2.1-.5-3.3-.2-1.1-.3-2.2-.5-3.2-.2-1.3-.4-2.9-.6-4.7-.3-2.2-.5-4.5-.8-6-.6-4.3-2.9-9.6-4.1-12-.1-.1-.1-.2-.2-.3-.7-1.2-1.6-2.4-2.4-3.3-.3-.4-.6-.7-.9-1-.1-.2-.3-.3-.4-.4-.3-.4-.5-.6-.5-.6l-.1-.1s-.4-.3-1-.7c-1.6-1.1-3-1.5-4.1-1.4h-.1c-.9.2-2 .6-3.1.9-1 .3-2.1.7-2.5.8-.6 0-1.9.2-3 .4-.6.1-1.1.2-1.6.3-.8.2-1.3.5-1.4 1.1-.2.5-1.1 1.9-2.1 3.7-.1.2-.3.5-.4.7-1.5 2.4-3.3 5.2-4.3 6.6-.7.9-1.5 1.9-2.2 2.8-.8 1-1.7 2-2.5 2.9-1.2 1.4-2.3 2.5-3 2.9-1.2.8-2.3 2-3.4 3.1.1-.3.2-.8.2-1.4.3-2.4.4-6.3.2-7.3 0-.1 0-.2-.1-.3-.3-.7-1-3-1-3-.1-.3-.3-.6-.6-.7-.3-.1-.6-.1-.9 0-.2.1-3 1.5-5.3 3.4-1 .8-1.8 1.6-2.4 2.5-2.1 3.2-2.6 7.6-2.5 9.3.1 1 .3 2.9.5 4.7.1.9.2 1.9.3 2.4-2.6-1-3.4-1.6-3.7-2-.9-1.2-2-2.6-3.7-1.6-.8.5-1.8 1.5-1.9 3.5 0 1.3.3 3.7.5 5.2.1.5.1.8.1 1.1.1.7.4 1.5.7 2.2.2.5.4 1 .5 1.4.2.7.6 1.5 1.1 2.4.5.9 1 2 1.2 2.8.5 1.6 1.2 2.9 1.4 3.2.1.1.1.3.2.4-.2.1-.3.3-.4.5-.3.7-.5 2.2.5 3.3.3.4.7.8 1.1 1.2-1.3.7-2.2 2.2-2.2 3.8 0 2.4 1.9 4.3 4.3 4.3 1.9 0 3.4-1.2 4.1-2.8.4 1.5 1.3 6.9 1.5 8.7-.7.3-1.1.6-1.8 1zm-13.7-15c.4-.2.9-.4 1.4-.7-.1.1-.2.3-.3.3-.3.1-.7.2-1.1.4zm-3.1-6.5zm12.8 8.3c1.1 0 2 .9 2 2s-.9 2-2 2-2-.9-2-2 .8-2 2-2zm-1.6-4.7l.6.3c.7.3 1.5.2 2.2.1 0 .1-.1.1-.1.2-.1.3-.4 1-.7 1.3l-.3.3c-.5-.5-1.2-1.3-1.6-1.8 0-.2-.1-.3-.1-.4zm4 3.2c.1-.1.1-.2.2-.2 0 .1.1.3.1.5-.1-.2-.2-.3-.3-.3zm50.2-2.8c-.1.8-.3 1.6-.4 2.3-.2 1.1-.3 2-.4 2.6-.2 2-.5 4-1.1 5.7-.4 1.1-.9 2-1.6 2.6-1.2 1.1-2.5 1.7-3.9 2.4-.5.2-.9.4-1.4.7-.6.3-1 .5-1.5.8-1.4.8-3.4.9-5.5 1-.8 0-1.6.1-2.4.1-4.1.4-6.1.1-7.8-.1-.3 0-.5-.1-.8-.1-.8-.1-2.6-.8-4.2-1.4-1.5-.6-3-1.1-4.2-1.4-1.7-.4-2.1-.8-3.8-2.3-.3-.3-.6-.6-1-.9-2.5-2.1-3.3-3.2-3.3-3.2-.4-.5-1.1-.6-1.6-.3s-.6 1.1-.3 1.6c.1.1 1 1.3 3.7 3.7.4.3.7.6 1 .9 1.8 1.6 2.5 2.2 4.8 2.8 1 .3 2.5.8 3.9 1.4 1.9.7 3.7 1.4 4.8 1.5.2 0 .5.1.7.1 1 .1 2.3.3 4.3.3 1.1 0 2.4-.1 4-.2.8-.1 1.6-.1 2.3-.1 2.4-.1 4.7-.2 6.6-1.4.1 0 .1-.1.2-.1l-.7 2.1c-.8.8-5 6.3-6.9 8.9-1 1.3-2 2.9-2.8 4.3-1 1.6-2 3.2-2.6 3.7-.2.2-.6.6-1 .9-1.8 1.8-3.4 3.3-3.9 4-.7.9-3.5 4.7-4.7 6.4-1 1.4-3 4.9-4.2 7-.4.6-.7 1.1-.8 1.4-.1.2-.2.4-.4.7-.4-3.8-.9-8.9-.9-10.3-.1-2.5-.9-8.3-2.1-11.8-.5-1.5-.8-3.1-1.1-4.5-.4-1.8-.6-3-1.1-3.8-.5-.9-1.4-2.3-1.7-2.9l-1-7.7c0-.6-.1-1.8-.6-4.7-.2-1.1-.7-4.6-1.1-5.6-.2-.7-.6-2-.9-3.2-.5-1.9-.6-2.4-.8-2.6-.1-.2-.7-1.7-1.1-3-.1-.3-.3-.5-.6-.7-.3-.1-.6-.1-.9 0-.6.2-1.6.5-2 .3-.6-.2-.8-.7-1.3-1.7 0-.1-.1-.1-.1-.2 0 0-.8-1.1-1.2-2.6-.3-1-.9-2.2-1.4-3.2-.4-.7-.8-1.5-.9-1.9-.1-.6-.4-1.2-.6-1.7-.2-.6-.5-1.2-.5-1.6 0-.2-.1-.6-.1-1.1-.2-1.4-.5-3.7-.4-4.9 0-.9.4-1.3.7-1.6.2.2.6.7.8 1 .1.2.3.3.4.5.1.2.2.5.5 1.2.4.9 1.5 3.2 1.6 3.9-.1.2-.2.4-.3.7-.3.6-.7 1.3-.5 2 0 .3.2 1.1 2.5 2.4.2.1.4.1.5.1.4 0 .8-.2 1-.6.3-.6.1-1.2-.5-1.5-.5-.2-1-.6-1.3-.8.1-.2.2-.4.2-.5.2-.4.4-.8.5-1.3.2-.6-.1-1.5-1-3.7.4.2.9.3 1.3.5l.2.1c.6.2 1.2.2 1.7-.2.6-.4.9-1.1.9-1.9 0-.3-.1-1-.3-2.9-.2-1.6-.4-3.6-.5-4.5-.1-1.5.4-5.4 2.1-7.9 1.1-1.6 3.8-3.4 5.6-4.4.2.6.5 1.4.6 1.8.2.9-.1 6.3-.4 7.8-.2.7-1.6 2.6-3.5 4.7-.2.2-.3.5-.3.8 0 .6.5 1.1 1.1 1.1.2 0 .3 0 .4-.1.5-.2 2.8-1.2 4.3-2.6.6-.5 1.1-1.1 1.7-1.7 1-1.1 2.1-2.2 3.1-2.9.6-.4 1.3-1.1 2.1-1.9 1 0 1.8 0 2.1.2.4.2 1.4.6 1.7.5.3-.1 1.2 0 1.9-.1.7 0 1.7.2 2.3.8.2.2.5.3.9.5 0 0 .6 0 .9-.7.1-.3-.8-1.1-.8-1.1s-.7-.3-1.4-.5c-.8-.2-1.9-.3-2.8-.3-.9.1-1 .4-1.5.2s-1-.4-1.9-.5c-.2 0-.4-.1-.5-.1 2.4-2.7 5-6.1 5.2-6.3 1.3-1.7 3.5-5.3 4.4-6.7 1.6-2.5 2.3-3.8 2.6-4.5.8-.2 3-.5 4.2-.6.8-.1 1.9-.5 3.1-.9 1-.4 2-.7 2.7-.8.3-.1 1.2.2 2.5 1 .4.2.6.5.7.5.1.1.2.2.4.5.9 1 2.6 2.9 3.5 4.6 1.3 2.4 3.3 7.4 3.9 11.2.2 1.5.5 3.7.7 5.9.2 1.8.4 3.5.6 4.7.1 1 .3 2.1.5 3.2.3 1.9.6 3.9.7 5.1v1.1c-.1 1.6-.4 4.1-.9 7l-.1.3c-.1.2-.1.3-.1.5-.1.6-.3 1.3-.4 2.1-.1 1.9-.5 4.4-1 6.6zm1.8 3.9h-.1.1c-.1 0 0 0 0 0zm-.1 6.5c-.1.1-.1.2-.1.3-.1 0-.1-.1-.2-.1l-.7-.3c.4-1.3.6-2.7.7-4.1.3 0 .6 0 .8.1.1.2.3.7.5 2.2 0 .3-.5 1.2-1 1.9zm.9 2c.3.2.6.5.8.7.1.3.2.8.2 1.5-.4-.8-.7-1.6-1-2.2zm1.6-1.6c.4-.7.8-1.7.7-2.5 0-.2 0-.3-.1-.5.1.3.3.5.3.7.7 2.2.9 4.2.6 5.2 0 .1 0 .2-.1.3-.1-.9-.2-1.7-.5-2.1-.1-.5-.5-.8-.9-1.1z"/></svg>