<?xml version="1.0" encoding="utf-8"?>
<!-- Generator: Adobe Illustrator 18.0.0, SVG Export Plug-In . SVG Version: 6.00 Build 0)  -->
<!DOCTYPE svg PUBLIC "-//W3C//DTD SVG 1.1//EN" "http://www.w3.org/Graphics/SVG/1.1/DTD/svg11.dtd">
<svg version="1.1" id="Capa_1" xmlns="http://www.w3.org/2000/svg" xmlns:xlink="http://www.w3.org/1999/xlink" x="0px" y="0px"
	 viewBox="0 0 150 150" enable-background="new 0 0 150 150" xml:space="preserve">
<g>
	<polygon fill="#FFFFFF" points="115.9,46.6 113,46.6 113,102.4 143,102.4 143,99.7 115.9,99.7 	"/>
	<path fill="#FFFFFF" d="M0,0v150h150V0H0z M144.9,3l-81,81V48.2H45.2l-9.6,39.5l-9.6-39.5H7.4v54.2h11V60.5h1.2L30.2,100h11
		l10.6-39.5H53v34.5l-50,50V3H144.9z M105.6,73.8c0,11.9-3.7,25.8-15.6,25.8H72.1V80l27.1-27.1C103.9,57.5,105.6,65.8,105.6,73.8z
		 M5.1,147l64.1-64.1v19.5H90c14,0,18.6-14.5,18.6-28.5c0-9.2-2.1-17.9-7.4-22.9L147,5.1V147H5.1z"/>
</g>
</svg>
