<?xml version="1.0" encoding="utf-8"?>
<!-- Generator: Adobe Illustrator 18.0.0, SVG Export Plug-In . SVG Version: 6.00 Build 0)  -->
<!DOCTYPE svg PUBLIC "-//W3C//DTD SVG 1.1//EN" "http://www.w3.org/Graphics/SVG/1.1/DTD/svg11.dtd">
<svg version="1.1" id="Capa_1" xmlns="http://www.w3.org/2000/svg" xmlns:xlink="http://www.w3.org/1999/xlink" x="0px" y="0px"
	 viewBox="0 0 250 61.7" enable-background="new 0 0 250 61.7" xml:space="preserve">
<g>
	<polygon fill="#FFFFFF" points="14.2,37.2 9.4,17.4 0,17.4 0,44.6 5.5,44.6 5.5,23.6 6.1,23.6 11.4,43.4 16.9,43.4 22.3,23.6 
		22.9,23.6 22.9,44.6 28.4,44.6 28.4,17.4 19,17.4 	"/>
	<rect x="32.8" y="24.6" fill="#FFFFFF" width="5.4" height="20"/>
	<rect x="32.8" y="16.6" fill="#FFFFFF" width="5.4" height="5.4"/>
	<rect x="42.4" y="16.6" fill="#FFFFFF" width="5.4" height="28"/>
	<path fill="#FFFFFF" d="M59.8,24.1c-5.8,0-8.8,3.6-8.8,10.7c0,7.2,2.6,10.2,8.6,10.2c3.7,0,8.3-1.1,8.3-1.1l-0.1-4
		c0,0-4.1,0.4-7.4,0.4c-2.9,0-4-1.1-4-3.5h11.7l0.4-3.7C68.5,27.1,65.6,24.1,59.8,24.1z M56.3,32.8c0-3,0.9-4.3,3.5-4.3
		c2.5,0,3.4,1,3.4,4.3H56.3z"/>
	<path fill="#FFFFFF" d="M81.6,24.1c-2.3,0-5,1.6-5,1.6v-1.1h-5.3v20h5.4V29.6c0,0,1.8-0.7,3.6-0.7c2.6,0,3,2,3,5v10.7h5.4V33.7
		C88.7,27.6,87.2,24.1,81.6,24.1z"/>
	<rect x="92.4" y="24.6" fill="#FFFFFF" width="5.4" height="20"/>
	<rect x="92.4" y="16.6" fill="#FFFFFF" width="5.4" height="5.4"/>
	<path fill="#FFFFFF" d="M160.9,42V30.5c0-4.1-1.8-6.2-5.8-6.2c-3.2,0-7.7,0.7-7.7,0.7l0.1,1.3c0,0,4.6-0.7,7.6-0.7
		c2.9,0,4.4,1.4,4.4,4.9v2.1l-7.6,0.8c-3.9,0.4-5.5,2.4-5.5,5.8c0,3.9,2,5.8,5.2,5.8c4,0,8.1-1.7,8.1-1.7c0.9,1.2,2.4,1.7,4.1,1.7
		l0.1-1.2C162.5,43.5,161,43.1,160.9,42z M159.5,42c0,0-4.1,1.6-7.8,1.6c-2.4,0-3.8-1.6-3.8-4.6c0-2.8,1.1-4.2,4.2-4.5l7.4-0.8V42z"
		/>
	<path fill="#FFFFFF" d="M172.7,43.7c-3.2,0-3.7-1.4-3.7-7.4V25.9h7.3v-1.3H169v-6.5h-1.4v6.5h-3.2v1.3h3.2v12
		c0,5.8,1.4,7.1,5.1,7.1c1.4,0,4-0.3,4-0.3l-0.1-1.3C176.6,43.4,173.8,43.7,172.7,43.7z"/>
	<path fill="#FFFFFF" d="M192.4,42V30.5c0-4.1-1.8-6.2-5.8-6.2c-3.2,0-7.7,0.7-7.7,0.7l0.1,1.3c0,0,4.6-0.7,7.6-0.7
		c2.9,0,4.4,1.4,4.4,4.9v2.1l-7.6,0.8c-3.9,0.4-5.5,2.4-5.5,5.8c0,3.9,2,5.8,5.2,5.8c4,0,8.1-1.7,8.1-1.7c0.9,1.2,2.4,1.7,4.1,1.7
		l0.1-1.2C194,43.5,192.5,43.1,192.4,42z M191,42c0,0-4.1,1.6-7.8,1.6c-2.4,0-3.8-1.6-3.8-4.6c0-2.8,1.1-4.2,4.2-4.5l7.4-0.8V42z"/>
	<polygon fill="#FFFFFF" points="199.9,16.6 198.4,16.6 198.4,44.6 213.5,44.6 213.5,43.2 199.9,43.2 	"/>
	<path fill="#FFFFFF" d="M229.5,42V30.5c0-4.1-1.8-6.2-5.8-6.2c-3.2,0-7.7,0.7-7.7,0.7l0.1,1.3c0,0,4.6-0.7,7.6-0.7
		c2.9,0,4.4,1.4,4.4,4.9v2.1l-7.6,0.8c-3.9,0.4-5.5,2.4-5.5,5.8c0,3.9,2,5.8,5.2,5.8c4,0,8.1-1.7,8.1-1.7c0.9,1.2,2.4,1.7,4.1,1.7
		l0.1-1.2C231.1,43.5,229.6,43.1,229.5,42z M228.1,42c0,0-4.1,1.6-7.8,1.6c-2.4,0-3.8-1.6-3.8-4.6c0-2.8,1.1-4.2,4.2-4.5l7.4-0.8V42
		z"/>
	<path fill="#FFFFFF" d="M243.2,24.2c-3.6,0-6.9,1.6-6.9,1.6V15.4H235v29.2c0,0,3.2,0.4,6,0.4c7.4,0,9.1-3.2,9.1-10.7
		C250,27.4,248.7,24.2,243.2,24.2z M240.9,43.7c-1.4,0-4.5-0.2-4.5-0.2V27.1c0,0,3.3-1.6,6.9-1.6c4.4,0,5.3,2.8,5.3,8.8
		C248.6,40.7,247.6,43.7,240.9,43.7z"/>
	<path fill="#FFFFFF" d="M135.4,16.8l15.8-15.8L150.2,0l-31.3,31.3c-0.7-4.4-3.3-7.2-8.9-7.2c-7,0-9.2,4.3-9.2,10.4
		c0,4.7,1.4,8.3,5.1,9.8L89.5,60.6l1.1,1.1l32.6-32.6v15.5h10.4c7,0,9.4-7.3,9.4-14.3C143,23.9,141,17.9,135.4,16.8z M106.1,34.5
		c0-3.9,0.8-5.9,3.8-5.9s3.8,2,3.8,5.9c0,0.8,0,1.5-0.1,2.1l-3.9,3.9C106.9,40.4,106.1,38.3,106.1,34.5z M133.6,43.2h-9V27.6
		l9.6-9.6c5.5,0.5,7.2,6.5,7.2,12.2C141.4,36.3,139.6,43.2,133.6,43.2z"/>
</g>
</svg>
