<?xml version="1.0" encoding="utf-8"?>
<!-- Generator: Adobe Illustrator 18.0.0, SVG Export Plug-In . SVG Version: 6.00 Build 0)  -->
<!DOCTYPE svg PUBLIC "-//W3C//DTD SVG 1.1//EN" "http://www.w3.org/Graphics/SVG/1.1/DTD/svg11.dtd">
<svg version="1.1" id="Capa_1" xmlns="http://www.w3.org/2000/svg" xmlns:xlink="http://www.w3.org/1999/xlink" x="0px" y="0px"
	 viewBox="-10 339.9 615 165" enable-background="new -10 339.9 615 165" xml:space="preserve">
<g>
	<path fill="#D62927" d="M0,388.9h22.4L33.8,436l11.4-47.1h22.4v64.7H54.5v-50h-1.4l-12.6,47.1H27.2l-12.6-47.1h-1.4v50H0V388.9z"/>
	<path fill="#D62927" d="M78.1,387h12.7v12.9H78.1V387z M78.1,406.1h12.7v47.5H78.1V406.1z"/>
	<path fill="#D62927" d="M100.9,387h12.7v66.6h-12.7V387z"/>
	<path fill="#D62927" d="M161.3,442.7l0.2,9.4c0,0-10.9,2.7-19.8,2.7c-14.3,0-20.5-7.1-20.5-24.3c0-17,7.1-25.6,21.1-25.6
		s20.8,7.1,20.8,21.5l-0.9,8.8h-28c0.1,5.7,2.7,8.2,9.6,8.2C151.6,443.5,161.3,442.7,161.3,442.7z M150.4,425.5
		c0-7.7-2.2-10.1-8.2-10.1c-6.1,0-8.2,2.9-8.3,10.1H150.4z"/>
	<path fill="#D62927" d="M169.8,453.6v-47.5h12.6v2.6c0,0,6.4-3.8,11.9-3.8c13.3,0,16.8,8.3,16.8,23v25.8h-12.7v-25.4
		c0-7.2-0.9-11.9-7.1-11.9c-4.5,0-8.6,1.7-8.6,1.7v35.6C182.6,453.6,169.8,453.6,169.8,453.6z"/>
	<path fill="#D62927" d="M220.1,387h12.7v12.9h-12.7V387z M220.1,406.1h12.7v47.5h-12.7V406.1z"/>
	<path fill="#D62927" d="M261.6,443.9c-7,0-8.9-5-8.9-14.1c0-9.2,1.9-13.9,8.9-13.9s8.9,4.7,8.9,13.9c0,2.1-0.1,3.9-0.3,5.5
		l12.7-12.7c-1.7-10.6-7.6-17.7-21.3-17.7c-16.5,0-22,10.2-22,24.9c0,11.4,3.3,20.2,12.5,23.5L261.6,443.9z"/>
	<g>
		<path d="M383,447.4V420c0-9.8-4.3-14.8-13.8-14.8c-7.6,0-18.3,1.7-18.3,1.7l0.3,3.1c0,0,11-1.6,18-1.6s10.5,3.3,10.5,11.6v4.9
			l-18.1,1.9c-9.3,0.9-13.1,5.6-13.1,13.7c0,9.2,4.6,13.8,12.4,13.8c9.5,0,19.3-4.1,19.3-4.1c2.1,2.9,5.7,4,9.8,4l0.2-2.9
			C386.9,451.1,383.3,450.2,383,447.4z M379.7,447.5c0,0-9.7,3.9-18.7,3.9c-5.8,0-9-3.9-9-10.8c0-6.5,2.6-10,10-10.7l17.7-1.8V447.5
			z"/>
		<path d="M411.1,451.5c-7.7,0-8.7-3.3-8.7-17.6v-24.9h17.4v-3h-17.4v-15.5h-3.3v15.5h-7.5v3h7.5v28.6c0,13.7,3.4,17,12,17
			c3.3,0,9.6-0.8,9.6-0.8l-0.3-3C420.4,450.8,413.7,451.5,411.1,451.5z"/>
		<path d="M458,447.4V420c0-9.8-4.3-14.8-13.8-14.8c-7.6,0-18.3,1.7-18.3,1.7l0.3,3.1c0,0,11-1.6,18-1.6s10.5,3.3,10.5,11.6v4.9
			l-18.1,1.9c-9.3,0.9-13.1,5.6-13.1,13.7c0,9.2,4.6,13.8,12.4,13.8c9.5,0,19.3-4.1,19.3-4.1c2.1,2.9,5.7,4,9.8,4l0.2-2.9
			C461.8,451.1,458.3,450.2,458,447.4z M454.7,447.5c0,0-9.7,3.9-18.7,3.9c-5.8,0-9-3.9-9-10.8c0-6.5,2.6-10,10-10.7l17.7-1.8V447.5
			z"/>
		<polygon points="475.8,387 472.4,387 472.4,453.6 508.2,453.6 508.2,450.4 475.8,450.4 		"/>
		<path d="M546.3,447.4V420c0-9.8-4.3-14.8-13.8-14.8c-7.6,0-18.3,1.7-18.3,1.7l0.3,3.1c0,0,11-1.6,18-1.6S543,411.7,543,420v4.9
			l-18.1,1.9c-9.3,0.9-13.1,5.6-13.1,13.7c0,9.2,4.6,13.8,12.4,13.8c9.5,0,19.3-4.1,19.3-4.1c2.1,2.9,5.7,4,9.8,4l0.2-2.9
			C550.1,451.1,546.6,450.2,546.3,447.4z M543,447.5c0,0-9.7,3.9-18.7,3.9c-5.8,0-9-3.9-9-10.8c0-6.5,2.6-10,10-10.7L543,428V447.5z
			"/>
		<path d="M579.1,405.1c-8.4,0-16.3,3.8-16.3,3.8v-24.8h-3.3v69.4c0,0,7.7,0.9,14.1,0.9c17.7,0,21.7-7.6,21.7-25.4
			C595.3,412.7,592.1,405.1,579.1,405.1z M573.5,451.4c-3.3,0-10.7-0.6-10.7-0.6V412c0,0,7.9-3.8,16.3-3.8
			c10.5,0,12.6,6.7,12.6,20.9C591.8,444.4,589.4,451.4,573.5,451.4z"/>
		<path d="M322.5,387.6l37.5-37.5l-2.5-2.6L213.1,491.8l2.5,2.5l77.7-77.6v36.9h24.8c16.8,0,22.3-17.4,22.3-34.1
			C340.3,404.3,335.7,390.1,322.5,387.6z M318.1,450.4h-21.3v-37.1l22.8-22.8c13,1.1,17.2,15.3,17.2,29.1
			C336.7,433.8,332.4,450.4,318.1,450.4z"/>
	</g>
</g>
</svg>
